<svg id="Capa_1" data-name="Capa 1" xmlns="http://www.w3.org/2000/svg" viewBox="0 0 80.05 80.05"><defs><style>.cls-1{fill:#b8d3ce;}</style></defs><g id="Grupo_377" data-name="Grupo 377"><path id="Trazado_684" data-name="Trazado 684" class="cls-1" d="M56.16,25.74H23.89L40,39.57Z"/><path id="Trazado_685" data-name="Trazado 685" class="cls-1" d="M40,42.88a1.4,1.4,0,0,1-.93-.35L21.45,27.41v26.9H58.59V27.41L41,42.53A1.4,1.4,0,0,1,40,42.88Z"/><path id="Trazado_686" data-name="Trazado 686" class="cls-1" d="M40,0A40,40,0,1,0,80,40,40,40,0,0,0,40,0ZM61.45,55.73A1.43,1.43,0,0,1,60,57.16H20a1.43,1.43,0,0,1-1.43-1.43h0V24.31A1.43,1.43,0,0,1,20,22.88H60a1.43,1.43,0,0,1,1.43,1.43h0Z"/></g></svg>