<svg id="Capa_1" data-name="Capa 1" xmlns="http://www.w3.org/2000/svg" viewBox="0 0 80.05 80.05"><defs><style>.cls-1{fill:#b8d3ce;}</style></defs><g id="Grupo_374" data-name="Grupo 374"><g id="Grupo_373" data-name="Grupo 373"><path id="Trazado_683" data-name="Trazado 683" class="cls-1" d="M68.31,11.74a40,40,0,0,0-56.57,0h0a40,40,0,0,0,0,56.56h0a40,40,0,0,0,56.56,0h0a40,40,0,0,0,0-56.56Zm-7.7,44h0l-2,2a10.66,10.66,0,0,1-10.06,2.88A35.74,35.74,0,0,1,38.21,56a47.84,47.84,0,0,1-8.12-6.55A48,48,0,0,1,24,42.11a37.09,37.09,0,0,1-4.56-9.23A10.65,10.65,0,0,1,22.13,22l2.38-2.37a1.68,1.68,0,0,1,2.39,0h0l7.49,7.49a1.69,1.69,0,0,1,0,2.39h0L30,33.91a3.59,3.59,0,0,0-.37,4.67,51.33,51.33,0,0,0,5.26,6.14,50.79,50.79,0,0,0,6.94,5.83,3.61,3.61,0,0,0,4.61-.4l4.25-4.32a1.7,1.7,0,0,1,2.4,0h0l7.51,7.52a1.69,1.69,0,0,1,0,2.39Z"/></g></g></svg>