<?xml version="1.0" encoding="utf-8"?>
<!-- Generator: Adobe Illustrator 24.1.2, SVG Export Plug-In . SVG Version: 6.00 Build 0)  -->
<svg version="1.1" id="Capa_1" xmlns="http://www.w3.org/2000/svg" xmlns:xlink="http://www.w3.org/1999/xlink" x="0px" y="0px"
	 viewBox="0 0 110 91" style="enable-background:new 0 0 110 91;" xml:space="preserve">
<style type="text/css">
	.st0{fill:#DFDFDF;}
</style>
<g id="Grupo_1150">
	<path id="Rectángulo_114" class="st0" d="M11,0h88c6.1,0,11,4.9,11,11v69c0,6.1-4.9,11-11,11H11C4.9,91,0,86.1,0,80V11
		C0,4.9,4.9,0,11,0z"/>
	<g id="Grupo_510">
		<path id="Trazado_1114" d="M60.5,66.8c0,0.3-0.2,0.5-0.5,0.5H43.5c-0.3,0-0.5-0.2-0.5-0.5c0-0.3,0.2-0.5,0.5-0.5
			c0.9,0,1.7-0.3,2.3-1c0.8-1.2,1.1-2.6,1-4h9.9c-0.1,1.4,0.2,2.8,1,4c0.6,0.6,1.4,1,2.3,0.9C60.3,66.3,60.5,66.5,60.5,66.8z
			 M74.7,19H28.9c-2.7,0-4.9,2.2-4.9,4.9c0,0,0,0,0,0l0,0v31.6c0,2.7,2.2,4.9,4.9,4.9h0h31.2v-6.1H28.9c-0.7,0-1.2-0.6-1.2-1.2V23.9
			c0-0.7,0.5-1.2,1.2-1.2c0,0,0,0,0,0h45.8c0.7,0,1.2,0.5,1.2,1.2c0,0,0,0,0,0v14h3.7v-14C79.6,21.2,77.4,19,74.7,19L74.7,19z
			 M51.8,56c0.7,0,1.3,0.6,1.3,1.3s-0.6,1.3-1.3,1.3s-1.3-0.6-1.3-1.3l0,0C50.5,56.6,51,56,51.8,56z"/>
		<path id="Trazado_1115" d="M74.9,23.9v3.8H28.7v-3.8c0-0.1,0.1-0.2,0.2-0.2h45.8C74.8,23.7,74.9,23.8,74.9,23.9z"/>
		<rect id="Rectángulo_242" x="52.7" y="30.7" width="18.2" height="1"/>
		<path id="Trazado_1116" d="M48.4,32.2v4.5c0,0.6-0.4,1-1,1H33.1c-0.6,0-1-0.4-1-1v-4.5c0-0.6,0.4-1,1-1h14.3
			C47.9,31.2,48.4,31.7,48.4,32.2z"/>
		<rect id="Rectángulo_243" x="52.7" y="34" width="18.2" height="1"/>
		<rect id="Rectángulo_244" x="52.7" y="37.2" width="5.7" height="1"/>
		<path id="Trazado_1117" d="M56.9,42.2v8.2c0,0.6-0.4,1-1,1h-8.2c-0.6,0-1-0.4-1-1v-8.2c0-0.6,0.4-1,1-1h8.2
			C56.4,41.2,56.9,41.7,56.9,42.2L56.9,42.2z M42.3,42.2v8.2c0,0.6-0.4,1-1,1H33c-0.6,0-1-0.4-1-1v-8.2c0-0.6,0.4-1,1-1h8.2
			C41.8,41.2,42.3,41.7,42.3,42.2L42.3,42.2L42.3,42.2z M84,38.9H64.1c-1.7,0-3,1.3-3,3v28c0,1.7,1.3,3,3,3H84c1.7,0,3-1.3,3-3l0,0
			V42C87,40.3,85.6,39,84,38.9L84,38.9z M73.5,71.7c-0.6,0-1.1-0.5-1.1-1.1c0-0.6,0.5-1.1,1.1-1.1c0.6,0,1.1,0.5,1.1,1.1
			c0,0,0,0,0,0C74.6,71.2,74.1,71.7,73.5,71.7z M84.7,67.4c0,0.6-0.4,1-1,1H64.3c-0.6,0-1-0.4-1-1V42.5c0-0.6,0.4-1,1-1h19.4
			c0.6,0,1,0.4,1,1v25L84.7,67.4z"/>
		<rect id="Rectángulo_245" x="66.4" y="49.4" width="15.2" height="9.4"/>
		<rect id="Rectángulo_246" x="66.4" y="44.2" width="15.2" height="2.5"/>
		<rect id="Rectángulo_247" x="66.4" y="64.3" width="12.3" height="1"/>
		<rect id="Rectángulo_248" x="66.4" y="61.3" width="15.2" height="1"/>
	</g>
</g>
</svg>
