<?xml version="1.0" encoding="utf-8"?>
<!-- Generator: Adobe Illustrator 24.1.2, SVG Export Plug-In . SVG Version: 6.00 Build 0)  -->
<svg version="1.1" id="Capa_1" xmlns="http://www.w3.org/2000/svg" xmlns:xlink="http://www.w3.org/1999/xlink" x="0px" y="0px"
	 viewBox="0 0 110 91" style="enable-background:new 0 0 110 91;" xml:space="preserve">
<style type="text/css">
	.st0{fill:#DFDFDF;}
	.st1{fill:none;}
	.st2{opacity:0.1;enable-background:new    ;}
</style>
<g id="Grupo_1152">
	<path id="Rectángulo_116" class="st0" d="M11,0h88c6.1,0,11,4.9,11,11v69c0,6.1-4.9,11-11,11H11C4.9,91,0,86.1,0,80V11
		C0,4.9,4.9,0,11,0z"/>
	<g id="Grupo_511">
		<path id="Trazado_2676" class="st1" d="M27.9,17.4h52.1c1.7,0,3,1.3,3,3v25c0,1.7-1.3,3-3,3H27.9c-1.7,0-3-1.3-3-3v-25
			C24.9,18.8,26.3,17.4,27.9,17.4C27.9,17.4,27.9,17.4,27.9,17.4z"/>
		<circle id="Elipse_186" class="st1" cx="63.7" cy="55.2" r="16.5"/>
		<path id="Trazado_1118" class="st2" d="M36.6,30.5h-1.9c-0.6,0-1-0.4-1-1v-1.9c0-0.6,0.4-1,1-1h4.9c1.1,0,2-0.8,2-1.9
			c0-1.1-0.8-2-1.9-2h-4.9c-2.7,0-4.8,2.2-4.8,4.8c0,0,0,0,0,0v2c0,2.7,2.2,4.8,4.8,4.9h1.9c0.6,0,1,0.4,1,1v1.9c0,0.6-0.4,1-1,1
			h-4.8c-1.1,0-1.9,0.9-1.9,1.9s0.9,1.9,1.9,1.9h4.8c2.7,0,4.8-2.2,4.8-4.9v-1.9C41.4,32.7,39.3,30.5,36.6,30.5L36.6,30.5z"/>
		<path id="Trazado_1119" class="st2" d="M80.2,17.4H27.8c-1.2,0-2.2,0.7-2.7,1.8c0.2-0.2,0.5-0.4,0.8-0.4h52.3c0.6,0,1,0.4,1,1
			v25.2c0,0.6-0.4,1-1,1c0,0,0,0-0.1,0H78c-1.2-2.2-2.8-4.1-4.7-5.7c0.7-0.9,1.1-1.9,1.1-3.1v-9.7c0-2.7-2.2-4.8-4.8-4.8l0,0h-3.9
			c-2.7,0-4.8,2.2-4.8,4.8v8.8c-2.5,0.1-5,0.8-7.2,1.9h-3.4c-0.6,0-1-0.4-1-1v-2.9H55c1.1,0.1,2-0.7,2.1-1.8c0.1-1.1-0.7-2-1.8-2.1
			c-0.1,0-0.2,0-0.3,0h-5.9v-2.9c0-0.6,0.4-1,1-1H55c1.1,0,2-0.8,2-1.9c0-1.1-0.8-2-1.9-2l0,0h-4.9c-2.7,0-4.8,2.2-4.8,4.8v9.7
			c0,2.1,1.3,3.9,3.3,4.6c-1.2,1.2-2.3,2.6-3.1,4.1H25.9c-0.6,0-1-0.4-1-1c-0.2,1.6,0.9,3.1,2.5,3.4h0.4h20.8
			c3.4-7,12.5-10.6,20-6.5c8.4,4.3,10.3,16.3,3.5,23C63.3,74,47.4,67.7,47.2,55c-0.1,9.1,7.2,16.5,16.2,16.7c0,0,0,0,0,0h0.2
			c11.9,0.2,19.9-12.8,15-23.3h1.5c1.7,0,3-1.4,2.9-3.1c0,0,0,0,0,0c0-0.1,0-0.2,0-0.3V20.3C83.1,18.7,81.8,17.4,80.2,17.4
			L80.2,17.4L80.2,17.4z M70.5,37.3c-0.2,1.4-1,0.7-1.8,0.4c-1.3-0.5-2.6-0.9-4-1.1v-9c0-0.6,0.4-1,1-1h3.8c0.6,0,1,0.4,1,1V37.3z"
			/>
		<path id="Trazado_1120" d="M36.6,26.6h4.8c1.1,0,2-0.8,2-1.9c0-1.1-0.8-2-1.9-2l0,0h-4.9c-2.7,0-4.8,2.2-4.8,4.8c0,0,0,0,0,0v1.9
			c0,2.7,2.2,4.8,4.8,4.9h1.9c0.6,0,1,0.4,1,1v1.9c0,0.6-0.4,1-1,1h-4.8c-1.1,0-1.9,0.9-1.9,1.9s0.9,1.9,1.9,1.9h4.8
			c2.7,0,4.8-2.2,4.8-4.9v-1.9c0-2.7-2.1-4.9-4.8-4.9c0,0,0,0,0,0h-1.9c-0.6,0-1-0.4-1-1v-1.9C35.6,27,36,26.6,36.6,26.6z"/>
		<path id="Trazado_1121" d="M85,45V19.8c0-2.7-2.2-4.8-4.8-4.8l0,0H27.8c-2.7,0-4.8,2.2-4.8,4.8c0,0,0,0,0,0V45
			c0,2.7,2.2,4.8,4.8,4.8H46c-3.3,11.4,5.8,23.4,17.7,23.3c4.2,0,8.3-1.4,11.6-4.1l6.4,6.4c0.8,0.7,2,0.7,2.7-0.1
			c0.7-0.7,0.7-1.9,0-2.6l0,0L78,66.3c3.8-4.6,5-10.8,3.4-16.6C83.5,49.1,85,47.2,85,45z M26.9,45V19.8c0-0.6,0.4-1,1-1h52.3
			c0.6,0,1,0.4,1,1V45c0,0.6-0.4,1-1,1c0,0,0,0-0.1,0H80c-1.2-2.2-2.8-4.1-4.7-5.7c0.7-0.9,1.1-1.9,1.1-3.1v-9.7
			c0-2.7-2.2-4.8-4.8-4.8l0,0h-3.9c-2.7,0-4.8,2.2-4.8,4.8c0,0,0,0,0,0v8.8c-2.5,0.1-5,0.8-7.2,1.9h-3.4c-0.6,0-1-0.4-1-1v-2.9H57
			c1.1,0,2-0.8,2-1.9c0-1.1-0.8-2-1.9-2l0,0h-5.9v-2.9c0-0.6,0.4-1,1-1H57c1.1,0,1.9-0.9,1.9-1.9s-0.9-1.9-1.9-1.9h-4.8
			c-2.7,0-4.8,2.2-4.8,4.8c0,0,0,0,0,0v9.7c0,2.1,1.3,3.9,3.3,4.6c-1.2,1.2-2.3,2.7-3.1,4.2H27.8C27.3,46,26.9,45.6,26.9,45z
			 M66.6,36.5v-9c0-0.6,0.4-1,1-1h3.9c0.6,0,1,0.4,1,1v9.7c-0.2,1.4-1,0.7-1.8,0.4C69.3,37.1,68,36.7,66.6,36.5z M74.1,64.8
			c-8.9,9.3-25,2.8-24.9-10.1c-0.2-10.8,11.9-18,21.4-12.8C79,46.2,80.8,58.2,74.1,64.8L74.1,64.8z"/>
	</g>
</g>
</svg>
