<?xml version="1.0" encoding="utf-8"?>
<!-- Generator: Adobe Illustrator 24.1.2, SVG Export Plug-In . SVG Version: 6.00 Build 0)  -->
<svg version="1.1" id="Capa_1" xmlns="http://www.w3.org/2000/svg" xmlns:xlink="http://www.w3.org/1999/xlink" x="0px" y="0px"
	 viewBox="0 0 110 91" style="enable-background:new 0 0 110 91;" xml:space="preserve">
<style type="text/css">
	.st0{fill:#DFDFDF;}
</style>
<g id="Grupo_1153">
	<path id="Rectángulo_117" class="st0" d="M11,0h88c6.1,0,11,4.9,11,11v69c0,6.1-4.9,11-11,11H11C4.9,91,0,86.1,0,80V11
		C0,4.9,4.9,0,11,0z"/>
	<path id="Trazado_1122" d="M55,14c10.9,0,21,5.7,26.7,14.9h-27c-6.9,0.2-13,4.8-14.9,11.5l-8.6-15.2C37,18,45.8,13.9,55,14z
		 M55,55.9c-5.9,0-10.6-4.7-10.6-10.6v0c0-5.9,4.7-10.8,10.6-10.9c5.9,0,10.6,4.7,10.6,10.6l0,0c0.2,5.8-4.3,10.7-10.1,10.9L55,55.9
		z M49.8,75.7C35,73,24.1,60.1,24,45c0-5.3,1.4-10.6,4-15.2L40.3,51c2.5,5.9,8.2,9.7,14.7,9.8c1.3,0,2.5-0.2,3.7-0.6L49.8,75.7
		L49.8,75.7z M55.3,76l12.3-21.2c2.2-2.8,3.4-6.2,3.4-9.8c0-4.2-1.6-8.2-4.6-11.2h17.8c1.4,3.6,2.1,7.4,2,11.2
		C86,62,72.2,76,55.3,76L55.3,76z"/>
</g>
</svg>
