<?xml version="1.0" encoding="utf-8"?>
<!-- Generator: Adobe Illustrator 24.1.2, SVG Export Plug-In . SVG Version: 6.00 Build 0)  -->
<svg version="1.1" id="Capa_1" xmlns="http://www.w3.org/2000/svg" xmlns:xlink="http://www.w3.org/1999/xlink" x="0px" y="0px"
	 viewBox="0 0 110 91" style="enable-background:new 0 0 110 91;" xml:space="preserve">
<style type="text/css">
	.st0{fill:#DFDFDF;}
</style>
<g id="Grupo_1154">
	<path id="Rectángulo_121" class="st0" d="M11,0h88c6.1,0,11,4.9,11,11v69c0,6.1-4.9,11-11,11H11C4.9,91,0,86.1,0,80V11
		C0,4.9,4.9,0,11,0z"/>
	<g id="Grupo_512">
		<path id="Trazado_1123" d="M65.2,76.4H44.4C38.7,76.4,34,71.7,34,66V47.8c0-5.7,4.7-10.4,10.4-10.4h20.8c5.7,0,10.4,4.7,10.4,10.4
			V66C75.6,71.7,70.9,76.4,65.2,76.4z M44.4,42.6c-2.9,0-5.2,2.3-5.2,5.2V66c0,2.9,2.3,5.2,5.2,5.2h20.8c2.9,0,5.2-2.3,5.2-5.2V47.8
			c0-2.9-2.3-5.2-5.2-5.2L44.4,42.6z"/>
		<path id="Trazado_1124" d="M67.8,42.6h-26c-1.4,0.1-2.5-0.9-2.6-2.3c0,0,0,0,0,0c0-0.1,0-0.2,0-0.3V29.6c0-8.6,7-15.6,15.6-15.6
			c8.5-0.1,15.5,6.8,15.6,15.4V40c0.1,1.4-1,2.5-2.3,2.6L67.8,42.6z M44.4,37.4h20.8v-7.8c0.1-5.7-4.5-10.5-10.3-10.5
			c-5.6-0.1-10.3,4.3-10.5,10c0,0.2,0,0.4,0,0.6V37.4z"/>
		<circle id="Elipse_187" cx="54.8" cy="53.2" r="5"/>
		<path id="Trazado_1125" d="M54.8,66c-1.4,0.1-2.5-0.9-2.6-2.3v-8.1c-0.1-1.4,0.9-2.5,2.3-2.6h0.3c1.4-0.1,2.5,0.9,2.6,2.3
			c0,0,0,0,0,0c0,0.1,0,0.2,0,0.3v7.8c0.1,1.4-0.9,2.5-2.3,2.6c0,0,0,0,0,0H54.8z"/>
	</g>
</g>
</svg>
