<?xml version="1.0" encoding="utf-8"?>
<!-- Generator: Adobe Illustrator 24.1.2, SVG Export Plug-In . SVG Version: 6.00 Build 0)  -->
<svg version="1.1" id="Capa_1" xmlns="http://www.w3.org/2000/svg" xmlns:xlink="http://www.w3.org/1999/xlink" x="0px" y="0px"
	 viewBox="0 0 110 91" style="enable-background:new 0 0 110 91;" xml:space="preserve">
<style type="text/css">
	.st0{fill:#DFDFDF;}
</style>
<g id="Grupo_1155">
	<path id="Rectángulo_119" class="st0" d="M11,0h88c6.1,0,11,4.9,11,11v69c0,6.1-4.9,11-11,11H11C4.9,91,0,86.1,0,80V11
		C0,4.9,4.9,0,11,0z"/>
	<path id="Trazado_1126" d="M93.7,70.4V18.6c0.1-1.3-0.8-2.4-2.1-2.6H19.2c-1.5,0.2-2.2,1.2-2.2,3v54c0,1.4,1.1,2.6,2.5,2.7H91
		c1.4,0.1,2.6-1,2.7-2.3V73C93.7,72.2,93.7,71.3,93.7,70.4z M41.1,18.9c1.7,0,3.1,1.4,3.1,3.2s-1.4,3.1-3.2,3.1
		c-1.7,0-3.1-1.4-3.1-3.1l0,0C38,20.3,39.4,18.9,41.1,18.9L41.1,18.9z M32.4,18.9c1.7,0,3.1,1.4,3.1,3.2s-1.4,3.1-3.2,3.1
		c-1.7,0-3.1-1.4-3.1-3.1C29.3,20.3,30.7,18.9,32.4,18.9z M20.5,22c0-1.7,1.4-3.1,3.2-3.1c1.7,0,3.1,1.4,3.1,3.1
		c0,1.7-1.4,3.1-3.1,3.1l0,0C22,25.1,20.6,23.7,20.5,22z M88.5,67.9c0.2,1.4-0.8,2.6-2.2,2.7c-0.2,0-0.4,0-0.6,0H25.1
		c-1.5,0.1-2.9-1-3-2.6c0,0,0,0,0,0c0-0.1,0-0.3,0-0.4c0.1-12.7,0-16.4,0-29.1v-7.7c-0.2-1.4,0.8-2.7,2.2-2.9c0,0,0,0,0,0
		c0.2,0,0.4,0,0.7,0h60.6c1.4-0.2,2.7,0.8,2.9,2.2c0,0,0,0,0,0c0,0.2,0,0.5,0,0.7C88.5,46.2,88.5,52.6,88.5,67.9L88.5,67.9z
		 M89.5,22c0,1-0.8,1.8-1.8,1.8H57.1c-1,0-1.8-0.8-1.8-1.8l0,0c0-1,0.8-1.8,1.8-1.8h30.6C88.7,20.2,89.5,21,89.5,22L89.5,22z
		 M71.4,36.3v4.3c-0.4,0-0.8,0-1,0.5c-0.3,0.7-0.9,0.3-1.3,0.3s-0.3-0.4-0.3-0.7c0-1.6,0.1-3.1,0-4.8c0-0.2,0.1-0.4,0.3-0.4
		c0,0,0,0,0,0l0,0h0.3c0.4,0,0.8-0.1,1,0.5C70.5,36.3,70.9,36.4,71.4,36.3L71.4,36.3z M83.7,40.6c0.1,0.5,0.1,1-0.1,1.5
		c-0.1,0.2-0.2,0.3-0.3,0.3c-0.1,0-0.2-0.1-0.3-0.2v-0.1c-0.6-1.5-2-1.9-3.5-2h-0.4v-3.6C81.1,36.3,83.4,37.5,83.7,40.6L83.7,40.6z
		 M78.4,36.5v4c-0.1,0.5-0.5,0.9-1,0.9h-5.3v-6h5.3C77.9,35.5,78.3,36,78.4,36.5L78.4,36.5z M77.6,60.8c0.1,0.6-0.1,1.2-0.6,1.7
		c-0.4,0.5-1,0.7-1.6,0.7c-0.6,0-1.1-0.2-1.5-0.7c-0.4-0.4-0.6-1-0.7-1.6c0.3-6.1,0.7-15.9,0.7-18.6H76
		C76.3,45.1,77.2,55.6,77.6,60.8L77.6,60.8z M36.4,46.9c0.4-0.1,0.7-0.5,0.7-1v-0.2c0-0.6-0.5-1-1-1h-6.6c-0.6,0-1,0.5-1,1v0.2
		c0,0.5,0.3,0.9,0.7,1c-0.7,1.2-1.3,2.5-1.8,3.8c-0.5,1.9-0.7,3.9-0.3,5.8c0.4,2.2,1.4,4.3,2.8,6.1c0.3,0.4,0.9,0.5,1.3,0.3
		c0,0,0.1-0.1,0.1-0.1c0.4-0.3,0.5-0.9,0.2-1.4c-2.3-2.9-3.1-6.6-2.1-10.2c0.5-1.6,1.3-3.1,2.3-4.4h2.2c1,1.3,1.8,2.8,2.3,4.4
		c1,3.5,0.3,6.9-2.1,10.2c-0.3,0.4-0.3,1,0.2,1.4c0.4,0.4,1,0.3,1.4-0.1c0,0,0,0,0,0l0,0c1.4-1.8,2.3-3.9,2.7-6.1
		C38.8,53.2,38.1,49.8,36.4,46.9L36.4,46.9z M32.8,46.5c-0.4,0-0.7-0.3-0.7-0.6s0.3-0.7,0.6-0.7c0.4,0,0.7,0.3,0.7,0.6c0,0,0,0,0,0
		l0,0C33.4,46.2,33.2,46.5,32.8,46.5z M36.1,43.4h-2.8V42c0.3-0.2,0.5-0.5,0.5-0.9c0-0.4-0.2-0.7-0.5-0.9V39h0.2
		c0.1,0,0.2-0.1,0.2-0.1c0,0,0,0,0,0c0-0.1-0.1-0.1-0.2-0.1h-0.2v-0.3h0.2c0.1,0,0.2-0.1,0.2-0.2c0-0.1-0.1-0.1-0.2-0.1h-0.2v-0.3
		h0.2c0.1,0,0.2-0.1,0.2-0.1c0,0,0,0,0,0c0-0.1-0.1-0.1-0.2-0.1h-0.2V37h0.2c0.1,0,0.2-0.1,0.2-0.2c0,0,0,0,0,0
		c0-0.1-0.1-0.1-0.2-0.1l0,0h-0.2v-1.2h1C34.3,35.5,37.5,39.8,36.1,43.4L36.1,43.4z M29.4,43.4c-0.5-2.9,0.4-5.8,2.3-8h0.6v1.2H32
		c-0.1,0-0.2,0.1-0.2,0.2c0,0.1,0.1,0.1,0.2,0.1h0.2v0.3H32c-0.1,0-0.2,0.1-0.2,0.2c0,0,0,0,0,0c0,0.1,0.1,0.1,0.2,0.1h0.2V38H32
		c-0.1,0-0.2,0-0.2,0.1c0,0,0,0,0,0c0,0.1,0.1,0.2,0.1,0.2h0.3v0.1l0,0v0.2H32c-0.1,0-0.2,0.1-0.2,0.2c0,0.1,0.1,0.1,0.2,0.1h0.2
		v1.2c-0.3,0.2-0.5,0.5-0.5,0.9c0,0.4,0.2,0.7,0.5,0.9v1.5L29.4,43.4z M54.6,49.9c-0.3,0.3-0.3,0.5-0.2,0.7c0.1,0.2,0.1,0.4-0.1,0.6
		l0,0c-0.1,0.1-0.2,0.1-0.3,0.1c-0.6,0-0.9,0.5-1.1,1c-0.1,0.4-0.4,0.7-0.6,1l-1,1c-0.3,0.2-0.4,0.4-0.7,0.6
		c-0.1,0.1-0.3,0.2-0.4,0.2l0,0c-0.4-0.1-0.7-0.3-0.9-0.6c-0.3-0.2-0.4-0.6-0.4-1c0-0.2,0.2-0.2,0.2-0.3c0.5-0.4,0.9-0.9,1.3-1.3
		c0.2-0.2,0.4-0.4,0.6-0.7c0.2-0.2,0.4-0.3,0.7-0.3c0.2-0.1,0.3-0.1,0.5-0.2c0.2-0.1,0.4-0.4,0.5-0.7c0-0.2,0.1-0.3,0.2-0.5
		c0.2-0.1,0.4-0.1,0.6,0.1c0.1,0,0.2,0,0.2-0.1l0.1-0.1c0.7-0.6,2.5-2.5,2.9-2.9c0.1-0.1,0.2-0.2,0.2-0.3c0.4-0.4,0.7-0.8,1-1.2
		c0.3-0.4,0.7-0.7,1.1-0.9c0.1,0,0.2-0.1,0.2-0.1s0.3,0,0.6,0.3c0.1,0.1,0.1,0.2,0.1,0.3c-0.2,0.4-0.4,0.8-0.7,1L59,45.8
		c-0.4,0.2-0.7,0.4-1,0.7c-0.4,0.3-1.4,1.4-2.2,2.2c-0.4,0.4-0.8,0.7-1.1,1.1L54.6,49.9z M60.6,52.6L60.6,52.6v0.2
		c0,0.1-0.1,0.1-0.2,0.1c-0.3,0-0.5-0.1-0.7-0.2c-0.4-0.2-0.9-0.4-1.1-0.2s-0.2,0.3-0.3,0.4c-0.1,0.3-0.2,0.5-0.2,0.6
		s0.2,0.2,0.5,0.3c0.1,0,0.1,0,0.2,0.1l0.5,0.3c0.2,0.1,0.3,0.2,0.3,0.4c0,0.2-0.2,0.3-0.3,0.3h-0.3c-0.6,0.1-1.2-0.1-1.7-0.5
		c-0.3-0.3-0.5-0.8-0.6-1.2c0-0.1-0.1-0.3-0.7-1.2c-0.4-0.5-0.8-1-1.2-1.5l-0.1-0.1l0.1-0.1l0,0c0.4-0.3,0.7-0.6,1-1l0.1-0.1
		l0.1,0.1c0.7,0.8,1.5,1.4,2.5,1.8c0.5,0,0.9,0.2,1.3,0.5C60.1,51.7,60.5,52.1,60.6,52.6L60.6,52.6z M49.1,45.7c0-0.1,0-0.2,0.1-0.2
		s0.2-0.1,0.2,0c0.3,0.1,0.4,0.2,0.7,0.3c0.1,0.1,0.2,0.1,0.2,0.2c0.2,0.1,0.4,0.2,0.7,0.1c0.2-0.1,0.3-0.3,0.4-0.5v-0.1
		c0.1-0.2,0.1-0.3,0.1-0.5c0-0.1-0.1-0.2-0.2-0.2l0,0c-0.3-0.2-0.7-0.4-1-0.6c-0.1,0-0.2-0.2-0.2-0.3c0,0,0,0,0,0l0,0
		c0.1-0.2,0.2-0.2,0.3-0.2c0.7-0.1,1.3,0.1,1.8,0.5c0.5,0.4,0.8,1,0.7,1.6c0,0.2,0.1,0.4,0.2,0.6c0.5,0.6,0.9,1.1,1.5,1.6l0.1,0.1
		l-0.1,0.1l-1,1l-0.2,0.2l0.1-0.2l-0.4-0.4c-0.3-0.3-0.6-0.6-0.9-0.8c-0.3-0.2-0.7-0.3-1-0.4c-0.5,0-0.9-0.2-1.3-0.6
		C49.5,46.7,49.2,46.2,49.1,45.7L49.1,45.7z M64.8,45c-0.3-0.6-0.6-1.3-1-1.9l2.1-2.2l-3.3-3.1L60.5,40c-0.5-0.3-1-0.6-1.5-0.8
		c-0.6-0.3-1.3-0.5-2-0.6v-3h-4.6v3c-0.7,0.1-1.4,0.4-2,0.6c-0.5,0.2-1,0.5-1.5,0.8l-2.1-2.2l-3.3,3.1l2.1,2.2
		c-0.4,0.6-0.7,1.2-1,1.9c-0.3,0.7-0.5,1.3-0.7,2h-3.1v4.6h3.1c0.1,0.7,0.4,1.4,0.7,2c0.3,0.6,0.6,1.3,1,1.9l-2.1,2.2l3.3,3.1
		l2.1-2.2c0.5,0.3,1,0.6,1.5,0.8c0.6,0.3,1.3,0.5,2,0.7v3.1H57V60c0.7-0.1,1.4-0.4,2-0.6c0.5-0.2,1-0.5,1.5-0.8l2.1,2.2l3.3-3.2
		l-2.1-2.2c0.4-0.6,0.8-1.2,1-1.9c0.3-0.6,0.5-1.3,0.7-2h3V47h-3C65.4,46.3,65.2,45.6,64.8,45L64.8,45z M54.6,57.4
		c-4.5,0-8.1-3.6-8.1-8.1c0-4.5,3.6-8.1,8.1-8.1c4.5,0,8.1,3.6,8.1,8.1C62.7,53.8,59.1,57.4,54.6,57.4
		C54.7,57.4,54.6,57.4,54.6,57.4L54.6,57.4z"/>
</g>
</svg>
