<?xml version="1.0" encoding="utf-8"?>
<!-- Generator: Adobe Illustrator 24.1.2, SVG Export Plug-In . SVG Version: 6.00 Build 0)  -->
<svg version="1.1" id="Capa_1" xmlns="http://www.w3.org/2000/svg" xmlns:xlink="http://www.w3.org/1999/xlink" x="0px" y="0px"
	 viewBox="0 0 110 91" style="enable-background:new 0 0 110 91;" xml:space="preserve">
<style type="text/css">
	.st0{fill:#DFDFDF;}
</style>
<g id="Grupo_1156">
	<path id="Rectángulo_120" class="st0" d="M11,0h88c6.1,0,11,4.9,11,11v69c0,6.1-4.9,11-11,11H11C4.9,91,0,86.1,0,80V11
		C0,4.9,4.9,0,11,0z"/>
	<g id="Grupo_513">
		<path id="Trazado_1127" d="M66.3,41.3C65.9,40,65,38.8,63.9,38l-0.7-0.5c-0.2-0.2-0.6-0.1-0.7,0.1l-0.6,0.9
			c-0.2,0.2-0.1,0.5,0.1,0.7c0,0,0,0,0,0l0.7,0.5c0.6,0.4,1.1,1,1.4,1.8c0.7,1.9-0.2,4-2.1,4.7c-0.4,0.2-0.9,0.2-1.3,0.2
			c-0.8,0-1.5-0.3-2.1-0.7L52,41.1c-0.6-0.4-1.1-1-1.4-1.8c-0.3-0.9-0.3-1.8,0-2.7l2.2,1.2c2.6,1.8,6.1,1.1,7.9-1.5c0,0,0,0,0,0
			c1.7-2.7,1-6.2-1.6-8L52.7,24c-1.1-0.8-2.5-1.2-3.9-1.1c-3.1,0.3-5.5,3-5.2,6.1c0,0.3,0.1,0.7,0.2,1c0.4,1.3,1.3,2.5,2.4,3.3
			l0.7,0.5c0.2,0.2,0.5,0.1,0.7-0.1c0,0,0,0,0,0l0.6-0.9c0.2-0.2,0.1-0.5-0.1-0.7c0,0,0,0,0,0l-0.7-0.5c-0.6-0.4-1.1-1-1.4-1.8
			c-0.7-1.9,0.2-4,2.1-4.7c0,0,0,0,0,0c0.4-0.2,0.9-0.2,1.3-0.2c0.8,0,1.5,0.3,2.1,0.7l6.5,4.6c1.4,1,2,2.8,1.4,4.5l-2.2-1.2
			c-2.6-1.8-6.2-1.1-7.9,1.5c-1,1.4-1.2,3.2-0.7,4.9c0.4,1.3,1.2,2.3,2.3,3.1l6.6,4.6c1,0.7,2.1,1,3.3,1c0.3,0,0.7,0,1-0.1
			c3.1-0.5,5.2-3.5,4.6-6.6c0,0,0,0,0,0C66.4,41.6,66.3,41.5,66.3,41.3L66.3,41.3z M53.4,34.5c0.9-0.2,1.9,0,2.7,0.6l0.1,0.1l2,1.1
			c-1.2,0.8-2.9,0.8-4.1,0L54,36.2l-2-1.1C52.4,34.8,52.9,34.6,53.4,34.5z"/>
		<path id="Trazado_1128" d="M83,18H27.1c-1.7,0-3.1,1.4-3.1,3.1v39.4c0,1.7,1.4,3.1,3.1,3.1c0,0,0,0,0,0h18.2l-1.8,4.1h23.3
			l-1.8-4.1H83c1.7,0,3.1-1.4,3.1-3.1V21.1C86.1,19.4,84.7,18,83,18z M56.1,58.9c0,0.3-0.2,0.5-0.5,0.5c0,0,0,0,0,0h-1
			c-0.3,0-0.5-0.2-0.5-0.5c0,0,0,0,0,0l0,0v-1c0-0.3,0.2-0.5,0.5-0.5c0,0,0,0,0,0h1c0.3,0,0.5,0.2,0.5,0.5c0,0,0,0,0,0l0,0V58.9z
			 M84.1,53.2h-58V21.1c0-0.6,0.4-1,1-1H83c0.6,0,1,0.4,1,1L84.1,53.2z M69.6,73.9h-29c-1.1,0-2.1-0.9-2.1-2.1l0,0
			c0-1.1,0.9-2.1,2.1-2.1l0,0h29c1.1,0,2.1,0.9,2.1,2c0,0,0,0,0,0l0,0C71.7,73,70.7,73.9,69.6,73.9L69.6,73.9L69.6,73.9z"/>
	</g>
</g>
</svg>
