<?xml version="1.0" encoding="utf-8"?>
<!-- Generator: Adobe Illustrator 24.1.2, SVG Export Plug-In . SVG Version: 6.00 Build 0)  -->
<svg version="1.1" id="Capa_1" xmlns="http://www.w3.org/2000/svg" xmlns:xlink="http://www.w3.org/1999/xlink" x="0px" y="0px"
	 viewBox="0 0 110 91" style="enable-background:new 0 0 110 91;" xml:space="preserve">
<style type="text/css">
	.st0{fill:#DFDFDF;}
</style>
<g id="Grupo_1157">
	<path id="Rectángulo_118" class="st0" d="M11,0h88c6.1,0,11,4.9,11,11v69c0,6.1-4.9,11-11,11H11C4.9,91,0,86.1,0,80V11
		C0,4.9,4.9,0,11,0z"/>
	<path id="Trazado_1129" d="M79.4,52.3l6.2-28.9H33.7L31.9,17h-6.7c-0.6,0-1.1,0.5-1.1,1.1s0.5,1.1,1.1,1.1h5l1.6,5.5l7.8,29.6h38.1
		c2.1,0.1,4.3,1,4.3,2.4c0,1.1-1.9,2.4-4.6,2.4H35.2c-0.6,0.1-1.1,0.6-1,1.2c0.1,0.5,0.5,1,1,1h42.1c3.9,0,6.9-2.1,6.9-4.7
		C84.2,54.3,82,52.8,79.4,52.3z M41.2,52.1l-3.3-12.6h19.5v12.6L41.2,52.1z M59.7,52.1V39.5h20.2l-2.7,12.6L59.7,52.1z M80.3,37.2
		H59.7V25.6h23.1L80.3,37.2z M57.4,25.6v11.6H37.3l-3-11.6L57.4,25.6z M48.9,62.7c-3.1,0-5.7,2.5-5.7,5.7s2.5,5.7,5.7,5.7
		s5.7-2.5,5.7-5.7l0,0C54.6,65.2,52.1,62.7,48.9,62.7C48.9,62.7,48.9,62.7,48.9,62.7L48.9,62.7z M48.9,71.8c-1.9,0-3.4-1.5-3.4-3.4
		s1.5-3.4,3.4-3.4s3.4,1.5,3.4,3.4l0,0l0,0C52.3,70.2,50.8,71.7,48.9,71.8L48.9,71.8z M72.8,62.7c-3.1,0-5.7,2.5-5.7,5.7
		s2.5,5.7,5.7,5.7s5.7-2.5,5.7-5.7l0,0C78.4,65.2,75.9,62.7,72.8,62.7C72.8,62.7,72.8,62.7,72.8,62.7L72.8,62.7z M72.8,71.8
		c-1.9,0-3.4-1.5-3.4-3.4s1.5-3.4,3.4-3.4s3.4,1.5,3.4,3.4l0,0l0,0C76.2,70.2,74.6,71.8,72.8,71.8L72.8,71.8z"/>
</g>
</svg>
