<?xml version="1.0" encoding="utf-8"?>
<!-- Generator: Adobe Illustrator 24.1.2, SVG Export Plug-In . SVG Version: 6.00 Build 0)  -->
<svg version="1.1" id="Capa_1" xmlns="http://www.w3.org/2000/svg" xmlns:xlink="http://www.w3.org/1999/xlink" x="0px" y="0px"
	 viewBox="0 0 1031.1 776.1" style="enable-background:new 0 0 1031.1 776.1;" xml:space="preserve">
<style type="text/css">
	.st0{fill:#2F2E41;}
	.st1{fill:#FFB8B8;}
	.st2{fill:#F2F2F2;}
	.st3{fill:#FFFFFF;}
	.st4{fill:#CCCCCC;}
	.st5{fill:#B7D3CE;}
	.st6{opacity:0.1;enable-background:new    ;}
	.st7{fill:#3F3D56;}
	.st8{fill:#FF6584;}
	.st9{fill:#A0616A;}
</style>
<g id="Grupo_509">
	<path id="Trazado_1062" class="st0" d="M572.9,132.2c6.4,13.7-7.2,17.6-22.8,24.9c-15.6,7.3-27.3,15.4-33.8,1.7
		c-6.4-13.7-11.7-40.9,10.5-51.3C549.5,96.8,566.5,118.5,572.9,132.2z"/>
	<circle id="Elipse_178" class="st1" cx="541" cy="138.1" r="21"/>
	<path id="Trazado_1063" class="st0" d="M645.2,231.4c-0.7-0.9-1.5-1.9-2.2-2.8c-1-1.2-1.9-2.3-2.9-3.4
		c-10.9-12.6-22.5-20.5-35.3-21.4h-0.2L579,228.6l-8.6,8.4l0.2,0.5l4.7,11.6h81.8C653.5,243,649.5,237.1,645.2,231.4z"/>
	<path id="Trazado_1064" class="st0" d="M518,146.6L518,146.6l7.5-3.5l-1-10.9l5,9l3.6-1.7l-0.6-6.3l2.9,5.2l26.8-12.6l0,0
		c-5.2-11.1-18.5-15.9-29.6-10.7l0,0l-3.9,1.9C517.7,122.2,512.9,135.5,518,146.6z"/>
	<path id="Trazado_1065" class="st2" d="M692.4,528.6H252.9c-7.8,0-14.1-6.3-14.1-14.1V250.4c0-5.7,4.6-10.4,10.3-10.4l0,0H696
		c5.8,0,10.5,4.7,10.5,10.5v263.9C706.5,522.3,700.2,528.6,692.4,528.6L692.4,528.6z"/>
	<path id="Trazado_1066" class="st3" d="M266.7,514.5h412.1c7.6,0,13.7-6.1,13.7-13.7V276.6c0-7.6-6.1-13.7-13.7-13.7H266.7
		c-7.6,0-13.7,6.1-13.7,13.7v224.2C252.8,508.3,259,514.5,266.7,514.5z"/>
	<path id="Trazado_1067" d="M706.4,249.6H238.6v-7.2c0-7.8,6.4-14.2,14.2-14.2h439.4c7.8,0,14.2,6.4,14.2,14.2V249.6z"/>
	<circle id="Elipse_179" class="st3" cx="264.3" cy="238.9" r="3.7"/>
	<circle id="Elipse_180" class="st3" cx="278.3" cy="238.9" r="3.7"/>
	<circle id="Elipse_181" class="st3" cx="292.3" cy="238.9" r="3.7"/>
	<path id="Trazado_1068" class="st4" d="M485.5,465.9h-36.8c-4.5,0-8.1-3.6-8.1-8.1v-36.9c0-4.5,3.7-8.1,8.1-8.1h36.8
		c4.5,0,8.1,3.6,8.1,8.1v36.9C493.7,462.2,490,465.9,485.5,465.9z M448.7,414.5c-3.5,0-6.4,2.9-6.4,6.4l0,0v36.9
		c0,3.5,2.9,6.4,6.4,6.4h36.8c3.5,0,6.4-2.9,6.4-6.4v-36.9c0-3.5-2.9-6.4-6.4-6.4l0,0H448.7z"/>
	<path id="Trazado_1069" class="st4" d="M478.3,455.6H456c-1.4,0-2.6-1.1-2.6-2.6v-27.4c0-1.4,1.2-2.6,2.6-2.6H472
		c0.6,0,1.2,0.2,1.6,0.6l6.1,4.9c0.6,0.5,0.9,1.2,0.9,2V453C480.8,454.4,479.7,455.6,478.3,455.6z M456,424.8
		c-0.5,0-0.9,0.4-0.9,0.9V453c0,0.5,0.4,0.9,0.8,0.9h22.3c0.5,0,0.9-0.4,0.9-0.9v-22.5c0-0.3-0.1-0.5-0.3-0.7l-6.1-4.9
		c-0.2-0.1-0.3-0.2-0.5-0.2L456,424.8z"/>
	<path id="Trazado_1070" class="st4" d="M474,435h-13.7c-0.5,0-0.8-0.4-0.8-0.9c0-0.4,0.3-0.7,0.7-0.8H474c0.5,0,0.8,0.5,0.8,0.9
		C474.7,434.7,474.4,435,474,435z"/>
	<path id="Trazado_1071" class="st4" d="M474,440.1h-13.7c-0.5,0-0.9-0.4-0.9-0.8c0-0.5,0.4-0.9,0.8-0.9H474c0.5,0,0.9,0.4,0.9,0.9
		C474.9,439.8,474.5,440.1,474,440.1z"/>
	<path id="Trazado_1072" class="st4" d="M474,445.3h-13.7c-0.5,0-0.8-0.4-0.8-0.9c0-0.4,0.3-0.7,0.7-0.8H474c0.5,0,0.8,0.5,0.8,0.9
		C474.7,444.9,474.4,445.3,474,445.3z"/>
	<path id="Trazado_1073" class="st4" d="M573,465.9H536c-4.5,0-8.1-3.6-8.1-8.1l0,0v-36.9c0-4.5,3.6-8.1,8.1-8.1l0,0H573
		c4.5,0,8.1,3.6,8.1,8.1l0,0v36.9C581,462.2,577.5,465.9,573,465.9z M536,414.5c-3.5,0-6.4,2.9-6.4,6.4v36.9c0,3.5,2.9,6.4,6.4,6.4
		H573c3.5,0,6.4-2.9,6.4-6.4v-36.9c0-3.5-2.9-6.4-6.4-6.4H536z"/>
	<path id="Trazado_1074" class="st4" d="M566.5,448.7h-24c-1.4,0-2.6-1.1-2.6-2.6v-13.7c0-1.4,1.2-2.6,2.6-2.6h24
		c1.4,0,2.6,1.1,2.6,2.6l0,0v13.7C569,447.6,568,448.7,566.5,448.7z M542.5,431.6c-0.5,0-0.8,0.4-0.8,0.9v13.7
		c0,0.5,0.4,0.9,0.8,0.9h24c0.5,0,0.8-0.4,0.8-0.9v-13.7c0-0.5-0.4-0.9-0.8-0.9H542.5z"/>
	<path id="Trazado_1075" class="st4" d="M554.5,441.6c-0.5,0-1-0.1-1.4-0.4l-12.8-8c-0.4-0.3-0.5-0.8-0.3-1.2
		c0.3-0.4,0.8-0.5,1.2-0.3l0,0l12.8,8c0.3,0.2,0.6,0.2,0.9,0l12.7-8c0.4-0.3,0.9-0.1,1.2,0.3s0.1,0.9-0.3,1.2l0,0l-12.8,8
		C555.5,441.4,555,441.6,554.5,441.6L554.5,441.6z"/>
	<path id="Trazado_1076" class="st4" d="M398.2,465.9h-36.8c-4.5,0-8.1-3.6-8.1-8.1v-36.9c0-4.5,3.7-8.1,8.1-8.1h36.8
		c4.5,0,8.1,3.6,8.1,8.1v36.9C406.3,462.2,402.5,465.9,398.2,465.9z M361.3,414.5c-3.5,0-6.4,2.9-6.4,6.4l0,0v36.9
		c0,3.5,2.9,6.4,6.4,6.4H398c3.5,0,6.4-2.9,6.4-6.4v-36.9c0-3.5-2.9-6.4-6.4-6.4l0,0H361.3z"/>
	<path id="Trazado_1077" class="st4" d="M391.7,448.7h-24c-1.4,0-2.6-1.1-2.6-2.6v-13.7c0-1.4,1.1-2.6,2.6-2.6l0,0h24
		c1.4,0,2.6,1.1,2.6,2.6v13.7C394.3,447.6,393,448.7,391.7,448.7z M367.7,431.6c-0.5,0-0.9,0.4-0.9,0.9v13.7c0,0.5,0.4,0.9,0.9,0.9
		h24c0.5,0,0.9-0.4,0.9-0.9v-13.7c0-0.5-0.4-0.9-0.9-0.9H367.7z"/>
	<path id="Trazado_1078" class="st4" d="M387.8,448.7h-17.2c-0.9,0-1.7-0.8-1.7-1.7c0-0.3,0.1-0.6,0.2-0.9l5.2-9
		c0.5-0.8,1.5-1.1,2.3-0.6c0.3,0.1,0.5,0.4,0.6,0.6l3.4,5.8l1.9-3.4c0.5-0.8,1.5-1.1,2.3-0.6c0.3,0.2,0.5,0.4,0.6,0.6l3.8,6.5
		c0.5,0.8,0.2,1.9-0.6,2.3l0,0C388.5,448.7,388.2,448.7,387.8,448.7L387.8,448.7z M387.8,447L387.8,447l-3.8-6.5l-2.7,4.7
		c-0.2,0.3-0.4,0.4-0.7,0.4l0,0c-0.3,0-0.6-0.2-0.7-0.4l-4.1-7.1l-5.2,9L387.8,447z"/>
	<circle id="Elipse_182" class="st4" cx="389.2" cy="435" r="1.7"/>
	<path id="Trazado_1079" class="st1" d="M799,660h-10.5l-5-40.5H799V660z"/>
	<path id="Trazado_1080" class="st0" d="M801.5,670.2h-33.9v-0.4c0-7.3,5.9-13.2,13.2-13.2h20.7V670.2z"/>
	<path id="Trazado_1081" class="st1" d="M841.8,660h-10.5l-5-40.5h15.5V660z"/>
	<path id="Trazado_1082" class="st0" d="M844.5,670.2h-33.9v-0.4c0-7.3,5.9-13.2,13.2-13.2h20.7V670.2z"/>
	<path id="Trazado_1083" class="st0" d="M838.7,642.5l-9.8-3c-1.5-0.5-2.5-1.7-2.7-3.3l-9.1-86c0-0.2-0.3-0.4-0.5-0.3
		c-0.2,0-0.3,0.2-0.3,0.3l-15.2,83.2c-0.4,2.1-2.4,3.5-4.5,3.1l0,0h-0.1L784,634c-1.9-0.4-3.2-2.1-3.1-4l9.2-136.5l62.7-6.8
		L843.5,639c-0.1,2.1-2,3.7-4.1,3.6C839.2,642.6,838.9,642.6,838.7,642.5L838.7,642.5z"/>
	<circle id="Elipse_183" class="st1" cx="838.5" cy="353.5" r="21"/>
	<path id="Trazado_1084" class="st5" d="M790.2,494.3l13.6-85.6c2.8-17.7,19.4-29.8,37.1-27c1.4,0.2,2.7,0.5,4,0.9l0,0
		c16,4.6,25.9,20.7,22.8,37.1l-14.2,76.5L790.2,494.3z"/>
	<path id="Trazado_1085" class="st1" d="M844.4,509.6c4-2.6,5.1-8,2.4-11.9l0,0c-0.3-0.4-0.6-0.8-0.9-1.2l14-27.2l-15.8,1.7
		l-10.9,25.6c-3.3,3.5-3.1,9,0.5,12.2C836.5,511.5,841,511.9,844.4,509.6L844.4,509.6z"/>
	<path id="Trazado_1086" class="st5" d="M847.4,491.7c-0.8-0.1-1.5-0.5-2.1-1l-5.4-5c-1.2-1.1-1.6-2.8-0.9-4.3l10.7-25.5l-1.5-50.3
		c0.9-6.8,7.2-11.6,14-10.6s11.6,7.2,10.6,14l2.6,31.6c0.8,9.6-1.9,19.2-7.7,26.9l-16.8,22.6c-0.6,0.9-1.6,1.4-2.7,1.6
		C848,491.7,847.7,491.7,847.4,491.7z"/>
	<path id="Trazado_1087" class="st1" d="M717.4,342.1c0.9,4.7,5.4,7.8,10,6.9c0.5-0.1,1-0.2,1.5-0.4l19.6,23.5l4.6-15.2l-19.3-20
		c-1.9-4.4-7-6.4-11.4-4.5C718.7,334,716.5,338.1,717.4,342.1z"/>
	<path id="Trazado_1088" class="st5" d="M732.7,351.8c0.4-0.7,1-1.2,1.7-1.5l6.7-3c1.5-0.7,3.2-0.3,4.4,0.8l19.3,19.8l46.9,18.2
		c6.1,3.2,8.4,10.7,5.3,16.8c-3.2,6.1-10.7,8.4-16.8,5.3c-0.4-0.2-0.8-0.4-1.1-0.7l0,0l-30.1-9.9c-9.1-3-16.9-9.3-21.8-17.5
		l-14.3-24.3c-0.6-0.9-0.7-2.1-0.4-3.1C732.5,352.3,732.5,352.1,732.7,351.8L732.7,351.8z"/>
	<path id="Trazado_1089" class="st6" d="M855.7,426.5l-0.9,27.4L839,481.3l13.2-30.6L855.7,426.5z"/>
	<path id="Trazado_1090" class="st0" d="M836.2,357.5c-2.7,0.4-5.3-1.4-6-4c-0.7-3-3-5.4-6-6.2c-3.9-0.9-8.6,0.9-11.4-2
		c-1.2-1.4-1.7-3.2-1.4-5c0.5-2.8,2.6-5,4.8-6.7c4.7-3.6,10.3-5.7,16.2-6c3-0.1,6.1,0.1,9.1,0.4c3.2,0.2,6.3,0.8,9.3,1.7
		c7,2.6,12.2,8.7,13.7,16c1.4,7.3-0.5,14.9-5.2,20.7c-2.8,3.5-6.4,6.2-10.4,7.9c-1,0.5-2.1,0.5-3.1,0.2c-2.5-1-2.1-4.1-0.9-6.2
		c1.2-2.2,3.1-4.4,2.1-7.1c-0.5-1.3-1.5-2.3-2.7-2.9C841.7,357,838.9,357.3,836.2,357.5L836.2,357.5z"/>
	<path id="Trazado_1091" class="st3" d="M710.4,369.4H449.8c-7.8,0-14.1-6.3-14.1-14.1v-55.7c0-7.8,6.3-14.1,14.1-14.1h260.5
		c7.8,0,14.1,6.3,14.1,14.1v55.7C724.5,363,718.2,369.4,710.4,369.4z"/>
	<path id="Trazado_1092" class="st7" d="M710.4,369.8H449.8c-8,0-14.6-6.5-14.6-14.6v-55.7c0-8,6.5-14.6,14.6-14.6h260.5
		c8,0,14.6,6.5,14.6,14.6v55.7C724.9,363.3,718.4,369.8,710.4,369.8z M449.8,286.7c-7.1,0-12.8,5.8-12.9,12.9v55.7
		c0,7.1,5.8,12.9,12.9,12.9h260.5c7.1,0,12.8-5.8,12.9-12.9v-55.7c0-7.1-5.8-12.9-12.9-12.9H449.8z"/>
	<path id="Trazado_1093" class="st2" d="M678.7,355.7H481.5c-7.8,0-14.1-6.3-14.1-14.1v-29.1c0-7.8,6.3-14.1,14.1-14.1h197.1
		c7.8,0,14.1,6.3,14.1,14.1v29.1C692.8,349.3,686.5,355.7,678.7,355.7L678.7,355.7z"/>
	<circle id="Elipse_184" class="st8" cx="524" cy="323.1" r="16.9"/>
	<path id="Trazado_1094" class="st7" d="M666.4,354l-23.9-20L619,314.3c-1.3-1.1-3.1-1.1-4.4,0L591.3,334l-5.7,4.8l-8.6-7.2
		l-26.2-21.9c-1.3-1.1-3.1-1.1-4.4,0l-26.1,22.1l-26.5,22.4c-0.4,0.3-0.4,0.8-0.1,1.2c0.2,0.2,0.4,0.3,0.7,0.3l54.3-0.1h17.2
		l-0.2,0.1l51.3-0.1l48.9-0.1c0.5,0,0.8-0.4,0.8-0.8l0,0C666.7,354.4,666.6,354.2,666.4,354L666.4,354z"/>
	<path id="Trazado_1095" class="st4" d="M890.2,671.4H725.7c-0.5,0-0.9-0.4-0.9-0.8s0.4-0.9,0.8-0.9h164.6c0.5,0,0.9,0.4,0.9,0.9
		C891,671.1,890.7,671.4,890.2,671.4z"/>
	<path id="Trazado_1096" class="st1" d="M657.8,217.7c-1.4-2.3-3.6-3.8-6.2-4.4c-0.5-0.1-0.9-0.2-1.4-0.2l-65.3-58.4
		c-1.3-1.3-3-2.1-4.8-2.3c-0.4,0-0.7,0-1.1,0c-4.3,0.2-7.6,3.8-7.4,8.1c0.1,1.9,0.9,3.8,2.3,5.2l25,21.8l41.1,35.8
		c0,0.7,0.1,1.3,0.3,2c1,3.9,4.3,6.7,8.3,7.2c1.8,0.2,3.6-0.1,5.2-0.9c1.3-0.6,2.4-1.5,3.3-2.5c0.1-0.1,0.2-0.2,0.3-0.3
		C659.7,225.5,659.9,221.1,657.8,217.7L657.8,217.7z"/>
	<path id="Trazado_1097" class="st1" d="M546,273.9l-0.6-24.7l-0.5-20.5l-0.4-14.4l-0.7-28c-0.4-4.3-4.2-7.4-8.5-7
		c-1.9,0.2-3.7,1.1-5,2.5c-0.2,0.3-0.4,0.5-0.6,0.8c-1.1,1.5-1.5,3.4-1.3,5.2l1.6,40.9l0.8,20.5l0.9,26.2c-0.3,0.4-0.5,0.8-0.8,1.2
		c-2.5,4.7-0.6,10.6,4.1,13.1c4.7,2.5,10.6,0.6,13.1-4.1C550.2,281.6,549.3,276.9,546,273.9z"/>
	<path id="Trazado_1098" class="st4" d="M604.9,203.8l-6.1-16.4l-9.8-26.6c-1.4-3.9-4.6-7-8.5-8.3l-0.5-0.1c-3.8-1.2-8-0.6-11.3,1.6
		l-33,20.9c-6.3,4-8.3,12.3-4.5,18.7c4.1,7.1,8.6,14.1,13.5,20.7c3.8,5.2,11,5.8,12.3,14.4h24.4l24.6-22.1L604.9,203.8z"/>
	<circle id="Elipse_185" class="st9" cx="226.7" cy="384.6" r="19.9"/>
	<path id="Trazado_1099" class="st9" d="M275.5,370.9c0.2,0.2,0.4,0.3,0.6,0.5c3.6,3.4,3.7,9,0.4,12.6c-0.2,0.2-0.5,0.5-0.7,0.7
		s-0.5,0.4-0.7,0.5l1.3,45.4c0.1,3-1.9,5.8-4.8,6.7h-0.1l-36.8,3.9c-4.2,0.4-7.9-2.7-8.3-6.9c-0.4-4.2,2.7-7.9,6.9-8.3l26.3-2.3
		l4.5-39.3c-0.3-0.3-0.6-0.6-0.8-0.8c-3.2-3.7-2.7-9.4,1-12.5C267.5,368.3,272.2,368.2,275.5,370.9L275.5,370.9z"/>
	<path id="Trazado_1100" class="st9" d="M259.5,660.9h9.9l4.7-38.2h-14.6V660.9z"/>
	<path id="Trazado_1101" class="st0" d="M257,657.7h19.5c6.9,0,12.4,5.6,12.4,12.4l0,0l0,0v0.4h-32v-12.8H257z"/>
	<path id="Trazado_1102" class="st9" d="M160.9,647.2l8.5,5.1l23.6-30.4l-12.6-7.5L160.9,647.2z"/>
	<path id="Trazado_1103" class="st0" d="M160.4,643.1l16.8,10l0,0c5.9,3.5,7.8,11.2,4.3,17.1l0,0l0,0l-0.2,0.3l-27.5-16.4
		L160.4,643.1z"/>
	<path id="Trazado_1104" class="st0" d="M271.8,647.4h-11.1c-1.9,0-3.4-1.4-3.6-3.3L245.8,539c-0.1-0.7-0.7-1.2-1.3-1.1
		c-0.4,0-0.8,0.3-1,0.7l-20.2,44.7l-35.7,58.3c-1,1.5-2.9,2.2-4.6,1.4l-14.3-6.3c-1.8-0.8-2.7-3-1.9-4.8c0.1-0.1,0.1-0.3,0.2-0.4
		l32.9-55l10.1-46.3c-3.2-20.1,10.4-50,10.6-50.3l0.1-0.1l37.4-14.6l0.2,0.2c14.8,48.4,23.8,100.5,17.1,178.7
		C275.2,645.9,273.7,647.4,271.8,647.4z"/>
	<path id="Trazado_1105" class="st7" d="M219.2,484.6l-0.2-0.4c-0.1-0.2-8.4-17.7-14.8-36.5c-4.9-14.5,2.9-30.3,17.4-35.2
		c0.8-0.3,1.6-0.5,2.4-0.7l0,0c13.5-3.2,27.3,3.9,32.5,16.8c5.1,12.7,3.5,26.3,1.9,37v0.2l-0.2,0.1L219.2,484.6z"/>
	<path id="Trazado_1106" class="st0" d="M250.8,373.3h-31.5v-13.7c6.9-2.8,13.7-5.1,17.7,0C244.7,359.6,250.8,365.7,250.8,373.3
		L250.8,373.3L250.8,373.3z"/>
	<path id="Trazado_1107" class="st0" d="M217.6,357.2c-18.8,0-24.1,23.6-24.1,37c0,7.5,3.4,10.1,8.6,11l1.9-10l4.4,10.4
		c1.5,0,3,0,4.7-0.1l1.5-3.1l3.3,3c13.2,0,23.9,2,23.9-11.3S237.1,357.2,217.6,357.2z"/>
	<path id="Trazado_1108" class="st4" d="M305.5,671.4H140.9c-0.5,0-0.9-0.4-0.9-0.8s0.4-0.9,0.8-0.9h164.6c0.5,0,0.9,0.4,0.9,0.8
		S306,671.4,305.5,671.4L305.5,671.4L305.5,671.4z"/>
	<path id="Trazado_1109" class="st3" d="M308.5,389.5h-36.8c-4.5,0-8.1-3.6-8.1-8.1v-36.9c0-4.5,3.7-8.1,8.1-8.1h36.8
		c4.5,0,8.1,3.6,8.1,8.1v36.9C316.7,385.9,313,389.5,308.5,389.5z"/>
	<path id="Trazado_1110" class="st7" d="M308.5,389.5h-36.8c-4.5,0-8.1-3.6-8.1-8.1v-36.9c0-4.5,3.7-8.1,8.1-8.1h36.8
		c4.5,0,8.1,3.6,8.1,8.1v36.9C316.7,385.9,313,389.5,308.5,389.5z M271.8,338.1c-3.5,0-6.4,2.9-6.4,6.4v36.9c0,3.5,2.9,6.4,6.4,6.4
		h36.8c3.5,0,6.4-2.9,6.4-6.4v-36.9c0-3.5-2.9-6.4-6.4-6.4H271.8z"/>
	<path id="Trazado_1111" class="st5" d="M302,374.5h-24c-1.4,0-2.6-1.1-2.6-2.6v-18c0-1.4,1.1-2.6,2.6-2.6h6.8
		c0.9,0,1.7,0.5,2.2,1.2l1.9,3.1H302c1.4,0,2.6,1.2,2.6,2.6V372C304.7,373.4,303.5,374.5,302,374.5L302,374.5z"/>
	<path id="Trazado_1112" class="st9" d="M301.3,383.6c0.1,0.2,0.2,0.4,0.3,0.7c2,4.5,0,9.7-4.5,11.7l0,0c-0.3,0.1-0.6,0.3-0.9,0.4
		s-0.6,0.2-0.8,0.2L279,438.9c-1.1,2.8-4,4.6-7,4.4H272l-35.5-10.7c-4-1.3-6.3-5.5-5-9.5s5.5-6.3,9.5-5l0,0l0,0l25.1,8.1l19.4-34.5
		c-0.2-0.4-0.3-0.7-0.4-1.1c-1.4-4.7,1.2-9.7,5.9-11.1C295,378.2,299.3,380,301.3,383.6L301.3,383.6z"/>
</g>
</svg>
