<?xml version="1.0" encoding="utf-8"?>
<!-- Generator: Adobe Illustrator 24.1.2, SVG Export Plug-In . SVG Version: 6.00 Build 0)  -->
<svg version="1.1" id="Capa_1" xmlns="http://www.w3.org/2000/svg" xmlns:xlink="http://www.w3.org/1999/xlink" x="0px" y="0px"
	 viewBox="0 0 1031.1 776.1" style="enable-background:new 0 0 1031.1 776.1;" xml:space="preserve">
<style type="text/css">
	.st0{fill:#2F2E41;}
	.st1{fill:#FFB8B8;}
	.st2{fill:#F2F2F2;}
	.st3{fill:#FFFFFF;}
	.st4{fill:#CCCCCC;}
	.st5{fill:#B7D3CE;}
	.st6{opacity:0.1;enable-background:new    ;}
	.st7{fill:#3F3D56;}
	.st8{fill:#FF6584;}
	.st9{fill:#A0616A;}
</style>
<g id="Grupo_509">
	<path id="Trazado_1062" class="st0" d="M620.4,132.2c6.4,13.7-7.2,17.6-22.8,24.9c-15.6,7.3-27.3,15.4-33.8,1.7
		c-6.4-13.7-11.7-40.9,10.5-51.3C597.1,96.8,614,118.5,620.4,132.2z"/>
	<circle id="Elipse_178" class="st1" cx="588.5" cy="138.1" r="21"/>
	<path id="Trazado_1063" class="st0" d="M692.7,231.4c-0.7-0.9-1.5-1.9-2.2-2.8c-1-1.2-1.9-2.3-2.9-3.4
		c-10.9-12.6-22.5-20.5-35.3-21.4h-0.2l-25.5,24.8l-8.6,8.4l0.2,0.5l4.7,11.6h81.8C701.1,243,697,237.1,692.7,231.4z"/>
	<path id="Trazado_1064" class="st0" d="M565.6,146.6L565.6,146.6l7.5-3.5l-1-10.9l5,9l3.6-1.7l-0.6-6.3l2.9,5.2l26.8-12.6l0,0
		c-5.2-11.1-18.5-15.9-29.6-10.7l0,0l-3.9,1.9C565.2,122.2,560.4,135.5,565.6,146.6z"/>
	<path id="Trazado_1065" class="st2" d="M739.9,528.6H300.5c-7.8,0-14.1-6.3-14.1-14.1V250.4c0-5.7,4.6-10.4,10.3-10.4c0,0,0,0,0,0
		h446.8c5.8,0,10.5,4.7,10.5,10.5v263.9C754,522.3,747.7,528.6,739.9,528.6L739.9,528.6z"/>
	<path id="Trazado_1066" class="st3" d="M314.2,514.5h412.1c7.6,0,13.7-6.1,13.7-13.7V276.6c0-7.6-6.1-13.7-13.7-13.7H314.2
		c-7.6,0-13.7,6.1-13.7,13.7v224.2C300.4,508.3,306.6,514.5,314.2,514.5z"/>
	<path id="Trazado_1067" d="M753.9,249.6H286.1v-7.2c0-7.8,6.4-14.2,14.2-14.2h439.4c7.8,0,14.2,6.4,14.2,14.2V249.6z"/>
	<circle id="Elipse_179" class="st3" cx="311.9" cy="238.9" r="3.7"/>
	<circle id="Elipse_180" class="st3" cx="325.9" cy="238.9" r="3.7"/>
	<circle id="Elipse_181" class="st3" cx="339.8" cy="238.9" r="3.7"/>
	<path id="Trazado_1068" class="st4" d="M533.1,465.9h-36.8c-4.5,0-8.1-3.6-8.1-8.1v-36.9c0-4.5,3.7-8.1,8.1-8.1h36.8
		c4.5,0,8.1,3.6,8.1,8.1v36.9C541.2,462.2,537.6,465.9,533.1,465.9z M496.2,414.5c-3.5,0-6.4,2.9-6.4,6.4l0,0v36.9
		c0,3.5,2.9,6.4,6.4,6.4h36.8c3.5,0,6.4-2.9,6.4-6.4v-36.9c0-3.5-2.9-6.4-6.4-6.4l0,0L496.2,414.5z"/>
	<path id="Trazado_1069" class="st4" d="M525.8,455.6h-22.3c-1.4,0-2.6-1.1-2.6-2.6v-27.4c0-1.4,1.2-2.6,2.6-2.6h16.1
		c0.6,0,1.2,0.2,1.6,0.6l6.1,4.9c0.6,0.5,0.9,1.2,0.9,2V453C528.3,454.4,527.2,455.6,525.8,455.6z M503.5,424.8
		c-0.5,0-0.9,0.4-0.9,0.9V453c0,0.5,0.4,0.9,0.8,0.9h22.3c0.5,0,0.9-0.4,0.9-0.9v-22.5c0-0.3-0.1-0.5-0.3-0.7l-6.1-4.9
		c-0.2-0.1-0.3-0.2-0.5-0.2L503.5,424.8z"/>
	<path id="Trazado_1070" class="st4" d="M521.5,435h-13.7c-0.5,0-0.8-0.4-0.8-0.9c0-0.4,0.3-0.7,0.7-0.8h13.8c0.5,0,0.8,0.5,0.8,0.9
		C522.2,434.7,521.9,435,521.5,435z"/>
	<path id="Trazado_1071" class="st4" d="M521.5,440.1h-13.7c-0.5,0-0.9-0.4-0.9-0.8c0-0.5,0.4-0.9,0.8-0.9h13.8
		c0.5,0,0.9,0.4,0.9,0.9C522.4,439.8,522,440.1,521.5,440.1z"/>
	<path id="Trazado_1072" class="st4" d="M521.5,445.3h-13.7c-0.5,0-0.8-0.4-0.8-0.9c0-0.4,0.3-0.7,0.7-0.8h13.8
		c0.5,0,0.8,0.5,0.8,0.9C522.2,444.9,521.9,445.3,521.5,445.3z"/>
	<path id="Trazado_1073" class="st4" d="M620.5,465.9h-36.9c-4.5,0-8.1-3.6-8.1-8.1c0,0,0,0,0,0v-36.9c0-4.5,3.6-8.1,8.1-8.1
		c0,0,0,0,0,0h36.9c4.5,0,8.1,3.6,8.1,8.1c0,0,0,0,0,0v36.9C628.6,462.2,625,465.9,620.5,465.9z M583.6,414.5
		c-3.5,0-6.4,2.9-6.4,6.4v36.9c0,3.5,2.9,6.4,6.4,6.4h36.9c3.5,0,6.4-2.9,6.4-6.4v-36.9c0-3.5-2.9-6.4-6.4-6.4L583.6,414.5z"/>
	<path id="Trazado_1074" class="st4" d="M614,448.7h-24c-1.4,0-2.6-1.1-2.6-2.6v-13.7c0-1.4,1.2-2.6,2.6-2.6h24
		c1.4,0,2.6,1.1,2.6,2.6l0,0v13.7C616.6,447.6,615.5,448.7,614,448.7z M590,431.6c-0.5,0-0.8,0.4-0.8,0.9v13.7
		c0,0.5,0.4,0.9,0.8,0.9h24c0.5,0,0.8-0.4,0.8-0.9v-13.7c0-0.5-0.4-0.9-0.8-0.9H590z"/>
	<path id="Trazado_1075" class="st4" d="M602,441.6c-0.5,0-1-0.1-1.4-0.4l-12.8-8c-0.4-0.3-0.5-0.8-0.3-1.2c0.3-0.4,0.8-0.5,1.2-0.3
		l0,0l12.8,8c0.3,0.2,0.6,0.2,0.9,0l12.7-8c0.4-0.3,0.9-0.1,1.2,0.3c0.3,0.4,0.1,0.9-0.3,1.2l0,0l-12.8,8
		C603,441.4,602.6,441.6,602,441.6L602,441.6z"/>
	<path id="Trazado_1076" class="st4" d="M445.7,465.9h-36.8c-4.5,0-8.1-3.6-8.1-8.1v-36.9c0-4.5,3.7-8.1,8.1-8.1h36.8
		c4.5,0,8.1,3.6,8.1,8.1v36.9C453.8,462.2,450.1,465.9,445.7,465.9z M408.8,414.5c-3.5,0-6.4,2.9-6.4,6.4l0,0v36.9
		c0,3.5,2.9,6.4,6.4,6.4h36.8c3.5,0,6.4-2.9,6.4-6.4v-36.9c0-3.5-2.9-6.4-6.4-6.4l0,0L408.8,414.5z"/>
	<path id="Trazado_1077" class="st4" d="M439.2,448.7h-24c-1.4,0-2.6-1.1-2.6-2.6v-13.7c0-1.4,1.1-2.6,2.6-2.6l0,0h24
		c1.4,0,2.6,1.1,2.6,2.6v13.7C441.8,447.6,440.6,448.7,439.2,448.7z M415.2,431.6c-0.5,0-0.9,0.4-0.9,0.9v13.7
		c0,0.5,0.4,0.9,0.9,0.9h24c0.5,0,0.9-0.4,0.9-0.9v-13.7c0-0.5-0.4-0.9-0.9-0.9H415.2z"/>
	<path id="Trazado_1078" class="st4" d="M435.4,448.7h-17.2c-0.9,0-1.7-0.8-1.7-1.7c0-0.3,0.1-0.6,0.2-0.9l5.2-9
		c0.5-0.8,1.5-1.1,2.3-0.6c0.3,0.1,0.5,0.4,0.6,0.6l3.4,5.8l1.9-3.4c0.5-0.8,1.5-1.1,2.3-0.6c0.3,0.2,0.5,0.4,0.6,0.6l3.8,6.5
		c0.5,0.8,0.2,1.9-0.6,2.3c0,0,0,0,0,0C436,448.7,435.7,448.7,435.4,448.7L435.4,448.7z M435.4,447L435.4,447l-3.8-6.5l-2.7,4.7
		c-0.2,0.3-0.4,0.4-0.7,0.4l0,0c-0.3,0-0.6-0.2-0.7-0.4l-4.1-7.1l-5.2,9L435.4,447z"/>
	<circle id="Elipse_182" class="st4" cx="436.7" cy="435" r="1.7"/>
	<path id="Trazado_1079" class="st1" d="M846.5,660H836l-5-40.5h15.5V660z"/>
	<path id="Trazado_1080" class="st0" d="M849.1,670.2h-33.9v-0.4c0-7.3,5.9-13.2,13.2-13.2h20.7L849.1,670.2z"/>
	<path id="Trazado_1081" class="st1" d="M889.3,660h-10.5l-5-40.5h15.5V660z"/>
	<path id="Trazado_1082" class="st0" d="M892,670.2h-33.9v-0.4c0-7.3,5.9-13.2,13.2-13.2H892V670.2z"/>
	<path id="Trazado_1083" class="st0" d="M886.2,642.5l-9.8-3c-1.5-0.5-2.5-1.7-2.7-3.3l-9.1-86c0-0.2-0.3-0.4-0.5-0.3
		c-0.2,0-0.3,0.2-0.3,0.3l-15.2,83.2c-0.4,2.1-2.4,3.5-4.5,3.1c0,0,0,0,0,0H844l-12.5-2.5c-1.9-0.4-3.2-2.1-3.1-4l9.2-136.5
		l62.7-6.8L891.1,639c-0.1,2.1-2,3.7-4.1,3.6C886.7,642.6,886.4,642.6,886.2,642.5L886.2,642.5z"/>
	<circle id="Elipse_183" class="st1" cx="886.1" cy="353.5" r="21"/>
	<path id="Trazado_1084" class="st5" d="M837.7,494.3l13.6-85.6c2.8-17.7,19.4-29.8,37.1-27c1.4,0.2,2.7,0.5,4,0.9l0,0
		c16,4.6,25.9,20.7,22.8,37.1L901,496.2L837.7,494.3z"/>
	<path id="Trazado_1085" class="st1" d="M891.9,509.6c4-2.6,5.1-8,2.4-11.9c0,0,0,0,0,0c-0.3-0.4-0.6-0.8-0.9-1.2l14-27.2l-15.8,1.7
		l-10.9,25.6c-3.3,3.5-3.1,9,0.5,12.2C884.1,511.5,888.6,511.9,891.9,509.6L891.9,509.6z"/>
	<path id="Trazado_1086" class="st5" d="M894.9,491.7c-0.8-0.1-1.5-0.5-2.1-1l-5.4-5c-1.2-1.1-1.6-2.8-0.9-4.3l10.7-25.5l-1.5-50.3
		c0.9-6.8,7.2-11.6,14-10.6s11.6,7.2,10.6,14l2.6,31.6c0.8,9.6-1.9,19.2-7.7,26.9l-16.8,22.6c-0.6,0.9-1.6,1.4-2.7,1.6
		C895.5,491.7,895.2,491.7,894.9,491.7z"/>
	<path id="Trazado_1087" class="st1" d="M764.9,342.1c0.9,4.7,5.4,7.8,10,6.9c0.5-0.1,1-0.2,1.5-0.4l19.6,23.5l4.6-15.2l-19.3-20
		c-1.9-4.4-7-6.4-11.4-4.5C766.2,334,764.1,338.1,764.9,342.1z"/>
	<path id="Trazado_1088" class="st5" d="M780.2,351.8c0.4-0.7,1-1.2,1.7-1.5l6.7-3c1.5-0.7,3.2-0.3,4.4,0.8l19.3,19.8l46.9,18.2
		c6.1,3.2,8.4,10.7,5.3,16.8c-3.2,6.1-10.7,8.4-16.8,5.3c-0.4-0.2-0.8-0.4-1.1-0.7l0,0l-30.1-9.9c-9.1-3-16.9-9.3-21.8-17.5
		l-14.3-24.3c-0.6-0.9-0.7-2.1-0.4-3.1C780,352.3,780.1,352.1,780.2,351.8L780.2,351.8z"/>
	<path id="Trazado_1089" class="st6" d="M903.2,426.5l-0.9,27.4l-15.8,27.4l13.2-30.6L903.2,426.5z"/>
	<path id="Trazado_1090" class="st0" d="M883.7,357.5c-2.7,0.4-5.3-1.4-6-4c-0.7-3-3-5.4-6-6.2c-3.9-0.9-8.6,0.9-11.4-2
		c-1.2-1.4-1.7-3.2-1.4-5c0.5-2.8,2.6-5,4.8-6.7c4.7-3.6,10.3-5.7,16.2-6c3-0.1,6.1,0.1,9.1,0.4c3.2,0.2,6.3,0.8,9.3,1.7
		c7,2.6,12.2,8.7,13.7,16c1.4,7.3-0.5,14.9-5.2,20.7c-2.8,3.5-6.4,6.2-10.4,7.9c-1,0.5-2.1,0.5-3.1,0.2c-2.5-1-2.1-4.1-0.9-6.2
		c1.2-2.2,3.1-4.4,2.1-7.1c-0.5-1.3-1.5-2.3-2.7-2.9c-2.5-1.3-5.3-1-8-0.7L883.7,357.5z"/>
	<path id="Trazado_1091" class="st3" d="M757.9,369.4H497.4c-7.8,0-14.1-6.3-14.1-14.1v-55.7c0-7.8,6.3-14.1,14.1-14.1h260.5
		c7.8,0,14.1,6.3,14.1,14.1v55.7C772,363,765.7,369.4,757.9,369.4z"/>
	<path id="Trazado_1092" class="st7" d="M757.9,369.8H497.4c-8,0-14.6-6.5-14.6-14.6v-55.7c0-8,6.5-14.6,14.6-14.6h260.5
		c8,0,14.6,6.5,14.6,14.6v55.7C772.4,363.3,765.9,369.8,757.9,369.8z M497.4,286.7c-7.1,0-12.8,5.8-12.9,12.9v55.7
		c0,7.1,5.8,12.9,12.9,12.9h260.5c7.1,0,12.8-5.8,12.9-12.9v-55.7c0-7.1-5.8-12.9-12.9-12.9H497.4z"/>
	<path id="Trazado_1093" class="st2" d="M726.2,355.7H529.1c-7.8,0-14.1-6.3-14.1-14.1v-29.1c0-7.8,6.3-14.1,14.1-14.1h197.1
		c7.8,0,14.1,6.3,14.1,14.1v29.1C740.3,349.3,734,355.7,726.2,355.7L726.2,355.7z"/>
	<circle id="Elipse_184" class="st8" cx="571.5" cy="323.1" r="16.9"/>
	<path id="Trazado_1094" class="st7" d="M713.9,354l-23.9-20l-23.5-19.7c-1.3-1.1-3.1-1.1-4.4,0L638.8,334l-5.7,4.8l-8.6-7.2
		l-26.2-21.9c-1.3-1.1-3.1-1.1-4.4,0l-26.1,22.1l-26.5,22.4c-0.4,0.3-0.4,0.8-0.1,1.2c0.2,0.2,0.4,0.3,0.7,0.3l54.3-0.1h17.2
		l-0.2,0.1l51.3-0.1l48.9-0.1c0.5,0,0.8-0.4,0.8-0.8c0,0,0,0,0,0c0-0.3-0.1-0.5-0.3-0.7L713.9,354z"/>
	<path id="Trazado_1095" class="st4" d="M937.7,671.4H773.2c-0.5,0-0.9-0.4-0.9-0.8s0.4-0.9,0.8-0.9h164.6c0.5,0,0.9,0.4,0.9,0.9
		C938.5,671.1,938.2,671.4,937.7,671.4z"/>
	<path id="Trazado_1096" class="st1" d="M705.3,217.7c-1.4-2.3-3.6-3.8-6.2-4.4c-0.5-0.1-0.9-0.2-1.4-0.2l-65.3-58.4
		c-1.3-1.3-3-2.1-4.8-2.3c-0.4,0-0.7,0-1.1,0c-4.3,0.2-7.6,3.8-7.4,8.1c0.1,1.9,0.9,3.8,2.3,5.2l25,21.8l41.1,35.8
		c0,0.7,0.1,1.3,0.3,2c1,3.9,4.3,6.7,8.3,7.2c1.8,0.2,3.6-0.1,5.2-0.9c1.3-0.6,2.4-1.5,3.3-2.5c0.1-0.1,0.2-0.2,0.3-0.3
		C707.2,225.5,707.4,221.1,705.3,217.7L705.3,217.7z"/>
	<path id="Trazado_1097" class="st1" d="M593.6,273.9l-0.6-24.7l-0.5-20.5l-0.4-14.4l-0.7-28c-0.4-4.3-4.2-7.4-8.5-7
		c-1.9,0.2-3.7,1.1-5,2.5c-0.2,0.3-0.4,0.5-0.6,0.8c-1.1,1.5-1.5,3.4-1.3,5.2l1.6,40.9l0.8,20.5l0.9,26.2c-0.3,0.4-0.5,0.8-0.8,1.2
		c-2.5,4.7-0.6,10.6,4.1,13.1c4.7,2.5,10.6,0.6,13.1-4.1C597.7,281.6,596.8,276.9,593.6,273.9z"/>
	<path id="Trazado_1098" class="st4" d="M652.4,203.8l-6.1-16.4l-9.8-26.6c-1.4-3.9-4.6-7-8.5-8.3l-0.5-0.1c-3.8-1.2-8-0.6-11.3,1.6
		l-33,20.9c-6.3,4-8.3,12.3-4.5,18.7c4.1,7.1,8.6,14.1,13.5,20.7c3.8,5.2,11,5.8,12.3,14.4h24.4l24.6-22.1L652.4,203.8z"/>
	<circle id="Elipse_185" class="st9" cx="274.3" cy="384.6" r="19.9"/>
	<path id="Trazado_1099" class="st9" d="M323.1,370.9c0.2,0.2,0.4,0.3,0.6,0.5c3.6,3.4,3.7,9,0.4,12.6c-0.2,0.2-0.5,0.5-0.7,0.7
		c-0.2,0.2-0.5,0.4-0.7,0.5l1.3,45.4c0.1,3-1.9,5.8-4.8,6.7h-0.1l-36.8,3.9c-4.2,0.4-7.9-2.7-8.3-6.9c-0.4-4.2,2.7-7.9,6.9-8.3
		l26.3-2.3l4.5-39.3c-0.3-0.3-0.6-0.6-0.8-0.8c-3.2-3.7-2.7-9.4,1-12.5C315,368.3,319.7,368.2,323.1,370.9L323.1,370.9z"/>
	<path id="Trazado_1100" class="st9" d="M307,660.9h9.9l4.7-38.2H307L307,660.9z"/>
	<path id="Trazado_1101" class="st0" d="M304.5,657.7H324c6.9,0,12.4,5.6,12.4,12.4l0,0l0,0v0.4h-32V657.7z"/>
	<path id="Trazado_1102" class="st9" d="M208.5,647.2l8.5,5.1l23.6-30.4l-12.6-7.5L208.5,647.2z"/>
	<path id="Trazado_1103" class="st0" d="M208,643.1l16.8,10l0,0c5.9,3.5,7.8,11.2,4.3,17.1c0,0,0,0,0,0l0,0l-0.2,0.3l-27.5-16.4
		L208,643.1z"/>
	<path id="Trazado_1104" class="st0" d="M319.3,647.4h-11.1c-1.9,0-3.4-1.4-3.6-3.3L293.4,539c-0.1-0.7-0.7-1.2-1.3-1.1
		c-0.4,0-0.8,0.3-1,0.7l-20.2,44.7l-35.7,58.3c-1,1.5-2.9,2.2-4.6,1.4l-14.3-6.3c-1.8-0.8-2.7-3-1.9-4.8c0.1-0.1,0.1-0.3,0.2-0.4
		l32.9-55l10.1-46.3c-3.2-20.1,10.4-50,10.6-50.3l0.1-0.1l37.4-14.6l0.2,0.2c14.8,48.4,23.8,100.5,17.1,178.7
		C322.7,645.9,321.2,647.4,319.3,647.4z"/>
	<path id="Trazado_1105" class="st7" d="M266.7,484.6l-0.2-0.4c-0.1-0.2-8.4-17.7-14.8-36.5c-4.9-14.5,2.9-30.3,17.4-35.2
		c0.8-0.3,1.6-0.5,2.4-0.7l0,0c13.5-3.2,27.3,3.9,32.5,16.8c5.1,12.7,3.5,26.3,1.9,37v0.2l-0.2,0.1L266.7,484.6z"/>
	<path id="Trazado_1106" class="st0" d="M298.4,373.3h-31.5v-13.7c6.9-2.8,13.7-5.1,17.7,0C292.2,359.6,298.4,365.7,298.4,373.3
		C298.4,373.3,298.4,373.3,298.4,373.3L298.4,373.3z"/>
	<path id="Trazado_1107" class="st0" d="M265.1,357.2c-18.8,0-24.1,23.6-24.1,37c0,7.5,3.4,10.1,8.6,11l1.9-10l4.4,10.4
		c1.5,0,3,0,4.7-0.1l1.5-3.1l3.3,3c13.2,0,23.9,2,23.9-11.3S284.6,357.2,265.1,357.2z"/>
	<path id="Trazado_1108" class="st4" d="M353,671.4H188.5c-0.5,0-0.9-0.4-0.9-0.8s0.4-0.9,0.8-0.9H353c0.5,0,0.9,0.4,0.9,0.8
		S353.5,671.4,353,671.4L353,671.4L353,671.4z"/>
	<path id="Trazado_1109" class="st3" d="M356.1,389.5h-36.8c-4.5,0-8.1-3.6-8.1-8.1v-36.9c0-4.5,3.7-8.1,8.1-8.1h36.8
		c4.5,0,8.1,3.6,8.1,8.1v36.9C364.2,385.9,360.6,389.5,356.1,389.5z"/>
	<path id="Trazado_1110" class="st7" d="M356.1,389.5h-36.8c-4.5,0-8.1-3.6-8.1-8.1v-36.9c0-4.5,3.7-8.1,8.1-8.1h36.8
		c4.5,0,8.1,3.6,8.1,8.1v36.9C364.2,385.9,360.6,389.5,356.1,389.5z M319.3,338.1c-3.5,0-6.4,2.9-6.4,6.4v36.9
		c0,3.5,2.9,6.4,6.4,6.4h36.8c3.5,0,6.4-2.9,6.4-6.4v-36.9c0-3.5-2.9-6.4-6.4-6.4L319.3,338.1z"/>
	<path id="Trazado_1111" class="st5" d="M349.6,374.5h-24c-1.4,0-2.6-1.1-2.6-2.6v-18c0-1.4,1.1-2.6,2.6-2.6h6.8
		c0.9,0,1.7,0.5,2.2,1.2l1.9,3.1h13.1c1.4,0,2.6,1.2,2.6,2.6V372C352.2,373.4,351.1,374.5,349.6,374.5L349.6,374.5z"/>
	<path id="Trazado_1112" class="st9" d="M348.9,383.6c0.1,0.2,0.2,0.4,0.3,0.7c2,4.5,0,9.7-4.5,11.7c0,0,0,0,0,0
		c-0.3,0.1-0.6,0.3-0.9,0.4c-0.3,0.1-0.6,0.2-0.8,0.2l-16.4,42.3c-1.1,2.8-4,4.6-7,4.4h-0.1L284,432.6c-4-1.3-6.3-5.5-5-9.5
		c1.3-4,5.5-6.3,9.5-5l0,0l0,0l25.1,8.1l19.4-34.5c-0.2-0.4-0.3-0.7-0.4-1.1c-1.4-4.7,1.2-9.7,5.9-11.1
		C342.5,378.2,346.9,380,348.9,383.6L348.9,383.6z"/>
</g>
</svg>
