<?xml version="1.0" encoding="utf-8"?>
<!-- Generator: Adobe Illustrator 24.1.2, SVG Export Plug-In . SVG Version: 6.00 Build 0)  -->
<svg version="1.1" id="Capa_1" xmlns="http://www.w3.org/2000/svg" xmlns:xlink="http://www.w3.org/1999/xlink" x="0px" y="0px"
	 viewBox="0 0 354 249" style="enable-background:new 0 0 354 249;" xml:space="preserve">
<style type="text/css">
	.st0{clip-path:url(#SVGID_2_);}
	.st1{fill:#FFFFFF;}
	.st2{fill:none;stroke:#F0F0F0;stroke-width:4.26;stroke-miterlimit:10;}
	.st3{fill:#F0F0F0;}
	.st4{fill:#6F3428;}
	.st5{fill:#F9B384;}
	.st6{opacity:0.6;fill:#E28B6D;enable-background:new    ;}
	.st7{fill:#EE6F57;}
	.st8{opacity:0.6;fill:#AE5140;enable-background:new    ;}
	.st9{opacity:0.3;fill:#EE6F57;enable-background:new    ;}
	.st10{fill:#AE5140;}
	.st11{fill:#102048;}
	.st12{fill:#E28B6D;}
	.st13{fill:#708CD5;}
	.st14{fill:#FBC343;}
	.st15{fill:#1F3C88;}
	.st16{opacity:0.2;fill:#EE6F57;enable-background:new    ;}
	.st17{fill:#707070;}
	.st18{opacity:0.6;fill:#444444;enable-background:new    ;}
	.st19{fill:#D3DFFF;}
	.st20{fill:none;stroke:#444444;stroke-width:6;}
	.st21{fill:#C6EAE9;}
	.st22{fill:#8CBFBE;}
	.st23{opacity:0.2;fill:#FBC343;enable-background:new    ;}
	.st24{fill:none;stroke:#FDDB8E;stroke-width:8.53;stroke-miterlimit:10;}
	.st25{fill:#FDDB8E;}
	.st26{opacity:0.8;fill:#FFFFFF;enable-background:new    ;}
</style>
<g>
	<defs>
		<path id="SVGID_1_" d="M32,0h290c17.7,0,32,14.3,32,32v185c0,17.7-14.3,32-32,32H32c-17.7,0-32-14.3-32-32V32C0,14.3,14.3,0,32,0z
			"/>
	</defs>
	<clipPath id="SVGID_2_">
		<use xlink:href="#SVGID_1_"  style="overflow:visible;"/>
	</clipPath>
	<g class="st0">
		<g id="Enmascarar_grupo_37">
			<g id="Grupo_556">
				<g id="Grupo_555">
					<rect id="Rectángulo_265" x="-10" class="st1" width="374" height="249"/>
					<g id="Grupo_554">
						<g id="Grupo_529">
							<path id="Trazado_1248" class="st2" d="M45.4,147.2c-1.6,31.3,19.3,47.4,49.5,51.2c33.8,4.3,68.6-1.5,102.3-4.4
								c12.7-1.1,25.4-1.9,38.2-1.9c12,0.1,25,3.4,36.8,1.5c29.5-4.6,44.7-35.1,40.1-61.7c-2.8-16.5-13.6-32.3-32.5-31.2
								c-13.3,0.7-25.1,6.5-37.8,9.7c-16.8,4.1-34.5,3.5-51-1.9c-8.2-2.7-16-6.5-24-9.8c-15.9-6.6-32.7-11.4-49.8-11.7
								s-34.6,4.2-48.5,14.8C54.1,112.9,46.3,129.7,45.4,147.2z"/>
							<path id="Trazado_1249" class="st3" d="M306.8,156.7c1.6,30.9-19.2,46.8-49.3,50.6c-33.7,4.2-68.2-1.5-101.8-4.4
								c-12.6-1.1-25.3-1.9-38-1.8c-12,0.1-24.9,3.3-36.6,1.5c-29.4-4.5-44.5-34.7-39.9-60.9c2.1-12.3,6.8-25.8,17.5-33.3
								s23.1-5.6,34.8-2.3c21.3,5.9,44.5,17,67.1,12.7c12.9-2.5,24.2-9.8,36.5-14.2c12.3-4.5,25.3-7,38.4-7.3
								c17-0.3,34.4,4.2,48.2,14.6C298.2,122.8,306,139.4,306.8,156.7z"/>
						</g>
						<g id="Grupo_533">
							<g id="Grupo_530">
								<path id="Trazado_1250" class="st4" d="M285.3,182.6c0,0-11.7,8.3-25.2,1.1l12.6-7L285.3,182.6z"/>
								<path id="Trazado_1251" class="st4" d="M198.9,127.3c0,0-11.4,21.4-7.8,27.7l13-7.2L198.9,127.3z"/>
								<path id="Trazado_1252" class="st5" d="M194,149.1c-1.5-1.1-2.8-2.3-4.1-3.6c-2.7-2.7-5.1-5.6-7.2-8.8l0,0
									c-1.5-2.2-2.8-4.4-4.1-6.7c-3.3-6-6.2-12.3-8.6-18.7c-2.1-5.7-3.4-9.8-3.7-10.8c0-0.1,0-0.1-0.1-0.2l6.2-17.7
									c3-4.8,4.7,10.7,4.7,10.7c0.9-0.8,1.7-1.7,2.4-2.7c0.7-0.9,1.2,0.5,1.3,1c0.5,2.9-1.8,8.3-1.8,8.3l14.7,21.6
									c0.9,1.3,1.9,2.6,3,3.7c0.7,0.7,1.4,1.4,2.2,2.1C200.2,132.9,200.1,143.6,194,149.1z"/>
								<path id="Trazado_1253" class="st6" d="M194,149.1c-1.5-1.1-2.8-2.3-4.1-3.6c4.6-5.3,8.2-14.1,9-18.2c0.7,0.7-0.8-0.7,0,0
									C200.2,132.9,200.1,143.6,194,149.1z"/>
								<path id="Trazado_1254" class="st7" d="M285.3,182.6c-8-1.6-14.4-1.5-19.7-0.4c-1.9,0.4-3.7,0.9-5.5,1.5l-1.6,5.8l-3.2,11.5
									l-2.1,7.5l-1.9,6.8l-1.1,3.8h-57.1l9-58.8l-11.1-5.1c0.8-1.2,1.4-2.4,2-3.7c3.4-7.6,5.2-19.2,5.8-24c3.2,2.8,6.9,4.8,11,6
									c5.2,1.6,10.7,2.4,16.2,2.5h0.6c12.7-0.5,18.3,3.3,18.3,3.3c2.9,0.6,10.3,3.4,16.9,6.3c2.9,1.3,5.6,2.5,7.6,3.6
									c5.5,2.9,9.5,8,10.9,14L285.3,182.6z"/>
								<path id="Trazado_1255" class="st8" d="M265.6,182.2c-1.9,0.4-3.7,0.9-5.5,1.5l3.4-12.3L265.6,182.2z"/>
								<path id="Trazado_1256" class="st9" d="M182.7,136.7c-1.5-2.2-2.6-4.1-5.4-9C181.7,126.3,184.2,132.6,182.7,136.7z"/>
								<path id="Trazado_1257" class="st8" d="M259.1,187.3l-3.8,13.7l-2.1,7.5l-51.2,3.9l-5.8-10.2
									C233.6,201.4,249.3,196.1,259.1,187.3z"/>
								<path id="Trazado_1258" class="st6" d="M170,111.3c-2.1-5.7-3.4-9.8-3.7-10.8l9.6-5.9C176.3,100,172,107.7,170,111.3z"/>
								<path id="Trazado_1259" class="st10" d="M230.6,149c0.6,2,1.7,3.7,3.3,5c1.6,1.2,3.5,2.1,5.5,2.4c2,0.4,4,0.3,6-0.3
									c1-0.3,1.9-0.6,2.8-1.1c0.9-0.5,1.8-1,2.6-1.7l0.3,0.3c-0.7,0.8-1.6,1.4-2.5,2c-0.9,0.6-1.9,1-3,1.4
									c-2.1,0.7-4.3,0.8-6.5,0.4c-2.2-0.4-4.2-1.3-5.9-2.8c-0.8-0.7-1.5-1.6-2.1-2.5c-0.5-0.9-0.9-1.9-1.1-3L230.6,149z"/>
							</g>
							<g id="Grupo_532">
								<path id="Trazado_1260" class="st5" d="M253.9,128.7l-1.6,12.4c-0.7,5-5.2,8.5-10.2,7.8c-4.5-0.6-7.9-4.4-7.9-9
									c0-0.5,0-1,0.1-1.4l0.3-1.8l1.1-7.1l6.3-0.3L253.9,128.7z"/>
								<path id="Trazado_1261" class="st11" d="M231.8,108.3c0.3-2.1,1-4.1,2-6c1.9-3.8,5.5-6.4,9.6-7c6.3-0.9,14.4,0,18.8,6
									c5,6.8,0.8,20.3-4.5,21.5S231.8,108.3,231.8,108.3z"/>
								<path id="Trazado_1262" class="st12" d="M248.1,131.9c-2.1,2-7,6.7-13.8,6.7l1.4-8.9l6.3-0.3L248.1,131.9z"/>
								<path id="Trazado_1263" class="st5" d="M257.2,111.5l-1,4.9l-0.2,1.2l-0.9,4.9l-0.5,2.8l-0.7,3.4l-3.2,2
									c-0.8,0.5-1.6,0.9-2.5,1.2l0,0c-3.8,1.5-7.9,1.9-11.9,1.4c-0.4,0-0.7-0.1-1-0.3c-2.5-0.9-3.8-3.5-4.3-6.8
									c-0.4-2.6-0.5-5.2-0.3-7.8c0.2-3.4,0.7-6.8,1.3-10.1c5.6-5,13.2-5.9,18.8-7L257.2,111.5z"/>
								<path id="Trazado_1264" class="st11" d="M231.8,108.3c8.9-7,20.9,0.1,20.9,0.1s-1.8,11,1.7,10.1s7.1-8.3,7.1-8.3l-8.1-11.7
									l-17.7,3L231.8,108.3z"/>
								<path id="Trazado_1265" class="st5" d="M253.9,118.9c1.8-3.1,5.1-4,7-1.7s1.9,9.6-7.1,8L253.9,118.9z"/>
								<g id="Grupo_531">
									<path id="Trazado_1266" class="st12" d="M239,116.4c-0.6,1.6-1.5,3-2,4.4c-0.1,0.2-0.2,0.4-0.2,0.5c0,0.1,0,0.3,0,0.4
										c0,0.1,0.1,0.2,0.2,0.3c0.1,0.1,0.3,0.2,0.4,0.2c0.7,0.2,1.5,0.4,2.3,0.4v0.3c-0.8,0.2-1.7,0.1-2.5,0
										c-0.2-0.1-0.5-0.2-0.7-0.3c-0.2-0.2-0.4-0.4-0.4-0.7c-0.1-0.3-0.1-0.5,0-0.8c0.1-0.2,0.1-0.4,0.2-0.6
										c0.7-1.5,1.5-2.9,2.5-4.3L239,116.4z"/>
									<path id="Trazado_1267" class="st11" d="M245,116.8c-0.2,0.7-0.8,1.2-1.3,1s-0.8-0.9-0.6-1.6s0.8-1.2,1.3-1
										S245.2,116,245,116.8z"/>
									
										<ellipse id="Elipse_204" transform="matrix(0.2837 -0.9589 0.9589 0.2837 56.757 308.0984)" class="st11" cx="234.6" cy="116.1" rx="1.4" ry="1"/>
									<path id="Trazado_1268" class="st11" d="M241.6,113.9c0.5-0.4,1-0.8,1.6-1c0.6-0.2,1.3-0.3,1.9-0.3
										c0.7,0.1,1.3,0.3,1.8,0.7c0.5,0.4,0.9,0.8,1.3,1.4L248,115c-0.5-0.4-0.9-0.7-1.4-1c-0.5-0.3-1-0.4-1.5-0.5
										c-0.5-0.1-1.1,0-1.6,0.1c-0.6,0.2-1.1,0.4-1.6,0.6L241.6,113.9z"/>
									<path id="Trazado_1269" class="st11" d="M237,114c-0.4-0.6-1.1-1-1.9-1c-0.4,0-0.7,0.1-1.1,0.2c-0.4,0.2-0.7,0.4-1,0.6
										l-0.2-0.2c0.2-0.4,0.5-0.8,0.9-1c0.4-0.3,0.9-0.4,1.4-0.4c0.5,0,1,0.2,1.4,0.5c0.4,0.3,0.7,0.7,0.8,1.2L237,114z"/>
									<path id="Trazado_1270" class="st1" d="M235.6,125.4l5.8,0.1c0,0-3.2,4.3-5.6,0.3L235.6,125.4z"/>
									<path id="Trazado_1271" class="st12" d="M255.3,121.2c0-0.5,0.1-1,0.3-1.5c0.2-0.5,0.5-1,0.9-1.3c0.4-0.4,1-0.6,1.6-0.6
										c0.5,0,1.1,0.2,1.4,0.6l-0.2,0.3c-0.4-0.1-0.8-0.2-1.3-0.2c-0.4,0-0.8,0.2-1.1,0.5c-0.3,0.3-0.6,0.6-0.8,1
										c-0.2,0.4-0.4,0.8-0.6,1.3L255.3,121.2z"/>
									<circle id="Elipse_205" class="st9" cx="248.1" cy="122.9" r="4.1"/>
									<path id="Trazado_1272" class="st9" d="M233.7,122.4c0,1.8-1.2,3.4-2.9,3.9c-0.4-2.6-0.5-5.2-0.3-7.8
										C232.3,118.8,233.6,120.5,233.7,122.4z"/>
								</g>
							</g>
						</g>
						<g id="Grupo_535">
							<path id="Trazado_1273" class="st11" d="M151.8,105.4c0,0,11.6,5.7,9.4,15.1l-7.7,2.1L151.8,105.4z"/>
							<path id="Trazado_1274" class="st5" d="M151.8,105.4c1.2-1.2,7.6-8.3,7.4-17.1c-0.2-6.7,2.8-3.7,3.2,1c0,0,1.6-9.4,6.1-8.5
								l-1.3,1.8c0,0,1.7-3.2,3.1-2.3s0.1,3.6,0.1,3.6s0.6-2.4,1.8-2.5s2.3,3.5-0.4,13.2c0,0,2.8-2.8,4-3.3s1,6.9-7,14.8
								s-13.7,14-13.7,14L151.8,105.4z"/>
							<path id="Trazado_1275" class="st13" d="M105.1,144c0.3,0.4,46.7-38.6,46.7-38.6l9.4,15.1l-47.4,55.8L105.1,144z"/>
							<g id="Grupo_534">
								<path id="Trazado_1276" class="st12" d="M168.5,80.9c-0.5,0.9-1.1,1.7-1.5,2.6c-0.5,0.9-0.9,1.8-1.3,2.8
									c-0.4,0.9-0.7,1.9-1,2.9l-0.2,0.7l-0.2,0.8c-0.1,0.5-0.2,1-0.3,1.5h-0.2c0-1,0.1-2.1,0.3-3.1c0.2-1,0.5-2,0.9-3
									c0.4-1,0.8-1.9,1.4-2.8c0.5-0.9,1.1-1.8,1.8-2.5L168.5,80.9z"/>
								<path id="Trazado_1277" class="st12" d="M170.4,83.9c-0.2,0.8-0.3,1.7-0.5,2.5s-0.4,1.7-0.6,2.5l-0.6,2.5
									c-0.2,0.8-0.4,1.6-0.7,2.5h-0.2c0.1-0.9,0.3-1.7,0.4-2.5s0.4-1.7,0.6-2.5s0.4-1.7,0.7-2.5s0.5-1.6,0.8-2.5L170.4,83.9z"/>
								<path id="Trazado_1278" class="st12" d="M173.3,81.7c0.3,2.9,0.2,5.8-0.3,8.7c-0.1,0.7-0.2,1.4-0.4,2.1
									c-0.1,0.4-0.2,0.7-0.3,1.1l-0.1,0.3V94c0,0,0,0,0-0.1c0,0-0.1,0-0.1,0c0,0,0,0,0,0l0,0l0.2-0.2c0.5-0.5,1.1-1,1.7-1.4
									l0.8-0.7l0.5-0.3c0.3-0.2,0.7-0.1,0.9,0.2c0,0,0,0,0,0c0.1,0.1,0.1,0.2,0.1,0.3v0.3c0,0.2,0,0.4,0,0.6c0,0.4,0,0.8,0,1.1
									c-0.1,0.7-0.2,1.5-0.5,2.2c-0.5,1.4-1.1,2.7-1.9,4c-0.8,1.2-1.6,2.4-2.6,3.5c-0.5,0.5-1,1.1-1.5,1.6l-1.5,1.6l-0.2-0.1
									l1.5-1.6c0.5-0.6,0.9-1.1,1.4-1.7c0.9-1.1,1.7-2.3,2.5-3.5c0.7-1.2,1.3-2.5,1.8-3.9c0.2-0.7,0.4-1.4,0.4-2.1
									c0-0.3,0-0.7,0-1c0-0.2,0-0.3,0-0.5v-0.3c0-0.1,0-0.1,0-0.1c-0.1,0-0.1,0-0.2,0l-0.4,0.3l-0.8,0.7c-0.6,0.5-1.1,0.9-1.7,1.4
									l-0.2,0.2c-0.2,0.1-0.4,0.1-0.6-0.1c-0.1-0.1-0.1-0.2-0.1-0.4v-0.1l0.1-0.3c0.1-0.4,0.2-0.7,0.3-1c0.2-0.7,0.3-1.4,0.4-2.1
									c0.2-1.4,0.4-2.9,0.5-4.3c0.1-1.4,0.1-2.9,0-4.3L173.3,81.7z"/>
							</g>
						</g>
						<g id="Grupo_537">
							<g id="Grupo_536">
								<path id="Trazado_1279" class="st14" d="M86.3,178c0,0-16-6.3-22.6,5.8c-8.2,15.2,4.1,33.1,4.1,33.1h21.8L86.3,178z"/>
								<path id="Trazado_1280" class="st11" d="M70.6,182.9c-0.4,0.4-0.8,0.9-1.1,1.4c-0.3,0.5-0.6,1-0.8,1.6
									c-0.5,1.1-0.8,2.2-1.1,3.4c-0.5,2.3-0.7,4.7-0.5,7.1c0.1,2.4,0.5,4.7,1.1,7c0.6,2.3,1.4,4.5,2.4,6.7l-0.2,0.1
									c-0.3-0.5-0.6-1.1-0.8-1.6c-0.1-0.3-0.3-0.5-0.4-0.8l-0.3-0.8c-0.4-1.1-0.8-2.3-1.2-3.4c-0.7-2.3-1.1-4.7-1.2-7.1
									c-0.1-2.4,0.1-4.8,0.6-7.2c0.3-1.2,0.7-2.3,1.2-3.4c0.3-0.5,0.6-1.1,0.9-1.6c0.3-0.5,0.7-1,1.2-1.4L70.6,182.9z"/>
							</g>
							<path id="Trazado_1281" class="st10" d="M127.7,124.9c5.3,3.2,8.9,1.3,10-2.2s4.9-16.5-11.3-14.4c0,0-19.9-8-28.3,3.8
								c-7.4,10.4-0.6,17.7-12,26.3c-7.9,6-16.9,16.6,0.9,34.8l19.3-5.3L127.7,124.9z"/>
							<path id="Trazado_1282" class="st4" d="M121.7,140c0.4,1.8,4.6,6.6,6.3,8.4c5.1,5.4,6.3,15.5-8.4,18.6l-8.3-19.2L121.7,140z"
								/>
							<path id="Trazado_1283" class="st5" d="M122.4,142.4l-1.7,8l-2.7,12.4l-15-3.2l3.5-24.4l15.3,6.9L122.4,142.4z"/>
							<path id="Trazado_1284" class="st12" d="M131.7,126.6c0,0,4.3,4.9,4.2,6.1s-4.2,3.5-4.2,3.5V126.6z"/>
							<path id="Trazado_1285" class="st12" d="M122.4,142.4l-1.7,8c-4.6-2.5-8-8.5-8-8.5l9.2,0.3L122.4,142.4z"/>
							<path id="Trazado_1286" class="st5" d="M132.7,137.7c-0.6,4.6-2.2,8.2-5.5,8.5c-9.1,0.9-22.2-9.3-22.2-9.3l0.7-18.7l9.9-6.1
								l16,3c0.2,2.1,1.2,8.6,1.3,15C133.1,132.7,133,135.2,132.7,137.7z"/>
							<path id="Trazado_1287" class="st10" d="M134.2,118.2l-2,1.5c-10.3-8-8.2,3.5-9.1,7.2s-5.8,2.7-9.6,0.3l-0.7,5.2l-11.4,0.4
								l-0.7-14.5l11.4-8.9l21.1,4.1L134.2,118.2z"/>
							<path id="Trazado_1288" class="st10" d="M119.4,172.1c5.6-3,4-10.9,1.8-13.6s-11.5-7.2-12.6-15.7c-0.6-4.7,4.1-10.3,4.1-10.3
								l-9.7-5.2l-9.9,15.6l7.5,26.8L119.4,172.1z"/>
							<path id="Trazado_1289" class="st13" d="M126.4,215.3H79.3c-2.1-30.2,5.5-45.7,12-53.2c4.1-4.8,10.3-7.1,16.5-6.4
								c5.4,0.7,10.2,3.3,14.9,14.5l-22.3,10.4l14.3,25.2c1.4,2.5,3.5,4.6,6,6.1L126.4,215.3z"/>
							<path id="Trazado_1290" class="st15" d="M100.4,180.6c0,0,7,28.1,9.6,31.8s8.5,2.9,18.7,2.9l0,0l-12.8-28.5L100.4,180.6"/>
							<path id="Trazado_1291" class="st13" d="M157.6,207.6l-2,7.5l-27,0.2h-2.2l-5.7-3.3c-2.5-1.5-4.6-3.6-6-6.1l-14.3-25.2
								l22.3-10.4c2.4,5.6,4.8,13.5,7.3,24.3c0.3,1.5,1.4,2.7,2.7,3.3L157.6,207.6z"/>
							<path id="Trazado_1292" class="st5" d="M115.8,129.4c-0.8-4.5-6.1-5.1-7.1-2s-0.7,8.3,6,8L115.8,129.4z"/>
							<path id="Trazado_1293" class="st12" d="M113.7,129.7l-0.8-1c-0.3-0.3-0.5-0.5-0.9-0.8c-0.2-0.2-0.6-0.2-0.8-0.1
								c-0.3,0.2-0.6,0.5-0.8,0.8l-0.3-0.1c0.1-0.5,0.4-0.9,0.8-1.2c0.2-0.2,0.5-0.3,0.8-0.3c0.3,0,0.6,0.1,0.8,0.3
								c0.4,0.3,0.7,0.6,1,1c0.2,0.4,0.4,0.8,0.6,1.2L113.7,129.7z"/>
							<path id="Trazado_1294" class="st16" d="M132.5,139.2c-0.2,0-4.5-1.2-4.5-5.2c0-2.2,1.8-4,4-4c0.3,0,0.7,0,1,0.1
								C133.1,133.2,133,136.2,132.5,139.2z"/>
						</g>
						<g id="Grupo_538">
							<path id="Trazado_1295" class="st17" d="M210.2,215.5h-56.1l10.6-45.7h56.1L210.2,215.5z"/>
							<path id="Trazado_1296" class="st18" d="M210.2,215.5l10.6-45.7c-16,37.1-39.9,41.2-66.7,45.7"/>
							
								<ellipse id="Elipse_206" transform="matrix(0.3867 -0.9222 0.9222 0.3867 -62.7565 291.076)" class="st1" cx="187.5" cy="192.7" rx="4" ry="3.4"/>
						</g>
						<g id="Grupo_539">
							<path id="Trazado_1297" class="st5" d="M279.8,181.8l-0.2,4.6l-0.8,20.8l0,0c-0.1,3.2-1.6,6.1-4.2,8h-23.4l-48.8,0.2
								c-0.9,0-1.8-2-0.5-3c2.8-2.2,7.3-4.7,10.4-6.7c1.7-1.1,3.8-1.6,5.8-1.3c3.4,0.4,8.2,2.1,14.2,0.3c1-0.3,2.1-0.5,3.2-0.7
								l19.7-3l7.7-1.2l0.2-13.1l0.1-4c0.7-0.2,1.5-0.4,2.3-0.5C270.3,181.4,275,181.2,279.8,181.8z"/>
							<path id="Trazado_1298" class="st6" d="M279.8,181.8l-0.2,4.6c-2.9-1-13.9-4.1-16.3-3.7l0,0c0.7-0.2,1.5-0.4,2.3-0.5
								C270.3,181.4,275,181.2,279.8,181.8z"/>
							<path id="Trazado_1299" class="st9" d="M278.8,207.2L278.8,207.2c-0.1,3.2-1.7,6.1-4.2,8h-7.1
								C268.8,208.4,274,206.3,278.8,207.2z"/>
							<path id="Trazado_1300" class="st12" d="M260,200.1c0.8-0.4,1.7-0.6,2.6-0.7c0.9-0.1,1.8-0.1,2.7,0c0.9,0.1,1.8,0.3,2.7,0.6
								c0.9,0.3,1.7,0.7,2.4,1.3l-0.2,0.3c-0.8-0.4-1.6-0.7-2.4-0.9c-0.8-0.2-1.7-0.4-2.5-0.5c-0.8-0.1-1.7-0.1-2.6-0.1
								c-0.9,0.1-1.7,0.2-2.6,0.3L260,200.1z"/>
						</g>
						<g id="Grupo_540">
							<rect id="Rectángulo_266" x="34.8" y="215.3" class="st19" width="283.4" height="6.3"/>
							<path id="Trazado_1301" class="st20" d="M34.8,215.3h283.4"/>
						</g>
						<g id="Grupo_542">
							<path id="Trazado_1302" class="st21" d="M77.2,104.6C75,92.9,63.8,85.2,52,87.3s-19.5,13.5-17.3,25.2
								C37,124.3,48.2,132,60,129.8c2.8-0.5,5.5-1.6,7.9-3.2l7.5,3.3l-3.6-6.5C76.5,118.3,78.5,111.4,77.2,104.6z"/>
							<g id="Grupo_541">
								<path id="Trazado_1303" class="st1" d="M47.9,116.1v-6.6l-0.4,0.2c-0.4,0.2-0.8,0.3-1.3,0.3c-1.6,0-2.9-1.3-2.8-2.9
									s1.3-2.9,2.9-2.8c0.4,0,0.8,0.1,1.2,0.3l0.4,0.2v-6.6h5.7c-0.5,1.8,0.5,3.7,2.3,4.2s3.7-0.5,4.2-2.3c0.2-0.6,0.2-1.3,0-1.9
									h5.7v5.8c-0.4-0.1-0.7-0.2-1.1-0.2c-1.9,0-3.4,1.5-3.4,3.4s1.5,3.4,3.4,3.4c0.4,0,0.8-0.1,1.1-0.2v5.8L47.9,116.1z"/>
								<path id="Trazado_1304" class="st22" d="M65.6,98.4v5.1c-2-0.5-4,0.8-4.4,2.7c-0.5,2,0.8,4,2.7,4.4c0.6,0.1,1.1,0.1,1.7,0
									v5.1H48.2v-6.7l-0.8,0.4c-0.4,0.2-0.8,0.3-1.2,0.3c-1.4,0-2.6-1.2-2.6-2.6c0-1.4,1.2-2.6,2.6-2.6c0.4,0,0.8,0.1,1.1,0.3
									l0.8,0.4v-6.7h5.1c-0.4,2,0.9,3.9,2.9,4.3s3.9-0.9,4.3-2.9c0.1-0.4,0.1-0.9,0-1.4L65.6,98.4 M66.1,97.9h-6.3
									c0.2,0.4,0.2,0.8,0.3,1.2c-0.1,1.7-1.6,3.1-3.3,3c-1.6-0.1-2.9-1.4-3-3c0-0.4,0.1-0.8,0.2-1.2h-6.3v6.4
									c-1.6-0.7-3.4,0-4.2,1.6c-0.7,1.6,0,3.4,1.6,4.2c0.4,0.2,0.8,0.3,1.2,0.3c0.5,0,1-0.1,1.4-0.3v6.4h18.5v-6.4
									c-0.4,0.2-0.9,0.3-1.4,0.3c-1.7,0-3.1-1.4-3.1-3.1s1.4-3.1,3.1-3.1l0,0c0.5,0,1,0.1,1.4,0.3L66.1,97.9L66.1,97.9z"/>
							</g>
						</g>
						<g id="Grupo_544">
							<path id="Trazado_1305" class="st19" d="M282.8,104.9c0.7-11.9,11-20.9,22.8-20.2c11.9,0.7,20.9,11,20.2,22.8
								c-0.7,11.9-11,20.9-22.8,20.2c-2.9-0.2-5.6-0.9-8.2-2.2l-7,4.2l2.8-6.9C285.3,118.4,282.4,111.7,282.8,104.9z"/>
							<g id="Grupo_543">
								<path id="Trazado_1306" class="st1" d="M308.1,115.3c-0.8-1.7-2.8-2.4-4.5-1.6c-0.7,0.3-1.3,0.9-1.6,1.6H296v-6.6l-0.4,0.2
									c-0.4,0.2-0.8,0.3-1.3,0.3c-1.6-0.1-2.8-1.5-2.7-3.1c0.1-1.5,1.3-2.6,2.7-2.7l0,0c0.4,0,0.9,0.1,1.3,0.3l0.4,0.2v-6.6h6.4
									l-0.1-0.3c-0.5-1.5,0.3-3.2,1.8-3.7c1.5-0.5,3.2,0.3,3.7,1.8l0,0c0.2,0.6,0.2,1.3,0,1.9l-0.1,0.3h6.4v18L308.1,115.3z"/>
								<path id="Trazado_1307" class="st13" d="M305,93.4c1.5,0,2.6,1.2,2.7,2.6c0,0,0,0,0,0c0,0.3-0.1,0.6-0.2,0.9l-0.2,0.7h6.5
									V115h-5.5c-0.9-1.8-3.1-2.5-4.9-1.5c-0.6,0.3-1.2,0.9-1.5,1.5h-5.5v-6.7l-0.7,0.4c-0.4,0.2-0.8,0.3-1.2,0.3
									c-1.5,0.1-2.7-1-2.8-2.5c-0.1-1.5,1-2.7,2.5-2.8c0.1,0,0.2,0,0.3,0c0.4,0,0.8,0.1,1.2,0.3l0.7,0.4v-6.7h6.5l-0.2-0.7
									c-0.5-1.4,0.2-2.9,1.6-3.4C304.4,93.4,304.7,93.4,305,93.4 M305,92.9c-1.7,0-3.1,1.4-3.1,3.1c0,0.3,0.1,0.7,0.2,1h-6.3v6.5
									c-1.6-0.7-3.4,0-4.2,1.6c-0.7,1.6,0,3.4,1.6,4.2c0.4,0.2,0.8,0.3,1.2,0.3l0,0c0.5,0,1-0.1,1.4-0.3v6.3h6.3
									c0.7-1.6,2.5-2.4,4.1-1.7c0,0,0,0,0,0c0.8,0.3,1.4,0.9,1.7,1.7h6.3V97.1h-6.3c0.6-1.6-0.3-3.4-1.9-4
									C305.7,93,305.4,92.9,305,92.9L305,92.9z"/>
							</g>
						</g>
						<g id="Grupo_547">
							<path id="Trazado_1308" class="st23" d="M181.3,55.1c0,5.5-3.5,10.3-8.7,12.1h-6.7c-5.3-1.7-8.9-6.6-8.9-12.1
								c-0.2-6.7,5-12.3,11.7-12.6c6.7-0.2,12.3,5,12.6,11.7c0,0.2,0,0.4,0,0.7V55.1z"/>
							<g id="Grupo_545">
								<line id="Línea_19" class="st24" x1="169.1" y1="30.8" x2="169.1" y2="39.8"/>
								<line id="Línea_20" class="st24" x1="160.6" y1="42.4" x2="152.7" y2="36.5"/>
								<line id="Línea_21" class="st24" x1="177.6" y1="42.4" x2="185.6" y2="36.5"/>
								<line id="Línea_22" class="st24" x1="164.8" y1="40.7" x2="163.1" y2="36.5"/>
								<line id="Línea_23" class="st24" x1="173.4" y1="40.7" x2="175.1" y2="36.5"/>
							</g>
							<g id="Grupo_546">
								<path id="Trazado_1309" class="st25" d="M176.9,56.6c-0.3-4.3-4-7.5-8.3-7.3c-3.8,0.2-6.8,3.2-7.2,7c-0.1,2,0.7,3.9,2.1,5.3
									c1.5,1.4,2.4,3.3,2.4,5.3v0.3h6.7v-0.6c0-1.9,0.8-3.8,2.2-5.1C176.1,60.2,176.9,58.5,176.9,56.6z"/>
								<path id="Rectángulo_267" class="st25" d="M165.8,69.7h6.7v0.2c0,1.8-1.5,3.3-3.3,3.4l0,0c-1.9,0-3.3-1.5-3.3-3.4l0,0
									L165.8,69.7L165.8,69.7z"/>
							</g>
							<circle id="Elipse_207" class="st26" cx="166.6" cy="55.6" r="1.8"/>
						</g>
						<g id="Grupo_550">
							<g id="Grupo_548">
								<path id="Trazado_1310" class="st3" d="M236.2,75.1V71h-2c-0.3-1.1-0.7-2.2-1.3-3.2l1.4-1.4l-2.9-2.9l-1.4,1.4
									c-1-0.6-2-1-3.2-1.3v-2.1h-4.1v2.2c-1.1,0.3-2.1,0.7-3,1.3l-1.6-1.6l-2.9,2.9l1.6,1.6c-0.6,0.9-1,1.9-1.2,3h-2.3V75h2.3
									c0.2,1.1,0.7,2.1,1.2,3l-1.6,1.6l2.9,2.9l1.6-1.6c0.9,0.6,1.9,1,3,1.3v2.2h4.1v-2.1c1.1-0.2,2.2-0.7,3.2-1.3l1.4,1.4
									l2.9-2.9l-1.4-1.4c0.6-1,1.1-2.1,1.3-3.2L236.2,75.1z"/>
								<circle id="Elipse_208" class="st1" cx="224.7" cy="73" r="6.4"/>
							</g>
							<g id="Grupo_549">
								<path id="Trazado_1311" class="st3" d="M257.1,68.6l0.9-2.8l-1.3-0.4c0.1-0.8,0-1.7-0.2-2.5l1.3-0.6l-1.3-2.7l-1.3,0.7
									c-0.5-0.6-1.2-1.2-1.9-1.6l0.5-1.4l-2.8-0.9l-0.5,1.5c-0.8-0.1-1.6,0-2.4,0.2l-0.7-1.4l-2.7,1.4l0.7,1.5
									c-0.6,0.5-1.1,1.1-1.5,1.8l-1.6-0.5l-0.9,2.8l1.6,0.5c-0.1,0.8,0,1.6,0.2,2.3l-1.5,0.8l1.3,2.6l1.4-0.7
									c0.5,0.6,1.1,1.2,1.8,1.6l-0.5,1.5l2.8,0.9l0.5-1.4c0.8,0.1,1.7,0,2.5-0.1l0.7,1.3l2.7-1.4l-0.7-1.3
									c0.7-0.5,1.2-1.2,1.7-1.9L257.1,68.6z"/>
								<circle id="Elipse_209" class="st1" cx="249.6" cy="64.6" r="4.7"/>
							</g>
						</g>
						<g id="Grupo_553">
							<g id="Grupo_551">
								<path id="Trazado_1312" class="st3" d="M125.9,76.9L128,74l-1.4-1c0.4-0.9,0.6-1.9,0.7-2.9l1.7-0.3l-0.5-3.5l-1.7,0.3
									c-0.4-0.9-0.9-1.7-1.5-2.5l1-1.4l-2.8-2.1l-1.1,1.5c-0.9-0.4-1.8-0.6-2.8-0.6l-0.3-1.9l-3.5,0.5l0.3,1.9
									c-0.9,0.3-1.7,0.8-2.4,1.5l-1.5-1.1l-2.1,2.8l1.6,1.1c-0.4,0.8-0.6,1.8-0.7,2.7l-1.9,0.3l0.5,3.5l1.9-0.3
									c0.3,0.9,0.8,1.7,1.4,2.4l-1.1,1.4l2.8,2.1l1-1.4c0.9,0.4,1.8,0.7,2.8,0.7l0.3,1.7l3.5-0.5l-0.3-1.7
									c0.9-0.3,1.8-0.9,2.5-1.5L125.9,76.9z"/>
								<circle id="Elipse_210" class="st1" cx="119" cy="69.7" r="5.5"/>
							</g>
							<g id="Grupo_552">
								<path id="Trazado_1313" class="st3" d="M100.6,70.7l2.1-1.5l-0.7-1c0.5-0.5,0.9-1.2,1.1-1.8l1.2,0.2l0.4-2.5l-1.2-0.2
									c-0.1-0.7-0.2-1.4-0.5-2l1-0.8l-1.4-2.1l-1.1,0.8c-0.5-0.4-1.1-0.8-1.8-1l0.2-1.4L97.4,57l-0.2,1.4c-0.7,0-1.4,0.2-2,0.5
									l-0.8-1.1l-2.1,1.5l0.8,1.1c-0.4,0.5-0.8,1.1-1.1,1.7l-1.4-0.2l-0.4,2.5l1.3,0.2c0,0.7,0.2,1.4,0.4,2l-1.1,0.8l1.5,2l1-0.8
									c0.5,0.5,1.1,0.9,1.8,1.1L95,71l2.5,0.4l0.2-1.2c0.7,0,1.4-0.2,2.1-0.5L100.6,70.7z"/>
								<circle id="Elipse_211" class="st1" cx="97.5" cy="64.2" r="4"/>
							</g>
						</g>
					</g>
				</g>
			</g>
		</g>
	</g>
</g>
</svg>
