<?xml version="1.0" encoding="utf-8"?>
<!-- Generator: Adobe Illustrator 24.1.2, SVG Export Plug-In . SVG Version: 6.00 Build 0)  -->
<svg version="1.1" id="Capa_1" xmlns="http://www.w3.org/2000/svg" xmlns:xlink="http://www.w3.org/1999/xlink" x="0px" y="0px"
	 viewBox="0 0 354 250" style="enable-background:new 0 0 354 250;" xml:space="preserve">
<style type="text/css">
	.st0{clip-path:url(#SVGID_2_);}
	.st1{fill:#FFFFFF;}
	.st2{fill:#EBF3FA;}
	.st3{fill:#C8DBF4;}
	.st4{fill:#D4E4F8;}
	.st5{fill:#9FC1F4;}
	.st6{fill:#8CB4F4;}
	.st7{fill:#9ABFE2;}
	.st8{fill:#BAD4F4;}
	.st9{fill:#DFEBFD;}
	.st10{fill:#B7D3F3;}
	.st11{fill:#C0D8FB;}
	.st12{fill:#233862;}
	.st13{fill:#FFB27D;}
	.st14{fill:#0F2549;}
	.st15{fill:#2B478B;}
	.st16{fill:#ED975D;}
	.st17{fill:#EBF3FF;}
	.st18{fill:#C6EAE9;}
	.st19{fill:#182D4F;}
	.st20{fill:#2E3552;}
	.st21{fill:#B3B3B3;}
	.st22{fill:#1B3051;}
	.st23{fill:#060606;}
	.st24{fill:#73A2E5;}
</style>
<g>
	<defs>
		<path id="SVGID_1_" d="M32,1h290c17.7,0,32,14.3,32,32v185c0,17.7-14.3,32-32,32H32c-17.7,0-32-14.3-32-32V33C0,15.3,14.3,1,32,1z
			"/>
	</defs>
	<clipPath id="SVGID_2_">
		<use xlink:href="#SVGID_1_"  style="overflow:visible;"/>
	</clipPath>
	<g class="st0">
		<g id="Enmascarar_grupo_38">
			<g id="Grupo_595">
				<g id="Grupo_594">
					<rect id="Rectángulo_269" x="-23" class="st1" width="399" height="250"/>
					<g id="Grupo_593">
						<path id="Trazado_1314" class="st2" d="M28.6,224.9c0,0-42-50.6-21.5-102.8c13.4-34,63.6-52.6,92-34
							c12.1,7.9,50.8,0.3,71.5-32.6c40.2-63.8,180.4-25,154.9,72.9c-12.4,47.4,37.6,49.1,12.1,96.5L28.6,224.9z"/>
						<g id="Grupo_563">
							<g id="Grupo_558">
								<path id="Trazado_1315" class="st3" d="M59.7,141.6c0,0-4.2-5-0.3-8.1c0,0,2.9-1.8,5.3-1.6c0,0-3.3,5.6-2.3,6.2
									s3.3-6.5,3.3-6.5s6.6-0.6,8.7,0.4c0,0-5.7,4.6-4.5,4.9s7.3-4.3,7.3-4.3s6.2,1,5.8,4.8s-2.5,4.9-3.4,4.8s-6.4-2.2-6.5-1.4
									s3.2,3.3,5.5,3.4c0,0-4.3,4.8-7.2,3.4s-3.1-3.6-4.9-4.4s-3.3-0.8-2.6,0s4,1.7,5,3.5s2,3-1,2.6s-7.8-2.6-8-5.1L59.7,141.6z"
									/>
								<g id="Grupo_557">
									<path id="Trazado_1316" class="st3" d="M80.1,137.4c0,0-16.7-0.6-20.4,4.1c-0.7,1.8-1.9,3.4-3.3,4.7l-0.4,1.1
										c0,0,2.9-3.1,3.9-3.2C59.9,144.1,58.3,138.1,80.1,137.4z"/>
									<path id="Trazado_1317" class="st3" d="M56.4,146.2c-2.2,1.8-3.6,4.5-3.8,7.4l0.7,0.1c0,0,1.1-4.9,3.2-6.8
										S56.4,146.2,56.4,146.2z"/>
								</g>
							</g>
							<g id="Grupo_560">
								<path id="Trazado_1318" class="st3" d="M44.9,135.3c0,0,6.7-3.8,3.6-8.9c0,0-2.5-3.2-5.2-4c0,0,1.4,7.7,0,7.8s-1-8.6-1-8.6
									s-7.1-3.4-9.9-3.2c0,0,4.4,7.5,3,7.3S29,118,29,118s-7.3-1.3-8.5,3s0.7,6.5,1.8,6.7s8,0.2,7.8,1.1s-4.8,2.3-7.5,1.5
									c0,0,2.9,7.1,6.7,6.7s5-2.7,7.3-2.9s4,0.5,2.9,1.1s-5.1,0.2-7,1.8s-3.4,2.6,0.1,3.3s9.8,0.3,11.1-2.4L44.9,135.3z"/>
								<g id="Grupo_559">
									<path id="Trazado_1319" class="st3" d="M23.8,122.4c0,0,18.9,6.1,21,13c0.1,2.3,0.7,4.6,1.8,6.6v1.3c0,0-2-4.6-3.1-5.2
										C43.6,138,47.8,132.1,23.8,122.4z"/>
									<path id="Trazado_1320" class="st3" d="M46.7,141.9c1.7,3,2.2,6.5,1.3,9.8l-0.8-0.2c0,0,0.7-5.9-0.8-8.9
										S46.7,141.9,46.7,141.9z"/>
								</g>
							</g>
							<g id="Grupo_562">
								<path id="Trazado_1321" class="st4" d="M55.6,130.1c0,0-8.9-5-4.7-11.7c0,0,3.3-4.2,6.9-5.2c0,0-1.9,10.1,0,10.3
									s1.3-11.4,1.3-11.4s9.4-4.5,13-4.2c0,0-5.8,9.8-3.9,9.6s8.4-10.2,8.4-10.2s9.6-1.8,11.1,3.9s-1,8.5-2.4,8.9
									s-10.5,0.2-10.3,1.4s6.4,3.1,9.8,2c0,0-3.8,9.4-8.8,8.9s-6.5-3.5-9.6-3.8s-5.3,0.6-3.8,1.4s6.8,0.3,9.3,2.4s4.5,3.4-0.1,4.4
									s-12.9,0.3-14.6-3.2L55.6,130.1z"/>
								<g id="Grupo_561">
									<path id="Trazado_1322" class="st4" d="M83.3,113.1c0,0-24.9,8.1-27.7,17.1c-0.1,3-0.9,6-2.4,8.7v1.8c0,0,2.6-6,4-6.9
										C57.3,133.7,51.7,125.9,83.3,113.1z"/>
									<path id="Trazado_1323" class="st4" d="M53.2,138.8c-2.3,3.9-2.9,8.6-1.7,12.9l1-0.3c0,0-1-7.8,1-11.7
										S53.2,138.8,53.2,138.8z"/>
								</g>
							</g>
							<path id="Trazado_1324" class="st4" d="M55.3,167.1c9.6,0,17.4-7.8,17.4-17.4H37.9C37.9,159.3,45.7,167.1,55.3,167.1
								C55.3,167.1,55.3,167.1,55.3,167.1z"/>
							<path id="Rectángulo_270" class="st4" d="M39.8,165.8h31c1.2,0,2.1,1,2.2,2.1H37.7C37.7,166.8,38.6,165.8,39.8,165.8
								L39.8,165.8L39.8,165.8z"/>
							<rect id="Rectángulo_271" x="37.3" y="149.7" class="st5" width="35.8" height="0.5"/>
						</g>
						<g id="Grupo_567">
							<g id="Grupo_564">
								<path id="Trazado_1325" class="st6" d="M145.1,224.5L145.1,224.5c0.7,0,1.3-0.5,1.3-1.2v-0.1l-4.7-46.9l-4.1,0.4l6.7,47.1
									C144.4,224.3,144.8,224.5,145.1,224.5z"/>
							</g>
							<g id="Grupo_565">
								<path id="Trazado_1326" class="st6" d="M99.9,224.5L99.9,224.5c-0.7,0-1.3-0.5-1.3-1.1c0,0,0,0,0,0c0,0,0-0.1,0-0.1
									l4.7-46.9l4.1,0.4l-6.7,47.1C100.7,224.3,100.3,224.5,99.9,224.5z"/>
							</g>
							<g id="Grupo_566">
								<path id="Trazado_1327" class="st6" d="M178.2,224.5L178.2,224.5c0.7,0,1.3-0.5,1.3-1.2v-0.1l-4.7-46.9l-4.1,0.4l6.7,47.1
									C177.5,224.3,177.9,224.5,178.2,224.5z"/>
							</g>
							<path id="Trazado_1328" class="st6" d="M101.3,169.6L93,128.4c-1.1-5.6,3.5-10.7,9.5-10.5l16.1,0.4
								c5.5,0.1,10.4,3.8,11.9,9.2l12.2,42.1H101.3z"/>
							<path id="Trazado_1329" class="st6" d="M106.4,169.6L98,128.4c-1-5.5,3.5-10.7,9.5-10.5l16.1,0.4c5.5,0.1,10.4,3.8,11.9,9.2
								l12.2,42.1L106.4,169.6z"/>
							<path id="Rectángulo_272" class="st6" d="M165.8,177.1h-60.7c-2.1,0-3.8-1.7-3.8-3.8l0,0v-3.8h64.5c2.1,0,3.8,1.7,3.8,3.8
								l0,0C169.5,175.4,167.9,177.1,165.8,177.1L165.8,177.1z"/>
							<path id="Rectángulo_273" class="st6" d="M135.4,169.6h36.8c2.1,0,3.8,1.7,3.8,3.8l0,0c0,2.1-1.7,3.8-3.8,3.8h-36.8
								c-2.1,0-3.8-1.7-3.8-3.8l0,0C131.6,171.3,133.3,169.6,135.4,169.6z"/>
						</g>
						<g id="Grupo_572">
							<path id="Trazado_1330" class="st7" d="M82.4,169.1v1.4c0,0.5-0.2,0.9-0.4,0.9H30.8c-0.2,0-0.3-0.4-0.3-0.9v-1.4
								c0-0.5,0.2-0.9,0.3-0.9H82C82.2,168.1,82.4,168.6,82.4,169.1z"/>
							<path id="Trazado_1331" class="st8" d="M82.4,169.1v1.4c0,0.5-0.2,0.9-0.3,0.9H41.4c-0.2,0-0.3-0.4-0.3-0.9v-1.4
								c0-0.5,0.2-0.9,0.3-0.9H82C82.2,168.1,82.4,168.6,82.4,169.1z"/>
							<rect id="Rectángulo_274" x="33" y="171.3" class="st3" width="36.4" height="53"/>
							<rect id="Rectángulo_275" x="43.2" y="171.3" class="st9" width="36.4" height="53"/>
							<g id="Grupo_571">
								<g id="Grupo_568">
									<path id="Trazado_1332" class="st10" d="M77.7,221.4H45.2v-48.6h32.5V221.4z M45.6,221.1h31.7v-47.9H45.5L45.6,221.1z"/>
								</g>
								<g id="Grupo_569">
									<rect id="Rectángulo_276" x="45.4" y="188.9" class="st10" width="32.1" height="0.3"/>
								</g>
								<g id="Grupo_570">
									<rect id="Rectángulo_277" x="45.4" y="205.3" class="st10" width="32.1" height="0.3"/>
								</g>
								<path id="Trazado_1333" class="st10" d="M64.7,176h-6c-0.3,0-0.5-0.2-0.5-0.5v0l0,0c0-0.3,0.2-0.5,0.5-0.5c0,0,0,0,0,0h6
									c0.3,0,0.5,0.2,0.5,0.5c0,0,0,0,0,0l0,0C65.2,175.7,65,176,64.7,176L64.7,176z"/>
								<path id="Trazado_1334" class="st10" d="M64.7,192h-6c-0.3,0-0.5-0.2-0.5-0.5v0l0,0c0-0.3,0.2-0.5,0.5-0.5c0,0,0,0,0,0h6
									c0.3,0,0.5,0.2,0.5,0.5c0,0,0,0,0,0l0,0C65.2,191.8,65,192,64.7,192L64.7,192z"/>
								<path id="Trazado_1335" class="st10" d="M64.7,208.7h-6c-0.3,0-0.5-0.2-0.5-0.5v0l0,0c0-0.3,0.2-0.5,0.5-0.5c0,0,0,0,0,0h6
									c0.3,0,0.5,0.2,0.5,0.5c0,0,0,0,0,0l0,0C65.2,208.5,65,208.7,64.7,208.7L64.7,208.7z"/>
							</g>
						</g>
						<g id="Grupo_579">
							<path id="Rectángulo_278" class="st11" d="M213.2,50h0.8c7.2,0,13,5.8,13,13l0,0c0,7.2-5.8,13-13,13l0,0h-0.8
								c-7.2,0-13-5.8-13-13l0,0l0,0C200.2,55.8,206,50,213.2,50C213.2,50,213.2,50,213.2,50z"/>
							<path id="Rectángulo_279" class="st9" d="M213.2,51.1h0.8c6.6,0,11.9,5.3,11.9,11.9l0,0c0,6.6-5.3,11.9-11.9,11.9h-0.7
								c-6.6,0-11.9-5.3-11.9-11.9l0,0C201.4,56.4,206.7,51.1,213.2,51.1L213.2,51.1z"/>
							<g id="Grupo_575">
								<g id="Grupo_573">
									<circle id="Elipse_212" class="st10" cx="213.6" cy="53.5" r="0.6"/>
									<path id="Trazado_1336" class="st10" d="M217.5,54.3c0.2-0.3,0.5-0.4,0.8-0.2c0.3,0.1,0.4,0.5,0.2,0.8
										c-0.1,0.3-0.5,0.4-0.8,0.2C217.5,54.9,217.4,54.6,217.5,54.3L217.5,54.3z"/>
									<path id="Trazado_1337" class="st10" d="M221.4,57.3c0.3-0.2,0.6-0.1,0.8,0.2c0,0,0,0,0,0c0.2,0.3,0.1,0.6-0.2,0.8
										c-0.3,0.2-0.6,0.1-0.8-0.2l0,0C221.1,57.8,221.1,57.5,221.4,57.3C221.4,57.3,221.4,57.3,221.4,57.3z"/>
									<path id="Trazado_1338" class="st10" d="M223.3,62.1c0.3,0,0.6,0.2,0.6,0.5s-0.2,0.6-0.5,0.6c-0.3,0-0.6-0.2-0.6-0.5
										c0,0,0,0,0,0C222.7,62.3,223,62.1,223.3,62.1z"/>
									<path id="Trazado_1339" class="st10" d="M222.3,67.6c0.2,0.2,0.2,0.6,0,0.8c-0.2,0.2-0.5,0.2-0.8,0c0,0,0,0,0,0
										c-0.2-0.2-0.2-0.6,0-0.8C221.7,67.3,222.1,67.3,222.3,67.6C222.3,67.5,222.3,67.5,222.3,67.6z"/>
									<path id="Trazado_1340" class="st10" d="M218.8,71.1c0.2,0.2,0.2,0.6-0.1,0.8c-0.2,0.2-0.5,0.2-0.7,0
										c-0.2-0.2-0.3-0.6-0.1-0.8C218.2,70.8,218.5,70.8,218.8,71.1C218.8,71,218.8,71,218.8,71.1z"/>
									<path id="Trazado_1341" class="st10" d="M213,72.9c0-0.3,0.2-0.6,0.5-0.6c0,0,0,0,0,0c0.3,0,0.6,0.3,0.6,0.6
										c0,0.3-0.2,0.6-0.5,0.6c0,0,0,0,0,0C213.3,73.5,213,73.2,213,72.9C213,72.9,213,72.9,213,72.9z"/>
								</g>
								<g id="Grupo_574">
									<path id="Trazado_1342" class="st10" d="M209.6,54.3c-0.2-0.3-0.5-0.4-0.8-0.2c-0.3,0.1-0.4,0.5-0.2,0.7c0,0,0,0,0,0
										c0.1,0.3,0.5,0.4,0.8,0.2C209.7,54.9,209.8,54.5,209.6,54.3L209.6,54.3L209.6,54.3z"/>
									<path id="Trazado_1343" class="st10" d="M205.8,57.3c-0.3-0.2-0.6-0.1-0.8,0.2c-0.1,0.3,0,0.6,0.2,0.8
										c0.2,0.1,0.5,0.1,0.7-0.2l0,0C206.1,57.8,206,57.5,205.8,57.3C205.8,57.3,205.8,57.3,205.8,57.3z"/>
									<path id="Trazado_1344" class="st10" d="M203.9,62.1c-0.3,0-0.6,0.2-0.6,0.5s0.2,0.6,0.5,0.6c0.3,0,0.6-0.2,0.6-0.5
										c0,0,0,0,0,0C204.4,62.3,204.2,62.1,203.9,62.1z"/>
									<path id="Trazado_1345" class="st10" d="M204.8,67.6c-0.2,0.2-0.2,0.6,0.1,0.8c0.2,0.2,0.5,0.2,0.7,0
										c0.2-0.2,0.2-0.6,0-0.8C205.4,67.3,205.1,67.3,204.8,67.6z"/>
									<circle id="Elipse_213" class="st10" cx="208.7" cy="71.5" r="0.6"/>
								</g>
							</g>
							<g id="Grupo_578">
								<path id="Trazado_1346" class="st10" d="M213.4,62.6c0-0.3,0.3-0.6,0.6-0.6s0.6,0.3,0.6,0.6c0,0.3-0.3,0.6-0.6,0.6l0,0
									C213.7,63.2,213.4,62.9,213.4,62.6z"/>
								<g id="Grupo_576">
									<rect id="Rectángulo_280" x="213.9" y="55.6" class="st10" width="0.2" height="7"/>
								</g>
								<g id="Grupo_577">
									
										<rect id="Rectángulo_281" x="213.4" y="61" transform="matrix(0.7866 -0.6174 0.6174 0.7866 8.2641 146.2968)" class="st10" width="4.7" height="0.5"/>
								</g>
							</g>
						</g>
						<g id="Grupo_582">
							<g id="Grupo_581">
								<path id="Trazado_1347" class="st12" d="M156.7,161c-1.8,3.4-4.5,6.2-7.8,8.3H131C131,169.3,159.3,156.4,156.7,161z"/>
								<g id="Grupo_580">
									<path id="Trazado_1348" class="st13" d="M178.9,220.4c-0.2,1.9,2.4,2.4,5.5,2.6s2.1,0.8,6.3,1.6s5.8-0.3,6.2-0.9
										s-1.7-1.3-3.7-2.2l-0.8-0.3c-2.3-1-3.6-3.2-5.4-5.1s-3.3-7.7-3.3-7.7L178,207c0,0,1.5,5.3,2.1,7.6c0.2,1.3,0,2.7-0.6,3.9
										C179.2,219.1,179,219.8,178.9,220.4z"/>
									<path id="Trazado_1349" class="st14" d="M184.4,223c3,0.2,2.1,0.8,6.3,1.6s5.8-0.3,6.2-0.9s-1.7-1.3-3.7-2.2l0,0
										c-2.1,0.6-4.3,0.6-6.3,0c-2.8-0.8-5.4-2.5-7.3-3c-0.3,0.6-0.4,1.2-0.5,1.9C178.7,222.3,181.3,222.8,184.4,223z"/>
									<path id="Trazado_1350" class="st12" d="M170.3,154.8c-3-2.1-23.2-6-33.5-7l-11.4-9.9c0,0-9.7,14.3-9.8,25.3
										c0,5.1,2.3,5.6,2.3,5.6s36.4,0.3,38,0.4c2.6,0.3,6.1,6.8,6.9,12.7S179,212,179,212c1.5,0.5,3.1,0.8,4.6,0.9
										c0.8,0,1.6-0.2,2.3-0.6C186,212.3,177.2,159.7,170.3,154.8z"/>
									<path id="Trazado_1351" class="st13" d="M169.5,220.4c-0.2,1.9,2.4,2.4,5.5,2.6s2.1,0.8,6.3,1.6s5.9-0.3,6.2-0.9
										s-1.7-1.3-3.7-2.2l-0.8-0.3c-2.3-1-3.6-3.2-5.4-5.1s-3.3-7.7-3.3-7.7l-5.7-1.3c0,0,1.5,5.3,2.1,7.6c0.2,1.3,0,2.7-0.6,3.9
										C169.8,219.1,169.6,219.8,169.5,220.4z"/>
									<path id="Trazado_1352" class="st12" d="M175,223c3,0.2,2.1,0.8,6.3,1.6s5.9-0.3,6.2-0.9s-1.7-1.3-3.7-2.2l0,0
										c-2.1,0.6-4.3,0.6-6.3,0c-2.8-0.8-5.4-2.5-7.3-3c-0.3,0.6-0.5,1.2-0.5,1.9C169.3,222.3,171.9,222.8,175,223z"/>
									<path id="Trazado_1353" class="st15" d="M160.8,154.8c-2.6-1.9-10.6-3.3-19.4-4.4c-2.4-0.3-4.4-2.1-5-4.4l0,0l-20.4-8.1
										c0,0-9.7,14.3-9.8,25.3c0,5.1,2.3,5.6,2.3,5.6s36.4,0.3,38,0.4c2.6,0.3,6.1,6.8,6.9,12.7s16.1,30.1,16.1,30.1
										c1.5,0.5,3.1,0.8,4.6,0.9c0.8,0,1.6-0.2,2.3-0.6C176.5,212.3,167.7,159.7,160.8,154.8z"/>
									<path id="Trazado_1354" d="M133.5,78.4c-2.8-1.5-7.1-1.7-7.8-1.8c-8.3-1.1-13.3,11-13.6,14.6c-0.5,6.7-4.1,7.8-9.1,12
										c-10.1,8.5-7.1,18.3-1.6,22c3.3,2.2,9.1,0,9.1,0s15.9-8.8,23.7-13.2C145.9,110.4,140.6,82.1,133.5,78.4z"/>
									<path id="Trazado_1355" class="st13" d="M131.7,107.9c0,0-3.7,1.7-6.4,0.8c-2.5-0.8-4.8-4.7-4.7-4.7
										c1.1-0.2,2.2-1.2,2.5-7.7l0.5,0.1l8.2,2.1c0,0-0.3,2.6-0.5,5C131.3,105.7,131.3,107.6,131.7,107.9z"/>
									<path id="Trazado_1356" class="st16" d="M131.8,98.6c0,0,0,0.5-0.3,3c-4.6-1.2-6.7-2.7-8.1-4.5L131.8,98.6z"/>
									<path id="Trazado_1357" class="st13" d="M133.6,98.9c0,0-10.8,1.8-11.8-5s-3.1-11.1,3.8-12.5s8.6,1,9.5,3.1
										S136.4,98.3,133.6,98.9z"/>
									<path id="Trazado_1358" d="M133.6,81.1c0,0-4.9,7.8-9.3,9.6s-6.5,0.9-6.5,0.9c1.3-2.2,2.2-4.6,2.5-7.1
										c0.1-1.2,0.9-2.2,2-2.7C125.5,80.6,131.5,78.6,133.6,81.1z"/>
									<path id="Trazado_1359" d="M129.3,81.9c1.5,0.7,2.9,1.7,4.1,2.9c1.4,1.9,2.2,4.2,2.4,6.6c0,0,1.4-7.8-1.5-10.5
										C131,78,129.3,81.9,129.3,81.9z"/>
									<path id="Trazado_1360" class="st1" d="M140.4,124.4c-0.3,22-0.1,17.4-2.5,19.5c-0.6,0.5-2.2,0.8-4.4,0.9
										c-6.7,0.5-18.6-0.7-19-1.9c-1.6-4.3-0.5-5.7-1.8-12.3c-0.1-0.7-0.3-1.5-0.5-2.3c-1.1-4.5-2.1-6.1,1.7-13.4
										c3.5-6.6,7.6-12,7.9-11.8c9.2,5.5,9.5,0.9,9.5,0.9S140.6,113.6,140.4,124.4z"/>
									<path id="Trazado_1361" class="st1" d="M131.3,104.1c0,0,9.4,1.6,10.5,5.7l7.6,28c0,0-4.8,0.9-7-1.3s-7.7-20.6-7.7-20.6
										L131.3,104.1z"/>
									<path id="Trazado_1362" class="st17" d="M133.5,144.8c-6.8,0.5-18.6-0.7-19-1.9c-1.5-4.3-0.5-5.7-1.8-12.3l3.3-9.2
										c0,0-0.5,10.2,2.5,12.9s12.3,5.2,13.8,7.4C132.9,142.7,133.3,143.7,133.5,144.8z"/>
									<path id="Trazado_1363" class="st13" d="M125.8,140.5c0,0,6.7-1.5,7.7-0.9s3.7,2.7,4,3.5s-2.4-0.6-3.3-0.8
										c-1,0-1.9,0.2-2.8,0.6c-1.6,0.6-3.4,0.8-5.1,0.5L125.8,140.5z"/>
									<path id="Trazado_1364" class="st1" d="M121.8,103.2c0,0-9.4,0.5-12.5,4.9c-4.3,6.1-13,31.9-8,35.4c5.6,3.9,25.4,1,25.4,1
										s0.7-3.1-0.3-4.6s-15.8-3.9-16.5-4.6s8.6-13.4,8.6-15.5S121.8,103.2,121.8,103.2z"/>
									<path id="Trazado_1365" class="st13" d="M133.9,141.5c0.5,0.7,1.2,1.4,1.8,2c0.2,0.1,0.5,0.2,0.8,0.2l-0.9-1.7L133.9,141.5
										z"/>
									<path id="Trazado_1366" class="st13" d="M133.5,139.6l4,2c-0.2,0.2-0.4,0.3-0.7,0.3c-0.6-0.1-1.2-0.3-1.8-0.5L133.5,139.6z
										"/>
								</g>
							</g>
						</g>
						<g id="Grupo_583">
							<path id="Trazado_1367" class="st18" d="M148.5,144.3h-18.8c0-0.8,0.7-1.5,1.5-1.5h17.3L148.5,144.3z"/>
							<path id="Trazado_1368" class="st18" d="M148.4,123.8h29.1l-7,20.5h-29.3L148.4,123.8z"/>
							<path id="Trazado_1369" class="st18" d="M178,123.8l-7,20.5h-29.3l7.2-20.5H178z"/>
							<path id="Trazado_1370" class="st18" d="M162.3,133.9c-0.2,0.8-0.9,1.4-1.7,1.4c-0.6,0-1.1-0.4-1.1-1c0-0.1,0-0.2,0-0.4
								c0.2-0.8,0.9-1.4,1.7-1.4c0.6,0,1.1,0.4,1.1,1C162.3,133.6,162.3,133.7,162.3,133.9z"/>
						</g>
						<g id="Grupo_587">
							<path id="Rectángulo_282" class="st19" d="M124.5,144.3h124.8c1.3,0,2.3,1,2.3,2.3v0l0,0c0,1.3-1,2.3-2.3,2.3l0,0H124.5
								c-1.3,0-2.3-1-2.3-2.3l0,0C122.2,145.3,123.2,144.3,124.5,144.3z"/>
							<g id="Grupo_584">
								<path id="Trazado_1371" class="st19" d="M253.8,224.9L253.8,224.9c0.7-0.1,1.1-0.7,1.1-1.3l0,0l-11.4-76.9l-4.2,0.1
									l13.4,77.3C252.8,224.6,253.3,225,253.8,224.9z"/>
							</g>
							<g id="Grupo_585">
								<path id="Trazado_1372" class="st19" d="M118.9,224.9L118.9,224.9c-0.7-0.1-1.1-0.7-1.1-1.3l0,0l11.4-76.9l4.2,0.1
									L120,224.2C119.8,224.6,119.4,225,118.9,224.9z"/>
							</g>
							<g id="Grupo_586">
								<path id="Trazado_1373" class="st19" d="M145.2,224.9L145.2,224.9c-0.7-0.1-1.1-0.7-1.1-1.3l0,0l11.4-76.9l4.2,0.1
									l-13.4,77.3C146.2,224.6,145.7,225,145.2,224.9z"/>
							</g>
						</g>
						<path id="Rectángulo_283" class="st20" d="M2.1,224.1h352.8c0.4,0,0.7,0.3,0.7,0.7l0,0c0,0.4-0.3,0.7-0.7,0.7l0,0H2.1
							c-0.4,0-0.7-0.3-0.7-0.7c0,0,0,0,0,0l0,0C1.4,224.4,1.7,224.1,2.1,224.1z"/>
						<g id="Grupo_588">
							<path id="Trazado_1374" class="st12" d="M212.2,224.8h22.5c1.1-1.3,0.7-6.2,0.5-7.8c0-0.3-0.1-0.5-0.1-0.5s-7.7-6.2-8.8-1.4
								c0,0.2-0.1,0.3-0.1,0.4c-1.3,4.4-7.3,6.4-10.8,7C213.4,222.8,212.5,224,212.2,224.8z"/>
							<path id="Trazado_1375" class="st12" d="M273.8,151.5c-0.8,0-38.6,7.1-44.9,14.8c-3.1,3.9-3.6,48.5-3.6,48.5s3.9,4.8,12.2,2
								c0,0,6.1-30.6,5.7-39.8c-0.1-2.6,25.8-0.4,30.6-1.6s16.4-11.6,13.8-16.6S273.8,151.5,273.8,151.5z"/>
							<path id="Trazado_1376" class="st13" d="M229,140.6c0,0-7.6,0.1-9.4,0.9s-5.5,2.5-4.5,2.8s5.7-0.1,6.7,0c1,0.1,1.9,0.1,2.9,0
								h3.5L229,140.6z"/>
							<path id="Trazado_1377" class="st13" d="M220.1,122.3c-1.5-1.1-3.3-1.8-5.1-2.2c-1.2-0.2-2.5-0.4-3.7-0.8
								c-2.3-0.8-7-5-6.6-5.5c1.1-1.6,6.6,1.8,7.5,1.4s-1.8-2.3-0.9-3c0.5-0.4,1.7,1.5,2.7,1.6c1.3,0.2,2.3,2.1,2.7,2.2
								c1.4,0.8,2.8,1.7,4.1,2.7L220.1,122.3z"/>
							<path id="Trazado_1378" class="st21" d="M270,100.6c0,0-5.8,1.8-11.5,17.6s-7.9,16.6-10,17.2s-20.3,4.3-20.3,4.3v4.7h28.1
								c0,0,10.5-10,13.7-16.8S270,100.6,270,100.6z"/>
							<path id="Trazado_1379" class="st22" d="M202.3,224.8h22.5c1.1-1.3,0.7-6.2,0.5-7.8c0-0.3,0-0.5,0-0.5s-7.7-6.2-8.8-1.4
								c0,0.1-0.1,0.3-0.1,0.4c-1.3,4.4-7.3,6.4-10.8,7C203.4,222.8,202.6,224,202.3,224.8z"/>
							<path id="Trazado_1380" class="st15" d="M262.6,151.5c-0.8,0-38.6,7.1-44.9,14.8c-3.1,3.9-3.6,48.5-3.6,48.5s3.9,4.8,12.2,2
								c0,0,6.1-30.6,5.7-39.8c-0.1-2.6,25.8-0.4,30.6-1.6s16.4-11.6,13.8-16.6S262.6,151.5,262.6,151.5z"/>
							<path id="Trazado_1381" class="st13" d="M265,105.6c2.7-0.3,5.4-0.9,8-1.8c3.1-1,5.6-2.5,4-5.3c-1.5-2.6-3.9-8.4-3.7-13.2
								l-5.7,4.6l-3.9,3.1c0.1,1.7,0.2,3.4,0.4,5.1c0.1,0.6,0.2,1.2,0.3,1.9c0.1,0.6-0.2,1.1-0.6,1.4l-0.1,0.1c-1,0.7-1.3,2-0.6,3
								C263.5,105.2,264.2,105.6,265,105.6L265,105.6z"/>
							<path id="Trazado_1382" class="st16" d="M263.7,92.4c-0.1,1.1-0.1,2.1,0.1,3.2c2.5-0.6,4.8-1.7,6.7-3.3
								c-1.8-0.5-2.4-2.4-3.7-2.2L263.7,92.4z"/>
							<path id="Trazado_1383" class="st13" d="M260.4,92.9c0,0,13.4,2.2,14.6-6.1s3.8-13.7-4.7-15.4s-10.6,1.2-11.7,3.8
								S257,92.1,260.4,92.9z"/>
							<path id="Trazado_1384" class="st23" d="M256.7,71.5c-0.6,2,1,4.5,3.5,5.3c3.8,1.2,3,5.9,4.7,5.8s2.4-2.7,4-0.6
								c1.3,1.8-1.1,3.9-0.9,4.9c0.3,1.7,2.9,5.1,5.3,5s6.8-11.5,6-15s-4.5-7.2-7.8-7.7s-8.1,1-9.2,1S257,70.4,256.7,71.5z"/>
							<path id="Trazado_1385" class="st21" d="M287.7,112.2c-1.9-7.8-7.3-15.9-10.9-15.9c-6.2,0-15,1.6-18.6,10.4
								c-2.6,6.5-6.1,43.8-2.2,46.4c9.1,6.1,30,18.4,33.8,5.8C293.3,147.4,291.1,125.6,287.7,112.2z"/>
							<path id="Trazado_1386" class="st21" d="M272.8,104.4c-1.4-3.8-5.6-5.6-9.4-4.2c0,0,0,0,0,0c-0.7,0.2-1.3,0.6-1.9,1
								c-2.8,2.2-5.3,4.6-7.7,7.2c-11.5,12.2-13.8,12.1-16,11.9s-20.4-4.1-20.4-4.1c-0.6,0.5-1.1,1.1-1.5,1.8
								c-0.4,0.8-0.6,1.7-0.4,2.5c-0.7-0.5,6.5,4.5,10,6.5c4.7,2.4,9.6,4.4,14.6,6c0.8,0.3,1.7,0.3,2.5,0c4.2-1.5,18.3-7,29.8-16.6
								C275.6,113.9,274.4,108.7,272.8,104.4z"/>
							<path id="Trazado_1387" class="st1" d="M277.5,96.3l-1.4-3.1c0,0-12.5,1-14.6,8.1C261.5,101.3,271.2,96.5,277.5,96.3z"/>
						</g>
						<g id="Grupo_592">
							<g id="Grupo_589">
								<path id="Trazado_1388" class="st6" d="M307.7,224.5L307.7,224.5c0.7,0,1.3-0.5,1.3-1.2c0,0,0,0,0,0v-0.1l-4.7-46.9
									l-4.1,0.4l6.7,47.1C307,224.3,307.3,224.5,307.7,224.5z"/>
							</g>
							<g id="Grupo_590">
								<path id="Trazado_1389" class="st6" d="M283.6,224.5L283.6,224.5c0.7,0,1.3-0.5,1.3-1.1c0,0,0,0,0,0c0,0,0-0.1,0-0.1
									l-4.7-46.9l-4.1,0.4l6.7,47.1C282.9,224.3,283.2,224.5,283.6,224.5z"/>
							</g>
							<g id="Grupo_591">
								<path id="Trazado_1390" class="st24" d="M238.2,224.5L238.2,224.5c-0.7,0-1.3-0.5-1.3-1.2v-0.1l4.7-46.9l4.1,0.4l-6.7,47.2
									C238.9,224.3,238.6,224.5,238.2,224.5z"/>
							</g>
							<path id="Trazado_1391" class="st6" d="M306.4,169.8l4.5-39.2c0.6-5.6-1.3-11.2-9.4-11.6l-14.3-0.9
								c-8.5-0.3-12.3,6.7-13.4,12.2l-8.5,43L306.4,169.8z"/>
							<path id="Rectángulo_284" class="st24" d="M241.9,169.6h64.4v3.8c0,2.1-1.7,3.8-3.8,3.8l0,0h-60.7c-2.1,0-3.8-1.7-3.8-3.8
								l0,0l0,0C238.1,171.3,239.8,169.6,241.9,169.6z"/>
							<path id="Rectángulo_285" class="st6" d="M269,169.6h37.4v3.8c0,2.1-1.7,3.8-3.8,3.8l0,0H269c-2.1,0-3.8-1.7-3.8-3.8l0,0
								l0,0C265.3,171.3,266.9,169.6,269,169.6z"/>
						</g>
					</g>
				</g>
			</g>
		</g>
	</g>
</g>
</svg>
