<?xml version="1.0" encoding="utf-8"?>
<!-- Generator: Adobe Illustrator 24.1.2, SVG Export Plug-In . SVG Version: 6.00 Build 0)  -->
<svg version="1.1" id="Capa_1" xmlns="http://www.w3.org/2000/svg" xmlns:xlink="http://www.w3.org/1999/xlink" x="0px" y="0px"
	 viewBox="0 0 354 249" style="enable-background:new 0 0 354 249;" xml:space="preserve">
<style type="text/css">
	.st0{clip-path:url(#SVGID_2_);}
	.st1{fill:#FFFFFF;}
	.st2{fill:#F7CC7F;}
	.st3{fill:#C6EAE9;}
	.st4{fill:#07345A;}
	.st5{fill:#F47458;}
	.st6{fill:#355389;}
	.st7{fill:#50BFA5;}
	.st8{fill:#5184CE;}
	.st9{fill:#707070;}
	.st10{opacity:0.3;fill:#184655;enable-background:new    ;}
	.st11{opacity:0.3;fill:#444444;enable-background:new    ;}
	.st12{fill:#184655;}
	.st13{fill:#CCE6FF;}
	.st14{fill:#0E2E35;}
	.st15{fill:#878583;}
	.st16{fill:#EBD6AC;}
	.st17{fill:#1F4752;}
	.st18{fill:#D1CFCB;}
	.st19{fill:url(#Elipse_223_1_);}
	.st20{fill:#C1DAE3;}
	.st21{fill:#858585;}
	.st22{fill:#7A7A7A;}
	.st23{fill:#592D24;}
	.st24{fill:#EE6F57;}
	.st25{fill:#F7A491;}
	.st26{fill:#E0973F;}
	.st27{fill:#DD513A;}
	.st28{fill:#35283C;}
	.st29{fill:#F38B80;}
	.st30{opacity:0.5;fill:#F47458;enable-background:new    ;}
	.st31{fill:#13375B;}
</style>
<g>
	<defs>
		<path id="SVGID_1_" d="M32,0h290c17.7,0,32,14.3,32,32v185c0,17.7-14.3,32-32,32H32c-17.7,0-32-14.3-32-32V32C0,14.3,14.3,0,32,0z
			"/>
	</defs>
	<clipPath id="SVGID_2_">
		<use xlink:href="#SVGID_1_"  style="overflow:visible;"/>
	</clipPath>
	<g class="st0">
		<g id="Enmascarar_grupo_39">
			<g id="Grupo_615">
				<g id="Grupo_614">
					<g id="Grupo_597">
						<g id="Grupo_596">
							<rect id="Rectángulo_287" class="st1" width="354" height="249"/>
						</g>
					</g>
					<g id="Grupo_613">
						<g id="Grupo_598">
							<path id="Trazado_1392" class="st2" d="M243.5,68.8c-4.6,18.2,6.4,36.6,24.5,41.2c18.2,4.6,36.6-6.4,41.2-24.5
								s-6.4-36.6-24.5-41.2c0,0,0,0,0,0C266.6,39.7,248.1,50.6,243.5,68.8z M251.9,69.8L251.9,69.8c4.1-13.5,18.3-21.2,31.9-17.1
								c0,0,0,0,0,0l0,0c13.5,4.1,21.2,18.3,17.2,31.8l0,0c-4.1,13.5-18.3,21.2-31.9,17.1l0,0C255.5,97.6,247.8,83.3,251.9,69.8
								L251.9,69.8z"/>
							<path id="Trazado_1393" class="st2" d="M220,68.9c0.2,0.8,0.9,1.1,2.7,1.8c3.2,1.3,6.5,2.6,9.7,4c0.6,0.3,1,0.9,1.1,1.6
								c0.4,3.4,0.5,6.8,0.9,10.2c0.3,0.9-0.1,1.8-0.9,2.2c-3.8,2.4-7.5,4.8-11.2,7.2c0.9,4,5.6,12.8,8,15.3c3.9-1.6,7.9-3.3,11.9-5
								c1-0.6,2.2-0.4,2.9,0.5c2.4,2.2,4.9,4.4,7.6,6.3c1.1,0.8,1.6,1.4,1.3,2.9c-0.9,3.8-1.6,7.6-2.4,11.4c-0.2,1,0,1.7,1,2
								l14.2,4.4c1.2,0.4,1.3-0.6,1.6-1.3c1.5-3.5,3-6.9,4.3-10.5c0.3-1.2,1.4-1.9,2.6-1.8c3.8-0.1,7.6-0.5,11.7-0.8l7.8,11.9
								c5.5-1.8,10.6-4.6,15.2-8.2l-5.4-12.9c2.8-3.6,5.5-6.8,8-10.2c0.5-0.8,1.5-1.2,2.3-0.9c3.7,0.8,7.5,1.5,11.2,2.3
								c0.8,0.2,1.4,0.2,1.8-0.7c2.2-4.4,3.7-9.1,4.5-14c0.2-0.8-0.2-1.7-1.1-1.9h-0.1c-3.6-1.5-7.3-3.1-10.9-4.6
								c-0.8-0.2-1.4-1-1.3-1.8c-0.3-3.7-0.7-7.5-1.3-11.2c-0.2-0.7,0.2-1.4,0.8-1.8c3.7-2.5,7.4-4.9,11.2-7.5
								c-1.8-5.4-4.5-10.5-7.9-15.1l-13.4,5.6l-11-9.1c0.7-3.3,1.5-7.2,2.2-11c0.6-3.2,1.1-2.8-2.1-4.1c-0.3-0.2-0.6-0.3-0.8-0.6
								l-8.5-2.6c-0.7,0-1.3-0.1-2-0.3c-1.6-0.5-2.6-0.1-3.2,1.6c-1.4,3.6-2.9,7.2-4.5,10.7c-0.3,0.5-0.8,0.9-1.4,1
								c-3.3,0.4-6.7,0.5-10,1.1c-1.2,0.4-2.6-0.2-3.1-1.4c-2.3-3.6-4.7-7-7.2-10.9l-15.1,7.9c0.4,1,0.6,1.6,0.8,2.2
								c1.5,3.5,2.9,7.1,4.4,10.6c0.4,0.8,0.2,1.8-0.5,2.4c-2.3,2.8-4.5,5.7-6.8,8.5c-0.5,0.5-1.1,0.7-1.8,0.6
								c-3.1-0.5-6.2-1.2-9.2-1.8c-2.5-0.5-3.4-0.7-4.2,0.2L220,68.9z M242.4,68.5c4.8-18.8,23.9-30.2,42.7-25.4
								c18.8,4.8,30.2,23.9,25.4,42.7s-23.9,30.2-42.7,25.4c-9-2.3-16.8-8.1-21.6-16.1C241.4,87.1,240.1,77.5,242.4,68.5L242.4,68.5
								z"/>
						</g>
						<path id="Trazado_1394" class="st3" d="M28.3,115.8c0.5,0.4,1.1,0.2,2.6-0.3c2.6-0.9,5.3-1.8,8-2.7c0.5-0.1,1.1,0,1.5,0.4
							c2,1.9,3.9,3.8,5.9,5.7c0.6,0.4,0.9,1.1,0.6,1.8c-1,3.4-2,6.9-3,10.3c2.6,1.9,10.1,4.9,12.9,5.1c1.5-3,3.1-6.2,4.6-9.3
							c0.3-0.9,1.1-1.4,2-1.2c2.6,0.1,5.3,0.1,7.9-0.1c1.1-0.1,1.7,0,2.3,1.1c1.4,2.8,3,5.4,4.5,8.2c0.4,0.7,0.8,1,1.6,0.7l10.9-4.8
							c0.9-0.4,0.5-1.1,0.3-1.6c-0.9-2.9-1.8-5.8-2.9-8.6c-0.4-0.9-0.1-1.9,0.6-2.5c2.2-2.1,4.3-4.3,6.7-6.6l11,3.1
							c2.4-4,4-8.4,4.9-12.9l-10-5c-0.2-3.6-0.2-7-0.5-10.4c-0.2-0.8,0.3-1.5,1-1.8c2.7-1.5,5.4-3,8-4.5c0.6-0.3,1-0.6,0.8-1.4
							c-1-3.8-2.6-7.5-4.6-10.8c-0.3-0.6-1-0.9-1.6-0.6h-0.1c-3,1-6,1.9-9,3c-0.6,0.3-1.3,0.1-1.8-0.4c-2.1-2.1-4.4-4.2-6.6-6.1
							c-0.5-0.3-0.7-1-0.4-1.5c1-3.4,1.9-6.9,2.9-10.4c-4-2.3-8.3-4-12.7-5L71.5,57L60,57.2c-1.3-2.4-2.9-5.1-4.5-7.9
							c-1.3-2.2-0.8-2.2-3.4-1.4c-0.3,0.1-0.5,0.1-0.8,0.1L44.8,51c-0.4,0.3-0.9,0.6-1.3,0.9c-1.3,0.5-1.6,1.3-1.1,2.6
							c1.1,2.9,2,5.9,2.9,8.9c0.1,0.5,0,1-0.3,1.4c-1.8,2-3.8,3.9-5.5,6c-0.5,0.9-1.7,1.2-2.6,0.8c-3.3-1-6.5-1.8-10.1-2.8l-5,12.8
							l1.7,0.9c2.8,1.4,5.5,2.8,8.3,4.1c0.7,0.3,1.1,1,1,1.7c0,2.9,0.3,5.8,0.3,8.8c0,0.5-0.3,1-0.8,1.3c-2.2,1.3-4.4,2.5-6.6,3.7
							c-1.8,1-2.4,1.4-2.5,2.3L28.3,115.8z M41.7,103.9C34.7,89.9,40.3,73,54.3,66c13.9-7,30.9-1.4,37.9,12.6
							c7,13.9,1.4,30.9-12.6,37.9c-6.7,3.4-14.4,3.9-21.5,1.6C50.9,115.6,45.1,110.5,41.7,103.9z"/>
						<path id="Trazado_1395" class="st2" d="M68.2,39.4l1.1-2l-1-2c-0.1-0.2,0-0.3,0.1-0.4c0,0,0,0,0,0c0.1,0,0.1,0,0.2,0l2.2,0.4
							l1.6-1.6c0.1-0.1,0.3-0.1,0.4,0c0,0,0,0,0,0c0,0,0.1,0.1,0.1,0.2l0.3,2.2l2,1c0.2,0.1,0.2,0.3,0.1,0.4c0,0,0,0,0,0
							c0,0.1-0.1,0.1-0.1,0.1l-2,1l-0.3,2.2c0,0.2-0.2,0.3-0.3,0.3c-0.1,0-0.1,0-0.2-0.1l-1.6-1.6l-2.2,0.4c-0.2,0-0.3-0.1-0.3-0.3
							C68.1,39.5,68.1,39.4,68.2,39.4z"/>
						<path id="Trazado_1396" class="st4" d="M153.3,44.2l0.9-1.5l-0.7-0.3c-0.2-0.1-0.2-0.2-0.2-0.4c0,0,0,0,0,0l0,0
							c0.1-0.2,0.2-0.2,0.4-0.2l0.8,0.4l0.8-1.3l-0.8-0.3c-0.2-0.1-0.2-0.2-0.2-0.4c0,0,0,0,0,0l0,0c0.1-0.2,0.2-0.2,0.4-0.2
							c0,0,0,0,0,0l0.9,0.4l1-1.5c0.1-0.1,0.2-0.2,0.4-0.1l0.1,0c0.2,0.1,0.2,0.2,0.2,0.4v0l-0.9,1.4l1.3,0.5l1-1.5
							c0.1-0.1,0.2-0.2,0.4-0.1l0.2,0.1c0.2,0.1,0.2,0.2,0.2,0.4c0,0,0,0,0,0l0,0l-0.9,1.5l0.7,0.3c0.2,0.1,0.2,0.2,0.2,0.4l0,0
							c-0.1,0.2-0.2,0.2-0.4,0.2l0,0l-0.8-0.3l-0.8,1.3l0.8,0.3c0.2,0.1,0.2,0.2,0.2,0.4c0,0,0,0,0,0l0,0c-0.1,0.2-0.2,0.2-0.4,0.2
							l-0.9-0.4l-1,1.6c-0.1,0.1-0.2,0.2-0.4,0.1l-0.2,0c-0.2-0.1-0.2-0.3-0.2-0.4c0,0,0,0,0,0l0,0l0.9-1.5l-1.3-0.5l-1,1.6
							c-0.1,0.1-0.2,0.2-0.4,0.1l-0.2-0.1C153.2,44.6,153.2,44.5,153.3,44.2C153.2,44.3,153.2,44.3,153.3,44.2L153.3,44.2z
							 M156.6,43l0.8-1.3l-1.3-0.5l-0.8,1.3L156.6,43z"/>
						<path id="Trazado_1397" class="st5" d="M53.7,142l-4.1,5.3c-0.1,0.3,0.2,0.6,0.8,1.1c1.1,1,2.2,2,3.2,3
							c0.2,0.2,0.2,0.5,0.2,0.8c-0.4,1.4-0.8,2.8-1.2,4.2c-0.1,0.4-0.2,0.6-0.7,0.7c-1.8,0.4-3.7,0.8-5.5,1.2
							c-0.1,2.5,0.2,4.9,0.9,7.3c1.8-0.1,3.6-0.1,5.5-0.2c0.5-0.1,0.9,0.2,1.1,0.6c0.6,1.3,1.3,2.5,2.1,3.7c0.4,0.4,0.4,0.9,0.1,1.3
							c-0.9,1.4-1.8,2.8-2.7,4.2c-0.2,0.4-0.3,0.7,0.1,0.9l5,3.9c0.4,0.3,0.6,0,0.8-0.3c1.1-1.2,2.2-2.3,3.3-3.5
							c0.3-0.4,0.9-0.6,1.3-0.3c1.5,0.5,3.1,1,4.8,1.5l1.3,5.9c2.4,0.1,4.9-0.3,7.2-1c-0.1-2.1-0.1-4.1-0.2-5.9
							c1.7-1,3.2-1.9,4.7-2.8c0.3-0.3,0.8-0.3,1.1,0c1.4,0.9,2.8,1.7,4.1,2.6c0.3,0.2,0.5,0.3,0.8,0c1.5-1.4,2.8-3.1,3.9-4.9
							c0.2-0.3,0.1-0.6-0.1-0.8l0,0c-1.2-1.2-2.4-2.3-3.6-3.5c-0.3-0.2-0.4-0.6-0.3-0.9c0.5-1.5,0.8-3.1,1.2-4.6
							c0-0.3,0.3-0.6,0.6-0.6l5.6-1.3c0.1-2.4-0.2-4.8-0.9-7.2l-6.2,0.2l-3-5.3c0.8-1.2,1.7-2.6,2.5-4c0.7-1.2,0.8-0.9-0.2-1.9
							c-0.1-0.1-0.2-0.2-0.3-0.3l-3-2.3c-0.3-0.1-0.5-0.2-0.8-0.4c-0.3-0.4-0.9-0.4-1.3-0.1c-0.1,0.1-0.1,0.2-0.2,0.2
							c-1.1,1.2-2.3,2.4-3.4,3.6c-0.2,0.2-0.5,0.2-0.7,0.2c-1.4-0.3-2.8-0.8-4.1-1c-0.5,0-1-0.5-1-1c-0.4-1.8-0.8-3.5-1.2-5.4
							l-7.2,0.9c0,0.5,0,0.7,0,1c0.1,1.6,0.1,3.3,0.2,4.9c0,0.4-0.2,0.7-0.5,0.9c-1.3,0.8-2.7,1.6-4,2.3c-0.3,0.1-0.6,0.1-0.8,0
							c-1.1-0.7-2.3-1.4-3.4-2.1C54.5,142,54.2,141.8,53.7,142z M62.2,152.5c3.7-4.8,10.5-5.7,15.2-2c0,0,0,0,0,0l0,0
							c4.8,3.6,5.7,10.5,2,15.2c0,0,0,0,0,0l0,0c-3.6,4.8-10.5,5.7-15.2,2c0,0,0,0,0,0l0,0C59.4,164.1,58.5,157.3,62.2,152.5
							C62.2,152.5,62.2,152.5,62.2,152.5L62.2,152.5z"/>
						<path id="Trazado_1398" class="st6" d="M121.8,29.2l3.9,0.5l-1.7-3L121.8,29.2z"/>
						<g id="Grupo_599">
							<path id="Trazado_1399" class="st5" d="M143.5,71.3c0,1.4,0.9,2.5,2.3,2.8c1.3,0.2,2.5-0.6,2.9-1.8c0.9-2.4-1.7-4.2-3.1-2.8
								s-0.9,3.3,0.5,3.3c0.5,0,1.4-0.5,1-1.1c-0.1-0.1-0.2-0.1-0.3-0.1c0,0,0,0,0,0c0,0-0.1,0-0.1,0.1c-0.2,0.3-0.2,0.3-0.2,0.4
								c-0.1,0.1-0.3,0.1-0.5,0.1c-1.5,0-0.5-3.3,1.2-2.5c0.9,0.4,1.3,1.5,0.9,2.4c-0.3,0.9-1.2,1.5-2.1,1.5
								c-1.2-0.1-2.1-1.1-2.2-2.3c0-0.1-0.1-0.2-0.2-0.2c0,0,0,0,0,0C143.6,71.1,143.5,71.2,143.5,71.3L143.5,71.3z"/>
						</g>
						<g id="Grupo_601">
							<g id="Grupo_600">
								<path id="Trazado_1400" class="st7" d="M220.3,31.6l1.2,0.5c0,0,2-0.4,2.2-0.8s0.3-1.3,0.6-1.3c0.5,0,0.8,0.3,0.9,0.8
									c0,0,0,0,0,0c0.1,0.5-0.7,1.7-0.6,1.9c0.4,0.2,0.8,0.4,1.2,0.6c0.3,0.1,0.5,0.4,0.6,0.8l0,0c0,0.2-0.1,0.4-0.4,0.5l-0.4,0.1
									l0.1,0.4c0.1,0.3-0.1,0.5-0.4,0.6l0,0l-0.3,0.1L225,36c0.1,0.3-0.1,0.5-0.3,0.6h0l-0.2,0v0.1c0,0.3-0.2,0.5-0.4,0.5h-0.2
									l-3.1-1.3c-0.3-0.1-0.6-0.3-0.8-0.5l-1-0.6c-0.1-0.1-0.2-0.2-0.1-0.3l1.2-2.7C220,31.6,220.2,31.5,220.3,31.6L220.3,31.6z"
									/>
							</g>
						</g>
						<g id="Grupo_602">
							<path id="Rectángulo_288" class="st8" d="M174.9,78h14.2c4.1,0,7.4,3.3,7.4,7.4l0,0c0,4.1-3.3,7.4-7.4,7.4h-14.2
								c-4.1,0-7.4-3.3-7.4-7.4l0,0C167.5,81.3,170.8,78,174.9,78z"/>
							<path id="Trazado_1401" class="st9" d="M164.6,223.3l-22.3,10.3v2.3h79.6v-2.3l-22.5-10.3H164.6z"/>
							<rect id="Rectángulo_289" x="164.6" y="179.1" class="st9" width="34.7" height="44.2"/>
							<path id="Trazado_1402" class="st9" d="M286.9,193V93.4c0-4.7-3.8-8.6-8.6-8.6H85.3c-4.7,0-8.6,3.8-8.6,8.6c0,0,0,0,0,0V193
								L286.9,193z"/>
							<rect id="Rectángulo_290" x="142.3" y="233.6" class="st10" width="79.6" height="2.3"/>
							<rect id="Rectángulo_291" x="164.6" y="218.1" class="st11" width="34.7" height="5.2"/>
							<path id="Trazado_1403" class="st9" d="M76.7,193v16c0,3.3,2.2,6,4.9,6h200.4c2.7,0,4.9-2.7,4.9-6v-16H76.7z"/>
							<path id="Trazado_1404" class="st12" d="M184.1,82c0,1.1-0.9,1.9-2,1.9c-1.1,0-1.9-0.9-1.9-2c0-1.1,0.8-1.9,1.9-1.9
								C183.2,80,184.1,80.8,184.1,82C184.1,81.9,184.1,81.9,184.1,82z"/>
							<path id="Trazado_1405" class="st13" d="M282,188.7v-95c0-2.5-2.1-4.6-4.7-4.5c0,0,0,0,0,0h-191c-2.5,0-4.6,2-4.7,4.5
								c0,0,0,0,0,0v95H282z"/>
							<path id="Trazado_1406" class="st1" d="M193.7,150h-22c-3.2,17.1-12.3,30.3-28.8,38.7h79.6C205,180.2,196.3,166.8,193.7,150z
								"/>
							<rect id="Rectángulo_292" x="36.4" y="235.5" class="st14" width="280.5" height="1.7"/>
						</g>
						<g id="Grupo_608">
							<g id="Grupo_607">
								<path id="Rectángulo_293" class="st15" d="M169.2,142.2h27c0,4.3-3.5,7.8-7.8,7.8H177C172.7,150,169.2,146.5,169.2,142.2z"
									/>
								<g id="Grupo_603">
									<path id="Trazado_1407" class="st5" d="M161.6,104.4c0,0-10.2,13.6-17.5,21.9c-9.8,11.3-7.2,12.7,1.6,44
										c22.3-15,12.8-36.7,20.8-41C181.2,121.3,161.6,104.4,161.6,104.4z"/>
									<path id="Trazado_1408" class="st5" d="M203.8,104.4c0,0,10.2,13.6,17.5,21.9c9.8,11.3,7.2,12.7-1.6,44
										c-22.3-15-12.8-36.7-20.8-41C184.2,121.3,203.8,104.4,203.8,104.4z"/>
								</g>
								<g id="Grupo_604">
									<path id="Trazado_1409" class="st5" d="M210.4,93.7c0-26.2-15.1-49.6-23-59.9c-2-2.6-5.7-3.1-8.3-1.1c-0.4,0.3-0.7,0.6-1,1
										c-8,9.9-23.1,32.2-23.1,58.8c0,10.7,7.4,41.2,11.2,49c0.9,1.8,2.8,3,4.9,3h23.9c2.1,0,4-1.2,4.9-3
										C203.7,133.7,210.4,104.5,210.4,93.7z"/>
								</g>
								<path id="Trazado_1410" class="st2" d="M199.8,141.4c3.8-7.8,10.6-37,10.6-47.7c0-16-5.6-30.9-11.8-42.4
									c-10.3-5.4-22.7-5.1-32.8,0.8c-5.8,11-10.9,24.9-10.9,40.3c0,10.7,7.4,41.2,11.2,49c0.9,1.8,2.8,3,4.9,3h23.9
									C197,144.5,198.9,143.3,199.8,141.4z"/>
								<g id="Grupo_606">
									<circle id="Elipse_214" class="st16" cx="183.8" cy="81.3" r="17"/>
									<circle id="Elipse_215" class="st14" cx="182.8" cy="81" r="17"/>
									<path id="Trazado_1411" class="st17" d="M166.5,81.3c0-9.4,7.6-17,17-17c1.7,0,3.4,0.2,5,0.8c-8.9-3.2-18.6,1.4-21.8,10.3
										c-3.2,8.9,1.4,18.6,10.3,21.8l0,0l0.8,0.3C171,94.9,166.5,88.5,166.5,81.3z"/>
									<circle id="Elipse_216" class="st18" cx="183" cy="95.9" r="1.3"/>
									<circle id="Elipse_217" class="st18" cx="182.9" cy="66.6" r="1.3"/>
									<circle id="Elipse_218" class="st18" cx="193.9" cy="71.5" r="1.3"/>
									<circle id="Elipse_219" class="st18" cx="172.5" cy="91.7" r="1.3"/>
									<circle id="Elipse_220" class="st18" cx="193.9" cy="91.1" r="1.3"/>
									<path id="Trazado_1412" class="st18" d="M173.3,71.3c0,0.7-0.6,1.3-1.3,1.3c-0.7,0-1.3-0.6-1.3-1.3c0-0.7,0.6-1.3,1.3-1.3
										l0,0C172.7,70,173.3,70.6,173.3,71.3C173.3,71.3,173.3,71.3,173.3,71.3z"/>
									<circle id="Elipse_221" class="st18" cx="197.7" cy="81.3" r="1.3"/>
									<circle id="Elipse_222" class="st18" cx="168" cy="81.3" r="1.3"/>
									
										<linearGradient id="Elipse_223_1_" gradientUnits="userSpaceOnUse" x1="-789.06" y1="-404.2139" x2="-788.0601" y2="-404.2139" gradientTransform="matrix(0.83 -24.97 24.97 0.83 10930.6514 -19278.5098)">
										<stop  offset="0" style="stop-color:#1F90F2"/>
										<stop  offset="1" style="stop-color:#A3D6FF"/>
									</linearGradient>
									<circle id="Elipse_223" class="st19" cx="182.8" cy="81" r="12.5"/>
									<path id="Trazado_1413" class="st20" d="M171.7,82.6c0-6.9,5.6-12.5,12.5-12.5c3.1,0,6.1,1.2,8.4,3.2
										c-4.3-5.4-12.1-6.4-17.5-2.1c-5.4,4.3-6.4,12.1-2.1,17.5c0.4,0.6,0.9,1.1,1.4,1.5C172.6,88.1,171.7,85.4,171.7,82.6z"/>
									<g id="Grupo_605">
										<circle id="Elipse_224" class="st15" cx="182.8" cy="95.7" r="1.3"/>
										<path id="Trazado_1414" class="st21" d="M182.8,96.4c-0.4,0-0.7-0.3-0.7-0.7c0-0.4,0.3-0.7,0.7-0.7c0.4,0,0.7,0.3,0.7,0.7
											c0,0,0,0,0,0l0,0C183.5,96.1,183.2,96.4,182.8,96.4L182.8,96.4z"/>
										<circle id="Elipse_225" class="st15" cx="182.7" cy="66.4" r="1.3"/>
										<path id="Trazado_1415" class="st21" d="M182.7,67.1c-0.4,0-0.7-0.4-0.6-0.8c0-0.3,0.3-0.6,0.6-0.6c0.4,0,0.7,0.3,0.7,0.7
											c0,0,0,0,0,0l0,0C183.4,66.8,183.1,67.1,182.7,67.1L182.7,67.1z"/>
										<circle id="Elipse_226" class="st15" cx="193.7" cy="71.3" r="1.3"/>
										<path id="Trazado_1416" class="st21" d="M193.7,72c-0.4,0-0.7-0.3-0.7-0.7s0.3-0.7,0.7-0.7c0.4,0,0.7,0.3,0.7,0.7v0l0,0
											C194.4,71.7,194.1,72,193.7,72z"/>
										<path id="Trazado_1417" class="st15" d="M173.6,91.5c0,0.7-0.6,1.3-1.3,1.3c-0.7,0-1.3-0.6-1.3-1.3c0-0.7,0.6-1.3,1.3-1.3
											l0,0C173,90.2,173.6,90.8,173.6,91.5C173.6,91.5,173.6,91.5,173.6,91.5z"/>
										<path id="Trazado_1418" class="st21" d="M172.3,92.2c-0.4,0-0.7-0.4-0.6-0.8c0-0.3,0.3-0.6,0.6-0.6c0.4,0,0.7,0.3,0.7,0.7
											c0,0,0,0,0,0l0,0C173,91.9,172.7,92.2,172.3,92.2L172.3,92.2z"/>
										<circle id="Elipse_227" class="st15" cx="193.7" cy="90.9" r="1.3"/>
										<path id="Trazado_1419" class="st21" d="M193.7,91.6c-0.4,0-0.7-0.3-0.7-0.7c0-0.4,0.3-0.7,0.7-0.7c0.4,0,0.7,0.3,0.7,0.7
											l0,0C194.4,91.3,194.1,91.7,193.7,91.6C193.7,91.7,193.7,91.7,193.7,91.6z"/>
										<circle id="Elipse_228" class="st15" cx="171.8" cy="71.1" r="1.3"/>
										<path id="Trazado_1420" class="st21" d="M171.8,71.8c-0.4,0-0.7-0.4-0.6-0.8c0-0.3,0.3-0.6,0.6-0.6c0.4,0,0.7,0.3,0.7,0.7
											c0,0,0,0,0,0l0,0C172.5,71.5,172.2,71.8,171.8,71.8L171.8,71.8z"/>
										<circle id="Elipse_229" class="st15" cx="197.5" cy="81.1" r="1.3"/>
										<path id="Trazado_1421" class="st21" d="M197.5,81.8c-0.4,0-0.7-0.3-0.7-0.7s0.3-0.7,0.7-0.7c0.4,0,0.7,0.3,0.7,0.7
											c0,0,0,0,0,0l0,0C198.2,81.5,197.9,81.8,197.5,81.8C197.5,81.8,197.5,81.8,197.5,81.8z"/>
										<circle id="Elipse_230" class="st15" cx="167.8" cy="81.1" r="1.3"/>
										<path id="Trazado_1422" class="st21" d="M167.8,81.8c-0.4,0-0.7-0.3-0.7-0.7s0.3-0.7,0.7-0.7c0.4,0,0.7,0.3,0.7,0.7
											c0,0,0,0,0,0l0,0C168.5,81.5,168.2,81.8,167.8,81.8C167.8,81.8,167.8,81.8,167.8,81.8z"/>
									</g>
									<path id="Trazado_1423" class="st22" d="M190.6,81.5c-1.4,5.5-6.9,8.8-12.4,7.4c-1.6-0.4-3.1-1.2-4.4-2.4
										c2.9,5,9.3,6.7,14.3,3.8S194.9,81,192,76c-0.9-1.5-2.1-2.8-3.6-3.7C190.6,74.8,191.4,78.2,190.6,81.5z"/>
								</g>
							</g>
							<path id="Trazado_1424" class="st5" d="M186.2,140.4c0,16.5-1.6,27.2-3.5,30c-2-2.8-3.5-13.4-3.5-30c0-10.1,1.2-20.2,3.5-30
								C185,120.2,186.2,130.3,186.2,140.4z"/>
							<path id="Trazado_1425" class="st23" d="M158.4,98.2c0-27.7,16.3-50.9,24.8-61.2l0,0c0.4-0.5,0.4-1.3-0.1-1.7c0,0,0,0,0,0
								c-0.3-0.3-0.8-0.4-1.3-0.2c-0.9,0.4-1.8,1-2.4,1.7c-8,9.6-23.1,31.3-23.1,57c0,10.3,6.6,35.7,10.5,43.7
								C162.7,124.8,158.4,106.9,158.4,98.2z"/>
						</g>
						<path id="Trazado_1426" class="st1" d="M282,188.7v-29.8c-0.9-0.1-1.7-0.2-2.6-0.2c-8.7,0-15.8,9.9-15.8,18.6
							c0,0.6,0,1.1,0.1,1.7h-0.4c-1.4,0-2.7,0.2-4,0.7c-2.6-7.4-10.7-11.3-18.1-8.7c-5,1.8-8.6,6.1-9.3,11.4
							c-5-1.4-10.3,1.4-11.9,6.4L282,188.7z"/>
						<path id="Trazado_1427" class="st1" d="M137.9,179.1c-3.9,0-7.5,2.1-9.4,5.6c-2.8-3.1-7.6-3.3-10.8-0.5
							c-1.3-7.7-8.6-13-16.3-11.7c-0.3,0.1-0.7,0.1-1,0.2c0-0.1,0-0.3,0-0.4c0-9.6-7.8-17.4-17.4-17.4l0,0c-0.5,0-0.9,0-1.4,0.1
							v33.7h67C148,183.2,143.4,179.1,137.9,179.1z"/>
						<g id="Grupo_611">
							<g id="Grupo_610">
								<path id="Trazado_1428" class="st24" d="M116,51.3c0.2,0,0.9,0.2,1.9,2.1c1.2,2.3,3,9.4,3,9.4l-5.4,2l-0.7-1.5l-1.1-11.3
									C113.6,51.9,115.9,51.3,116,51.3z"/>
								<path id="Trazado_1429" class="st24" d="M108.8,50.3c2.4,0.1,4.8,0.4,7.1,1c0,0,1.3,11.2-1.2,19.6c-0.5,1.9,0.5,7.9,0.5,7.9
									l-15.9-0.2c0,0,1.9-14.4,1.2-16.8s-0.7-10.5-0.7-10.5l3.6-0.6C105.2,50.4,107,50.3,108.8,50.3z"/>
								<path id="Trazado_1430" class="st25" d="M107,99.5c0,0,0.3,4.1,1,5.2s0,3-0.1,3.3s-1.4,0.6-3.5,0.4s-2.1-0.7-1.9-1.5
									s1.3-1.8,1.4-2.6c-0.1-1.2-0.3-2.3-0.7-3.5L107,99.5z"/>
								<path id="Trazado_1431" class="st26" d="M113.5,75.4c0,0,11-0.6,13.5,0.9s-1.8,8.8-1.8,8.8s-7.7-0.4-22.7,0.5
									c-3.6,0.2-3.9-9.3-3.2-10S113.5,75.4,113.5,75.4z"/>
								<path id="Trazado_1432" class="st27" d="M104.2,108.7c-2.2-0.2-1.9-1.3-1.7-2.1c0.3-0.6,0.7-1.2,1.1-1.7
									c0.4,0.3,0.9,0.6,1.5,0.7c1.1,0.1,2.2-0.1,3.2-0.6c0.2,0.9,0.3,1.9,0.3,2.8C108.5,108.1,106.3,109,104.2,108.7z"/>
								<path id="Trazado_1433" class="st2" d="M105.4,83.3c0.4,3.3,2.6,19.9,2.6,19.9l-5,0.6c0,0-6.2-21.6-5.9-24.9
									s2.7-3.6,2.7-3.6S104.2,74.5,105.4,83.3z"/>
								<path id="Trazado_1434" class="st25" d="M99.6,52.6c1.5-0.6,2.2,12.9,2.4,18.4c2.8,0.2,5.6,0.1,8.4-0.1
									c0.5,0,1.8-0.5,2.3-0.6c0.4-0.1,0.9-0.1,1.3-0.1c1.1,0.4,2.1,0.9,3.1,1.4c0.3,0.3,1.1,1.1,1,1.4s-1.5-0.9-1.5-0.9l-0.7-0.4
									c0.8,0.8,2.5,1.9,2.2,2.3s-1.7-0.7-2.7-1.5c0.9,0.8,2,2.2,1.7,2.5s-1.5-1.5-2.8-1.9c-0.5-0.2-1,0.3-1.4,0.4
									c-0.3,0.1-0.7,0.1-1,0.1l-1.5-0.4c-0.5,0-0.5,0.3-1,0.4s-1.5,0.3-2.3,0.4c-4.3,1-5.7,1.5-7,1.5C96.3,75.5,96,53.9,99.6,52.6
									z"/>
								<path id="Trazado_1435" class="st24" d="M96.8,65.2c-0.3-5.7-0.2-12.6,2.9-13.8c1.3-0.5,3.5,2.4,3.1,14
									C100.8,65.5,98.7,65.5,96.8,65.2z"/>
								<path id="Trazado_1436" class="st25" d="M122.3,103.4c-0.4,0.7-0.5,1.6-0.2,2.4c0.6,1.1,3.6,2.7,3.9,3.3
									c0.2,0.3,0.3,0.7,0.2,1l-8.9-2.2l0.7-2.7l0.8-1.9L122.3,103.4z"/>
								<path id="Trazado_1437" class="st27" d="M122.6,106.4c0,0-2.5,0.4-3.5-0.4s-0.9-0.9-1.3-0.8s-0.6,1.2-0.8,1.9
									c-0.1,0.4,0.1,0.8,0.5,0.9c0,0,0,0,0,0l0,0l9.3,2.3c0.7,0.1,1.2-0.3,0.7-0.9c-0.3-0.3-0.6-0.6-1-0.9
									C125.2,107.8,123.9,107,122.6,106.4z"/>
								<path id="Trazado_1438" class="st2" d="M121.4,78c0.7-1.5,2.3-3.5,5.2-2.3s3.4,3.9,2.6,6.7s-6.5,19.4-6.7,21.7H118
									c0,0,0.8-13.1,1-16.3C119.2,84.4,120.1,81.1,121.4,78z"/>
								<path id="Trazado_1439" class="st12" d="M128.7,62.8h-15c-0.4,0-0.8,0.2-0.9,0.6l-4.6,11.4h-8.3c-0.2,0-0.4,0.2-0.4,0.4l0,0
									c0,0.2,0.2,0.4,0.4,0.4h23.7c0.7,0,1.2-0.4,1.5-1l4.7-10.4c0.2-0.5,0-1.1-0.5-1.3C129,62.8,128.9,62.7,128.7,62.8z"/>
								<path id="Trazado_1440" class="st1" d="M120.6,69.4c-0.2,0.4-0.6,0.7-1.1,0.5s-0.7-0.6-0.5-1.1l0,0c0.1-0.4,0.5-0.6,0.9-0.5
									C120.5,68.4,120.7,68.9,120.6,69.4z"/>
								<g id="Grupo_609">
									<path id="Trazado_1441" class="st14" d="M112.4,36.6c-0.5-0.2-0.9-0.3-1.3-0.5c-0.5-0.3-1-0.4-1.5-0.6
										c-1.1-0.2-2.2,0.1-3.1,0.8c-1,1.1-2.8,0.2-2.4,5.8c0.4,6.4,4,5.7,4,5.6l3.2-4.1c0,0,1.1,2.4,1.1,2.3S117.9,38.5,112.4,36.6
										z"/>
									<path id="Trazado_1442" class="st25" d="M109.7,48.2l0.3,2.3c0,0,0.7,3.3-0.2,3.9s-3.8-4-3.8-4l0.3-5.8L109.7,48.2z"/>
									<path id="Trazado_1443" class="st5" d="M106.3,46.5c0.7,1.7,2,3,3.7,3.6l-0.3-1.9l-3.3-3.6L106.3,46.5z"/>
									<path id="Trazado_1444" class="st25" d="M109.5,38.3c1.6-0.3,3.2,0.8,3.5,2.5c0,0,0,0.1,0,0.1c0,0.2,0,0.4,0,0.5
										c0,1-0.1,2-0.3,2.9c-0.4,2.6-2.2,5-3.4,4.7c-2.5-0.9-4.1-3.6-3.7-6.2C106.1,40.5,107.6,38.7,109.5,38.3z"/>
									<path id="Trazado_1445" class="st25" d="M106.6,43.3c-0.2,0.5-0.7,0.7-1.1,0.5c-0.5-0.2-0.7-0.7-0.5-1.1
										c0.2-0.4,0.6-0.6,1-0.5C106.4,42.3,106.7,42.8,106.6,43.3z"/>
									<path id="Trazado_1446" class="st14" d="M105.9,42.1c0,0,1.4,0.4,2-0.6s2.4-2.9,4.9-2.1s-2.1-2-2.3-2h-2.5
										c0,0-1.8,1.5-1.9,1.6s-0.6,1.9-0.6,1.9L105.9,42.1z"/>
								</g>
								<path id="Trazado_1447" class="st1" d="M108.5,46l2.6,0.5c-0.2,0.6-0.8,1-1.4,0.8C108.3,47,108.5,46,108.5,46z"/>
							</g>
						</g>
						<g id="Grupo_612">
							<path id="Trazado_1448" class="st25" d="M283.9,225.8c0,0,0.5,3.4,1.3,4.5c0.4,0.5,0.8,1,1.1,1.5c0.4,1.1,0.4,2.3-0.2,3.4
								c-0.2,0.4,0,0.4-0.4,0.6c-1.3,0.4-2.8-0.3-3.3-1.6c-0.4-0.9-0.6-1.9-0.7-2.9c0-1.6-0.4-3.2-1.1-4.6L283.9,225.8z"/>
							<path id="Trazado_1449" class="st25" d="M269.4,227.1c-0.1,1.7-0.2,3.3-0.1,5c0.1,0.7,0.9,2,0.5,2.7
								c-0.1,0.3-0.4,0.6-0.7,0.8l-8.6,0.1c-0.5,0-0.2-0.3,0.2-0.6c1-0.7,2-1.2,3.1-1.7c0.1-0.1,0.6-0.4,0.8-0.5
								c0.5-0.3,0.9-0.7,1.2-1.1c0.6-0.7,0.7-4,0.7-4L269.4,227.1z"/>
							<path id="Trazado_1450" class="st28" d="M262.7,176.5c0,0-1.1,6.2-0.4,10.2s4.1,41.6,4.1,41.6l3.8,0.2c0,0,0.8-15.7,0.7-17.9
								c-0.2-2-0.7-3.9-1.3-5.8l0.4-12.7l-4.8-16.7L262.7,176.5z"/>
							<path id="Trazado_1451" class="st28" d="M273.8,175.2c0,0,3,4.5,3.7,8.3s-0.5,15.2,0.8,20.1c0.7,2.7,3.5,6.8,4,10.2
								s2.1,12.4,2.1,12.4l-3.8,0.8l-8.8-22.4l-6.9-20.3l-1.8-10.4L273.8,175.2z"/>
							<path id="Trazado_1452" class="st2" d="M282.2,233.5c1.6,0.3,3.2-0.4,4.2-1.7c0.6,1,0.7,2.3,0.4,3.4
								c-0.3,0.8-1.3,0.7-2.1,0.8c-0.8,0-1.5-0.4-1.9-1.2C282.5,234.4,282.4,233.9,282.2,233.5z"/>
							<path id="Trazado_1453" class="st2" d="M264.6,232.9c1.6,0.5,3.3,0.4,4.9-0.2c0.3,0.6,0.5,1.3,0.4,2.1
								c-0.2,0.6-0.5,0.8-0.8,0.8c-2.1,0-7.6,0.1-9.2,0.2c-0.1,0-0.3-0.1-0.3-0.3l0,0c0-0.1,0-0.1,0.1-0.2
								C260.1,234.8,264.4,233,264.6,232.9z"/>
							<path id="Trazado_1454" class="st29" d="M249,165.8c-0.2-0.3,1.5-0.8,1.6-1.2s-2.2-0.2-2.3-0.5c-0.2-0.6,2.4-0.4,2.4-0.6
								s-2.8-0.6-2.6-1.1s2.8,0.6,2.8,0.3s-2.5-0.8-2.5-1.5c0-0.4,4.2,1.4,4.6,1.2s-0.7-1.9-0.3-2.2s1.8,3.1,2.1,3.2s6,1.8,8,2.1
								c0.2-0.7,1.6-4.3,1.8-4.9c1.1,0.6,2.6-0.1,3.8,0.4c-0.6,2.1-1.9,8.9-2.4,9.2c-1.6,0.9-10.1-3.5-11.5-4.3s-2.1-0.4-3-0.6
								S249.2,166.2,249,165.8z"/>
							<path id="Trazado_1455" class="st14" d="M264.1,145.6c-0.4-1.9-0.8-3.9,0.3-6c0.8-1.6,2.5-2.7,4.3-2.9
								c5.2-0.6,4.1,4.2,11.3,5.3c2.2,0.2,4.3,0.8,6.2,1.8c3.4,2,4.7,5.2,2.4,10.5c-5.5,12.9-18.6,1.7-20.6-0.6
								S264.4,146.9,264.1,145.6z"/>
							<path id="Trazado_1456" class="st2" d="M272.2,151.8c1.6,0.2,3,0.9,4.2,2c1.6,1.7-2.5,15.3-2.8,17.5s2.7,8.1,2.7,8.1
								s-10.2,2-12.8,0.3c0,0-0.2-16.7,0.1-18.2c0.8-2.9,1.9-5.7,3.2-8.4C267.3,152.4,272.2,151.8,272.2,151.8z"/>
							<path id="Trazado_1457" class="st25" d="M270.9,146.5c0,0,0,0.1,0.1,0.3c0.3,1.7,0.7,3.3,1.3,4.9c0.6,1-1.9,4.4-4.2,4
								c-0.7-0.1,0.6-3,0.5-3.4l-0.4-2.2l-0.3-1.4c-0.3-1.3-0.5-2.3-0.5-2.3L270.9,146.5z"/>
							<path id="Trazado_1458" class="st30" d="M271,146.8c0-0.2,0-0.3,0-0.3l-3.5-0.1c0,0,0.2,1,0.4,2.3l0.3,1.4
								c0.6-0.1,1.2-0.4,1.7-0.8c0.6-0.5,1-1.2,1.3-1.9C271.1,147.2,271,147,271,146.8z"/>
							<path id="Trazado_1459" class="st25" d="M268.8,138.1c1,0.2,1.9,0.8,2.5,1.5c1,1.3,2.2,5.5-0.4,7.8s-5.1-0.3-5.5-3
								S265.1,138,268.8,138.1z"/>
							<path id="Trazado_1460" class="st25" d="M264.6,143.8c0.2,0.7,0.6,1.1,1,1s0.5-0.7,0.4-1.4s-0.6-1.1-1-1
								S264.4,143.1,264.6,143.8z"/>
							<path id="Trazado_1461" class="st14" d="M267.2,138.2c0,0,3.4,3.9,5,4s1.8,2.3,1.8,2.3s-0.6-4.8-2.1-5.8
								S267.2,138.2,267.2,138.2z"/>
							<path id="Trazado_1462" class="st25" d="M271.7,143.1c-0.1,0.7,0.1,1.3,0.6,1.4s0.9-0.4,1-1.1s-0.1-1.3-0.6-1.4
								S271.8,142.4,271.7,143.1z"/>
							<path id="Trazado_1463" class="st12" d="M271.7,162.8l-10.9,1.6c-0.3,0-0.5,0.3-0.5,0.7c0,0,0,0,0,0l2.1,14.5
								c0,0.3,0.3,0.6,0.7,0.5c0,0,0,0,0,0l10.9-1.6c0.3,0,0.6-0.3,0.5-0.7c0,0,0,0,0,0l-2.1-14.5C272.3,163,272,162.8,271.7,162.8z
								"/>
							<path id="Trazado_1464" class="st31" d="M263.6,163.5c0-0.1,0-0.1,0.1-0.1c0,0,0,0,0,0l4.6-0.7c0.1,0,0.1,0,0.1,0.1
								c0,0,0,0,0,0l0.1,0.5l-4.8,0.7L263.6,163.5z"/>
							<path id="Trazado_1465" class="st31" d="M265.3,163.3c0.1,0.4,0.4,0.7,0.8,0.6c0.4,0,0.7-0.4,0.7-0.8s-0.4-0.7-0.8-0.7
								c0,0-0.1,0-0.1,0l0,0C265.5,162.5,265.2,162.9,265.3,163.3z M265.5,163.3c0-0.3,0.1-0.5,0.4-0.5c0.3,0,0.5,0.1,0.5,0.4
								s-0.1,0.5-0.4,0.5c0,0,0,0,0,0l0,0C265.8,163.7,265.6,163.6,265.5,163.3C265.5,163.3,265.5,163.3,265.5,163.3z"/>
							<path id="Trazado_1466" class="st6" d="M263.6,163.4c0,0-0.1,0.1-0.1,0.1l0.1,0.5l4.8-0.7c0,0.3-0.2,0.6-0.5,0.7c0,0,0,0,0,0
								l-3.6,0.5c-0.3,0-0.6-0.2-0.7-0.5l-0.1-0.5C263.6,163.5,263.6,163.4,263.6,163.4z"/>
							<path id="Trazado_1467" class="st1" d="M267,145.8h2.5c0,0.6-0.5,1-1.1,1C267,146.8,267,145.8,267,145.8z"/>
							<path id="Trazado_1468" class="st25" d="M279.3,166.5l-3.9,0.4c0,0,0.1,3.3,0,3.7c0,0-6.8,1.9-9.6,2.4c0,0-1.3-0.7-1.8-1
								c-0.7-0.2-1.5-0.4-2.2-0.5c-0.3,0-0.2,0.3,0.1,0.4c0.5,0.2,0.9,0.5,1.2,0.8c-0.3,0-0.6,0-0.8-0.1c-0.3-0.1-0.7-0.4-0.7-0.6
								s-0.1-0.5-0.2-0.5s-0.1,0.1-0.1,0.2s-0.1,0.2-0.1,0.3s-0.1,0.5-0.1,0.6c0,0.5,0.1,1,0.2,1.5c0.1,0.5,0.2,0.8,0.5,0.9
								c0.6,0.2,1.1,0.3,1.7,0.3c1,0,2.1-0.1,3.1-0.3l9.1-0.9c0,0,3.4-0.5,3.6-1.1S279.3,166.5,279.3,166.5z"/>
							<path id="Trazado_1469" class="st2" d="M275.9,153.3c0,0,1.3,0.6,2.3,3.1s1.3,14.5,1.3,14.5l-4.1-0.7l-2.1-5.7
								c-1.5-3.4-1.1-7.3,1.1-10.3C275,153.5,275.6,153,275.9,153.3z"/>
						</g>
					</g>
				</g>
			</g>
		</g>
	</g>
</g>
</svg>
