<svg id="Capa_1" data-name="Capa 1" xmlns="http://www.w3.org/2000/svg" viewBox="0 0 110 91"><defs><style>.cls-1{fill:#dfdfdf;}</style></defs><rect id="Rectángulo_114" data-name="Rectángulo 114" class="cls-1" width="110" height="91" rx="11"/><g id="Grupo_1136" data-name="Grupo 1136"><g id="Grupo_1135" data-name="Grupo 1135"><path id="Trazado_2634" data-name="Trazado 2634" d="M63.92,44.39H59.5a1.12,1.12,0,0,0-1.14,1.08,1.09,1.09,0,0,0,1.07,1.13h3.2a3.31,3.31,0,1,1-3.13-4.42,3.19,3.19,0,0,1,1.43.33,1.12,1.12,0,0,0,1.43-.65,1.11,1.11,0,0,0-.47-1.34,5.53,5.53,0,1,0,3.14,5h0A1.11,1.11,0,0,0,63.92,44.39ZM40.15,48.82H34.62V41.08a1.11,1.11,0,0,0-2.21,0v8.84A1.11,1.11,0,0,0,33.52,51h6.63a1.11,1.11,0,1,0,.07-2.21ZM46.79,40a5.53,5.53,0,1,0,5.52,5.53h0A5.53,5.53,0,0,0,46.79,40Zm0,8.85A3.32,3.32,0,1,1,50.1,45.5a3.32,3.32,0,0,1-3.31,3.32ZM72.22,40a5.53,5.53,0,1,0,5.53,5.53h0A5.54,5.54,0,0,0,72.22,40Zm0,8.85a3.32,3.32,0,1,1,3.31-3.32,3.32,3.32,0,0,1-3.31,3.32Z"/><path id="Trazado_2635" data-name="Trazado 2635" d="M55,14.5a31,31,0,1,0,31,31A31,31,0,0,0,55,14.5Zm0,60.06A29.06,29.06,0,1,1,84.06,45.5,29.06,29.06,0,0,1,55,74.56Z"/></g></g></svg>