<svg id="Capa_1" data-name="Capa 1" xmlns="http://www.w3.org/2000/svg" viewBox="0 0 110 91"><defs><style>.cls-1{fill:#dfdfdf;}</style></defs><g id="Grupo_1184" data-name="Grupo 1184"><rect id="Rectángulo_115" data-name="Rectángulo 115" class="cls-1" width="110" height="91" rx="11"/><g id="Grupo_1137" data-name="Grupo 1137"><path id="Trazado_2636" data-name="Trazado 2636" d="M49.41,72.06H30.59a1.1,1.1,0,0,1-1.1-1.1V46.6a1.1,1.1,0,0,1,1.1-1.1h15.5V32.21H30.59a1.1,1.1,0,0,1-1.1-1.11h0V15.61a1.11,1.11,0,0,1,1.1-1.11h31a1.1,1.1,0,0,1,.79.32l8.85,8.86a1.11,1.11,0,0,1,.33.78V53.25a1.11,1.11,0,0,1-1.11,1.1H50.52V71A1.11,1.11,0,0,1,49.41,72.06ZM31.7,69.85H48.3V53.25a1.11,1.11,0,0,1,1.11-1.11H69.34V24.92l-8.2-8.2H31.7V30H47.2a1.11,1.11,0,0,1,1.11,1.11h0V46.6a1.11,1.11,0,0,1-1.11,1.11H31.7Z"/><path id="Trazado_2637" data-name="Trazado 2637" d="M84.84,76.49H49.41a1.11,1.11,0,0,1-1.11-1.1h0V53.25a1.11,1.11,0,0,1,1.11-1.11H84.84a1.11,1.11,0,0,1,1.1,1.11h0V75.38a1.1,1.1,0,0,1-1.1,1.11ZM50.52,74.28H83.73V54.35H50.52ZM47.2,47.71H25.06A1.11,1.11,0,0,1,24,46.6V31.1A1.11,1.11,0,0,1,25.06,30H47.2a1.1,1.1,0,0,1,1.1,1.1h0V46.6A1.1,1.1,0,0,1,47.2,47.71Zm-21-2.21H46.09V32.21H26.16ZM80.32,51h0a1.14,1.14,0,0,1-.88-.46l-3.23-4.43A1.14,1.14,0,0,1,76,45.5V22.25A2.21,2.21,0,0,1,78.19,20h4.43a2.22,2.22,0,0,1,2.22,2.21h0V45.5a1.1,1.1,0,0,1-.24.67L81.19,50.6A1.13,1.13,0,0,1,80.32,51Zm-2.13-5.91,2.15,2.95,2.28-3V22.25H78.19Z"/><path id="Trazado_2638" data-name="Trazado 2638" d="M82.62,22.25H78.19a1.11,1.11,0,0,1-1.1-1.11V17.82a3.32,3.32,0,0,1,6.64,0v3.32a1.11,1.11,0,0,1-1.11,1.11ZM79.3,20h2.22V17.82a1.11,1.11,0,0,0-2.22,0Zm-47.6,21A3.32,3.32,0,1,1,35,37.75h0A3.32,3.32,0,0,1,31.7,41.07Zm0-4.43a1.11,1.11,0,1,0,1.11,1.11,1.11,1.11,0,0,0-1.11-1.11ZM42.77,40H38.34a1.11,1.11,0,1,1,0-2.21h4.43a1.11,1.11,0,1,1,0,2.21Zm0,3.32H38.34a1.11,1.11,0,1,1,0-2.21h4.43a1.11,1.11,0,1,1,0,2.21Zm-3.32-15.5a4.43,4.43,0,1,1,4.43-4.43h0a4.42,4.42,0,0,1-4.43,4.42Zm0-6.64a2.22,2.22,0,1,0,2.21,2.21,2.21,2.21,0,0,0-2.21-2.21Zm17.71,1.11h-10a1.11,1.11,0,0,1,0-2.22h10a1.11,1.11,0,1,1,0,2.22Zm-4.43,4.43H47.2a1.11,1.11,0,0,1,0-2.22h5.53a1.11,1.11,0,1,1,0,2.22Zm17.72-1.11H61.59a1.11,1.11,0,0,1-1.11-1.1h0V15.61a1.12,1.12,0,0,1,1.9-.79l8.85,8.86a1.11,1.11,0,0,1-.78,1.89ZM62.7,23.36h5.08L62.7,18.28Zm4.42,39.85a1.11,1.11,0,0,1-.5-.12L48.91,54.23a1.11,1.11,0,0,1,1-2l17.22,8.6,17.21-8.6a1.11,1.11,0,1,1,1.13,1.91l-.13.06L67.62,63.09A1.06,1.06,0,0,1,67.12,63.21ZM56.61,72.06a3.87,3.87,0,1,1,3.87-3.87h0a3.88,3.88,0,0,1-3.88,3.87Zm0-5.53a1.66,1.66,0,1,0,1.66,1.66h0A1.66,1.66,0,0,0,56.61,66.53Zm17.16,1.11h-10a1.11,1.11,0,0,1,0-2.22h10a1.11,1.11,0,0,1,0,2.22Zm-4.43,4.42H63.8a1.11,1.11,0,0,1,0-2.21h5.54a1.11,1.11,0,1,1,0,2.21Z"/></g></g></svg>