<svg id="Capa_1" data-name="Capa 1" xmlns="http://www.w3.org/2000/svg" viewBox="0 0 110 91"><defs><style>.cls-1{fill:#dfdfdf;}</style></defs><g id="Grupo_1185" data-name="Grupo 1185"><rect id="Rectángulo_116" data-name="Rectángulo 116" class="cls-1" width="110" height="91" rx="11"/><path id="Trazado_2639" data-name="Trazado 2639" d="M82.23,24.1H27.79A3.89,3.89,0,0,0,23.9,28V63a3.89,3.89,0,0,0,3.89,3.89H82.23A3.89,3.89,0,0,0,86.11,63h0V28a3.89,3.89,0,0,0-3.88-3.89ZM27.79,28H82.23V63H27.79ZM76.72,43.54H53.06a1.95,1.95,0,0,0,0,3.89H76.72a1.95,1.95,0,0,0,0-3.89Zm0,7.78H53.06a1.95,1.95,0,0,0,0,3.89H76.72a1.95,1.95,0,0,0,0-3.89Zm0-15.55H53.06a1.94,1.94,0,0,0,0,3.88H76.72a1.94,1.94,0,0,0,0-3.88Zm-42,.81a4.7,4.7,0,1,0,4.7-4.7h0A4.69,4.69,0,0,0,34.75,36.58Zm4.8,6.57c-4.25,0-7.68,4.61-7.68,10.3s15.36,5.69,15.36,0-3.44-10.3-7.68-10.3Z"/></g></svg>