<svg id="Capa_1" data-name="Capa 1" xmlns="http://www.w3.org/2000/svg" viewBox="0 0 110 91"><defs><style>.cls-1{fill:#dfdfdf;}</style></defs><rect id="Rectángulo_121" data-name="Rectángulo 121" class="cls-1" width="110" height="91" rx="11"/><path id="Trazado_2640" data-name="Trazado 2640" d="M58.65,21.76h0a.91.91,0,1,0,0-1.82h0a.91.91,0,1,0,0,1.82ZM55,44.76h0a.91.91,0,1,0,0-1.82h0a.91.91,0,1,0,0,1.82Zm7.31,0h0a.91.91,0,1,0,0-1.82h0a.91.91,0,1,0,0,1.82Zm-11,0h0a.91.91,0,1,0,0-1.82h0a.91.91,0,1,0,0,1.82Zm0-23h0a.91.91,0,0,0,0-1.82h0a.91.91,0,0,0,0,1.82Zm3.66,0h0a.91.91,0,1,0,0-1.82h0a.91.91,0,0,0,0,1.82Zm4.65,39.65a2.73,2.73,0,1,0-2.73-2.72h0A2.72,2.72,0,0,0,59.65,61.41Zm0-3.63a.91.91,0,1,1-.91.91h0A.91.91,0,0,1,59.65,57.78Zm0-3.64a2.73,2.73,0,1,0-2.73-2.72h0A2.72,2.72,0,0,0,59.65,54.14Zm0-3.63a.91.91,0,1,1-.91.91h0A.91.91,0,0,1,59.65,50.51ZM70.54,32.34a.91.91,0,1,0-1.82,0v0a.91.91,0,0,0,1.82,0h0Zm-.91,6.76a.91.91,0,0,0-.91.91h0a.91.91,0,0,0,1.82,0h0a.91.91,0,0,0-.91-.91ZM62.31,21.76h0a.91.91,0,0,0,0-1.82h0a.91.91,0,0,0,0,1.82Zm7.32,0a.91.91,0,0,0,0-1.82h0a.91.91,0,0,0,0,1.82Zm.91,14.41a.91.91,0,1,0-1.82,0v0a.91.91,0,1,0,1.82,0Zm0-7.66a.91.91,0,1,0-1.82,0h0a.91.91,0,0,0,1.82,0ZM66,21.76h0a.91.91,0,0,0,0-1.82h0a.91.91,0,1,0,0,1.82Zm0,23h0a.91.91,0,1,0,0-1.82h0a.91.91,0,1,0,0,1.82Zm3.66,0a.91.91,0,0,0,.91-.91h0a.91.91,0,0,0-1.82,0,.91.91,0,0,0,.91.91Zm.91-20.08a.91.91,0,1,0-1.82,0h0a.91.91,0,0,0,1.82,0ZM58.65,44.76h0a.91.91,0,1,0,0-1.82h0a.91.91,0,1,0,0,1.82Zm-17,16.65A2.73,2.73,0,1,0,39,58.69h0A2.72,2.72,0,0,0,41.69,61.41Zm0-3.63a.91.91,0,1,1-.91.91h0A.91.91,0,0,1,41.69,57.78Zm0-3.64A2.73,2.73,0,1,0,39,51.42h0A2.72,2.72,0,0,0,41.69,54.14Zm0-3.63a.91.91,0,1,1-.91.91h0a.91.91,0,0,1,.91-.91Zm-1.32-9.58a.91.91,0,0,0,.91-.91h0a.91.91,0,1,0-1.82,0h0a.91.91,0,0,0,.91.91Zm0,3.83h0a.92.92,0,1,0-.92-.91A.91.91,0,0,0,40.38,44.76ZM70.43,69.24H39.88a.91.91,0,1,0,0,1.82H70.43a.91.91,0,1,0,0-1.82Zm0-18.73H65.1a.91.91,0,1,0,0,1.82h5.33a.91.91,0,1,0,0-1.82ZM40.37,37.1a.91.91,0,0,0,.91-.91h0a.91.91,0,1,0-1.82,0h0a.91.91,0,0,0,.91.91ZM71.45,14.49H38.55A4.55,4.55,0,0,0,34,19V72a4.55,4.55,0,0,0,4.54,4.54h32.9A4.55,4.55,0,0,0,76,72V19A4.55,4.55,0,0,0,71.45,14.49ZM74.17,72a2.72,2.72,0,0,1-2.72,2.72H38.55A2.72,2.72,0,0,1,35.83,72V19a2.72,2.72,0,0,1,2.72-2.72h32.9A2.72,2.72,0,0,1,74.17,19ZM70.43,57.78H65.1a.91.91,0,1,0,0,1.81h5.33a.91.91,0,1,0,0-1.81Zm0,6.29H39.88a.91.91,0,1,0,0,1.82H70.43a.91.91,0,1,0,0-1.82ZM40.37,33.27a.91.91,0,0,0,.91-.91h0a.91.91,0,0,0-1.82,0h0a.91.91,0,0,0,.91.91ZM44,21.76h0a.91.91,0,1,0,0-1.82h0a.91.91,0,1,0,0,1.82Zm3.47,37.83h5.33a.91.91,0,1,0,0-1.82H47.49a.91.91,0,0,0,0,1.82Zm0-7.27h5.33a.91.91,0,1,0,0-1.81H47.49a.91.91,0,1,0,0,1.81Zm.19-7.57h0a.91.91,0,1,0,0-1.81h0a.91.91,0,1,0,0,1.81ZM40.37,25.6a.91.91,0,0,0,.91-.91h0a.91.91,0,0,0-1.82,0h0a.91.91,0,0,0,.91.91Zm7.31-3.84h0a.91.91,0,1,0,0-1.82h0a.91.91,0,1,0,0,1.82Zm-7.31,7.67a.91.91,0,0,0,.91-.91h0a.91.91,0,0,0-1.82,0h0a.91.91,0,0,0,.91.91Zm0-7.67a.91.91,0,1,0-.91-.91h0a.9.9,0,0,0,.91.9Zm3.65,23h0a.91.91,0,1,0,0-1.82h0a.91.91,0,1,0,0,1.82Z"/></svg>