<svg id="Capa_1" data-name="Capa 1" xmlns="http://www.w3.org/2000/svg" viewBox="0 0 110 91"><defs><style>.cls-1{fill:#dfdfdf;}</style></defs><rect id="Rectángulo_119" data-name="Rectángulo 119" class="cls-1" width="110" height="91" rx="11"/><path id="Trazado_2641" data-name="Trazado 2641" d="M67.23,64.39H42.77a.91.91,0,1,0,0,1.81H67.23a.91.91,0,1,0,0-1.81ZM42.77,59.61H55.05a.91.91,0,0,0,0-1.82H42.77a.91.91,0,1,0,0,1.82Zm0-5.45H55.05a.91.91,0,0,0,0-1.82H42.77a.91.91,0,1,0,0,1.82Zm0-10.9H55.05a.91.91,0,1,0,0-1.82H42.77a.91.91,0,1,0,0,1.82Zm0,5.45H55.05a.91.91,0,0,0,0-1.82H42.77a.91.91,0,1,0,0,1.82Zm0-10.9H55.05a.91.91,0,0,0,0-1.82H42.77a.91.91,0,1,0,0,1.82Zm24.46,20H64a.91.91,0,1,0,0,1.81h3.2a.91.91,0,1,0,0-1.81ZM66,24.8H44a2.12,2.12,0,0,0-2.11,2.12V29.1A2.13,2.13,0,0,0,44,31.22H66a2.13,2.13,0,0,0,2.12-2.12V26.92A2.12,2.12,0,0,0,66,24.8Zm.3,4.3a.31.31,0,0,1-.3.3H44a.31.31,0,0,1-.3-.3h0V26.92a.3.3,0,0,1,.3-.3H66a.3.3,0,0,1,.3.3h0Zm7-6.12a2.73,2.73,0,0,1-2.73-2.72.9.9,0,0,0-.9-.91H40.35a.91.91,0,0,0-.91.91A2.72,2.72,0,0,1,36.71,23a.9.9,0,0,0-.9.91h0V67.11a.9.9,0,0,0,.9.9h0a2.74,2.74,0,0,1,2.73,2.73.91.91,0,0,0,.91.91h29.3a.9.9,0,0,0,.9-.91A2.75,2.75,0,0,1,73.28,68a.9.9,0,0,0,.91-.9V23.89a.91.91,0,0,0-.91-.91Zm-.91,43.31a4.55,4.55,0,0,0-3.54,3.54H41.17a4.56,4.56,0,0,0-3.54-3.54V24.71a4.56,4.56,0,0,0,3.54-3.54H68.83a4.56,4.56,0,0,0,3.54,3.54Zm2.12-51.78h-39A4.54,4.54,0,0,0,31,19.05V72a4.54,4.54,0,0,0,4.54,4.54h39A4.54,4.54,0,0,0,79,72V19.05A4.54,4.54,0,0,0,74.49,14.51ZM77.22,72a2.73,2.73,0,0,1-2.73,2.73h-39A2.73,2.73,0,0,1,32.78,72V19.05a2.73,2.73,0,0,1,2.73-2.73h39a2.73,2.73,0,0,1,2.73,2.73Zm-10-25.06H64a.91.91,0,0,0,0,1.82h3.2a.91.91,0,0,0,0-1.82Zm0,5.45H64a.91.91,0,1,0,0,1.82h3.2a.91.91,0,0,0,0-1.82Zm0-16.34H64a.91.91,0,1,0,0,1.81h3.2a.91.91,0,1,0,0-1.81Zm0,5.44H64a.91.91,0,1,0,0,1.82h3.2a.91.91,0,1,0,0-1.82Z"/></svg>