<svg id="Capa_1" data-name="Capa 1" xmlns="http://www.w3.org/2000/svg" viewBox="0 0 110 91"><defs><style>.cls-1{fill:#dfdfdf;}</style></defs><rect id="Rectángulo_117" data-name="Rectángulo 117" class="cls-1" width="110" height="91" rx="11"/><g id="Grupo_1138" data-name="Grupo 1138"><path id="Trazado_2642" data-name="Trazado 2642" d="M73.38,14.43H44.49a1,1,0,0,0-.73.31l-.72.73h-.21v.2L32.68,25.82a1,1,0,0,0-.31.73V72.32a4.27,4.27,0,0,0,4.25,4.25H73.38a4.27,4.27,0,0,0,4.25-4.25V18.68A4.34,4.34,0,0,0,73.38,14.43ZM42.83,18.57v5.49a2,2,0,0,1-2,2h-5.6ZM75.45,72.32a2.18,2.18,0,0,1-2.17,2.18H36.51a2.2,2.2,0,0,1-2.17-2.18V28.2h6.42a4,4,0,0,0,4-4V16.5H73.17a2.2,2.2,0,0,1,2.18,2.18V72.32Z"/><path id="Trazado_2643" data-name="Trazado 2643" d="M56.5,38.77a1,1,0,0,0-.93-.52,1,1,0,0,0-.93.62l-8.8,18a1.08,1.08,0,0,0,.21,1.24l3.21,2.8H47.7a1,1,0,0,0,0,2.08h3.21l-.31,4.14a1.23,1.23,0,0,0,.93,1.14h.1a1,1,0,0,0,1-.93L53,63.11h5.07l.31,4.25a1,1,0,0,0,1,.93h.1a.93.93,0,0,0,1-.92.55.55,0,0,0,0-.22L60.13,63h3.21a1,1,0,0,0,0-2.07H61.78L65,58.13a1,1,0,0,0,.2-1.24Zm2.18,22.06H52.46L48,57l6.52-13.26v9a1,1,0,0,0,1.07,1,1,1,0,0,0,1-1v-9L63.13,57Z"/><path id="Trazado_2644" data-name="Trazado 2644" d="M70.8,45.29a15.4,15.4,0,0,0-13-13A2.36,2.36,0,0,0,54.66,31a2.34,2.34,0,0,0-1.26,1.27,15.38,15.38,0,0,0-13,13,2.29,2.29,0,0,0-1.45,2.18,2.4,2.4,0,0,0,2.38,2.38,2.34,2.34,0,0,0,2.38-2.3v-.08a2.23,2.23,0,0,0-1.14-2A13.3,13.3,0,0,1,53.71,34.31a2.26,2.26,0,0,0,3.93,0A13.32,13.32,0,0,1,68.83,45.5a2.21,2.21,0,0,0-1.14,2,2.4,2.4,0,0,0,2.38,2.38,2.35,2.35,0,0,0,2.38-2.31v-.07A2.49,2.49,0,0,0,70.8,45.29Z"/></g></svg>