<?xml version="1.0" encoding="utf-8"?>
<!-- Generator: Adobe Illustrator 24.1.2, SVG Export Plug-In . SVG Version: 6.00 Build 0)  -->
<svg version="1.1" id="Capa_1" xmlns="http://www.w3.org/2000/svg" xmlns:xlink="http://www.w3.org/1999/xlink" x="0px" y="0px"
	 viewBox="0 0 804 594.5" style="enable-background:new 0 0 804 594.5;" xml:space="preserve">
<style type="text/css">
	.st0{fill:#FF6584;}
	.st1{fill:#3F3D56;}
	.st2{fill:#F2F2F2;}
	.st3{fill:#2F2E41;}
	.st4{fill:#8CB4F4;}
	.st5{fill:#FFB8B8;}
	.st6{fill:#8985A8;}
</style>
<g id="Grupo_1134">
	<circle id="Elipse_395" class="st0" cx="344.8" cy="239.4" r="99.1"/>
	<path id="Trazado_2617" class="st1" d="M357.7,321.7c-55.2,0-99.9-44.7-99.9-99.9c0-55.2,44.7-99.9,99.9-99.9
		c55.2,0,99.9,44.7,99.9,99.9C457.7,277,412.9,321.7,357.7,321.7C357.8,321.7,357.7,321.7,357.7,321.7z M357.7,123.4
		c-54.3,0-98.4,44-98.4,98.4s44,98.4,98.4,98.4s98.4-44,98.4-98.4c0,0,0,0,0,0C456.1,167.5,412.1,123.5,357.7,123.4z"/>
	<path id="Trazado_2618" class="st1" d="M660.5,367.4H42V31.1h618.5V367.4z M43.5,365.9H659V32.6H43.5L43.5,365.9z"/>
	<rect id="Rect치ngulo_495" x="62.6" y="57.4" class="st2" width="135.2" height="14.3"/>
	<rect id="Rect치ngulo_496" x="266.8" y="57.4" class="st2" width="135.2" height="14.3"/>
	<rect id="Rect치ngulo_497" x="470.1" y="57.4" class="st2" width="136.1" height="14.3"/>
	<path id="Trazado_2619" class="st1" d="M207.5,65.4H70.2V50.1h137.3V65.4z M71.7,63.9H206V51.7H71.7V63.9z"/>
	<path id="Trazado_2620" class="st1" d="M411.1,65.4H273.8V50.1h137.3V65.4z M275.4,63.9h134.2V51.7H275.4V63.9z"/>
	<path id="Trazado_2621" class="st1" d="M614.7,65.4H477.5V50.1h137.3V65.4z M479,63.9h134.2V51.7H479V63.9z"/>
	<rect id="Rect치ngulo_498" x="130.8" y="551.7" class="st3" width="631.2" height="1.9"/>
	<path id="Trazado_2622" class="st1" d="M342.1,399.8l48.1-93l13,7.6l-54.9,89.2L342.1,399.8z"/>
	<path id="Trazado_2623" class="st4" d="M314.2,420c0,0,8.9,7,9.9-7.9c0.3-4.8,2.5-9.2,6.2-12.3c4-3.2,9.8-5.4,16.7-1.1
		c6.2,3.8,7.6,9.2,7.2,14.1c-0.6,7.1-4.7,13.5-10.9,17c-6.9,4.1-17.7,7.2-29.2-2.9C314.2,426.9,307.4,419.2,314.2,420z"/>
	<circle id="Elipse_396" class="st5" cx="399.2" cy="181.1" r="18.5"/>
	<path id="Trazado_2624" class="st5" d="M389.5,189.9c0,0,4.9,25.3,2.9,30.2c-1.9,4.9,27.3-2,27.3-2s-5.8-25.3-4.9-31.2
		C415.8,181.1,389.5,189.9,389.5,189.9z"/>
	<path id="Trazado_2625" class="st5" d="M357.3,277.6l1.9,26.3l9.7,41.3l3,11.3l4.9-17.5L372,299l-1.7-18L357.3,277.6z"/>
	<path id="Trazado_2626" class="st5" d="M459.6,273.7v27.3c0,0-2.9,35.1-8.8,43.8c-5.8,8.8-7.8-35.1-7.8-35.1l4.6-32.1L459.6,273.7z
		"/>
	<path id="Trazado_2627" class="st3" d="M372.9,358.4c0,0-4.9,5.8-1,65.3c3.9,59.4-1.9,102.3,10.7,102.3c0,0-3.9,12.7,6.8,13.6
		c10.7,1,15.6,2,16.6-1c1-2.9,2.9-16.6,0-16.6c0,0,0,3.9,2-11.6c2-15.5,1.9-89.6,6.8-99.3l15.6,36c0,0,0,16.6,2.9,24.4
		s7.8,52.6,7.8,52.6l-1,6.8c0,0,23.4,3.9,24.3,0s1-9.7,0-11.6c-1-1.9-1-1.9,1-5.8c2-3.9,1.9-6.8,1-9.7c-1-2.9-1-66.3-1-66.3
		s-2-77-13.6-80.8S372.9,358.4,372.9,358.4z"/>
	<path id="Trazado_2628" class="st3" d="M385.6,531.8l-7.8,13.6c0,0-12.2-4.4-9.7,6.8c20.9,1.5,35.6-0.5,35.6-0.5s4.9,1.9,5.8-1
		c1-2.9-2.4-13.2-5.4-13.2S385.6,531.8,385.6,531.8z"/>
	<path id="Trazado_2629" class="st3" d="M442.1,527.9c0,0-7.8,17.5-4.9,18.5c2.9,1,29.2,4.9,31.2,5.8s11.7,2,12.7-3.9
		c1-5.8-4.9-7.8-4.9-7.8s-10.7-1.9-13.6-11.6C459.6,519.2,442.1,527.9,442.1,527.9z"/>
	<path id="Trazado_2630" class="st6" d="M421.6,215.2c0,0-26.3-4.9-32.1,0c-5.8,4.9-30.2,14.6-30.2,19.5s12.7,52.6,12.7,52.6
		s-6.8,72.1,0,74c6.8,2,18.5-3.9,32.1,2.9s52.6-5.8,52.6-5.8s-14.6-62.3-10.7-74c3.9-11.7,6.8-51.6,6.8-51.6
		S436.2,215.2,421.6,215.2z"/>
	<path id="Trazado_2631" class="st6" d="M366.1,231.8l-6.8,1.9c0,0-14.6,45.8-8.8,47.7c5.8,2,22.4,5.8,24.4,5.8
		C376.8,287.3,366.1,231.8,366.1,231.8z"/>
	<path id="Trazado_2632" class="st6" d="M437.2,226.9l15.6,5.8c0,0,20.5,38,15.6,42.9c-4.9,4.9-26.3,9.8-26.3,9.8L437.2,226.9z"/>
	<path id="Trazado_2633" class="st3" d="M398.7,158.3c-1.5-0.3-3.1-0.2-4.6,0.2c-1.2,0.5-2.3,1.3-3.3,2.2c-1.8,1.4-3.6,2.7-5.6,3.7
		c-1.6,0.9-3.3,1.7-4.4,3.1c-0.5,0.7-0.9,1.5-1.2,2.3c-1.9,4.8-2.4,10.1-1.5,15.2c0.1,0.7,0.3,1.4,0.7,2.1c1,1.9,3.2,2.6,5.1,3.6
		c3.6,1.9,6.3,5,9.2,7.7c1.1,1.1,2.3,2,3.6,2.8c4.2,2.3,9.3,1.5,14,0.7c1.4,0,2.5-1.1,2.5-2.5l0,0l3.7-16.7c0.7-2.5,1-5,0.9-7.6
		c-0.3-4-2.5-9.7-5.4-12.5C409,159.3,403.2,158.7,398.7,158.3z"/>
	<ellipse id="Elipse_397" class="st4" cx="322.3" cy="550.4" rx="26.9" ry="1.3"/>
	<ellipse id="Elipse_398" class="st4" cx="316.9" cy="553.5" rx="26.9" ry="1.8"/>
	<ellipse id="Elipse_399" class="st4" cx="289.9" cy="544.3" rx="14.5" ry="0.8"/>
	<ellipse id="Elipse_400" class="st4" cx="341.7" cy="562.6" rx="14.5" ry="0.8"/>
</g>
</svg>
