<?xml version="1.0" encoding="utf-8"?>
<!-- Generator: Adobe Illustrator 24.1.2, SVG Export Plug-In . SVG Version: 6.00 Build 0)  -->
<svg version="1.1" id="Capa_1" xmlns="http://www.w3.org/2000/svg" xmlns:xlink="http://www.w3.org/1999/xlink" x="0px" y="0px"
	 viewBox="0 0 1031.1 776.1" style="enable-background:new 0 0 1031.1 776.1;" xml:space="preserve">
<style type="text/css">
	.st0{fill:#FF6584;}
	.st1{fill:#3F3D56;}
	.st2{fill:#F2F2F2;}
	.st3{fill:#2F2E41;}
	.st4{fill:#8CB4F4;}
	.st5{fill:#FFB8B8;}
	.st6{fill:#8985A8;}
</style>
<g id="Grupo_1134">
	<circle id="Elipse_395" class="st0" cx="454.6" cy="326.4" r="105.6"/>
	<path id="Trazado_2617" class="st1" d="M468.4,414.1c-58.8,0-106.4-47.6-106.4-106.4s47.6-106.4,106.4-106.4
		s106.4,47.6,106.4,106.4C574.9,366.5,527.2,414.1,468.4,414.1C468.5,414.1,468.4,414.1,468.4,414.1z M468.4,202.9
		c-57.8,0-104.8,46.9-104.8,104.8s46.9,104.8,104.8,104.8s104.8-46.9,104.8-104.8l0,0C573.2,249.8,526.3,203,468.4,202.9z"/>
	<path id="Trazado_2618" class="st1" d="M790.9,462.8H132.1V104.6h658.8V462.8z M133.7,461.2h655.6v-355H133.7V461.2z"/>
	<rect id="Rect치ngulo_495" x="154" y="132.6" class="st2" width="144" height="15.2"/>
	<rect id="Rect치ngulo_496" x="371.5" y="132.6" class="st2" width="144" height="15.2"/>
	<rect id="Rect치ngulo_497" x="588.1" y="132.6" class="st2" width="145" height="15.2"/>
	<path id="Trazado_2619" class="st1" d="M308.4,141.1H162.1v-16.3h146.3V141.1z M163.7,139.5h143.1v-13H163.7V139.5z"/>
	<path id="Trazado_2620" class="st1" d="M525.2,141.1H379v-16.3h146.3L525.2,141.1L525.2,141.1z M380.7,139.5h142.9v-13H380.7V139.5
		z"/>
	<path id="Trazado_2621" class="st1" d="M742.1,141.1H596v-16.3h146.3v16.3H742.1z M597.6,139.5h142.9v-13H597.6V139.5z"/>
	<rect id="Rect치ngulo_498" x="226.7" y="659.1" class="st3" width="672.3" height="2"/>
	<path id="Trazado_2622" class="st1" d="M451.7,497.3l51.2-99.1l13.8,8.1l-58.5,95L451.7,497.3z"/>
	<path id="Trazado_2623" class="st4" d="M422,518.8c0,0,9.5,7.5,10.5-8.4c0.3-5.1,2.7-9.8,6.6-13.1c4.3-3.4,10.4-5.8,17.8-1.2
		c6.6,4,8.1,9.8,7.7,15c-0.6,7.6-5,14.4-11.6,18.1c-7.3,4.4-18.9,7.7-31.1-3.1C422,526.2,414.8,517.9,422,518.8z"/>
	<circle id="Elipse_396" class="st5" cx="512.6" cy="264.3" r="19.7"/>
	<path id="Trazado_2624" class="st5" d="M502.2,273.7c0,0,5.2,26.9,3.1,32.2c-2,5.2,29.1-2.1,29.1-2.1s-6.2-26.9-5.2-33.2
		C530.2,264.3,502.2,273.7,502.2,273.7z"/>
	<path id="Trazado_2625" class="st5" d="M467.9,367.1l2,28l10.3,44l3.2,12l5.2-18.6l-5.1-42.6l-1.8-19.2L467.9,367.1z"/>
	<path id="Trazado_2626" class="st5" d="M576.9,363V392c0,0-3.1,37.4-9.4,46.7c-6.2,9.4-8.3-37.4-8.3-37.4l4.9-34.2L576.9,363z"/>
	<path id="Trazado_2627" class="st3" d="M484.6,453.2c0,0-5.2,6.2-1.1,69.6c4.2,63.3-2,109,11.4,109c0,0-4.2,13.5,7.2,14.5
		c11.4,1.1,16.6,2.1,17.7-1.1c1.1-3.1,3.1-17.7,0-17.7c0,0,0,4.2,2.1-12.4c2.1-16.5,2-95.4,7.2-105.8l16.6,38.3c0,0,0,17.7,3.1,26
		c3.1,8.3,8.3,56,8.3,56l-1.1,7.2c0,0,24.9,4.2,25.9,0c1-4.2,1.1-10.3,0-12.4c-1.1-2-1.1-2,1.1-6.2s2-7.2,1.1-10.3
		c-1.1-3.1-1.1-70.6-1.1-70.6s-2.1-82-14.5-86.1S484.6,453.2,484.6,453.2z"/>
	<path id="Trazado_2628" class="st3" d="M498.1,637.9l-8.3,14.5c0,0-13-4.7-10.3,7.2c22.3,1.6,37.9-0.5,37.9-0.5s5.2,2,6.2-1.1
		c1.1-3.1-2.6-14.1-5.8-14.1C514.6,644,498.1,637.9,498.1,637.9z"/>
	<path id="Trazado_2629" class="st3" d="M558.3,633.7c0,0-8.3,18.6-5.2,19.7s31.1,5.2,33.2,6.2s12.5,2.1,13.5-4.2
		c1.1-6.2-5.2-8.3-5.2-8.3s-11.4-2-14.5-12.4C576.9,624.5,558.3,633.7,558.3,633.7z"/>
	<path id="Trazado_2630" class="st6" d="M536.4,300.7c0,0-28-5.2-34.2,0c-6.2,5.2-32.2,15.6-32.2,20.8s13.5,56,13.5,56
		s-7.2,76.8,0,78.8c7.2,2.1,19.7-4.2,34.2,3.1c14.5,7.2,56-6.2,56-6.2s-15.6-66.4-11.4-78.8c4.2-12.5,7.2-55,7.2-55
		S552,300.7,536.4,300.7z"/>
	<path id="Trazado_2631" class="st6" d="M477.3,318.3l-7.2,2c0,0-15.6,48.8-9.4,50.8c6.2,2.1,23.9,6.2,26,6.2
		C488.7,377.5,477.3,318.3,477.3,318.3z"/>
	<path id="Trazado_2632" class="st6" d="M553,313.1l16.6,6.2c0,0,21.8,40.5,16.6,45.7s-28,10.4-28,10.4L553,313.1z"/>
	<path id="Trazado_2633" class="st3" d="M512,240c-1.6-0.3-3.3-0.2-4.9,0.2c-1.3,0.5-2.4,1.4-3.5,2.3c-1.9,1.5-3.8,2.9-6,3.9
		c-1.7,1-3.5,1.8-4.7,3.3c-0.5,0.7-1,1.6-1.3,2.4c-2,5.1-2.6,10.8-1.6,16.2c0.1,0.7,0.3,1.5,0.7,2.2c1.1,2,3.4,2.8,5.4,3.8
		c3.8,2,6.7,5.3,9.8,8.2c1.2,1.2,2.4,2.1,3.8,3c4.5,2.4,9.9,1.6,14.9,0.7c1.5,0,2.7-1.2,2.7-2.7l0,0l3.9-17.8c0.7-2.7,1.1-5.3,1-8.1
		c-0.3-4.3-2.7-10.3-5.8-13.3C523,241.1,516.8,240.5,512,240z"/>
	<ellipse id="Elipse_397" class="st4" cx="430.7" cy="657.7" rx="28.7" ry="1.4"/>
	<ellipse id="Elipse_398" class="st4" cx="424.9" cy="661" rx="28.7" ry="1.9"/>
	<ellipse id="Elipse_399" class="st4" cx="396.1" cy="651.2" rx="15.4" ry="0.9"/>
	<ellipse id="Elipse_400" class="st4" cx="451.3" cy="670.7" rx="15.4" ry="0.9"/>
</g>
</svg>
