<?xml version="1.0" encoding="utf-8"?>
<!-- Generator: Adobe Illustrator 24.1.2, SVG Export Plug-In . SVG Version: 6.00 Build 0)  -->
<svg version="1.1" id="Capa_1" xmlns="http://www.w3.org/2000/svg" xmlns:xlink="http://www.w3.org/1999/xlink" x="0px" y="0px"
	 viewBox="0 0 500 404.4" style="enable-background:new 0 0 500 404.4;" xml:space="preserve">
<style type="text/css">
	.st0{fill:#3F3D56;}
	.st1{fill:#D0CDE1;}
	.st2{fill:#FFFEE7;}
	.st3{fill:#2F2E41;}
	.st4{fill:#A0616A;}
	.st5{fill:#EBF3FA;}
	.st6{opacity:0.2;enable-background:new    ;}
	.st7{fill:#B8D3CE;}
	.st8{fill:#CFCCE0;}
</style>
<g>
	<rect id="Rectángulo_233" y="388.4" class="st0" width="197.1" height="1.1"/>
	<path id="Trazado_1017" class="st0" d="M463.5,207.3l-0.7-0.3c-0.1,0-15.2-5.8-22.2-18.8c-7-13-3.6-28.7-3.6-28.9l0.1-0.7l0.7,0.3
		c0.1,0,15.2,5.8,22.2,18.8c7,13,3.6,28.7,3.6,28.9L463.5,207.3z M441.7,187.5c6,11,17.8,16.7,20.8,18c0.6-3.2,2.4-16.2-3.6-27.3
		c-6-11-17.8-16.7-20.8-18C437.5,163.5,435.7,176.5,441.7,187.5z"/>
	<path id="Trazado_1018" class="st1" d="M446.5,184.7c12.6,7.6,17.5,22.7,17.5,22.7s-15.6,2.8-28.2-4.8
		c-12.6-7.6-17.5-22.7-17.5-22.7S433.9,177.1,446.5,184.7z"/>
	<path id="Trazado_1019" class="st0" d="M461.5,249.6c-21.2,0-38.4-17.2-38.5-38.4v-0.5H500v0.5C500,232.4,482.8,249.6,461.5,249.6
		L461.5,249.6z M424.2,211.7c-0.1,20.6,16.6,37.4,37.2,37.5s37.4-16.6,37.5-37.2v-0.3H424.2z"/>
	<path id="Trazado_1020" class="st2" d="M461.5,242.8c14,0,25.4-11.4,25.4-25.4h-50.9C436.1,231.4,447.5,242.8,461.5,242.8
		L461.5,242.8L461.5,242.8z"/>
	<circle id="Elipse_148" class="st3" cx="122.1" cy="33.6" r="27.6"/>
	<path id="Trazado_1021" class="st4" d="M113.1,52.2c0,0,3.8,25.5-3.3,31.4c-7,6,11.4,30.9,11.4,30.9l24.9-40.1
		c0,0-18.9-4.9-9.2-19.5L113.1,52.2z"/>
	<path id="Trazado_1022" class="st5" d="M103.9,127l-3.8,14.9l-3.8,14.9l-13-1.1l6-24.9c0,0-1.1-23.3-1.6-28.7c-0.1-1,0-2,0.2-3
		c0.4-1.4,1.6-2.4,3-2.4L103.9,127z"/>
	<path id="Trazado_1023" class="st4" d="M118.6,334.3l-16.2,3.3l-1.6-13.8L95.1,274l-1.4-12.2l18.9-5.4l-0.1,4.3l-0.4,14.6
		c0.8,2.8,1.4,5.8,1.8,8.7c0.8,5.5,1.1,11.2,0.9,16.7C114.2,315.9,118.6,334.3,118.6,334.3z"/>
	<path id="Trazado_1024" class="st3" d="M101.2,336.5l16.8-4.9l9.2,22.7l13,30.3c0,0,16.8,22.2-1.1,19.5c-17.9-2.7-20.6-7-20.6-9.2
		v-3.8l-2.2,0.5l-1.6-1.6l-2.2-16.2c0,0-4.9-4.3-2.7-10.3L101.2,336.5z"/>
	<path id="Trazado_1025" class="st6" d="M113.9,284l-0.2,0.5c0,0-2.8,26.3-12,37.5l-1,1.7l-5.7-49.8l3.6-13.3h13.9l-0.4,14.6
		C112.9,278.2,113.5,281.1,113.9,284L113.9,284z"/>
	<path id="Trazado_1026" class="st4" d="M121.3,260.7l-9.2,23.9c0,0-2.8,26.3-12,37.5L88.2,343c0,0-14.1-4.9-13-4.9
		c1.1,0,9.2-27.6,9.2-27.6l7.6-31.4l5-18.4H121.3z"/>
	<path id="Trazado_1027" class="st3" d="M93.1,336.5l-16.8-4.9l-9.2,22.7l-13,30.3c0,0-16.8,22.2,1.1,19.5c17.9-2.7,20.6-7,20.6-9.2
		v-3.8l2.2,0.5l1.6-1.6l2.2-16.2c0,0,4.9-4.3,2.7-10.3L93.1,336.5z"/>
	<circle id="Elipse_149" class="st4" cx="126.4" cy="40.6" r="18.9"/>
	<path id="Trazado_1028" class="st6" d="M103.9,127l-3.8,14.9l-3.3-0.2c-0.1-1.3-0.4-2.6-1.1-3.8c-1.1-2.2,0-0.5,2.2-2.7
		c2.2-2.2,0.5-1.1-1.1-3.8c-1.6-2.7,1.1-8.6,1.1-8.6c-3-2.2-7-26-7-26L103.9,127z"/>
	<path id="Trazado_1029" class="st5" d="M121.8,106.4l-11.3-24.9L88.8,96.7c0,0,7,23.3,10.8,26c0,0-2.7,6-1.1,8.6
		c1.6,2.7,3.3,1.6,1.1,3.8c-2.2,2.2-3.3,0.5-2.2,2.7c0.6,1.2,1,2.5,1.1,3.8l51.4,3.8l3.3-9.2c0,0,6.5-12.4,4.3-29.8l8.1-29.8
		L143,72.8L121.8,106.4z"/>
	<path id="Trazado_1030" class="st3" d="M151.7,142.2c0,0,9.1,19.9-0.1,52.4c-9.2,32.5-17.3,66.6-17.3,66.6l-41.7,4.9l-1.1-18.9
		L76.9,245c0,0,2.2-61.2,8.6-76.3c6.5-15.2,12.7-28.9,12.7-28.9L151.7,142.2z"/>
	
		<rect id="Rectángulo_234" x="63.2" y="213" transform="matrix(0.1523 -0.9883 0.9883 0.1523 -128.936 276.7727)" class="st6" width="67.4" height="1.1"/>
	<path id="Trazado_1031" class="st3" d="M140.7,25.5c-1.2-3.2-3.5-5.8-6.6-7.3c-3.8-1.8-8.2-1.6-12.3-1c-4.8,0.7-9.8,2.1-12.9,5.8
		c-2,2.4-2.9,5.4-3.8,8.4c-1,3.4-2.1,6.9-2.2,10.5c0,2.5,0.3,4.9,0.7,7.4c0.1,1.3,0.5,2.6,1.1,3.8c0.6,1.2,1.9,2,3.3,2
		c-2.7-4.8-2.4-10.8,0.9-15.3c0.8-1,1.6-1.9,2.5-2.8l6.9-7c2.1-2.1,4.3-4.3,7.2-5.4c3.3-1.2,7-0.7,9.8,1.4c1.2,0.9,2.1,2,2.8,3.3
		c0.5,0.9,1.7,3.8,1.7,3.8S141.1,26.7,140.7,25.5z"/>
	<ellipse id="Elipse_150" class="st4" cx="107.7" cy="40.6" rx="1.9" ry="3.8"/>
	<circle id="Elipse_151" class="st3" cx="109.6" cy="8.6" r="8.6"/>
	<path id="Trazado_1032" class="st0" d="M130.3,176.5H98c-1.7,0-3.1-1.4-3.1-3.1l-1.4-42.2c0-1.7,1.4-3.1,3.1-3.1h35.1
		c1.7,0,3.1,1.4,3.1,3.1l-1.4,42.2C133.3,175.2,132,176.5,130.3,176.5L130.3,176.5z"/>
	<circle id="Elipse_152" class="st1" cx="114.2" cy="141" r="2.8"/>
	<path id="Trazado_1033" class="st4" d="M152.7,142.1l-18.2,2.1c0,0-31-1.6-23.4,7.6s24.9,1.6,24.9,1.6l22.7-1.1L152.7,142.1z"/>
	<path id="Trazado_1034" class="st4" d="M86.6,147.2c0,0-6,2.7-3.1,7.6c3,4.9,16.9,9.8,18.7,2.6c1.8-7.3-8.6-9.6-11.2-10
		C89.5,147.2,88.1,147.1,86.6,147.2L86.6,147.2z"/>
	<path id="Trazado_1035" class="st5" d="M159.2,78.8l6.5-2.2c2.2,2,3.7,4.7,4.3,7.6c1.1,4.9,18.4,60.1,9.7,64.4
		c-8.6,4.3-23.8,11.4-23.8,11.4l-7-18.4l11.4-6l-4.3-23.8C155.9,111.8,151.6,78.8,159.2,78.8z"/>
	<path id="Trazado_1036" class="st0" d="M382.8,249.3H244.2V110.7h138.6V249.3z M245.2,248.2h136.4V111.8H245.2V248.2z"/>
	<rect id="Rectángulo_235" x="261" y="127.5" class="st7" width="105" height="105"/>
	<path id="Trazado_1037" class="st0" d="M300.1,201.2c-3.1-9.7-7.1-16.7-12.4-21.8l-0.3-0.3l0.3-0.4c10.3-14.3,18.8-28.3,25.2-41.7
		l0.5-1l0.5,1c8.2,16.3,16.6,29.9,25.6,41.7l0.3,0.4l-0.3,0.3c-6.5,6.9-10.7,14-12.9,21.8l-1-0.3c2.2-7.8,6.4-14.9,12.9-21.9
		c-8.8-11.5-16.9-24.7-24.9-40.5c-6.4,13-14.6,26.6-24.5,40.5c5.3,5.2,9.3,12.1,12.4,21.9L300.1,201.2z"/>
	<rect id="Rectángulo_236" x="312.7" y="137.3" class="st0" width="1.1" height="41.7"/>
	<circle id="Elipse_153" class="st0" cx="313.2" cy="179.1" r="3"/>
	
		<rect id="Rectángulo_237" x="288" y="212.9" transform="matrix(0.8326 -0.5538 0.5538 0.8326 -65.7878 209.2567)" class="st8" width="50.6" height="1.1"/>
	<path id="Trazado_1038" class="st0" d="M289.7,213c-1-0.6-1.9-1.6-2.4-2.7l1-0.4l-0.5,0.2l0.5-0.2c0,0.1,3.4,7.7,25.5,3.6
		c23.1-4.3,25.8,2.4,25.9,2.7l-1,0.4c0,0-2.7-6.2-24.6-2C299.6,217.2,292.8,215.1,289.7,213z"/>
	
		<rect id="Rectángulo_238" x="285.4" y="207.6" transform="matrix(0.9825 -0.186 0.186 0.9825 -34.1008 57.2568)" class="st0" width="5.4" height="5.4"/>
	
		<rect id="Rectángulo_239" x="335.7" y="213.3" transform="matrix(0.9825 -0.186 0.186 0.9825 -34.2674 66.7218)" class="st0" width="5.4" height="5.4"/>
	<circle id="Elipse_154" class="st8" cx="313.6" cy="213.6" r="2.7"/>
	<circle id="Elipse_155" class="st8" cx="292.3" cy="227.5" r="2.7"/>
	<circle id="Elipse_156" class="st8" cx="334.4" cy="199.5" r="2.7"/>
	<rect id="Rectángulo_240" x="312.9" y="180" class="st0" width="1.1" height="9.7"/>
	<rect id="Rectángulo_241" x="232.8" y="248.8" class="st0" width="262" height="1.1"/>
</g>
</svg>
