<?xml version="1.0" encoding="utf-8"?>
<!-- Generator: Adobe Illustrator 24.1.2, SVG Export Plug-In . SVG Version: 6.00 Build 0)  -->
<svg version="1.1" id="Capa_1" xmlns="http://www.w3.org/2000/svg" xmlns:xlink="http://www.w3.org/1999/xlink" x="0px" y="0px"
	 viewBox="0 0 1031.1 776.1" style="enable-background:new 0 0 1031.1 776.1;" xml:space="preserve">
<style type="text/css">
	.st0{fill:#3F3D56;}
	.st1{fill:#D0CDE1;}
	.st2{fill:#FFFEE7;}
	.st3{fill:#2F2E41;}
	.st4{fill:#A0616A;}
	.st5{fill:#EBF3FA;}
	.st6{opacity:0.2;enable-background:new    ;}
	.st7{fill:#B8D3CE;}
	.st8{fill:#CFCCE0;}
</style>
<g>
	<rect id="Rectángulo_233" x="165" y="649.2" class="st0" width="276.4" height="1.5"/>
	<path id="Trazado_1017" class="st0" d="M814.9,395.2l-1-0.4c-0.1,0-21.3-8.1-31.1-26.4s-5-40.2-5-40.5l0.1-1l1,0.4
		c0.1,0,21.3,8.1,31.1,26.4s5,40.2,5,40.5L814.9,395.2z M784.4,367.5c8.4,15.4,25,23.4,29.2,25.2c0.8-4.5,3.4-22.7-5-38.3
		c-8.4-15.4-25-23.4-29.2-25.2C778.5,333.8,776,352,784.4,367.5z"/>
	<path id="Trazado_1018" class="st1" d="M791.1,363.5c17.7,10.7,24.5,31.8,24.5,31.8s-21.9,3.9-39.5-6.7s-24.5-31.8-24.5-31.8
		S773.4,352.9,791.1,363.5z"/>
	<path id="Trazado_1019" class="st0" d="M812.1,454.5c-29.7,0-53.8-24.1-54-53.8V400h108v0.7C866.1,430.4,842,454.5,812.1,454.5
		L812.1,454.5z M759.8,401.4c-0.1,28.9,23.3,52.4,52.2,52.6c28.9,0.1,52.4-23.3,52.6-52.2v-0.4H759.8z"/>
	<path id="Trazado_1020" class="st2" d="M812.1,445c19.6,0,35.6-16,35.6-35.6h-71.4C776.5,429,792.5,445,812.1,445L812.1,445
		L812.1,445z"/>
	<circle id="Elipse_148" class="st3" cx="336.2" cy="151.6" r="38.7"/>
	<path id="Trazado_1021" class="st4" d="M323.6,177.7c0,0,5.3,35.8-4.6,44c-9.8,8.4,16,43.3,16,43.3l34.9-56.2
		c0,0-26.5-6.9-12.9-27.3L323.6,177.7z"/>
	<path id="Trazado_1022" class="st5" d="M310.7,282.6l-5.3,20.9l-5.3,20.9l-18.2-1.5l8.4-34.9c0,0-1.5-32.7-2.2-40.2
		c-0.1-1.4,0-2.8,0.3-4.2c0.6-2,2.2-3.4,4.2-3.4L310.7,282.6z"/>
	<path id="Trazado_1023" class="st4" d="M331.3,573.3l-22.7,4.6l-2.2-19.4l-8-69.8l-2-17.1l26.5-7.6l-0.1,6l-0.6,20.5
		c1.1,3.9,2,8.1,2.5,12.2c1.1,7.7,1.5,15.7,1.3,23.4C325.1,547.5,331.3,573.3,331.3,573.3z"/>
	<path id="Trazado_1024" class="st3" d="M306.9,576.4l23.6-6.9l12.9,31.8l18.2,42.5c0,0,23.6,31.1-1.5,27.3
		c-25.1-3.8-28.9-9.8-28.9-12.9V653l-3.1,0.7l-2.2-2.2l-3.1-22.7c0,0-6.9-6-3.8-14.4L306.9,576.4z"/>
	<path id="Trazado_1025" class="st6" d="M324.7,502.8l-0.3,0.7c0,0-3.9,36.9-16.8,52.6l-1.4,2.4l-8-69.8l5-18.7h19.5l-0.6,20.5
		C323.3,494.6,324.1,498.7,324.7,502.8L324.7,502.8z"/>
	<path id="Trazado_1026" class="st4" d="M335.1,470.1l-12.9,33.5c0,0-3.9,36.9-16.8,52.6l-16.7,29.3c0,0-19.8-6.9-18.2-6.9
		c1.5,0,12.9-38.7,12.9-38.7l10.7-44l7-25.8H335.1z"/>
	<path id="Trazado_1027" class="st3" d="M295.5,576.4l-23.6-6.9l-12.9,31.8l-18.2,42.5c0,0-23.6,31.1,1.5,27.3
		c25.1-3.8,28.9-9.8,28.9-12.9V653l3.1,0.7l2.2-2.2l3.1-22.7c0,0,6.9-6,3.8-14.4L295.5,576.4z"/>
	<circle id="Elipse_149" class="st4" cx="342.2" cy="161.4" r="26.5"/>
	<path id="Trazado_1028" class="st6" d="M310.7,282.6l-5.3,20.9l-4.6-0.3c-0.1-1.8-0.6-3.6-1.5-5.3c-1.5-3.1,0-0.7,3.1-3.8
		s0.7-1.5-1.5-5.3s1.5-12.1,1.5-12.1c-4.2-3.1-9.8-36.5-9.8-36.5L310.7,282.6z"/>
	<path id="Trazado_1029" class="st5" d="M335.8,253.7l-15.8-34.9l-30.4,21.3c0,0,9.8,32.7,15.1,36.5c0,0-3.8,8.4-1.5,12.1
		c2.2,3.8,4.6,2.2,1.5,5.3s-4.6,0.7-3.1,3.8c0.8,1.7,1.4,3.5,1.5,5.3l72.1,5.3l4.6-12.9c0,0,9.1-17.4,6-41.8l11.4-41.8l-31.7-5.3
		L335.8,253.7z"/>
	<path id="Trazado_1030" class="st3" d="M377.7,303.9c0,0,12.8,27.9-0.1,73.5s-24.3,93.4-24.3,93.4l-58.5,6.9l-1.5-26.5l-20.5-3.1
		c0,0,3.1-85.8,12.1-107c9.1-21.3,17.8-40.5,17.8-40.5L377.7,303.9z"/>
	
		<rect id="Rectángulo_234" x="253.6" y="403.2" transform="matrix(0.1523 -0.9883 0.9883 0.1523 -144.24 639.7357)" class="st6" width="94.5" height="1.5"/>
	<path id="Trazado_1031" class="st3" d="M362.3,140.3c-1.7-4.5-4.9-8.1-9.3-10.2c-5.3-2.5-11.5-2.2-17.2-1.4
		c-6.7,1-13.7,2.9-18.1,8.1c-2.8,3.4-4.1,7.6-5.3,11.8c-1.4,4.8-2.9,9.7-3.1,14.7c0,3.5,0.4,6.9,1,10.4c0.1,1.8,0.7,3.6,1.5,5.3
		s2.7,2.8,4.6,2.8c-3.8-6.7-3.4-15.1,1.3-21.5c1.1-1.4,2.2-2.7,3.5-3.9l9.7-9.8c2.9-2.9,6-6,10.1-7.6c4.6-1.7,9.8-1,13.7,2
		c1.7,1.3,2.9,2.8,3.9,4.6c0.7,1.3,2.4,5.3,2.4,5.3S362.8,142,362.3,140.3z"/>
	<ellipse id="Elipse_150" class="st4" cx="316" cy="161.4" rx="2.7" ry="5.3"/>
	<circle id="Elipse_151" class="st3" cx="318.7" cy="116.6" r="12.1"/>
	<path id="Trazado_1032" class="st0" d="M347.7,352h-45.3c-2.4,0-4.3-2-4.3-4.3l-2-59.2c0-2.4,2-4.3,4.3-4.3h49.2
		c2.4,0,4.3,2,4.3,4.3l-2,59.2C351.9,350.2,350.1,352,347.7,352L347.7,352z"/>
	<circle id="Elipse_152" class="st1" cx="325.1" cy="302.2" r="3.9"/>
	<path id="Trazado_1033" class="st4" d="M379.1,303.8l-25.5,2.9c0,0-43.5-2.2-32.8,10.7c10.7,12.9,34.9,2.2,34.9,2.2l31.8-1.5
		L379.1,303.8z"/>
	<path id="Trazado_1034" class="st4" d="M286.4,310.9c0,0-8.4,3.8-4.3,10.7c4.2,6.9,23.7,13.7,26.2,3.6c2.5-10.2-12.1-13.5-15.7-14
		C290.5,310.9,288.5,310.8,286.4,310.9L286.4,310.9z"/>
	<path id="Trazado_1035" class="st5" d="M388.2,215l9.1-3.1c3.1,2.8,5.2,6.6,6,10.7c1.5,6.9,25.8,84.3,13.6,90.3
		c-12.1,6-33.4,16-33.4,16l-9.8-25.8l16-8.4l-6-33.4C383.6,261.3,377.6,215,388.2,215z"/>
	<path id="Trazado_1036" class="st0" d="M701.8,454.1H507.4V259.8h194.4V454.1z M508.8,452.6h191.3V261.3H508.8V452.6z"/>
	<rect id="Rectángulo_235" x="531" y="283.3" class="st7" width="147.2" height="147.2"/>
	<path id="Trazado_1037" class="st0" d="M585.8,386.7c-4.3-13.6-10-23.4-17.4-30.6l-0.4-0.4l0.4-0.6c14.4-20.1,26.4-39.7,35.3-58.5
		l0.7-1.4l0.7,1.4c11.5,22.9,23.3,41.9,35.9,58.5l0.4,0.6l-0.4,0.4c-9.1,9.7-15,19.6-18.1,30.6l-1.4-0.4c3.1-10.9,9-20.9,18.1-30.7
		c-12.3-16.1-23.7-34.6-34.9-56.8c-9,18.2-20.5,37.3-34.4,56.8c7.4,7.3,13,17,17.4,30.7L585.8,386.7z"/>
	<rect id="Rectángulo_236" x="603.5" y="297.1" class="st0" width="1.5" height="58.5"/>
	<circle id="Elipse_153" class="st0" cx="604.2" cy="355.7" r="4.2"/>
	
		<rect id="Rectángulo_237" x="568.8" y="403.1" transform="matrix(0.8326 -0.5538 0.5538 0.8326 -122.5356 402.2585)" class="st8" width="71" height="1.5"/>
	<path id="Trazado_1038" class="st0" d="M571.2,403.2c-1.4-0.8-2.7-2.2-3.4-3.8l1.4-0.6l-0.7,0.3l0.7-0.3c0,0.1,4.8,10.8,35.8,5
		c32.4-6,36.2,3.4,36.3,3.8l-1.4,0.6c0,0-3.8-8.7-34.5-2.8C585.1,409.1,575.6,406.2,571.2,403.2z"/>
	
		<rect id="Rectángulo_238" x="565.2" y="395.6" transform="matrix(0.9825 -0.186 0.186 0.9825 -64.3646 112.7987)" class="st0" width="7.6" height="7.6"/>
	
		<rect id="Rectángulo_239" x="635.7" y="403.6" transform="matrix(0.9825 -0.186 0.186 0.9825 -64.6226 126.0625)" class="st0" width="7.6" height="7.6"/>
	<circle id="Elipse_154" class="st8" cx="604.7" cy="404.1" r="3.8"/>
	<circle id="Elipse_155" class="st8" cx="574.9" cy="423.5" r="3.8"/>
	<circle id="Elipse_156" class="st8" cx="633.9" cy="384.3" r="3.8"/>
	<rect id="Rectángulo_240" x="603.8" y="356.9" class="st0" width="1.5" height="13.6"/>
	<rect id="Rectángulo_241" x="491.4" y="453.4" class="st0" width="367.4" height="1.5"/>
</g>
</svg>
