<?xml version="1.0" encoding="utf-8"?>
<!-- Generator: Adobe Illustrator 24.1.2, SVG Export Plug-In . SVG Version: 6.00 Build 0)  -->
<svg version="1.1" id="Capa_1" xmlns="http://www.w3.org/2000/svg" xmlns:xlink="http://www.w3.org/1999/xlink" x="0px" y="0px"
	 viewBox="0 0 1031.1 776.1" style="enable-background:new 0 0 1031.1 776.1;" xml:space="preserve">
<style type="text/css">
	.st0{fill:#3F3D56;}
	.st1{fill:#F2F2F2;}
	.st2{fill:#FFFFFF;}
	.st3{fill:#B8D3CE;}
	.st4{fill:#CCCCCC;}
	.st5{fill:#BCD5D1;}
	.st6{fill:#E6E6E6;}
	.st7{fill:#A0616A;}
	.st8{fill:#2F2E41;}
	.st9{fill:#B7D3CE;}
</style>
<g id="Grupo_1150">
	<g id="Grupo_502">
		<path id="Trazado_910" class="st0" d="M969.2,104.6H318c-5.2,0-9.4,4.1-9.4,9.4l0,0v441.4c0,5.2,4.1,9.4,9.4,9.4l0,0H969
			c2.8,0,5.4-1.3,6.9-3.4l0.2-0.2c0.6-0.7,1.1-1.5,1.3-2.2c0.6-1.1,0.7-2.2,0.7-3.4V113.9C978.4,108.7,974.3,104.6,969.2,104.6
			L969.2,104.6z M976,554.9c0,1.3-0.2,2.6-1.1,3.6c-0.6,1.1-1.5,1.9-2.6,2.2c-1.1,0.6-2.1,0.7-3.2,0.7H318c-3.9,0-6.7-3.2-6.7-6.7
			V113.9c0-3.6,2.8-6.7,6.7-6.7h0.2h651.1c3.6,0,6.7,2.8,6.7,6.7l0,0L976,554.9L976,554.9z"/>
		<rect id="Rectángulo_212" x="309.9" y="141.8" class="st0" width="667.2" height="2.6"/>
		<circle id="Elipse_124" class="st0" cx="332.7" cy="124.6" r="8.1"/>
		<circle id="Elipse_125" class="st0" cx="355.8" cy="124.6" r="8.1"/>
		<ellipse id="Elipse_126" class="st0" cx="379" cy="124.6" rx="8.1" ry="8.1"/>
		<path id="Trazado_911" class="st1" d="M897.9,335.8h-520c-10.1,0-18.2-8.2-18.2-18.2V207.2c0-10.1,8.2-18.2,18.2-18.2h520.4
			c10.1,0,18.2,8.1,18.2,18.2v110.7C916.2,327.6,908,335.8,897.9,335.8z M377.9,191.1c-8.8,0-16.1,7.3-16.1,16.1l0,0v110.7
			c0,8.8,7.3,16.1,16.1,16.1l0,0h520.4c8.8,0,16.1-7.3,16.1-16.1l0,0V207.2c0-8.8-7.3-16.1-16.1-16.1l0,0
			C898.3,191.1,377.9,191.1,377.9,191.1z"/>
		<path id="Trazado_912" class="st1" d="M492.7,535.2H377.9c-10.1,0-18.2-8.1-18.2-18.2v-81.6c0-10.1,8.2-18.2,18.2-18.2h114.8
			c10.1,0,18.2,8.2,18.2,18.2l0,0v81.6C510.6,527.2,502.8,535.2,492.7,535.2z M377.9,419.5c-8.8,0-16.1,7.3-16.1,16.1l0,0v81.6
			c0,8.8,7.3,16.1,16.1,16.1l0,0h114.8c8.8,0,16.1-7.3,16.1-16.1l0,0v-81.6c0-8.8-7.3-16.1-16.1-16.1l0,0L377.9,419.5L377.9,419.5z"
			/>
		<path id="Trazado_913" class="st1" d="M897.9,535.2H783.1c-10.1,0-18.2-8.1-18.2-18.2v-81.6c0-10.1,8.1-18.2,18.2-18.2h114.8
			c10.1,0,18.2,8.2,18.2,18.2v81.6C916.2,527.2,908,535.2,897.9,535.2z M783.1,419.5c-8.8,0-16.1,7.3-16.1,16.1v81.6
			c0,8.8,7.3,16.1,16.1,16.1h114.8c8.8,0,16.1-7.3,16.1-16.1l0,0v-81.6c0-8.8-7.3-16.1-16.1-16.1l0,0L783.1,419.5L783.1,419.5z"/>
		<path id="Trazado_914" class="st1" d="M703.9,535.2H589.1c-10.1,0-18.2-8.1-18.2-18.2v-81.6c0-10.1,8.1-18.2,18.2-18.2h114.8
			c10.1,0,18.4,8.1,18.4,18.2l0,0v81.6C722.2,527.2,714,535.2,703.9,535.2L703.9,535.2z M589.3,419.5c-8.8,0-16.1,7.3-16.1,16.1
			v81.6c0,8.8,7.3,16.1,16.1,16.1h114.8c8.8,0,16.1-7.3,16.1-16.1v-81.6c0-8.8-7.3-16.1-16.1-16.1L589.3,419.5L589.3,419.5z"/>
		
			<rect id="Rectángulo_213" x="639.3" y="-20.7" transform="matrix(0.2377 -0.9713 0.9713 0.2377 233.4924 821.8113)" class="st1" width="2.1" height="565.7"/>
		
			<rect id="Rectángulo_214" x="357.7" y="261.5" transform="matrix(0.9708 -0.2399 0.2399 0.9708 -44.3373 160.7589)" class="st1" width="561" height="2.1"/>
		<path id="Trazado_915" class="st2" d="M919.4,372.9h-520c-9.9,0-17.6-8.1-17.6-17.6V244.6c0-9.9,8.1-17.6,17.6-17.6h520.4
			c9.9,0,17.6,8.1,17.6,17.6v110.3C937,364.8,929.3,372.9,919.4,372.9z"/>
		
			<rect id="Rectángulo_215" x="645.1" y="389.5" transform="matrix(0.6151 -0.7884 0.7884 0.6151 -127.1579 692.9243)" class="st1" width="2.1" height="174.3"/>
		
			<rect id="Rectángulo_216" x="561.1" y="476.2" transform="matrix(0.7808 -0.6248 0.6248 0.7808 -156.14 509.4488)" class="st1" width="173.8" height="2.1"/>
		
			<rect id="Rectángulo_217" x="433.7" y="389.6" transform="matrix(0.6151 -0.7884 0.7884 0.6151 -208.5516 526.2718)" class="st1" width="2.1" height="174.3"/>
		
			<rect id="Rectángulo_218" x="349.6" y="476.3" transform="matrix(0.7808 -0.6248 0.6248 0.7808 -202.5161 377.3676)" class="st1" width="173.8" height="2.1"/>
		
			<rect id="Rectángulo_219" x="839" y="389.6" transform="matrix(0.6151 -0.7884 0.7884 0.6151 -52.5909 845.8168)" class="st1" width="2.1" height="174.3"/>
		
			<rect id="Rectángulo_220" x="755" y="476.3" transform="matrix(0.7808 -0.6248 0.6248 0.7808 -113.6543 630.6287)" class="st1" width="173.8" height="2.1"/>
		<path id="Trazado_916" class="st3" d="M720,612.9H605.2c-9.9,0-17.6-8.1-17.6-17.6v-81.6c0-9.9,8.1-17.6,17.6-17.6H720
			c9.9,0,17.6,8.1,17.6,17.6l0,0v81.6C737.6,605.3,729.9,612.9,720,612.9z"/>
		<path id="Trazado_917" class="st4" d="M779.9,614.8h-235c-0.6,0-1.1-0.6-1.1-1.1c0-0.6,0.6-1.1,1.1-1.1h235c0.6,0,1.1,0.6,1.1,1.1
			C780.8,614.3,780.7,614.8,779.9,614.8L779.9,614.8z"/>
		<path id="Trazado_918" class="st4" d="M283.3,671.5H48.5c-0.6,0-1.1-0.6-1.1-1.1c0-0.6,0.6-1.1,1.1-1.1l0,0h234.8
			c0.6,0,1.1,0.6,1.1,1.1C284.4,671,283.9,671.5,283.3,671.5L283.3,671.5z"/>
		<path id="Trazado_919" class="st2" d="M677.5,548.7h-30c-4.7,0-8.6-3.9-8.6-8.6s3.9-8.6,8.6-8.6h30c4.7,0,8.6,3.6,8.8,8.6
			C686.3,544.8,682.3,548.7,677.5,548.7L677.5,548.7z"/>
		<path id="Trazado_920" class="st2" d="M695.5,577.5h-65.5c-4.7,0-8.6-3.6-8.6-8.6c0-4.7,3.6-8.6,8.6-8.6h65.5
			c4.7,0,8.6,3.6,8.8,8.6C703.9,573.6,700.3,577.5,695.5,577.5L695.5,577.5z"/>
		<path id="Trazado_921" class="st5" d="M510.6,550.8H395.9c-9.9,0-17.6-8.1-17.6-17.6v-81.6c0-9.9,8.1-17.6,17.6-17.6h114.8
			c9.9,0,17.6,8.1,17.6,17.6l0,0v81.6C528.6,543.1,520.6,550.8,510.6,550.8L510.6,550.8L510.6,550.8z"/>
		<path id="Trazado_922" class="st2" d="M468.3,486.5h-30c-4.7,0-8.6-3.9-8.6-8.6s3.9-8.6,8.6-8.6h30c4.7,0,8.6,3.6,8.8,8.6
			C477.1,482.4,473.2,486.4,468.3,486.5L468.3,486.5z"/>
		<path id="Trazado_923" class="st2" d="M486.1,515.4h-65.5c-4.7,0-8.6-3.9-8.6-8.6c0-4.7,3.9-8.6,8.6-8.6h65.5
			c4.7,0,8.6,3.9,8.6,8.6C494.7,511.4,490.8,515.4,486.1,515.4z"/>
		<path id="Trazado_924" class="st6" d="M922.8,581.9H808c-9.9,0-17.6-8.1-17.6-17.6l0,0v-81.6c0-9.9,8.1-17.6,17.6-17.6h114.8
			c9.9,0,17.6,8.1,17.6,17.6v81.6C940.4,574.2,932.3,581.9,922.8,581.9L922.8,581.9z"/>
		<path id="Trazado_925" class="st2" d="M880.3,517.6h-30c-4.7,0-8.6-3.6-8.8-8.6c-0.2-4.9,3.6-8.6,8.6-8.8h30.3
			c4.7,0,8.6,3.6,8.6,8.6C889.1,513.7,885.1,517.6,880.3,517.6L880.3,517.6z"/>
		<path id="Trazado_926" class="st2" d="M897.9,546.7h-65.5c-4.7-0.2-8.2-4.5-8.1-9.4c0.2-4.1,3.6-7.5,7.7-8.1h65.5
			c4.7,0.2,8.2,4.5,8.1,9.4C905.7,543.1,902.4,546.5,897.9,546.7L897.9,546.7z"/>
		<path id="Trazado_927" class="st7" d="M370.6,476.2V463l-50.7-6.2v19.5L370.6,476.2L370.6,476.2z"/>
		<path id="Trazado_928" class="st8" d="M382.7,437.7v41.4h-16.1v-25.5C366.6,444.8,373.9,437.7,382.7,437.7L382.7,437.7z"/>
		<path id="Trazado_929" class="st7" d="M144.7,656.8H158l6.2-50.7h-19.5V656.8z"/>
		<path id="Trazado_930" class="st8" d="M183.1,668.9h-41.2v-15.7h25.3C176,653,183.3,660.1,183.1,668.9L183.1,668.9z"/>
		<path id="Trazado_931" class="st8" d="M160.9,638.6h-0.6l-18.2-1.5c-3.2-0.2-5.2-2.8-4.9-6v-0.2l9.4-72.3c0-0.2,0-0.6,0-0.7
			l-14.8-116.5c-0.2-3.2,1.9-5.6,4.7-6.2l0,0h0.6l52.2-0.7h1.1l10.3,4.5l146.1,16.1c2.8,0.2,4.9,2.6,4.9,5.4v18.5
			c0,3.2-2.2,5.4-5.4,5.4l0,0h-0.6l-84.5-9.9c-0.6,0-0.7,0-1.3,0l-66.8,18.4c-1.3,0.2-2.1,1.3-2.2,2.6l-24.3,138.4
			C165.9,636.5,163.7,638.6,160.9,638.6L160.9,638.6z"/>
		<circle id="Elipse_127" class="st8" cx="156.7" cy="292.6" r="36"/>
		<circle id="Elipse_128" class="st8" cx="144" cy="254.7" r="14.8"/>
		<path id="Trazado_932" class="st8" d="M124.3,246.7c0-7.5,5.6-14,13.5-14.8h-1.5c-8.2,0.6-14.4,7.5-14.2,15.5
			c0.2,7.7,6.6,13.7,14.2,14.2c0.6,0,1.1,0,1.5,0C130,260.7,124.3,254.5,124.3,246.7L124.3,246.7z"/>
		<path id="Trazado_933" class="st4" d="M160.9,454.5c-10.3,0-20.8-3.4-29.2-9.4l0,0V445c0-0.2-9.5-40.6-9.9-72.1
			c0-11,5.2-21.7,14.2-28.3c8.6-6.6,20-8.2,30.3-5.2l0,0l2.1,0.7c14.4,5.4,23.6,19.7,22.3,35.2c-1.3,16.7-1.9,46.6,9.5,62.4l0.2,0.2
			l-0.2,0.2C189.3,448.5,175.3,454,160.9,454.5z"/>
		<circle id="Elipse_129" class="st7" cx="156.4" cy="304" r="26.4"/>
		<path id="Trazado_934" class="st7" d="M124.3,302.5c1.3,5.6-2.1,11.6-7.7,12.9l0,0c-0.6,0.2-1.3,0.2-1.9,0.2l-10.3,37.1l-13.3-15
			l11.6-33c0-6,4.7-10.9,10.9-10.9C118.5,293.9,123,297.4,124.3,302.5L124.3,302.5z"/>
		<path id="Trazado_935" class="st4" d="M84.5,383.7c-5.6,0-10.3-4.7-10.3-10.3c0-1.3,0.2-2.2,0.6-3.4L94.2,316
			c1.1-2.6,3.6-4.1,6.6-3.4l14,3.6c2.8,0.7,4.7,3.6,3.9,6.6l0,0v0.6l-12.4,33.3l21-6.7c6.9-2.8,15,0.7,17.6,7.7
			c2.8,6.9-0.7,15-7.7,17.6c-0.6,0.2-1.1,0.2-1.5,0.6c-0.7,0.2-1.3,0.2-2.1,0.6l-47.7,7.3C85.4,383.6,85,383.7,84.5,383.7z"/>
		<ellipse id="Elipse_130" class="st8" cx="160.9" cy="285.1" rx="24.9" ry="14.8"/>
		<path id="Trazado_936" class="st7" d="M236.5,463.3c-5.6-1.5-9-7.5-7.5-13.3l0,0c0.2-0.6,0.2-1.3,0.7-1.9l-27.5-27l19.5-4.1
			l23,26.2c5.2,2.8,6.9,9.5,4.1,14.8C246.1,462.4,241.2,464.6,236.5,463.3L236.5,463.3z"/>
		<path id="Trazado_937" class="st4" d="M223.8,448.7c-1.5,0-2.8-0.7-3.9-1.9l-29.8-36.3l-23.2-44.8c-1.5-4.7-0.7-9.5,2.2-13.5
			c2.8-3.6,7.3-6,12-5.6c1.1,0,2.2,0.2,3.4,0.2c4.7,1.1,8.6,4.5,10.3,9l19.7,46.4l23.8,30c1.5,2.1,1.3,5.2-0.7,6.7l-10.3,8.2
			C226,448.2,225.1,448.5,223.8,448.7L223.8,448.7z"/>
		<path id="Trazado_938" class="st4" d="M982.5,583.4H747.7c-0.6,0-1.1-0.6-1.1-1.1s0.6-1.1,1.1-1.1h235c0.6,0,1.1,0.6,1.1,1.1
			C983.6,583.2,983.1,583.4,982.5,583.4z"/>
		<path id="Trazado_939" class="st9" d="M776,370.8v1.3H546.8v-1.3l1.3-1.9l72.8-102.6c1.3-1.5,3.4-2.1,5.2-0.7
			c0.2,0.2,0.6,0.6,0.7,0.7l48.7,68.9l34.6-48.5c1.3-1.5,3.4-2.1,5.2-0.7l0,0c0.2,0.2,0.6,0.6,0.7,0.7l58.8,82.4L776,370.8z"/>
		
			<ellipse id="Elipse_131" transform="matrix(0.1602 -0.9871 0.9871 0.1602 186.3707 771.1987)" class="st9" cx="546.4" cy="276.1" rx="26.6" ry="26.6"/>
		<path id="Trazado_940" class="st0" d="M919.4,373.4h-520c-10.1,0-18.2-8.1-18.2-18.2V244.6c0-10.1,8.1-18.2,18.2-18.2h520.4
			c10.1,0,18.2,8.1,18.2,18.2v110.3C937.8,365,929.5,373.4,919.4,373.4z M399.4,228.7c-8.8,0-16.1,7.3-16.1,16.1v110.3
			c0,8.8,7.3,16.1,16.1,16.1h520.4c8.8,0,16.1-7.3,16.1-16.1V244.6c0-8.8-7.3-16.1-16.1-16.1C919.6,228.7,399.4,228.7,399.4,228.7z"
			/>
	</g>
</g>
</svg>
