<?xml version="1.0" encoding="utf-8"?>
<!-- Generator: Adobe Illustrator 24.1.2, SVG Export Plug-In . SVG Version: 6.00 Build 0)  -->
<svg version="1.1" id="Capa_1" xmlns="http://www.w3.org/2000/svg" xmlns:xlink="http://www.w3.org/1999/xlink" x="0px" y="0px"
	 viewBox="0 0 27.4 44.6" style="enable-background:new 0 0 27.4 44.6;" xml:space="preserve">
<style type="text/css">
	.st0{fill:#3C3C3C;}
	.st1{fill:#FBBEBE;}
	.st2{fill:#B8D3CE;}
</style>
<g id="Illustration">
	<path id="Path_FILL:STYLE1_brand_" class="st0" d="M10.5,7.2c0.5,0,0.9-0.1,1.3-0.3c0.4-0.3,0.7-0.6,0.9-1c0.4-0.6,0.7-1.4,0.9-2.1
		c0.3,0.4,0.8,0.5,1.2,0.4c0.7-0.2,1.2-1,1-1.7c-0.1-0.7-0.7-1.3-1.4-1.6S13,0.6,12.2,0.6c-0.5,0-1,0-1.4,0.2c-0.5,0.2-0.9,0.5-1,1
		C9.7,2.1,9.7,2.4,9.6,2.7c-0.2,0.5-0.8,0.8-1.3,1S7.2,4.1,6.9,4.6C6.6,5.1,6.7,5.9,7,6.4c0.4,0.5,1,0.8,1.6,0.9
		C9.3,7.2,9.9,7.2,10.5,7.2"/>
	<path id="Path_FILL:STYLE1_TEXT_" d="M4.9,40.2l-2-0.9L4,37l1.6,1L4.9,40.2z"/>
	<path id="Path_FILL:STYLE1_foreground_" d="M12.4,28.6l-1.9,4l-3.4,7l-3.5-1.7l3.9-9.2v-1.2v-3.6L12.4,28.6z"/>
	<path id="Path_FILL:STYLE1_TEXT_2" d="M17.9,38.4l-2.1,0.7l-0.7-2.4l1.8-0.4L17.9,38.4z"/>
	<path id="Path_FILL:STYLE1_TEXT_3" class="st1" d="M17.4,17.5l-6.2-1.8l1.8-1.2l4.8,1.5l2.2,0.5c0.6,0.1,0.9,0.7,0.8,1.3
		c0,0.1,0,0.1-0.1,0.2l0,0c-0.2,0.5-0.9,0.8-1.4,0.5l0,0h-0.1L17.4,17.5z"/>
	<path id="Path_FILL:STYLE1_BACKGROUND_" class="st2" d="M13.4,14.6l-2.5,1.5c-0.2-1.8,0.9-5.1,2.3-8.7l0,0C14,8,14.4,9,14.3,10
		L13.4,14.6z"/>
	<path id="Path_FILL:STYLE1_TEXT_4" class="st1" d="M2.5,18.2v1.9c0,0.6-0.5,1.1-1.1,1.1l0,0c-0.1,0-0.2,0-0.3,0l0,0
		c-0.6-0.2-0.9-0.8-0.8-1.3l0,0c0-0.1,0-0.1,0.1-0.2l0.7-1.5L3.3,13l1.5,0.6L2.5,18.2z"/>
	<circle id="Path_FILL:STYLE1_TEXT_5" class="st1" cx="12.8" cy="3.5" r="2"/>
	<path id="Path_FILL:STYLE1_TEXT_6" class="st1" d="M12.8,7.7l-2.3-1.1L11.7,4l1.9,0.4L12.8,7.7z"/>
	<path id="Path_FILL:STYLE1_BACKGROUND_2" class="st2" d="M11.3,17l-4.7-1.2l0.9-8.6c0.1-0.8,0.8-1.4,1.6-1.3L10.6,6l2.1,1l0.8,0.8
		l-0.2,1c0.2,2.1,0.1,3.9-1.2,5L11.3,17z"/>
	<path id="Path_FILL:STYLE1_BACKGROUND_3" class="st2" d="M5.3,13.7l-2.4-0.6l3.3-5.4c0.7-1.2,2-1.8,3.4-1.7l0,0l-1.4,4.1
		C7.1,11,6.1,12.2,5.3,13.7z"/>
	<path id="Path_FILL:STYLE1_foreground_2" d="M18,36.5l-3.7,1.1C9.8,30.2,3.3,22.3,5.8,17l0.9-2.2l4.8,1.5l0.3,5.7l3,4.6L18,36.5z"
		/>
	<path id="Path_FILL:STYLE1_brand_2" d="M19.8,41.5h-3.3c-0.7,0-1.2-0.5-1.2-1.2v-1.7c0-0.2,0.2-0.4,0.4-0.4l0,0h0.1
		c0.6,0.2,1.1,0.1,1.5-0.2c0.2-0.2,0.2-0.3,0.5-0.1l1.5,1.6h0.6c0.5,0,0.8,0.4,0.9,0.9l0,0C20.8,41,20.4,41.5,19.8,41.5L19.8,41.5
		L19.8,41.5z"/>
	<path id="Path_FILL:STYLE1_brand_3" d="M4.1,43.8l-2.3-2.4c-0.5-0.5-0.5-1.2,0-1.7L3,38.5c0.1-0.1,0.4-0.2,0.5,0l0.1,0.1
		c0.3,0.6,0.7,0.9,1.2,0.9c0.3,0,0.4,0,0.4,0.3L5.1,42l0.4,0.5c0.3,0.4,0.3,0.9,0,1.2l0,0C5.2,44.1,4.6,44.1,4.1,43.8L4.1,43.8
		L4.1,43.8z"/>
	<path id="Path_FILL:STYLE1_brand_4" class="st0" d="M12.7,3c0.3,0.4,0.7,0.8,1.2,1c0.3,0.1,0.8,0.2,1-0.1c0.2-0.2,0.2-0.5,0.2-0.7
		c-0.1-0.8-0.7-1.5-1.4-1.8c-0.8-0.3-1.6-0.2-2.4,0.1c-0.7,0.3-1.4,0.9-1.4,1.7C9.9,3.6,10,4,9.8,4.4C9.6,4.7,9.3,4.8,9.1,4.9
		C8.8,5,8.5,5.2,8.5,5.5c0,0.2,0,0.4,0.2,0.5C8.8,6.1,9,6.2,9.2,6.3c0.4,0.2,0.9,0.3,1.4,0.2c0.5-0.1,1-0.4,1.1-0.8
		c0.1-0.3,0.1-0.7,0.1-1.1s0-0.8,0.2-1.1c0.2-0.3,0.7-0.5,1-0.3"/>
	<path id="Path_FILL:STYLE1_foreground_3" d="M24.6,10.7l-5.8,1.7c-0.1,0-0.2,0.1-0.2,0.3c0,0.1,0.1,0.1,0.2,0.2l3.5,1.1
		c0.1,0,0.2,0,0.2-0.1l2.4-2.8c0.1-0.1,0.1-0.2,0-0.3C24.8,10.7,24.7,10.6,24.6,10.7L24.6,10.7z"/>
	<path id="Path_FILL:STYLE1_foreground_4" d="M25.4,10.9l-2.8,3.3c-0.1,0.1-0.1,0.1-0.2,0.1L18.3,13c-0.1,0-0.2,0-0.3,0.1l0,0v0.1
		l1.3,4.4c0,0.1,0.1,0.2,0.3,0.1l0,0l0,0l7.4-2.1c0.1,0,0.2-0.1,0.1-0.3l0,0l0,0l-1.3-4.4c0-0.1-0.1-0.2-0.3-0.2
		C25.5,10.8,25.4,10.9,25.4,10.9L25.4,10.9z"/>
</g>
</svg>
