<?xml version="1.0" encoding="utf-8"?>
<!-- Generator: Adobe Illustrator 24.1.2, SVG Export Plug-In . SVG Version: 6.00 Build 0)  -->
<svg version="1.1" id="Capa_1" xmlns="http://www.w3.org/2000/svg" xmlns:xlink="http://www.w3.org/1999/xlink" x="0px" y="0px"
	 viewBox="0 0 500 439" style="enable-background:new 0 0 500 439;" xml:space="preserve">
<style type="text/css">
	.st0{fill:#F1F1F1;}
	.st1{fill:#3F3D56;}
	.st2{fill:#FFFFFF;}
	.st3{fill:#E5E5E5;}
	.st4{fill:#B7D3CE;}
	.st5{fill:#B8D3CE;}
	.st6{fill:#CBCBCB;}
	.st7{fill:#FFB7B7;}
	.st8{fill:#2F2E41;}
</style>
<g id="Grupo_504">
	<path id="Trazado_941" class="st0" d="M435.5,423v-43.5C435.5,379.5,452.4,410.4,435.5,423z"/>
	<path id="Trazado_942" class="st0" d="M436.5,423l-32-29.4C404.5,393.6,438.7,402,436.5,423z"/>
	<path id="Trazado_943" class="st0" d="M64.2,423v-43.5C64.2,379.5,47.2,410.4,64.2,423z"/>
	<path id="Trazado_944" class="st0" d="M63.2,423l32-29.4C95.2,393.6,61,402,63.2,423z"/>
	<path id="Trazado_945" class="st1" d="M355.4,100.4h-2.3V36.8c0-20.3-16.5-36.8-36.8-36.8H181.5c-20.3,0-36.8,16.5-36.8,36.8v349
		c0,20.3,16.5,36.8,36.8,36.8l0,0h134.8c20.3,0,36.8-16.5,36.8-36.8l0,0l0,0V145.7h2.3L355.4,100.4L355.4,100.4z"/>
	<path id="Trazado_946" class="st2" d="M317.7,9.6h-17.6c2.8,6.7-0.4,14.3-7.1,17c-1.6,0.6-3.3,1-5,1h-77.2c-7.2,0-13.1-5.8-13.1-13
		c0-1.7,0.3-3.4,1-5h-16.4c-15.2,0-27.5,12.3-27.5,27.5l0,0v348.5c0,15.2,12.3,27.5,27.5,27.5h135.4c15.2,0,27.5-12.3,27.5-27.5l0,0
		V37.1C345.2,21.9,332.9,9.6,317.7,9.6z"/>
	<path id="Trazado_947" class="st3" d="M314.4,407.1H185.7c-14.8,0-26.8-10.7-26.8-23.9v-17.3c0-10.5,9.6-19.1,21.3-19.1h139.5
		c11.8,0,21.3,8.6,21.3,19.1v17.3C341.1,396.4,329.1,407.1,314.4,407.1z"/>
	<path id="Trazado_948" class="st4" d="M199.2,115.9h-28.7c-1.1,0-1.9-0.9-1.9-1.9V85.3c0-1.1,0.9-1.9,1.9-1.9h28.7
		c1.1,0,1.9,0.9,1.9,1.9l0,0v28.7C201.1,115.1,200.3,115.9,199.2,115.9L199.2,115.9z"/>
	<path id="Trazado_949" class="st3" d="M242.6,115.9H214c-1.1,0-1.9-0.9-1.9-1.9V85.3c0-1.1,0.9-1.9,1.9-1.9h28.7
		c1.1,0,1.9,0.9,1.9,1.9l0,0v28.7C244.6,115.1,243.7,115.9,242.6,115.9C242.7,115.9,242.6,115.9,242.6,115.9z"/>
	<path id="Trazado_950" class="st3" d="M286.1,115.9h-28.7c-1.1,0-1.9-0.9-1.9-1.9l0,0V85.3c0-1.1,0.9-1.9,1.9-1.9l0,0H286
		c1.1,0,1.9,0.9,1.9,1.9l0,0V114C288,115.1,287.2,115.9,286.1,115.9L286.1,115.9z"/>
	<path id="Trazado_951" class="st3" d="M329.5,115.9h-28.7c-1.1,0-1.9-0.9-1.9-1.9l0,0V85.3c0-1.1,0.9-1.9,1.9-1.9l0,0h28.7
		c1.1,0,1.9,0.9,1.9,1.9l0,0V114C331.5,115.1,330.6,115.9,329.5,115.9L329.5,115.9z"/>
	<path id="Trazado_952" class="st3" d="M199.1,169.1h-28.7c-1.1,0-1.9-0.9-1.9-1.9v-28.7c0-1.1,0.9-1.9,1.9-1.9h28.7
		c1.1,0,1.9,0.9,1.9,1.9v28.7C201.1,168.2,200.2,169.1,199.1,169.1z"/>
	<path id="Trazado_953" class="st3" d="M242.6,169.1h-28.7c-1.1,0-1.9-0.9-1.9-1.9v-28.7c0-1.1,0.9-1.9,1.9-1.9h28.7
		c1.1,0,1.9,0.9,1.9,1.9v28.7C244.5,168.2,243.6,169.1,242.6,169.1z"/>
	<path id="Trazado_954" class="st4" d="M286,169.1h-28.7c-1.1,0-1.9-0.9-1.9-1.9v-28.7c0-1.1,0.9-1.9,1.9-1.9H286
		c1.1,0,1.9,0.9,1.9,1.9v28.7C287.9,168.2,287.1,169.1,286,169.1z"/>
	<path id="Trazado_955" class="st5" d="M329.4,169.1h-28.7c-1.1,0-1.9-0.9-1.9-1.9v-28.7c0-1.1,0.9-1.9,1.9-1.9h28.7
		c1.1,0,1.9,0.9,1.9,1.9v28.7C331.3,168.2,330.5,169.1,329.4,169.1z"/>
	<path id="Trazado_956" class="st3" d="M199,222.2h-28.7c-1.1,0-1.9-0.9-1.9-1.9v-28.7c0-1.1,0.9-1.9,1.9-1.9l0,0H199
		c1.1,0,1.9,0.9,1.9,1.9l0,0v28.7C200.9,221.3,200.1,222.2,199,222.2z"/>
	<path id="Trazado_957" class="st3" d="M242.4,222.2h-28.7c-1.1,0-1.9-0.9-1.9-1.9l0,0v-28.7c0-1.1,0.9-1.9,1.9-1.9l0,0h28.7
		c1.1,0,1.9,0.9,1.9,1.9l0,0v28.7C244.4,221.3,243.5,222.2,242.4,222.2z"/>
	<path id="Trazado_958" class="st3" d="M285.9,222.2h-28.7c-1.1,0-1.9-0.9-1.9-1.9v-28.7c0-1.1,0.9-1.9,1.9-1.9l0,0h28.7
		c1.1,0,1.9,0.9,1.9,1.9l0,0v28.7C287.8,221.3,286.9,222.2,285.9,222.2z"/>
	<path id="Trazado_959" class="st3" d="M329.3,222.2h-28.7c-1.1,0-1.9-0.9-1.9-1.9v-28.7c0-1.1,0.9-1.9,1.9-1.9l0,0h28.7
		c1.1,0,1.9,0.9,1.9,1.9l0,0v28.7C331.2,221.3,330.4,222.2,329.3,222.2z"/>
	<path id="Trazado_960" class="st3" d="M198.9,275.3h-28.7c-1.1,0-1.9-0.9-1.9-1.9v-28.7c0-1.1,0.9-1.9,1.9-1.9h28.7
		c1.1,0,1.9,0.9,1.9,1.9v28.7C200.9,274.5,200,275.3,198.9,275.3z"/>
	<path id="Trazado_961" class="st3" d="M242.4,275.3h-28.7c-1.1,0-1.9-0.9-1.9-1.9v-28.7c0-1.1,0.9-1.9,1.9-1.9h28.7
		c1.1,0,1.9,0.9,1.9,1.9v28.7C244.3,274.5,243.4,275.3,242.4,275.3L242.4,275.3z"/>
	<path id="Trazado_962" class="st3" d="M285.8,275.3h-28.7c-1.1,0-1.9-0.9-1.9-1.9v-28.7c0-1.1,0.9-1.9,1.9-1.9h28.7
		c1.1,0,1.9,0.9,1.9,1.9v28.7C287.7,274.5,286.8,275.3,285.8,275.3z"/>
	<path id="Trazado_963" class="st3" d="M329.2,275.3h-28.7c-1.1,0-1.9-0.9-1.9-1.9v-28.7c0-1.1,0.9-1.9,1.9-1.9h28.7
		c1.1,0,1.9,0.9,1.9,1.9v28.7C331.1,274.5,330.3,275.3,329.2,275.3z"/>
	<path id="Trazado_964" class="st2" d="M199.2,394h-28.7c-1.1,0-1.9-0.9-1.9-1.9v-28.7c0-1.1,0.9-1.9,1.9-1.9h28.7
		c1.1,0,1.9,0.9,1.9,1.9v28.7C201.1,393.1,200.3,394,199.2,394z"/>
	<path id="Trazado_965" class="st2" d="M242.6,394H214c-1.1,0-1.9-0.9-1.9-1.9v-28.7c0-1.1,0.9-1.9,1.9-1.9h28.7
		c1.1,0,1.9,0.9,1.9,1.9v28.7C244.6,393.1,243.7,394,242.6,394z"/>
	<path id="Trazado_966" class="st2" d="M286.1,394h-28.7c-1.1,0-1.9-0.9-1.9-1.9v-28.7c0-1.1,0.9-1.9,1.9-1.9h28.7
		c1.1,0,1.9,0.9,1.9,1.9v28.7C288,393.1,287.1,394,286.1,394L286.1,394z"/>
	<path id="Trazado_967" class="st2" d="M329.5,394h-28.7c-1.1,0-1.9-0.9-1.9-1.9v-28.7c0-1.1,0.9-1.9,1.9-1.9h28.7
		c1.1,0,1.9,0.9,1.9,1.9v28.7C331.4,393.1,330.6,394,329.5,394z"/>
	<circle id="Elipse_132" class="st3" cx="235.9" cy="329.6" r="3.9"/>
	<circle id="Elipse_133" class="st3" cx="249.9" cy="329.6" r="3.9"/>
	<circle id="Elipse_134" class="st3" cx="263.9" cy="329.6" r="3.9"/>
	<path id="Trazado_968" class="st6" d="M499.2,423.3H0.8c-0.3,0.1-0.7-0.1-0.8-0.4c-0.1-0.3,0.1-0.7,0.4-0.8c0.1,0,0.2,0,0.3,0
		h498.4c0.3-0.1,0.7,0.1,0.8,0.4c0.1,0.3-0.1,0.7-0.4,0.8C499.4,423.3,499.3,423.3,499.2,423.3z"/>
	<path id="Trazado_969" class="st7" d="M196.4,304.9c3-3.1,3-8,0-11.1c-0.3-0.3-0.7-0.6-1.1-0.9l7.6-26.9l-13.8,4.4l-5.1,24.8
		c-2.3,3.7-1.1,8.6,2.6,10.8C189.8,308,193.9,307.5,196.4,304.9L196.4,304.9z"/>
	<path id="Trazado_970" class="st1" d="M200.4,288.4c-0.2,0-0.5,0.1-0.7,0.1l-13.3-0.2c-1.9,0-3.5-1.7-3.4-3.6c0-0.2,0-0.3,0-0.4
		l13.4-90.8c0.8-5.4,5.5-9.5,11-9.5l0,0c6.1,0,11.1,5,11,11.1c0,0.9-0.1,1.7-0.3,2.6l-9.5,38.6l-5.4,49.1
		C203,286.9,201.9,288.1,200.4,288.4L200.4,288.4z"/>
	<path id="Trazado_971" class="st7" d="M205.9,431.8h7.4l3.5-28.4h-10.9L205.9,431.8L205.9,431.8z"/>
	<path id="Trazado_972" class="st8" d="M204,429.4h14.5c5.1,0,9.2,4.1,9.2,9.2l0,0v0.3H204V429.4z"/>
	<path id="Trazado_973" class="st7" d="M237.3,429.4l7.3,0.8l6.7-27.9l-10.8-1.2L237.3,429.4z"/>
	<path id="Trazado_974" class="st8" d="M235.7,426.8l14.4,1.6l0,0c5.1,0.6,8.7,5.2,8.2,10.2l0,0l0,0.3l-23.6-2.6L235.7,426.8z"/>
	<path id="Trazado_975" class="st8" d="M199,273.5c0,0-10.1,22.4-1.2,36.9l5.3,113.2h12.2l11.8-91.4l21.1,27.1l-12.8,63.1l14.9,0.9
		l20.7-64c0,0-15.9-70.5-21.2-72.2l-3.4-16.1L199,273.5z"/>
	<path id="Trazado_976" class="st6" d="M194.5,293.2c0,0-9.1,10.5,14.9,14.1s49.3-1.8,49.9-9C259.9,291,194.5,293.2,194.5,293.2z"/>
	<path id="Trazado_977" class="st7" d="M315,163.6c-0.1,3.9-3.4,6.9-7.2,6.7l0,0c-0.4,0-0.9-0.1-1.3-0.2l-9.1,13.1l-9.3-3.6
		l13.1-18.3c1.1-3.7,4.9-5.9,8.7-4.8C313.1,157.4,315.2,160.3,315,163.6L315,163.6z"/>
	<path id="Trazado_978" class="st1" d="M238.1,180.4l-12.9-5.8l-16.5,1.2c0,0-19.9,23.2-12,45.5l-4.8,77.6
		c30.7,8.4,44.6-7.4,66.7-0.6l-6.9-86.2L238.1,180.4z"/>
	<path id="Trazado_979" class="st1" d="M229.6,186.1l8.6-5.6c0,0,11.9-1.8,16.7,2.8c0,0,16.2,1.3,20.1,5.4l4.3,1l14.3-18.5l8.8,4.7
		l-12.7,34.3l-37.8,1.9L229.6,186.1z"/>
	<circle id="Elipse_135" class="st7" cx="222.8" cy="150.3" r="20.3"/>
	<path id="Trazado_980" class="st8" d="M205.2,134.4c3.6-6.5,8.2-10.7,15.6-10.5c7.5,0.2,13.9-0.2,17.2,6.5c0.9-1.7,1.3-3.5,1.3-5.4
		c2.1,1.3,3.1,3.8,2.7,6.2c1.3-0.8,2.2-2.2,2.2-3.7c2.5,0.8,3.1,4.3,1.9,6.6s-3.7,3.6-6.1,4.7c-2.4,1.1-1.3,7.1-2.8,9.2
		c-1.1,1.5-1.6,3.3-2.3,5c0,0.1-0.1,0.1-0.2,0.2c-1.7,0.8-2.7,2.6-2.4,4.5c0,0.1,0,0.3,0,0.4c-2.1,4-4.4,8.2-8.2,10.5
		c-3.1,1.9-6.7,2.4-10.2,1.6c-3.9-0.9-7.3-3.5-9.7-6.7c-2.4-3.2-4-7-5.2-10.8c-1.1-3.4-1.8-7.1-1-10.5c0.8-3.4,3.7-6.7,7.2-6.9"/>
</g>
</svg>
