<?xml version="1.0" encoding="utf-8"?>
<!-- Generator: Adobe Illustrator 24.1.2, SVG Export Plug-In . SVG Version: 6.00 Build 0)  -->
<svg version="1.1" id="Capa_1" xmlns="http://www.w3.org/2000/svg" xmlns:xlink="http://www.w3.org/1999/xlink" x="0px" y="0px"
	 viewBox="0 0 500 302.8" style="enable-background:new 0 0 500 302.8;" xml:space="preserve">
<style type="text/css">
	.st0{fill:#3F3D56;}
	.st1{fill:#F2F2F2;}
	.st2{fill:#FFFFFF;}
	.st3{fill:#B8D3CE;}
	.st4{fill:#CCCCCC;}
	.st5{fill:#BCD5D1;}
	.st6{fill:#E6E6E6;}
	.st7{fill:#A0616A;}
	.st8{fill:#2F2E41;}
	.st9{fill:#B7D3CE;}
</style>
<g id="Grupo_1150">
	<g id="Grupo_502">
		<path id="Trazado_910" class="st0" d="M492.3,0H144.5c-2.8,0-5,2.2-5,5l0,0v235.7c0,2.8,2.2,5,5,5l0,0h347.7
			c1.5,0,2.9-0.7,3.7-1.8l0.1-0.1c0.3-0.4,0.6-0.8,0.7-1.2c0.3-0.6,0.4-1.2,0.4-1.8V5C497.2,2.2,495,0,492.3,0L492.3,0z
			 M495.9,240.5c0,0.7-0.1,1.4-0.6,1.9c-0.3,0.6-0.8,1-1.4,1.2c-0.6,0.3-1.1,0.4-1.7,0.4H144.5c-2.1,0-3.6-1.7-3.6-3.6V5
			c0-1.9,1.5-3.6,3.6-3.6h0.1h347.7c1.9,0,3.6,1.5,3.6,3.6l0,0v235.5H495.9z"/>
		<rect id="Rectángulo_212" x="140.2" y="19.9" class="st0" width="356.3" height="1.4"/>
		<circle id="Elipse_124" class="st0" cx="152.4" cy="10.7" r="4.3"/>
		<circle id="Elipse_125" class="st0" cx="164.7" cy="10.7" r="4.3"/>
		
			<ellipse id="Elipse_126" transform="matrix(0.1735 -0.9848 0.9848 0.1735 135.8353 183.1582)" class="st0" cx="177" cy="10.7" rx="4.3" ry="4.3"/>
		<path id="Trazado_911" class="st1" d="M454.2,123.5H176.5c-5.4,0-9.7-4.4-9.7-9.7V54.8c0-5.4,4.4-9.7,9.7-9.7h277.9
			c5.4,0,9.7,4.3,9.7,9.7v59.1C464,119.1,459.6,123.5,454.2,123.5z M176.5,46.2c-4.7,0-8.6,3.9-8.6,8.6l0,0v59.1
			c0,4.7,3.9,8.6,8.6,8.6l0,0h277.9c4.7,0,8.6-3.9,8.6-8.6l0,0V54.8c0-4.7-3.9-8.6-8.6-8.6l0,0H176.5z"/>
		<path id="Trazado_912" class="st1" d="M237.8,230h-61.3c-5.4,0-9.7-4.3-9.7-9.7v-43.6c0-5.4,4.4-9.7,9.7-9.7h61.3
			c5.4,0,9.7,4.4,9.7,9.7l0,0v43.6C247.4,225.7,243.2,230,237.8,230z M176.5,168.2c-4.7,0-8.6,3.9-8.6,8.6l0,0v43.6
			c0,4.7,3.9,8.6,8.6,8.6l0,0h61.3c4.7,0,8.6-3.9,8.6-8.6l0,0v-43.6c0-4.7-3.9-8.6-8.6-8.6l0,0H176.5z"/>
		<path id="Trazado_913" class="st1" d="M454.2,230h-61.3c-5.4,0-9.7-4.3-9.7-9.7v-43.6c0-5.4,4.3-9.7,9.7-9.7h61.3
			c5.4,0,9.7,4.4,9.7,9.7v43.6C464,225.7,459.6,230,454.2,230z M392.9,168.2c-4.7,0-8.6,3.9-8.6,8.6v43.6c0,4.7,3.9,8.6,8.6,8.6
			h61.3c4.7,0,8.6-3.9,8.6-8.6l0,0v-43.6c0-4.7-3.9-8.6-8.6-8.6l0,0H392.9z"/>
		<path id="Trazado_914" class="st1" d="M350.6,230h-61.3c-5.4,0-9.7-4.3-9.7-9.7v-43.6c0-5.4,4.3-9.7,9.7-9.7h61.3
			c5.4,0,9.8,4.3,9.8,9.7l0,0v43.6C360.4,225.7,356,230,350.6,230L350.6,230z M289.4,168.2c-4.7,0-8.6,3.9-8.6,8.6v43.6
			c0,4.7,3.9,8.6,8.6,8.6h61.3c4.7,0,8.6-3.9,8.6-8.6v-43.6c0-4.7-3.9-8.6-8.6-8.6H289.4z"/>
		
			<rect id="Rectángulo_213" x="316.1" y="-66.9" transform="matrix(0.2377 -0.9713 0.9713 0.2377 159.6611 371.7209)" class="st1" width="1.1" height="302.1"/>
		
			<rect id="Rectángulo_214" x="165.7" y="83.8" transform="matrix(0.9708 -0.2399 0.2399 0.9708 -11.0231 78.1514)" class="st1" width="299.6" height="1.1"/>
		<path id="Trazado_915" class="st2" d="M465.7,143.3H188c-5.3,0-9.4-4.3-9.4-9.4V74.8c0-5.3,4.3-9.4,9.4-9.4h277.9
			c5.3,0,9.4,4.3,9.4,9.4v58.9C475.1,139,471,143.3,465.7,143.3z"/>
		
			<rect id="Rectángulo_215" x="319.2" y="152.2" transform="matrix(0.6151 -0.7884 0.7884 0.6151 -33.599 328.5853)" class="st1" width="1.1" height="93.1"/>
		
			<rect id="Rectángulo_216" x="274.3" y="198.5" transform="matrix(0.7808 -0.6248 0.6248 0.7808 -54.0399 243.9862)" class="st1" width="92.8" height="1.1"/>
		
			<rect id="Rectángulo_217" x="206.3" y="152.2" transform="matrix(0.6151 -0.7884 0.7884 0.6151 -77.0464 239.5976)" class="st1" width="1.1" height="93.1"/>
		
			<rect id="Rectángulo_218" x="161.4" y="198.5" transform="matrix(0.7808 -0.6248 0.6248 0.7808 -78.7928 173.4731)" class="st1" width="92.8" height="1.1"/>
		
			<rect id="Rectángulo_219" x="422.8" y="152.2" transform="matrix(0.6151 -0.7884 0.7884 0.6151 6.2193 410.3008)" class="st1" width="1.1" height="93.1"/>
		
			<rect id="Rectángulo_220" x="377.9" y="198.5" transform="matrix(0.7808 -0.6248 0.6248 0.7808 -31.3609 308.7387)" class="st1" width="92.8" height="1.1"/>
		<path id="Trazado_916" class="st3" d="M359.2,271.5h-61.3c-5.3,0-9.4-4.3-9.4-9.4v-43.6c0-5.3,4.3-9.4,9.4-9.4h61.3
			c5.3,0,9.4,4.3,9.4,9.4l0,0v43.6C368.6,267.4,364.5,271.5,359.2,271.5z"/>
		<path id="Trazado_917" class="st4" d="M391.2,272.5H265.7c-0.3,0-0.6-0.3-0.6-0.6c0-0.3,0.3-0.6,0.6-0.6h125.5
			c0.3,0,0.6,0.3,0.6,0.6C391.7,272.2,391.6,272.5,391.2,272.5L391.2,272.5z"/>
		<path id="Trazado_918" class="st4" d="M126,302.8H0.6c-0.3,0-0.6-0.3-0.6-0.6c0-0.3,0.3-0.6,0.6-0.6l0,0H126
			c0.3,0,0.6,0.3,0.6,0.6C126.6,302.5,126.3,302.8,126,302.8L126,302.8z"/>
		<path id="Trazado_919" class="st2" d="M336.5,237.2h-16c-2.5,0-4.6-2.1-4.6-4.6c0-2.5,2.1-4.6,4.6-4.6h16c2.5,0,4.6,1.9,4.7,4.6
			C341.2,235.1,339.1,237.2,336.5,237.2L336.5,237.2z"/>
		<path id="Trazado_920" class="st2" d="M346.1,252.6h-35c-2.5,0-4.6-1.9-4.6-4.6c0-2.5,1.9-4.6,4.6-4.6h35c2.5,0,4.6,1.9,4.7,4.6
			C350.6,250.5,348.7,252.6,346.1,252.6L346.1,252.6z"/>
		<path id="Trazado_921" class="st5" d="M247.4,238.3h-61.3c-5.3,0-9.4-4.3-9.4-9.4v-43.6c0-5.3,4.3-9.4,9.4-9.4h61.3
			c5.3,0,9.4,4.3,9.4,9.4l0,0v43.6C257,234.2,252.7,238.3,247.4,238.3L247.4,238.3L247.4,238.3z"/>
		<path id="Trazado_922" class="st2" d="M224.8,204h-16c-2.5,0-4.6-2.1-4.6-4.6s2.1-4.6,4.6-4.6h16c2.5,0,4.6,1.9,4.7,4.6
			C229.5,201.8,227.4,203.9,224.8,204L224.8,204z"/>
		<path id="Trazado_923" class="st2" d="M234.3,219.4h-35c-2.5,0-4.6-2.1-4.6-4.6c0-2.5,2.1-4.6,4.6-4.6h35c2.5,0,4.6,2.1,4.6,4.6
			C238.9,217.3,236.8,219.4,234.3,219.4z"/>
		<path id="Trazado_924" class="st6" d="M467.5,254.9h-61.3c-5.3,0-9.4-4.3-9.4-9.4l0,0v-43.6c0-5.3,4.3-9.4,9.4-9.4h61.3
			c5.3,0,9.4,4.3,9.4,9.4v43.6C476.9,250.8,472.6,254.9,467.5,254.9L467.5,254.9z"/>
		<path id="Trazado_925" class="st2" d="M444.8,220.6h-16c-2.5,0-4.6-1.9-4.7-4.6c-0.1-2.6,1.9-4.6,4.6-4.7h16.2
			c2.5,0,4.6,1.9,4.6,4.6C449.5,218.5,447.4,220.6,444.8,220.6L444.8,220.6z"/>
		<path id="Trazado_926" class="st2" d="M454.2,236.1h-35c-2.5-0.1-4.4-2.4-4.3-5c0.1-2.2,1.9-4,4.1-4.3h35c2.5,0.1,4.4,2.4,4.3,5
			C458.4,234.2,456.6,236,454.2,236.1L454.2,236.1z"/>
		<path id="Trazado_927" class="st7" d="M172.6,198.5v-7.1l-27.1-3.3v10.4H172.6z"/>
		<path id="Trazado_928" class="st8" d="M179.1,177.9V200h-8.6v-13.6C170.5,181.7,174.4,177.9,179.1,177.9L179.1,177.9z"/>
		<path id="Trazado_929" class="st7" d="M52,294.9h7.1l3.3-27.1H52V294.9z"/>
		<path id="Trazado_930" class="st8" d="M72.5,301.4h-22v-8.4H64C68.7,292.9,72.6,296.7,72.5,301.4L72.5,301.4z"/>
		<path id="Trazado_931" class="st8" d="M60.6,285.2h-0.3l-9.7-0.8c-1.7-0.1-2.8-1.5-2.6-3.2v-0.1l5-38.6c0-0.1,0-0.3,0-0.4
			l-7.9-62.2c-0.1-1.7,1-3,2.5-3.3l0,0h0.3l27.9-0.4h0.6l5.5,2.4l78,8.6c1.5,0.1,2.6,1.4,2.6,2.9V200c0,1.7-1.2,2.9-2.9,2.9l0,0
			h-0.3l-45.1-5.3c-0.3,0-0.4,0-0.7,0l-35.7,9.8c-0.7,0.1-1.1,0.7-1.2,1.4l-13,73.9C63.3,284.1,62.1,285.2,60.6,285.2L60.6,285.2z"
			/>
		<circle id="Elipse_127" class="st8" cx="58.4" cy="100.4" r="19.2"/>
		<circle id="Elipse_128" class="st8" cx="51.6" cy="80.2" r="7.9"/>
		<path id="Trazado_932" class="st8" d="M41.1,75.9c0-4,3-7.5,7.2-7.9h-0.8c-4.4,0.3-7.7,4-7.6,8.3c0.1,4.1,3.5,7.3,7.6,7.6
			c0.3,0,0.6,0,0.8,0C44.1,83.4,41.1,80.1,41.1,75.9L41.1,75.9z"/>
		<path id="Trazado_933" class="st4" d="M60.6,186.9c-5.5,0-11.1-1.8-15.6-5l0,0v-0.1c0-0.1-5.1-21.7-5.3-38.5
			c0-5.9,2.8-11.6,7.6-15.1c4.6-3.5,10.7-4.4,16.2-2.8l0,0l1.1,0.4c7.7,2.9,12.6,10.5,11.9,18.8c-0.7,8.9-1,24.9,5.1,33.3l0.1,0.1
			l-0.1,0.1C75.8,183.7,68.3,186.6,60.6,186.9z"/>
		<circle id="Elipse_129" class="st7" cx="58.2" cy="106.5" r="14.1"/>
		<path id="Trazado_934" class="st7" d="M41.1,105.7c0.7,3-1.1,6.2-4.1,6.9l0,0c-0.3,0.1-0.7,0.1-1,0.1l-5.5,19.8l-7.1-8l6.2-17.6
			c0-3.2,2.5-5.8,5.8-5.8C38,101.1,40.4,103,41.1,105.7L41.1,105.7z"/>
		<path id="Trazado_935" class="st4" d="M19.8,149.1c-3,0-5.5-2.5-5.5-5.5c0-0.7,0.1-1.2,0.3-1.8l10.4-28.9c0.6-1.4,1.9-2.2,3.5-1.8
			l7.5,1.9c1.5,0.4,2.5,1.9,2.1,3.5l0,0v0.3l-6.6,17.8l11.2-3.6c3.7-1.5,8,0.4,9.4,4.1c1.5,3.7-0.4,8-4.1,9.4
			c-0.3,0.1-0.6,0.1-0.8,0.3c-0.4,0.1-0.7,0.1-1.1,0.3L20.6,149C20.3,149,20.1,149.1,19.8,149.1z"/>
		<ellipse id="Elipse_130" class="st8" cx="60.6" cy="96.4" rx="13.3" ry="7.9"/>
		<path id="Trazado_936" class="st7" d="M101,191.6c-3-0.8-4.8-4-4-7.1l0,0c0.1-0.3,0.1-0.7,0.4-1l-14.7-14.4l10.4-2.2l12.3,14
			c2.8,1.5,3.7,5.1,2.2,7.9C106.1,191.1,103.5,192.3,101,191.6L101,191.6z"/>
		<path id="Trazado_937" class="st4" d="M94.2,183.8c-0.8,0-1.5-0.4-2.1-1l-15.9-19.4l-12.4-23.9c-0.8-2.5-0.4-5.1,1.2-7.2
			c1.5-1.9,3.9-3.2,6.4-3c0.6,0,1.2,0.1,1.8,0.1c2.5,0.6,4.6,2.4,5.5,4.8l10.5,24.8l12.7,16c0.8,1.1,0.7,2.8-0.4,3.6l-5.5,4.4
			C95.4,183.5,94.9,183.7,94.2,183.8L94.2,183.8z"/>
		<path id="Trazado_938" class="st4" d="M499.4,255.7H374c-0.3,0-0.6-0.3-0.6-0.6s0.3-0.6,0.6-0.6h125.5c0.3,0,0.6,0.3,0.6,0.6
			C500,255.6,499.7,255.7,499.4,255.7z"/>
		<path id="Trazado_939" class="st9" d="M389.1,142.2v0.7H266.7v-0.7l0.7-1l38.9-54.8c0.7-0.8,1.8-1.1,2.8-0.4
			c0.1,0.1,0.3,0.3,0.4,0.4l26,36.8l18.5-25.9c0.7-0.8,1.8-1.1,2.8-0.4l0,0c0.1,0.1,0.3,0.3,0.4,0.4l31.4,44L389.1,142.2z"/>
		<circle id="Elipse_131" class="st9" cx="266.5" cy="91.6" r="14.2"/>
		<path id="Trazado_940" class="st0" d="M465.7,143.6H188c-5.4,0-9.7-4.3-9.7-9.7V74.8c0-5.4,4.3-9.7,9.7-9.7h277.9
			c5.4,0,9.7,4.3,9.7,9.7v58.9C475.5,139.1,471.1,143.6,465.7,143.6z M188,66.3c-4.7,0-8.6,3.9-8.6,8.6v58.9c0,4.7,3.9,8.6,8.6,8.6
			h277.9c4.7,0,8.6-3.9,8.6-8.6V74.8c0-4.7-3.9-8.6-8.6-8.6C465.8,66.3,188,66.3,188,66.3z"/>
	</g>
</g>
</svg>
