<?xml version="1.0" encoding="utf-8"?>
<!-- Generator: Adobe Illustrator 24.1.2, SVG Export Plug-In . SVG Version: 6.00 Build 0)  -->
<svg version="1.1" id="Capa_1" xmlns="http://www.w3.org/2000/svg" xmlns:xlink="http://www.w3.org/1999/xlink" x="0px" y="0px"
	 viewBox="0 0 1031.1 776.1" style="enable-background:new 0 0 1031.1 776.1;" xml:space="preserve">
<style type="text/css">
	.st0{fill:#F1F1F1;}
	.st1{fill:#3F3D56;}
	.st2{fill:#F2F2F2;}
	.st3{fill:#E5E5E5;}
	.st4{fill:#B7D3CE;}
	.st5{fill:#B8D3CE;}
	.st6{fill:#FFFFFF;}
	.st7{fill:#CBCBCB;}
	.st8{fill:#FFB7B7;}
	.st9{fill:#2F2E41;}
</style>
<path id="Trazado_941" class="st0" d="M794.2,693.8v-65.3C794.2,628.4,819.6,674.8,794.2,693.8z"/>
<path id="Trazado_942" class="st0" d="M795.7,693.8l-48.1-44.2C747.7,649.6,799,662.2,795.7,693.8z"/>
<path id="Trazado_943" class="st0" d="M236.5,693.8v-65.3C236.5,628.4,210.9,674.8,236.5,693.8z"/>
<path id="Trazado_944" class="st0" d="M235,693.8l48.1-44.2C283,649.6,231.7,662.2,235,693.8z"/>
<path id="Trazado_945" class="st1" d="M673.9,209.2h-3.5v-95.5c0-30.5-24.8-55.3-55.3-55.3H412.7c-30.5,0-55.3,24.8-55.3,55.3v524.2
	c0,30.5,24.8,55.3,55.3,55.3l0,0h202.5c30.5,0,55.3-24.8,55.3-55.3l0,0l0,0V277.2h3.5L673.9,209.2L673.9,209.2z"/>
<path id="Trazado_946" class="st2" d="M617.3,72.8h-26.4c4.2,10.1-0.6,21.5-10.7,25.5c-2.4,0.9-5,1.5-7.5,1.5h-116
	c-10.8,0-19.7-8.7-19.7-19.5c0-2.6,0.5-5.1,1.5-7.5h-24.6c-22.8,0-41.3,18.5-41.3,41.3l0,0v523.5c0,22.8,18.5,41.3,41.3,41.3h203.4
	c22.8,0,41.3-18.5,41.3-41.3l0,0V114.1C658.6,91.3,640.1,72.8,617.3,72.8z"/>
<path id="Trazado_947" class="st3" d="M612.3,669.9H419c-22.2,0-40.3-16.1-40.3-35.9v-26c0-15.8,14.4-28.7,32-28.7h209.5
	c17.7,0,32,12.9,32,28.7v26C652.4,653.8,634.4,669.9,612.3,669.9z"/>
<path id="Trazado_948" class="st4" d="M439.3,232.5h-43.1c-1.7,0-2.9-1.4-2.9-2.9v-43.1c0-1.7,1.4-2.9,2.9-2.9h43.1
	c1.7,0,2.9,1.4,2.9,2.9l0,0v43.1C442.1,231.3,440.9,232.5,439.3,232.5L439.3,232.5z"/>
<path id="Trazado_949" class="st3" d="M504.5,232.5h-43c-1.7,0-2.9-1.4-2.9-2.9v-43.1c0-1.7,1.4-2.9,2.9-2.9h43.1
	c1.7,0,2.9,1.4,2.9,2.9l0,0v43.1C507.5,231.3,506.1,232.5,504.5,232.5C504.6,232.5,504.5,232.5,504.5,232.5z"/>
<path id="Trazado_950" class="st3" d="M569.8,232.5h-43.1c-1.7,0-2.9-1.4-2.9-2.9l0,0v-43.1c0-1.7,1.4-2.9,2.9-2.9l0,0h43
	c1.7,0,2.9,1.4,2.9,2.9l0,0v43.1C572.7,231.3,571.5,232.5,569.8,232.5L569.8,232.5z"/>
<path id="Trazado_951" class="st3" d="M635,232.5h-43.1c-1.7,0-2.9-1.4-2.9-2.9l0,0v-43.1c0-1.7,1.4-2.9,2.9-2.9l0,0H635
	c1.7,0,2.9,1.4,2.9,2.9l0,0v43.1C638,231.3,636.6,232.5,635,232.5L635,232.5z"/>
<path id="Trazado_952" class="st3" d="M439.1,312.4H396c-1.7,0-2.9-1.4-2.9-2.9v-43.1c0-1.7,1.4-2.9,2.9-2.9h43.1
	c1.7,0,2.9,1.4,2.9,2.9v43.1C442.1,311,440.8,312.4,439.1,312.4z"/>
<path id="Trazado_953" class="st3" d="M504.5,312.4h-43.1c-1.7,0-2.9-1.4-2.9-2.9v-43.1c0-1.7,1.4-2.9,2.9-2.9h43.1
	c1.7,0,2.9,1.4,2.9,2.9v43.1C507.3,311,506,312.4,504.5,312.4z"/>
<path id="Trazado_954" class="st4" d="M569.7,312.4h-43.1c-1.7,0-2.9-1.4-2.9-2.9v-43.1c0-1.7,1.4-2.9,2.9-2.9h43.1
	c1.7,0,2.9,1.4,2.9,2.9v43.1C572.5,311,571.3,312.4,569.7,312.4z"/>
<path id="Trazado_955" class="st5" d="M634.8,312.4h-43.1c-1.7,0-2.9-1.4-2.9-2.9v-43.1c0-1.7,1.4-2.9,2.9-2.9h43.1
	c1.7,0,2.9,1.4,2.9,2.9v43.1C637.7,311,636.5,312.4,634.8,312.4z"/>
<path id="Trazado_956" class="st3" d="M439,392.1h-43.1c-1.7,0-2.9-1.4-2.9-2.9v-43.1c0-1.7,1.4-2.9,2.9-2.9l0,0H439
	c1.7,0,2.9,1.4,2.9,2.9l0,0v43.1C441.8,390.8,440.6,392.1,439,392.1z"/>
<path id="Trazado_957" class="st3" d="M504.2,392.1H461c-1.7,0-2.9-1.4-2.9-2.9l0,0v-43.1c0-1.7,1.4-2.9,2.9-2.9l0,0h43.1
	c1.7,0,2.9,1.4,2.9,2.9l0,0v43.1C507.2,390.8,505.8,392.1,504.2,392.1z"/>
<path id="Trazado_958" class="st3" d="M569.5,392.1h-43.1c-1.7,0-2.9-1.4-2.9-2.9v-43.1c0-1.7,1.4-2.9,2.9-2.9l0,0h43.1
	c1.7,0,2.9,1.4,2.9,2.9l0,0v43.1C572.4,390.8,571,392.1,569.5,392.1z"/>
<path id="Trazado_959" class="st3" d="M634.7,392.1h-43.1c-1.7,0-2.9-1.4-2.9-2.9v-43.1c0-1.7,1.4-2.9,2.9-2.9l0,0h43.1
	c1.7,0,2.9,1.4,2.9,2.9l0,0v43.1C637.5,390.8,636.3,392.1,634.7,392.1z"/>
<path id="Trazado_960" class="st3" d="M438.8,471.9h-43.1c-1.7,0-2.9-1.4-2.9-2.9v-43.1c0-1.7,1.4-2.9,2.9-2.9h43.1
	c1.7,0,2.9,1.4,2.9,2.9V469C441.8,470.7,440.5,471.9,438.8,471.9z"/>
<path id="Trazado_961" class="st3" d="M504.2,471.9H461c-1.7,0-2.9-1.4-2.9-2.9v-43.1c0-1.7,1.4-2.9,2.9-2.9h43.1
	c1.7,0,2.9,1.4,2.9,2.9V469C507,470.7,505.7,471.9,504.2,471.9L504.2,471.9z"/>
<path id="Trazado_962" class="st3" d="M569.4,471.9h-43.1c-1.7,0-2.9-1.4-2.9-2.9v-43.1c0-1.7,1.4-2.9,2.9-2.9h43.1
	c1.7,0,2.9,1.4,2.9,2.9V469C572.2,470.7,570.9,471.9,569.4,471.9z"/>
<path id="Trazado_963" class="st3" d="M634.5,471.9h-43.1c-1.7,0-2.9-1.4-2.9-2.9v-43.1c0-1.7,1.4-2.9,2.9-2.9h43.1
	c1.7,0,2.9,1.4,2.9,2.9V469C637.4,470.7,636.2,471.9,634.5,471.9z"/>
<path id="Trazado_964" class="st6" d="M439.3,650.2h-43.1c-1.7,0-2.9-1.4-2.9-2.9v-43.1c0-1.7,1.4-2.9,2.9-2.9h43.1
	c1.7,0,2.9,1.4,2.9,2.9v43.1C442.1,648.8,440.9,650.2,439.3,650.2z"/>
<path id="Trazado_965" class="st6" d="M504.5,650.2h-43c-1.7,0-2.9-1.4-2.9-2.9v-43.1c0-1.7,1.4-2.9,2.9-2.9h43.1
	c1.7,0,2.9,1.4,2.9,2.9v43.1C507.5,648.8,506.1,650.2,504.5,650.2z"/>
<path id="Trazado_966" class="st6" d="M569.8,650.2h-43.1c-1.7,0-2.9-1.4-2.9-2.9v-43.1c0-1.7,1.4-2.9,2.9-2.9h43.1
	c1.7,0,2.9,1.4,2.9,2.9v43.1C572.7,648.8,571.3,650.2,569.8,650.2L569.8,650.2z"/>
<path id="Trazado_967" class="st6" d="M635,650.2h-43.1c-1.7,0-2.9-1.4-2.9-2.9v-43.1c0-1.7,1.4-2.9,2.9-2.9H635
	c1.7,0,2.9,1.4,2.9,2.9v43.1C637.8,648.8,636.6,650.2,635,650.2z"/>
<circle id="Elipse_132" class="st3" cx="494.4" cy="553.5" r="5.9"/>
<ellipse id="Elipse_133" transform="matrix(0.9239 -0.3827 0.3827 0.9239 -172.5827 239.3675)" class="st3" cx="515.4" cy="553.5" rx="5.9" ry="5.9"/>
<circle id="Elipse_134" class="st3" cx="536.5" cy="553.5" r="5.9"/>
<path id="Trazado_968" class="st7" d="M889.9,694.2H141.2c-0.5,0.2-1.1-0.2-1.2-0.6c-0.2-0.5,0.2-1.1,0.6-1.2c0.2,0,0.3,0,0.5,0
	h748.7c0.5-0.2,1.1,0.2,1.2,0.6s-0.2,1.1-0.6,1.2C890.2,694.2,890.1,694.2,889.9,694.2z"/>
<path id="Trazado_969" class="st8" d="M435.1,516.4c4.5-4.7,4.5-12,0-16.7c-0.5-0.5-1.1-0.9-1.7-1.4l11.4-40.4l-20.7,6.6l-7.7,37.3
	c-3.5,5.6-1.7,12.9,3.9,16.2C425.1,521,431.3,520.3,435.1,516.4L435.1,516.4z"/>
<path id="Trazado_970" class="st1" d="M441.1,491.6c-0.3,0-0.8,0.2-1.1,0.2l-20-0.3c-2.9,0-5.3-2.6-5.1-5.4c0-0.3,0-0.5,0-0.6
	L435.1,349c1.2-8.1,8.3-14.3,16.5-14.3l0,0c9.2,0,16.7,7.5,16.5,16.7c0,1.4-0.2,2.6-0.5,3.9l-14.3,58l-8.1,73.8
	C445,489.3,443.3,491.1,441.1,491.6L441.1,491.6z"/>
<path id="Trazado_971" class="st8" d="M449.3,707h11.1l5.3-42.7h-16.4V707L449.3,707z"/>
<path id="Trazado_972" class="st9" d="M446.5,703.4h21.8c7.7,0,13.8,6.2,13.8,13.8l0,0v0.5h-35.6L446.5,703.4L446.5,703.4z"/>
<path id="Trazado_973" class="st8" d="M496.5,703.4l11,1.2l10.1-41.9l-16.2-1.8L496.5,703.4z"/>
<path id="Trazado_974" class="st9" d="M494.1,699.5l21.6,2.4l0,0c7.7,0.9,13.1,7.8,12.3,15.3l0,0v0.5l-35.5-3.9L494.1,699.5z"/>
<path id="Trazado_975" class="st9" d="M439,469.2c0,0-15.2,33.6-1.8,55.4l8,170h18.3l17.7-137.3l31.7,40.7l-19.2,94.8l22.4,1.4
	l31.1-96.1c0,0-23.9-105.9-31.8-108.5l-5.1-24.2L439,469.2z"/>
<path id="Trazado_976" class="st7" d="M432.2,498.8c0,0-13.7,15.8,22.4,21.2s74.1-2.7,75-13.5C530.4,495.5,432.2,498.8,432.2,498.8z
	"/>
<path id="Trazado_977" class="st8" d="M613.2,304.1c-0.2,5.9-5.1,10.4-10.8,10.1l0,0c-0.6,0-1.4-0.2-2-0.3l-13.7,19.7l-14-5.4
	l19.7-27.5c1.7-5.6,7.4-8.9,13.1-7.2C610.4,294.8,613.5,299.1,613.2,304.1L613.2,304.1z"/>
<path id="Trazado_978" class="st1" d="M497.7,329.3l-19.4-8.7l-24.8,1.8c0,0-29.9,34.8-18,68.3l-7.2,116.6
	c46.1,12.6,67-11.1,100.2-0.9L518.1,377L497.7,329.3z"/>
<path id="Trazado_979" class="st1" d="M484.9,337.9l12.9-8.4c0,0,17.9-2.7,25.1,4.2c0,0,24.3,2,30.2,8.1l6.5,1.5l21.5-27.8l13.2,7.1
	l-19.1,51.5l-56.8,2.9L484.9,337.9z"/>
<circle id="Elipse_135" class="st8" cx="474.7" cy="284.1" r="30.5"/>
<path id="Trazado_980" class="st9" d="M448.3,260.2c5.4-9.8,12.3-16.1,23.4-15.8c11.3,0.3,20.9-0.3,25.8,9.8c1.4-2.6,2-5.3,2-8.1
	c3.2,2,4.7,5.7,4.1,9.3c2-1.2,3.3-3.3,3.3-5.6c3.8,1.2,4.7,6.5,2.9,9.9c-1.8,3.5-5.6,5.4-9.2,7.1s-2,10.7-4.2,13.8
	c-1.7,2.3-2.4,5-3.5,7.5c0,0.2-0.2,0.2-0.3,0.3c-2.6,1.2-4.1,3.9-3.6,6.8c0,0.2,0,0.5,0,0.6c-3.2,6-6.6,12.3-12.3,15.8
	c-4.7,2.9-10.1,3.6-15.3,2.4c-5.9-1.4-11-5.3-14.6-10.1c-3.6-4.8-6-10.5-7.8-16.2c-1.7-5.1-2.7-10.7-1.5-15.8
	c1.2-5.1,5.6-10.1,10.8-10.4"/>
</svg>
