<?xml version="1.0" encoding="utf-8"?>
<!-- Generator: Adobe Illustrator 24.1.2, SVG Export Plug-In . SVG Version: 6.00 Build 0)  -->
<svg version="1.1" id="Capa_1" xmlns="http://www.w3.org/2000/svg" xmlns:xlink="http://www.w3.org/1999/xlink" x="0px" y="0px"
	 viewBox="0 0 1031.1 776.1" style="enable-background:new 0 0 1031.1 776.1;" xml:space="preserve">
<style type="text/css">
	.st0{fill:#3F3D56;}
	.st1{fill:#F2F2F2;}
	.st2{fill:#E6E6E6;}
	.st3{fill:#FFFEE7;}
	.st4{fill:#EBF3FA;}
	.st5{fill:#9F616A;}
	.st6{fill:#2F2E41;}
	.st7{fill:#A0616A;}
	.st8{fill:#B8D3CE;}
	.st9{fill:#CACACA;}
</style>
<path id="Path_2389" class="st0" d="M797.2,297.9l-2.8-0.9l25.5-76.2c8.2-24.4-5-50.7-29.3-58.9l0,0l-161.5-54.1
	c-24.4-8.2-50.7,5-58.9,29.3l0,0l0,0L430.1,555.3c-8.2,24.4,5,50.7,29.3,58.9l0,0L621,668.3c24.4,8.2,50.7-5,58.9-29.3l0,0
	l96.4-287.7l2.8,0.9L797.2,297.9z"/>
<path id="Path_2390" class="st1" d="M788.6,173.9l-21.1-7.1c0.6,9.1-6.3,17-15.4,17.5c-2.1,0.1-4.3-0.1-6.3-0.8l-92.5-31
	c-8.6-2.9-13.3-12.3-10.4-20.9c0.7-2,1.7-3.9,3.1-5.5l-19.7-6.6c-18.2-6.1-37.9,3.7-44,21.9L442.4,559c-6.1,18.2,3.7,37.9,21.9,44
	l0,0l162.3,54.4c18.2,6.1,37.9-3.7,44-21.9l0,0l139.9-417.6C816.6,199.7,806.8,180,788.6,173.9L788.6,173.9L788.6,173.9z"/>
<path id="Path_2391" class="st0" d="M748,314l-173.2-58c-1.8-0.6-2.7-2.5-2.1-4.3l14.4-43c0.6-1.8,2.5-2.7,4.3-2.1l173.2,58
	c1.8,0.6,2.7,2.5,2.1,4.3l-14.4,43C751.7,313.6,749.8,314.6,748,314L748,314z M590.9,207.9c-1.1-0.4-2.2,0.2-2.6,1.3l-14.4,43
	c-0.4,1.1,0.2,2.2,1.3,2.6l173.2,58c1.1,0.4,2.2-0.2,2.6-1.3l14.4-43c0.4-1.1-0.2-2.2-1.3-2.6L590.9,207.9z"/>
<path id="Path_2392" class="st0" d="M691,484l-173.2-58c-1.8-0.6-2.7-2.5-2.1-4.3l26.6-79.5c0.6-1.8,2.5-2.7,4.3-2.1l173.2,58
	c1.8,0.6,2.7,2.5,2.1,4.3l-26.6,79.5C694.7,483.6,692.8,484.6,691,484z M546.2,341.3c-1.1-0.4-2.2,0.2-2.6,1.3L517,422.1
	c-0.4,1.1,0.2,2.2,1.3,2.6l173.2,58c1.1,0.4,2.2-0.2,2.6-1.3l26.6-79.5c0.4-1.1-0.2-2.2-1.3-2.6L546.2,341.3z"/>
<path id="Path_2393" class="st2" d="M724.4,380.3l-77-25.8c-1.8-0.6-2.7-2.5-2.1-4.3l14.4-43c0.6-1.8,2.5-2.7,4.3-2.1l77,25.8
	c1.8,0.6,2.7,2.5,2.1,4.3l-14.4,43C728,379.9,726.1,380.9,724.4,380.3L724.4,380.3z M663.5,306.4c-1.1-0.4-2.2,0.2-2.6,1.3l-14.4,43
	c-0.4,1.1,0.2,2.2,1.3,2.6l77,25.8c1.1,0.4,2.2-0.2,2.6-1.3l14.4-43c0.4-1.1-0.2-2.2-1.3-2.6L663.5,306.4z"/>
<path id="Path_2394" class="st2" d="M560,555.7l-77-25.8c-1.8-0.6-2.7-2.5-2.1-4.3l26.9-80.2c0.6-1.8,2.5-2.7,4.3-2.1l77,25.8
	c1.8,0.6,2.7,2.5,2.1,4.3l-26.9,80.2C563.7,555.3,561.8,556.2,560,555.7L560,555.7z M511.6,444.6c-1.1-0.4-2.2,0.2-2.6,1.3
	L482.2,526c-0.4,1.1,0.2,2.2,1.3,2.6l77,25.8c1.1,0.4,2.2-0.2,2.6-1.3l26.9-80.2c0.4-1.1-0.2-2.2-1.3-2.6L511.6,444.6z"/>
<path id="Path_2395" class="st2" d="M655,587.5l-77-25.8c-1.8-0.6-2.7-2.5-2.1-4.3l26.9-80.2c0.6-1.8,2.5-2.7,4.3-2.1l77,25.8
	c1.8,0.6,2.7,2.5,2.1,4.3l-26.9,80.2C658.6,587.1,656.7,588.1,655,587.5z M606.6,476.4c-1.1-0.4-2.2,0.2-2.6,1.3l-26.9,80.2
	c-0.4,1.1,0.2,2.2,1.3,2.6l77,25.8c1.1,0.4,2.2-0.2,2.6-1.3l26.9-80.2c0.4-1.1-0.2-2.2-1.3-2.6L606.6,476.4z"/>
<circle id="Ellipse_477" class="st3" cx="562.8" cy="376.8" r="13.8"/>
<path id="Path_2396" class="st2" d="M595.9,378.2c-1.2-0.4-2.5,0.2-2.9,1.4c-0.4,1.2,0.2,2.5,1.4,2.9l102.7,34.4
	c1.2,0.4,2.5-0.2,2.9-1.4c0.4-1.2-0.2-2.5-1.4-2.9l0,0l0,0L595.9,378.2z"/>
<path id="Path_2397" class="st2" d="M591.5,391.2c-1.2-0.4-2.5,0.2-2.9,1.4c-0.4,1.2,0.2,2.5,1.4,2.9l44.2,14.8
	c1.2,0.4,2.5-0.2,2.9-1.4c0.4-1.2-0.2-2.5-1.4-2.9l0,0l0,0L591.5,391.2z"/>
<path id="Path_2398" class="st2" d="M544.4,398.7c-1.7-0.6-3.3,0-3.7,1.2s0.6,2.6,2.3,3.2l141.6,47.4c1.7,0.6,3.3,0,3.7-1.2
	s-0.6-2.6-2.3-3.2L544.4,398.7z"/>
<path id="Path_2399" class="st2" d="M540,411.7c-1.7-0.6-3.3,0-3.7,1.2s0.6,2.6,2.3,3.2l141.6,47.4c1.7,0.6,3.3,0,3.7-1.2
	s-0.6-2.6-2.3-3.2L540,411.7z"/>
<circle id="Ellipse_478" class="st4" cx="610.5" cy="238.6" r="13.8"/>
<path id="Path_2400" class="st2" d="M643.6,240c-1.2-0.4-2.5,0.2-2.9,1.4s0.2,2.5,1.4,2.9l0,0l102.7,34.4c1.2,0.4,2.5-0.2,2.9-1.4
	s-0.2-2.5-1.4-2.9l0,0l0,0L643.6,240z"/>
<path id="Path_2401" class="st2" d="M639.2,253.1c-1.2-0.4-2.5,0.2-2.9,1.4s0.2,2.5,1.4,2.9l44.2,14.8c1.2,0.4,2.5-0.2,2.9-1.4
	c0.4-1.2-0.2-2.5-1.4-2.9l0,0L639.2,253.1z"/>
<path id="Path_2402" class="st2" d="M629.4,348.4l-72.2-24.2l26.9-23.7c1.5-1.3,3.8-1.2,5.2,0.3c0.4,0.5,0.7,1.1,0.8,1.7l3,15
	l19.5-17.2c1.9-1.7,4.8-1.5,6.5,0.4c0.5,0.6,0.9,1.3,1.1,2.1L629.4,348.4z M559.8,323.7l67.8,22.7l-8.8-43.3
	c-0.4-1.7-2.1-2.9-3.8-2.5c-0.6,0.1-1.1,0.4-1.5,0.7l-21.3,18.8l-3.5-17.3c-0.3-1.2-1.5-2.1-2.7-1.8c-0.4,0.1-0.8,0.3-1.1,0.5
	L559.8,323.7z"/>
<path id="Path_2404" class="st2" d="M629.4,348.5l-77-25.8c-1.8-0.6-2.7-2.5-2.1-4.3l14.4-43c0.6-1.8,2.5-2.7,4.3-2.1l77,25.8
	c1.8,0.6,2.7,2.5,2.1,4.3l-14.4,43C633.1,348.1,631.2,349.1,629.4,348.5z M568.6,274.6c-1.1-0.4-2.2,0.2-2.6,1.3l-14.4,43
	c-0.4,1.1,0.2,2.2,1.3,2.6l77,25.8c1.1,0.4,2.2-0.2,2.6-1.3l14.4-43c0.4-1.1-0.2-2.2-1.3-2.6L568.6,274.6z"/>
<path id="Path_2405" class="st2" d="M522.9,465.3c-1.2-0.4-2.5,0.2-2.9,1.5c-0.4,1.2,0.2,2.5,1.5,2.9l44.2,14.8
	c1.2,0.4,2.5-0.2,2.9-1.4c0.4-1.2-0.2-2.5-1.4-2.9L522.9,465.3z"/>
<path id="Path_2406" class="st2" d="M518.6,478.1c-1.2-0.4-2.5,0.2-2.9,1.4s0.2,2.5,1.4,2.9l0,0l44.2,14.8c1.2,0.4,2.5-0.2,2.9-1.4
	c0.4-1.2-0.2-2.5-1.4-2.9l0,0L518.6,478.1z"/>
<path id="Path_2408" class="st2" d="M644.1,565.4c1.2,0.4,2.5-0.2,2.9-1.4s-0.2-2.5-1.4-2.9l-44.2-14.8c-1.2-0.4-2.5,0.2-2.9,1.4
	s0.2,2.5,1.4,2.9l0,0L644.1,565.4z"/>
<path id="Path_2409" class="st2" d="M648.4,552.6c1.2,0.4,2.5-0.2,2.9-1.4s-0.2-2.5-1.4-2.9l-44.2-14.8c-1.2-0.4-2.5,0.2-2.9,1.4
	s0.2,2.5,1.4,2.9l0,0L648.4,552.6z"/>
<path id="Path_2409-2" class="st2" d="M717.4,347.1c1.2,0.4,2.5-0.2,2.9-1.4c0.4-1.2-0.2-2.5-1.4-2.9L674.7,328
	c-1.2-0.4-2.5,0.2-2.9,1.4c-0.4,1.2,0.2,2.5,1.4,2.9L717.4,347.1z"/>
<path id="Path_2409-3" class="st2" d="M713.7,357.4c1.2,0.4,2.5-0.2,2.9-1.4c0.4-1.2-0.2-2.5-1.4-2.9L671,338.2
	c-1.2-0.4-2.5,0.2-2.9,1.4c-0.4,1.2,0.2,2.5,1.4,2.9L713.7,357.4z"/>
<circle id="Ellipse_476" class="st5" cx="343.8" cy="308.7" r="23.4"/>
<path id="Path_2387" class="st6" d="M330.3,311.6c1.9-0.1,3.7,0.5,5.5,0.8c6.6,0.9,13.4-3.9,14.9-10.4c0.1-0.9,0.4-1.7,0.8-2.5
	c1-1.7,3.3-2,5.2-1.6s3.7,1.3,5.6,1.4c3,0.2,5.9-1.7,7.5-4.2c1.5-2.6,2.1-5.6,1.8-8.6l-1.4,1.5c-0.6-1.2-0.8-2.6-0.6-4
	c-1.5-0.4-3.2,0-4.4,1.1c-1.3,0.1-0.3-2.3-1.2-3.2c-0.5-0.3-1-0.4-1.5-0.3c-2.7,0-4.9-2-7-3.7c-3.7-2.9-8-4.8-12.5-5.7
	c-3-0.6-6.3-0.7-9.1,0.4c-2.3,1-4.4,2.5-6.2,4.4c-4.5,4.3-8.5,9.4-10.4,15.4c-1.5,4.9-1.6,10.1-0.1,15c0.8,2.5,3,11.3,6.4,11.5
	C327.6,319.2,325.1,311.9,330.3,311.6z"/>
<path id="Path_111" class="st7" d="M297.9,495.8c4.9-3.4,6.1-10,2.8-14.9c-0.4-0.5-0.8-1-1.2-1.5l4.2-93l-21.2,2.4l1.2,91
	c-4,4.5-3.6,11.3,0.9,15.3C288.3,498.3,293.8,498.6,297.9,495.8L297.9,495.8z"/>
<path id="Path_112" class="st7" d="M336.6,653.3l12.1,2.1l11.9-45.6l-15.8-3.1L336.6,653.3z"/>
<path id="Path_113" class="st6" d="M370,670.7l-38-6.7l2.6-14.7l23.3,4.1C366,654.9,371.4,662.6,370,670.7L370,670.7L370,670.7z"/>
<path id="Path_114" class="st7" d="M303.5,659.3h12.3l5.8-47.3h-18.1L303.5,659.3z"/>
<path id="Path_115" class="st6" d="M339.4,670.7h-38.5v-14.9h23.6C332.7,655.8,339.4,662.5,339.4,670.7L339.4,670.7L339.4,670.7z"/>
<path id="Path_116" class="st6" d="M354.6,642.3c-0.2,0-0.4,0-0.6,0l-14.4-1.2c-2.7-0.3-4.6-2.7-4.3-5.4c0-0.1,0-0.2,0-0.2
	l14.3-70.7l-9-47.5c-0.2-0.9-1-1.5-1.9-1.3c-0.7,0.1-1.3,0.7-1.3,1.5l-13.3,120.7c-0.3,2.6-2.6,4.6-5.2,4.4l-13.6-0.5
	c-2.5-0.2-4.4-2.2-4.5-4.6l1.1-145.8l70.5-8.8l4.9,76.1v0.1l-18,79.7C358.9,640.8,356.9,642.3,354.6,642.3L354.6,642.3z"/>
<path id="Path_117" class="st8" d="M348.4,502.7c-3.8,0-7.6-1.1-10.9-3.1c-11.9-7.4-25.4-4.5-32.4-2.1c-1.4,0.5-3,0.3-4.2-0.5
	s-2.1-2.1-2.2-3.6L286,379.7c-2.1-19,9.3-36.9,27.3-42.6l0,0c0.7-0.2,1.4-0.4,2.1-0.6c11.3-3.1,23.4-1,33,5.7
	c9.8,6.8,16.1,17.5,17.2,29.4L376.3,486c0.1,1.5-0.4,3-1.5,4C370.8,493.6,359.9,502.7,348.4,502.7z"/>
<path id="Path_118" class="st8" d="M309.6,404.2l-28.7-3.2c-3.1-0.3-5.4-3.2-5.1-6.3c0-0.3,0.1-0.6,0.2-0.8l7.3-27.9
	c0.9-8.7,8.8-15,17.5-14.1s15,8.8,14.1,17.5c0,0.1,0,0.1,0,0.2l1.1,28.7c0.1,3.2-2.3,5.8-5.5,5.9
	C310.2,404.3,309.9,404.2,309.6,404.2L309.6,404.2z"/>
<path id="Path_119" class="st7" d="M376,491.8c4.5-3.9,4.9-10.7,1-15.2c-0.4-0.5-0.9-0.9-1.4-1.3l-7.1-92.9l-20.8,4.7l12.2,90.4
	c-3.4,4.9-2.2,11.6,2.7,15C366.8,495.4,372.3,495.1,376,491.8L376,491.8z"/>
<path id="Path_120" class="st8" d="M339.8,398.4c-1.2-1.1-1.9-2.7-1.8-4.4l1.1-28.7c-1-8.7,5.2-16.6,13.9-17.6s16.6,5.2,17.6,13.9
	c0,0.1,0,0.1,0,0.2l7.3,27.9c0.8,3.1-1,6.2-4.1,7c-0.3,0.1-0.5,0.1-0.8,0.2l-28.7,3.2C342.6,400,341,399.5,339.8,398.4L339.8,398.4z
	"/>
<rect id="Rectangle_256" x="201.4" y="670.7" class="st9" width="541.8" height="1.5"/>
</svg>
