<?xml version="1.0" encoding="utf-8"?>
<!-- Generator: Adobe Illustrator 24.1.2, SVG Export Plug-In . SVG Version: 6.00 Build 0)  -->
<svg version="1.1" id="Capa_1" xmlns="http://www.w3.org/2000/svg" xmlns:xlink="http://www.w3.org/1999/xlink" x="0px" y="0px"
	 viewBox="0 0 37 37" style="enable-background:new 0 0 37 37;" xml:space="preserve">
<style type="text/css">
	.st0{fill:#D8D8D8;}
</style>
<path id="Icon_simple-instagram" class="st0" d="M18.5,0.5c-4.9,0-5.5,0-7.4,0.1c-1.5,0-3,0.3-4.4,0.8C5.5,1.9,4.4,2.6,3.5,3.5
	c-0.9,0.9-1.6,2-2.1,3.2c-0.5,1.4-0.8,2.9-0.8,4.4c-0.1,1.9-0.1,2.5-0.1,7.4s0,5.5,0.1,7.4c0,1.5,0.3,3,0.8,4.4
	c0.5,1.2,1.2,2.3,2.1,3.2c0.9,0.9,2,1.6,3.2,2.1c1.4,0.5,2.9,0.8,4.4,0.8c1.9,0.1,2.5,0.1,7.4,0.1s5.5,0,7.4-0.1
	c1.5,0,3-0.3,4.4-0.8c2.4-0.9,4.3-2.8,5.3-5.3c0.5-1.4,0.8-2.9,0.8-4.4c0.1-1.9,0.1-2.5,0.1-7.4s0-5.5-0.1-7.4c0-1.5-0.3-3-0.8-4.4
	c-0.9-2.4-2.8-4.3-5.3-5.3c-1.4-0.5-2.9-0.8-4.4-0.8C24,0.5,23.4,0.5,18.5,0.5z M18.5,3.7c4.8,0,5.4,0,7.3,0.1
	c1.1,0,2.3,0.2,3.3,0.6c1.6,0.6,2.8,1.8,3.4,3.4c0.4,1.1,0.6,2.2,0.6,3.3c0.1,1.9,0.1,2.5,0.1,7.3s0,5.4-0.1,7.3
	c0,1.1-0.2,2.3-0.6,3.3c-0.6,1.6-1.8,2.8-3.4,3.4c-1.1,0.4-2.2,0.6-3.4,0.6c-1.9,0.1-2.5,0.1-7.3,0.1s-5.4,0-7.3-0.1
	c-1.1,0-2.3-0.2-3.3-0.6c-0.8-0.3-1.5-0.8-2.1-1.4c-0.6-0.6-1.1-1.3-1.3-2.1C4,28,3.8,26.9,3.8,25.7c-0.1-1.9-0.1-2.5-0.1-7.3
	s0-5.4,0.1-7.3C3.8,10,4,8.9,4.4,7.8C4.7,7,5.1,6.3,5.7,5.8C6.3,5.2,7,4.7,7.8,4.4C8.9,4,10,3.8,11.1,3.8
	C13.1,3.7,13.6,3.7,18.5,3.7L18.5,3.7z M18.5,9.3c-5.1,0-9.2,4.1-9.2,9.2s4.1,9.2,9.2,9.2s9.2-4.1,9.2-9.2l0,0
	C27.7,13.4,23.6,9.3,18.5,9.3L18.5,9.3z M18.5,24.5c-3.3,0-6-2.7-6-6s2.7-6,6-6s6,2.7,6,6S21.8,24.5,18.5,24.5z M30.3,8.9
	c0,1.2-1,2.2-2.2,2.2c-1.2,0-2.2-1-2.2-2.2c0-1.2,1-2.2,2.2-2.2l0,0l0,0C29.3,6.7,30.3,7.7,30.3,8.9z"/>
</svg>
