<svg id="Capa_1" data-name="Capa 1" xmlns="http://www.w3.org/2000/svg" viewBox="0 0 1920 1080"><defs><style>.cls-1,.cls-6{opacity:0.2;isolation:isolate;}.cls-2{fill:#e6e6e6;}.cls-3{fill:#e6e8ec;}.cls-4{fill:#fff;}.cls-5{fill:#ebf3fa;}.cls-6{fill:#070707;}.cls-7{fill:#3f3d56;}.cls-8{fill:none;stroke:#3f3d56;stroke-miterlimit:10;}.cls-9{fill:#6c63ff;}.cls-10{fill:#ffb6b6;}.cls-11{fill:#b8d3ce;}.cls-12{fill:#2f2e41;}</style></defs><g id="Grupo_505" data-name="Grupo 505"><path id="Trazado_981" data-name="Trazado 981" class="cls-1" d="M764.79,587.11s1.69,33.74-70.3,75.36c0,0-.09.18,527,0,0,0-60.17-42.74-64.11-90.55"/><path id="Trazado_982" data-name="Trazado 982" class="cls-2" d="M1155.11,563V279.43A15.81,15.81,0,0,0,1167,264.12h0a15.82,15.82,0,0,0-15.82-15.82H771.59a15.81,15.81,0,0,0-15.81,15.82h0a15.81,15.81,0,0,0,15.81,15.81h0l-8.78,283.3-70.55,90.3h527S1218.85,654.44,1155.11,563Z"/><ellipse id="Elipse_136" data-name="Elipse 136" class="cls-1" cx="975.65" cy="612.74" rx="116.21" ry="8.94"/><path id="Trazado_983" data-name="Trazado 983" class="cls-1" d="M771.59,279.94l383.52,11.16.17-11.85Z"/><path id="Trazado_984" data-name="Trazado 984" d="M1048.69,379.38v34.86a1.21,1.21,0,0,1-1.21,1.21h-.87V597.06a19,19,0,0,1-18.94,19H914.19a18.94,18.94,0,0,1-18.94-19h0V421.82h-.63a.86.86,0,0,1-.86-.85V401.13a.86.86,0,0,1,.86-.86h.63v-7.48h-.63a.9.9,0,0,1-.9-.9h0V372.32a.9.9,0,0,1,.9-.9h.63v-10.2h-.64a.8.8,0,0,1-.8-.8V349.74a.8.8,0,0,1,.8-.8h.64V327.32a18.94,18.94,0,0,1,18.94-18.94h113.48a19,19,0,0,1,18.95,18.94v50.84h.86a1.23,1.23,0,0,1,1.22,1.22Z"/><rect id="Rectángulo_221" data-name="Rectángulo 221" class="cls-3" x="956.61" y="318.1" width="21.14" height="4.29" rx="1.48"/><circle id="Elipse_137" data-name="Elipse 137" class="cls-3" cx="983.38" cy="320.24" r="2.43"/><path id="Trazado_985" data-name="Trazado 985" class="cls-4" d="M1037.54,331.07V598.63a12,12,0,0,1-12,12H916.9a12,12,0,0,1-12-12V331.07a12,12,0,0,1,12-12h16.25v2.09a9.91,9.91,0,0,0,9.9,9.9H998.3a9.91,9.91,0,0,0,9.9-9.9h0v-2.09h17.32a12,12,0,0,1,12,12Z"/><rect id="Rectángulo_222" data-name="Rectángulo 222" class="cls-2" x="916.23" y="495.19" width="110.4" height="14.33"/><rect id="Rectángulo_223" data-name="Rectángulo 223" class="cls-2" x="916.23" y="520.67" width="110.4" height="14.33"/><rect id="Rectángulo_224" data-name="Rectángulo 224" class="cls-2" x="916.23" y="546.15" width="110.4" height="14.33"/><rect id="Rectángulo_225" data-name="Rectángulo 225" class="cls-2" x="916.01" y="392.22" width="110.4" height="73.25"/><path id="Trazado_986" data-name="Trazado 986" class="cls-5" d="M765,290.43l-56.62.35s-93.19,49.59-27.78,152.27c0,0,26.72-6.33,56.26,15.47C736.85,458.52,754.08,294.3,765,290.43Z"/><path id="Trazado_987" data-name="Trazado 987" class="cls-6" d="M748.14,290.94C738,333.31,726.53,442.59,726.53,442.59c-26.39-19.48-50.52-16.5-55.36-15.65a188.47,188.47,0,0,0,9.42,16.52s26.72-6.33,56.26,15.47c0,0,17.23-164.23,28.14-168.09Z"/><path id="Trazado_988" data-name="Trazado 988" d="M680.24,343.53l-4.93,23.91L613.44,356.2h0L612,328.06h12Z"/><path id="Trazado_989" data-name="Trazado 989" class="cls-1" d="M623,328.06l-9.53,28.14h0L612,328.06Z"/><ellipse id="Elipse_138" data-name="Elipse 138" class="cls-7" cx="678.13" cy="354.08" rx="7.03" ry="16.18"/><path id="Trazado_990" data-name="Trazado 990" d="M641.55,695.93a2.15,2.15,0,0,1-2.15-2.15h0V354.08a2.15,2.15,0,0,1,4.3,0v339.7a2.15,2.15,0,0,1-2.15,2.15Z"/><path id="Trazado_991" data-name="Trazado 991" d="M671.09,755.71A2.15,2.15,0,0,1,669,754L639.44,602.54a2.15,2.15,0,0,1,3.91-1.59L721.42,720a2.15,2.15,0,0,1-3.6,2.36h0L645.76,612.47l27.45,140.68a2.15,2.15,0,0,1-1.7,2.52h0a2,2,0,0,1-.42,0Z"/><path id="Trazado_992" data-name="Trazado 992" d="M560,729a2.15,2.15,0,0,1-1.8-3.33l81.59-124.49a2.15,2.15,0,0,1,3.6,2.36h0L561.77,728A2.16,2.16,0,0,1,560,729Z"/><path id="Trazado_993" data-name="Trazado 993" class="cls-5" d="M1154.66,290.43l56.62.35s93.18,49.59,27.78,152.27c0,0-26.73-6.33-56.27,15.47C1182.79,458.52,1165.56,294.3,1154.66,290.43Z"/><path id="Trazado_994" data-name="Trazado 994" class="cls-1" d="M1171.5,290.94c10.14,42.37,21.61,151.65,21.61,151.65,26.39-19.48,50.52-16.5,55.37-15.65a189.57,189.57,0,0,1-9.42,16.52s-26.73-6.33-56.27,15.47c0,0-17.23-164.22-28.13-168.09Z"/><path id="Trazado_995" data-name="Trazado 995" class="cls-7" d="M1239.41,343.53l4.92,23.91,61.87-11.24h0l1.41-28.13h-12Z"/><path id="Trazado_996" data-name="Trazado 996" class="cls-1" d="M1296.67,328.06l9.53,28.14h0l1.41-28.13Z"/><ellipse id="Elipse_139" data-name="Elipse 139" class="cls-7" cx="1241.52" cy="354.08" rx="7.03" ry="16.18"/><path id="Trazado_997" data-name="Trazado 997" class="cls-7" d="M1278.09,695.93a2.15,2.15,0,0,1-2.15-2.15h0V354.08a2.15,2.15,0,0,1,4.3,0h0v339.7a2.15,2.15,0,0,1-2.15,2.15Z"/><path id="Trazado_998" data-name="Trazado 998" class="cls-7" d="M1248.55,755.71a2.14,2.14,0,0,1-2.15-2.14,2,2,0,0,1,0-.42l27.44-140.68-72.06,109.92a2.15,2.15,0,0,1-3.6-2.35h0L1276.29,601a2.15,2.15,0,0,1,3.91,1.59L1250.66,754a2.15,2.15,0,0,1-2.11,1.74Z"/><path id="Trazado_999" data-name="Trazado 999" class="cls-7" d="M1359.67,729a2.16,2.16,0,0,1-1.8-1l-81.58-124.48a2.15,2.15,0,1,1,3.6-2.36h0l81.58,124.49a2.16,2.16,0,0,1-1.8,3.33Z"/><path id="Trazado_1000" data-name="Trazado 1000" class="cls-7" d="M910.82,546.82l15.4-4.29s6-1.2,2.35-13-11-8.48-11-8.48l-13.66,4-5.4,1.67,7.6,10.64.63,7.1Z"/><path id="Trazado_1001" data-name="Trazado 1001" class="cls-7" d="M881.06,515.69,876.23,535,901,559l2.13.53,5.68-1.6,4.83-19.3-4.9-5.15,5-1.31L903.06,521.8,897.49,523,893,518.53l3-1.2.29-1.14-3.65-2.88Z"/><path id="Trazado_1002" data-name="Trazado 1002" class="cls-5" d="M904.26,542.91l-3.2,12.78-14.76-14,3.7-13Z"/><path id="Trazado_1003" data-name="Trazado 1003" class="cls-8" d="M881.06,515.69l-.68,2.7,24.62,24,2.13.53,5.5-1.49h.3l.69-2.77-4.9-5.14,5-1.31L903.06,521.8,897.49,523,893,518.53l3-1.2.29-1.14-3.66-2.88Z"/><ellipse id="Elipse_140" data-name="Elipse 140" class="cls-9" cx="892.43" cy="515.44" rx="1.39" ry="2.05" transform="translate(175.67 1255.96) rotate(-75.94)"/><ellipse id="Elipse_141" data-name="Elipse 141" class="cls-9" cx="908.08" cy="536.1" rx="1.39" ry="2.05" transform="translate(167.47 1286.77) rotate(-75.94)"/><path id="Trazado_1004" data-name="Trazado 1004" class="cls-10" d="M921.06,570.87l-3.36-11.42s8.73-20.83-1.35-22.84-10.75,19.48-10.75,19.48l4,12.76Z"/><circle id="Elipse_142" data-name="Elipse 142" class="cls-10" cx="858.69" cy="521.97" r="26.68"/><path id="Trazado_1005" data-name="Trazado 1005" class="cls-10" d="M867.32,540.81s1.57,19.62,5.5,21.19-42.38,12.56-42.38,12.56l11.77-13.34s2.35-20.41-3.14-25.12Z"/><path id="Trazado_1006" data-name="Trazado 1006" class="cls-11" d="M904.93,564.82l10.75-1.34s12.77,6.71,12.77,15.45,7.39,22.84,7.39,22.84,5.37,18.81-6.73,20.15-22.84-20.15-22.84-20.15Z"/><path id="Trazado_1007" data-name="Trazado 1007" class="cls-12" d="M911,671.63s23.51-22.16,30.23-20.82,20.15,3.36,20.15,13.44-22.17,33.58-22.17,33.58-16.79,36.95-32.91,38.3a278,278,0,0,0-31.58,4.7s7.39,26.87,3.36,34.26-19.48,16.12-20.82,15.45-20.16-18.14-28.22-43-13.44-43.67-6-45S911,671.63,911,671.63Z"/><path id="Trazado_1008" data-name="Trazado 1008" class="cls-12" d="M959.35,662.23s4.7-.67,4,10.75-2.69,52.4-6,60.46-4,17.47-2.68,20.83,4,8.73-.68,9.4-24.18-2-26.2-2.69-4-12.09-2.68-12.09,4.7-.67,3.36-5.37-2-4.7,0-6,7.39-3.36,6-4.7-2.69-32.92-2.69-32.92Z"/><path id="Trazado_1009" data-name="Trazado 1009" class="cls-12" d="M952.63,761.65s11.42-3.35,12.76,4c0,0,2,11.42-6.71,15.45a108.23,108.23,0,0,0-16.13,9.4s-14.1,5.38-14.78-1.34,2.69-30.9,2.69-30.9Z"/><path id="Trazado_1010" data-name="Trazado 1010" class="cls-12" d="M876.72,769.72l-21.5-17.47s4,21.5-1.35,25.53L851.42,785l6.87,5.62S879.41,787.18,876.72,769.72Z"/><path id="Trazado_1011" data-name="Trazado 1011" class="cls-12" d="M846.49,740.16s14.1,4,12.09,18.13-4.6,29.44-4.6,29.44-.78,37.74-10.85,40.43-12.77-2.69-12.77-2.69S818.91,796,822.3,787.18c4.11-10.65,10-22.6,8.06-26.2S831.71,738.14,846.49,740.16Z"/><path id="Trazado_1012" data-name="Trazado 1012" class="cls-11" d="M838.43,554.74s5.37.68,14.1,2,14.78-5.38,19.49-4,43.66,10.75,43.66,10.75l-6,46.35s7.39,53.74,6,63.15,16.12,8.06,6.05,19.48S894.18,714,858.58,710.6s-40.31-2.69-40.31-8.06,8.06-51.06,5.38-55.09-8.07-8.73-5.38-13.44,5.38-7.39,1.35-11.42-6-8.06-6-10.07-9.4-34.94-9.4-34.94,4-16.12,8.73-16.79,8.73-4,12.09-4,5.37.67,7.39,0Z"/><path id="Trazado_1013" data-name="Trazado 1013" class="cls-12" d="M902.85,512.62c-.35-1.56-2-6.75-5.48-8-2.52-.93-7.2,1-9.53.7l-.3-.85a19.29,19.29,0,0,0-1.25-4.9,25.09,25.09,0,0,0-13.77-14c-7.68-3.21-19.83-5.86-30.37,2.55-14.48,11.56-11.93,28.85-10.88,33.65.18.8.33,1.61.46,2.42.64,4.23,2.51,4.73,2.51,4.73s0-.12-.1-.34l13.08,1.27,7.07-1.21c.12.69.16,1.1.16,1.1,20.63-3.15,32.64-14,34.59-15.9a20.9,20.9,0,0,0,8,3.4C901.58,517.78,903.2,514.17,902.85,512.62ZM849.68,523l-16.61-.6c-.24-4.54.94-9.84,7.61-10.11,6.44-.26,10,5,11.82,9.76Z"/><ellipse id="Elipse_143" data-name="Elipse 143" class="cls-12" cx="853.84" cy="483.13" rx="2.94" ry="1.11" transform="translate(-69.11 150.53) rotate(-9.69)"/></g></svg>