<?xml version="1.0" encoding="utf-8"?>
<!-- Generator: Adobe Illustrator 24.1.2, SVG Export Plug-In . SVG Version: 6.00 Build 0)  -->
<svg version="1.1" id="Capa_1" xmlns="http://www.w3.org/2000/svg" xmlns:xlink="http://www.w3.org/1999/xlink" x="0px" y="0px"
	 viewBox="0 0 1031.1 776.1" style="enable-background:new 0 0 1031.1 776.1;" xml:space="preserve">
<style type="text/css">
	.st0{fill:#E6E6E6;}
	.st1{opacity:0.86;fill:#FFFFFF;}
	.st2{fill:#B8D3CE;}
	.st3{fill:#FFFFFF;}
	.st4{fill:#3F3D56;}
	.st5{fill:#2F2E41;}
	.st6{fill:#FFB6B6;}
	.st7{fill:#FFB8B8;}
	.st8{fill:#CACACA;}
</style>
<rect id="Rectangle_338" x="121.2" y="104.9" class="st0" width="578.8" height="370.7"/>
<rect id="Rectangle_339" x="137.7" y="151.4" class="st1" width="545.7" height="302.3"/>
<rect id="Rectangle_340" x="120.9" y="104.6" class="st2" width="578.8" height="24.6"/>
<circle id="Ellipse_513" class="st3" cx="139.2" cy="117.1" r="4.6"/>
<circle id="Ellipse_514" class="st3" cx="156.5" cy="117.1" r="4.6"/>
<circle id="Ellipse_515" class="st3" cx="173.8" cy="117.1" r="4.6"/>
<rect id="Rectangle_341" x="204.8" y="176.2" class="st0" width="106.7" height="115.8"/>
<rect id="Rectangle_342" x="357.2" y="176.2" class="st0" width="106.7" height="115.8"/>
<rect id="Rectangle_343" x="509.5" y="176.2" class="st0" width="106.7" height="115.8"/>
<rect id="Rectangle_344" x="204.8" y="313" class="st0" width="106.7" height="115.8"/>
<rect id="Rectangle_345" x="357.2" y="313" class="st0" width="106.7" height="115.8"/>
<rect id="Rectangle_346" x="509.5" y="313" class="st0" width="106.7" height="115.8"/>
<path id="Path_2643" class="st3" d="M383,342.8l19.5-7.7l2.3,38.5c0,0,4.1,11.8,2.7,16.3c0,0,0.9,7.7-1.4,8.2s-8.6,1.4-9.1,0.9
	c-0.4-0.5-0.5-1.8-0.5-1.8s-4.5,3.2-5,6.8c0,0-19,5.9-19.5,0.5s9.5-10,9.5-10l7.7-11.8L383,342.8z"/>
<path id="Path_2644" class="st3" d="M424.3,342.8l19.5-7.7l2.3,38.5c0,0,4.1,11.8,2.7,16.3c0,0,0.9,7.7-1.4,8.2s-8.6,1.4-9.1,0.9
	s-0.5-1.8-0.5-1.8s-4.5,3.2-5,6.8c0,0-19,5.9-19.5,0.5s9.5-10,9.5-10l7.7-11.8L424.3,342.8z"/>
<path id="Path_2645" class="st4" d="M426.2,193.9c0,0-4.2,11.6,0.7,16.8l-4,13.8c0,0,14.3,42.8,10.2,48.7c0,0-15.2,7.6-45.6-2.7
	l12.4-47.9l-1.8-20.2l2.4-9.5l5.4-0.5c0,0-3.3,12.2,2.7,14.1c6,1.9,11.8-13.8,11.8-13.8L426.2,193.9z"/>
<path id="Path_2646" class="st3" d="M234.4,268.8l5.2,2.1l25-32.9l7.9,38.6l5.2-1c3.4-33.3,6.1-67.2,2.7-83.2l-19.4-0.8l-8.8,28.1
	l-4.3,19.1L234.4,268.8z"/>
<path id="Path_2647" class="st3" d="M552.5,192.2c0,0-7.2,9.9-6.8,14s4.9,69.4,4.9,69.4l10.6,0.5l-3.1-47.1l2.6-12.7l6.5,59.3
	l13.1,0.3L568.5,199l-2.3-6.8L552.5,192.2z"/>
<path id="Path_2648" class="st4" d="M592.8,352.4c-1.9-2.3-5.2-3.5-8.3-4.2c0.1-0.3-9.5-2.3-9.7-1.9l-3.6-2.9l-11.1,5.8l-6.3-4.3
	l-2.9,1c0.1-0.5-9,1.1-9,1.1c-1.7,0.1-4,0.2-6.5,0.4c-8.8,0.7-9.4,23.3-9.4,23.3c4-1.6,8.3-2.5,12.7-2.7l2.4,27.1
	c12.2-1,24.9,0.2,38.2,3.1l6.2-21.3l14.4-5.6C599.8,371.4,597.3,357.7,592.8,352.4z"/>
<path id="Path_2649" class="st3" d="M282.9,339.4c-1.6-1.9-4.3-2.9-6.8-3.4c0.1-0.2-7.9-1.9-8-1.5l-3-2.4l-9.2,4.8l-5.2-3.6
	l-2.4,0.9c0.1-0.4-7.4,0.9-7.4,0.9c-1.4,0.1-3.3,0.1-5.3,0.3c-7.2,0.6-7.8,19.2-7.8,19.2c3.3-1.4,6.9-2.1,10.4-2.2l1.9,54.7
	c10-0.9,20.5,0.1,31.4,2.6l5.1-49.9l11.9-4.6C288.6,355.2,286.6,343.9,282.9,339.4z"/>
<path id="Path_2682" class="st5" d="M793.8,354H845v-27.4c0-14.1-11.5-25.6-25.6-25.6s-25.6,11.5-25.6,25.6V354z"/>
<path id="Path_2683" class="st6" d="M771,658.6h-11l-5.2-42.5H771V658.6z"/>
<path id="Path_2684" class="st5" d="M773.8,655H752c-7.6,0-13.8,6.2-13.8,13.8v0.4h35.5V655z"/>
<path id="Path_2685" class="st6" d="M902.5,644l-9.6,5.4L867.5,615l14.1-8L902.5,644z"/>
<path id="Path_2686" class="st5" d="M903.2,639.4l-18.9,10.7l0,0c-6.6,3.8-9,12.2-5.2,18.8l0.2,0.4l30.9-17.4L903.2,639.4z"/>
<path id="Path_2687" class="st5" d="M832.2,467.7l0.8,4.2c0,0,2.5,2.5,1.3,3.8c-1.3,1.3-0.8,7.2-0.8,7.2
	c0.7,10.8,14.9,71.8,17.4,83.7c0,0,19.5,12.7,34.8,37.8s15.7,31.4,15.7,31.4l-17,7.2l-42.5-51.4c0,0-11.9-7.2-16.1-13.6
	c-4.2-6.4-30.6-72.2-30.6-72.2l-14.9,68.8c0,0,0.8,25.1-3,41.2c-2.3,10.2-3.8,20.6-4.2,31l-20-2.1c0,0,1.3-60.3,3.4-66.7
	c0,0-8.9-73.5,8.9-102.8l14.4-38.3l14.1-5.4L832.2,467.7z"/>
<path id="Path_2688" class="st7" d="M819.7,307.7c-26.8,0.5-26.8,40.3,0,40.8C846.5,348,846.5,308.2,819.7,307.7z"/>
<path id="Path_2689" class="st5" d="M799,327.1h4.6l1.2-3.1l-0.6,3.1h24.9l-0.8-6.5l6.1,6.5h6v-3.5c0-11.4-9.2-20.7-20.7-20.7
	s-20.7,9.2-20.7,20.7l0,0l0,0V327.1z"/>
<path id="Path_2690" class="st4" d="M792,360.4l50.6,0.4l-10.7,108.6c0,0-59.2-3.1-59.2-21.2l5.5-16.1L792,360.4z"/>
<path id="Path_2693" class="st6" d="M844.8,479.9c-2.9-3.6-2.4-8.9,1.2-11.8c0.4-0.3,0.8-0.6,1.2-0.8l-2.2-19.1l11.3-4.2l2.7,27
	c2,4.2,0.2,9.3-4.1,11.3C851.5,483.8,847.3,482.9,844.8,479.9z"/>
<path id="Path_2694" class="st4" d="M836,370.2l6.7-9.3c0,0,4.6-1,9.9,5.3s8.5,84.8,8.5,84.8l-19.7,4.5l-11.7-55.7L836,370.2z"/>
<path id="Trazado_2685" class="st3" d="M724.3,455.3l1.5,69.8L771,549l82.3-14.7l2-72.5l-52.2-18.4L724.3,455.3z"/>
<path id="Trazado_2686" class="st8" d="M770.8,549.8L725,525.6l-1.5-70.8l79.6-12.1l0.2,0.1l52.7,18.5L854,535L770.8,549.8z
	 M726.5,524.7l44.6,23.6l81.5-14.5l2-71.4l-51.5-18.1l-78,11.8L726.5,524.7z"/>
<path id="Trazado_2687" class="st8" d="M770,474.3l-0.2-0.1L724,456l0.5-1.3l45.6,18.1l85-11.7l0.2,1.4L770,474.3z"/>
<rect id="Rectángulo_508" x="769.8" y="473.5" transform="matrix(0.9999 -1.216496e-02 1.216496e-02 0.9999 -6.1622 9.4113)" class="st8" width="1.4" height="75.5"/>
<path id="Trazado_2688" class="st8" d="M764.3,470.7l-16.5-6.7l79.4-12.6l16.5,6.7L764.3,470.7z"/>
<rect id="Rectángulo_509" x="733.3" y="470" transform="matrix(0.3955 -0.9185 0.9185 0.3955 2.4079 964.5469)" class="st8" width="1.4" height="20.8"/>
<rect id="Rectángulo_510" x="741.9" y="493.8" transform="matrix(0.3955 -0.9185 0.9185 0.3955 -14.1821 986.8749)" width="1.4" height="20.8"/>
<path id="Trazado_2689" class="st3" d="M472.9,552.3l1.5,69.8l45.2,23.9l82.3-14.7l2-72.5l-52.2-18.4L472.9,552.3z"/>
<path id="Trazado_2690" class="st8" d="M519.5,646.7l-45.8-24.2l-1.5-70.8l79.6-12.1l0.2,0.1l52.7,18.5l-2.1,73.7L519.5,646.7z
	 M475.1,621.6l44.6,23.6l81.5-14.5l2-71.4l-51.5-18.2l-78,11.8L475.1,621.6z"/>
<path id="Trazado_2691" class="st8" d="M518.7,571.2l-0.2-0.1L472.7,553l0.5-1.3l45.6,18.1l85-11.7l0.2,1.4L518.7,571.2z"/>
<rect id="Rectángulo_511" x="518.4" y="570.5" transform="matrix(0.9999 -1.216496e-02 1.216496e-02 0.9999 -7.3607 6.3603)" class="st8" width="1.4" height="75.5"/>
<path id="Trazado_2692" class="st8" d="M508.8,566l-12.5-5l79.4-12.7l12.5,5L508.8,566z"/>
<rect id="Rectángulo_512" x="481.9" y="566.9" transform="matrix(0.3955 -0.9185 0.9185 0.3955 -238.5465 792.2138)" class="st8" width="1.4" height="20.8"/>
<rect id="Rectángulo_513" x="490.5" y="590.8" transform="matrix(0.3955 -0.9185 0.9185 0.3955 -255.2441 814.5601)" width="1.4" height="20.8"/>
<path id="Trazado_2693" class="st2" d="M551.5,561.9l1.7,81l52.4,27.7l95.5-17.1l2.3-84.2L642.9,548L551.5,561.9z"/>
<path id="Trazado_2694" class="st4" d="M605.5,671.5l-53.1-28.1l-1.7-82.2l92.4-14l0.2,0.1l61.1,21.5l-2.4,85.5L605.5,671.5z
	 M554,642.4l51.8,27.4l94.6-16.9l2.3-82.9l-59.8-21l-90.5,13.7L554,642.4z"/>
<path id="Trazado_2695" class="st4" d="M604.5,583.8l-0.2-0.1l-53.1-21.1l0.6-1.6l52.9,21l98.7-13.6l0.2,1.7L604.5,583.8z"/>
<rect id="Rectángulo_514" x="604.2" y="583" transform="matrix(0.9999 -1.216496e-02 1.216496e-02 0.9999 -7.58 7.4072)" class="st4" width="1.7" height="87.6"/>
<path id="Trazado_2696" class="st4" d="M594,577.8l-15.4-5.9l92.1-14.7l15.4,5.9L594,577.8z"/>
<rect id="Rectángulo_515" x="561.7" y="578.8" transform="matrix(0.3955 -0.9185 0.9185 0.3955 -202.6246 873.9355)" class="st4" width="1.7" height="24.2"/>
<rect id="Rectángulo_516" x="571.8" y="606.5" transform="matrix(0.3955 -0.9185 0.9185 0.3955 -221.9743 899.9514)" class="st3" width="1.7" height="24.2"/>
<path id="Path_2691" class="st6" d="M750,466.9c4.2-2,6-7,4-11.2c-0.2-0.4-0.5-0.9-0.7-1.3l10.3-16.3l-8.4-8.6l-14.2,23.2
	c-3.6,2.9-4.2,8.3-1.2,11.9C742.3,467.6,746.5,468.6,750,466.9L750,466.9z"/>
<path id="Path_2692" class="st4" d="M799.8,364.7l-7.3-4.8c0,0-5.7,1.3-11.7,12.9s-30.3,63.4-30.3,63.4l10,10.1l26.7-40.7
	L799.8,364.7z"/>
</svg>
