<?xml version="1.0" encoding="utf-8"?>
<!-- Generator: Adobe Illustrator 24.1.2, SVG Export Plug-In . SVG Version: 6.00 Build 0)  -->
<svg version="1.1" id="Capa_1" xmlns="http://www.w3.org/2000/svg" xmlns:xlink="http://www.w3.org/1999/xlink" x="0px" y="0px"
	 viewBox="0 0 470 174.8" style="enable-background:new 0 0 470 174.8;" xml:space="preserve">
<style type="text/css">
	.st0{fill:#F2F2F2;}
	.st1{fill:#FFFFFF;}
	.st2{fill:#3F3D56;}
	.st3{fill:#FFB8B8;}
	.st4{fill:#2F2E41;}
	.st5{fill:#EBF3FA;}
	.st6{fill:#B8D3CE;}
</style>
<g>
	<path class="st0" d="M255.6,41.2c-1.5,3.1-4.2,5.4-7.1,7.2c-3,2-6.3,3.6-9.7,4.8c-0.5,0.2-0.9,0.3-1.4,0.5h-20.4
		c-0.1-0.2-0.3-0.3-0.4-0.5c-1.3-1.7-2-3.8-1.7-5.9c0.3-2.8,2.4-5.3,5.1-5.9c2.7-0.6,5.8,1,6.6,3.7c0.5-5.1,1-10.4,3.7-14.8
		c2.5-3.9,6.7-6.8,11.3-7.3c2.7-0.3,5.5,0.2,7.9,1.4c0.2,0.1,0.4,0.2,0.7,0.4c1.5,0.8,2.8,1.9,3.8,3.2
		C256.9,31.7,257.6,37,255.6,41.2z"/>
	<path class="st1" d="M250.2,24.8c0,0.1,0,0.2-0.1,0.3c-9.2,7.5-16.5,17.1-21.3,28.1c-0.1,0.2-0.1,0.3-0.2,0.5h-0.9
		c0.1-0.2,0.1-0.3,0.2-0.5c0.9-2.1,1.9-4.1,3-6.1c2.3-4.3,5.1-8.4,8.2-12.2c3.1-3.8,6.6-7.3,10.4-10.4c0,0,0.1,0,0.1-0.1
		c0.2-0.1,0.5,0,0.6,0.3C250.2,24.7,250.2,24.8,250.2,24.8z"/>
	<path class="st2" d="M250.6,53.2h-89.8c-0.8,0-1.5,0.2-2.2,0.6c-0.2,0.1-0.3,0.2-0.5,0.3c-1.1,0.8-1.8,2.2-1.8,3.6v46.7
		c0,2.5,2,4.5,4.5,4.5h89.8c2.5,0,4.5-2,4.5-4.5V57.7C255,55.2,253,53.2,250.6,53.2z M254.6,104.4c0,2.2-1.8,4-4,4h-89.8
		c-2.2,0-4-1.8-4-4V57.7c0-1.7,1.1-3.3,2.8-3.8c0,0,0.1,0,0.1,0c0.4-0.1,0.8-0.2,1.1-0.2h89.8c2.2,0,4,1.8,4,4V104.4z"/>
	<path class="st3" d="M282.9,114.1c1.2-0.8,1.5-2.3,0.7-3.5c-0.1-0.1-0.2-0.2-0.3-0.4l1.4-16.8l-4,0.4l-1.1,16.3
		c-1,1-0.9,2.6,0.1,3.6C280.6,114.6,281.9,114.7,282.9,114.1z"/>
	<polygon class="st3" points="268.6,154.1 265.7,154.1 264.3,143 268.6,143 	"/>
	<path class="st4" d="M263.6,153.3h5.6l0,0v3.5l0,0h-9.1l0,0l0,0C260.1,154.9,261.7,153.3,263.6,153.3z"/>
	<polygon class="st3" points="289.1,154.1 286.2,154.1 284.8,143 289.1,143 	"/>
	<path class="st4" d="M284.1,153.3h5.6l0,0v3.5l0,0h-9.1l0,0l0,0C280.6,154.9,282.2,153.3,284.1,153.3z"/>
	<path class="st4" d="M268.6,147.2C268.6,147.2,268.6,147.2,268.6,147.2l-4.2-0.3c-0.6-0.1-1.1-0.6-1.1-1.3c0,0,0-0.1,0-0.1
		l6.2-38.4l0.4-5.4c0-0.5,0.4-1,0.9-1.1l6.2-1.4c0.5-0.1,1,0.1,1.2,0.5l1.5,2.2c0.6,0.9,1.2,1.7,1.9,2.5c1.1,1.2,2.9,4,3.1,8.4
		c0,1.5,0.2,2.9,0.5,4.4l5,27.1c0.1,0.6-0.3,1.2-1,1.4c0,0,0,0-0.1,0l-3.9,0.3c-0.6,0.1-1.1-0.3-1.3-0.9l-6.9-25.6
		c0-0.1-0.2-0.2-0.3-0.2c-0.1,0-0.1,0.1-0.2,0.2l-7.1,26.8C269.6,146.9,269.2,147.2,268.6,147.2z"/>
	<circle class="st3" cx="279.5" cy="76.1" r="5.8"/>
	<path class="st5" d="M269.7,102.6l-0.1-8.3c-0.4-5.3,1.9-8.1,3.9-9.5c1.1-0.7,2.4-1,3.6-0.7l4.6,1c1.3,0.3,2.4,1.1,3.1,2.2
		c0.7,1.1,0.8,2.3,0.5,3.5c-0.3,1.1-1,2.1-2,2.7c-3.9,2.8-4.2,7.4-4.2,7.5l0,0.1L269.7,102.6z"/>
	<path class="st5" d="M284,96.5h-4c-0.6,0-1.1-0.5-1.1-1.1v-7c0-1.7,1.4-3.1,3.1-3.1c1.7,0,3.1,1.4,3.1,3.1v7
		C285,96,284.5,96.5,284,96.5z"/>
	<path class="st3" d="M257,97.8c-0.9,1.1-2.6,1.2-3.7,0.3c-0.1-0.1-0.2-0.1-0.2-0.2c-2.3-2.4,1.4-6,3.7-3.6l0,0
		c0.1,0.1,0.2,0.2,0.2,0.3l11.6-0.3l1.4-2.5l4.2,1.6c-0.8,1.3-1.7,6.2-3.9,6C270.1,99.4,257.3,97.8,257,97.8z"/>
	<path class="st5" d="M272.5,95.9l-3.2-2.4c-0.5-0.3-0.6-1-0.2-1.5l4.1-5.6c1-1.4,2.9-1.7,4.3-0.7s1.7,2.9,0.7,4.3c0,0,0,0,0,0
		l-4.1,5.6C273.6,96.1,273,96.2,272.5,95.9z"/>
	<path class="st4" d="M280.7,79.2c0.4-0.8,0.2-1.7-0.4-2.4c-1.1-1.1-2.8-0.4-4.3-0.5c-2.5-0.2-4.1-3.1-3.4-5.5s3.3-3.8,5.8-3.7
		c2.5,0.2,4.7,1.7,6.2,3.6c1-1.6,3.5-1.8,5.1-0.8c1.6,1.1,2.4,3,2.8,4.9c0.3,1.9,0.3,3.8,0.6,5.7c0.7,4.6,3.7,8.9,8,10.7
		c4.3,1.8,9.8,0.6,12.6-3.1c1.1,9.2-4.1,18.1-12.8,21.5c-2.3,0.9-4.9,1.4-7.3,0.9c-4-0.8-7-4.2-8.4-8c-1.3-3.8-1.2-8-0.5-12
		c0.4-2.5,0.8-5.4-0.9-7.1c-0.5-0.4-1.1-0.7-1.7-0.9c-1.2-0.4-1.9-1.7-1.5-2.9c0.1-0.2,0.1-0.4,0.2-0.5
		C280.6,79.3,280.6,79.2,280.7,79.2z"/>
	<path class="st2" d="M301.5,156.9h-53.8c-0.1,0-0.2-0.1-0.2-0.2c0-0.1,0.1-0.2,0.2-0.2h53.8c0.1,0,0.2,0.1,0.2,0.2
		C301.7,156.8,301.6,156.9,301.5,156.9z"/>
	<path class="st2" d="M205.5,81c-0.4,0-0.7-0.1-1-0.3l-46.9-25.8c-0.1-0.1-0.2-0.2-0.1-0.3c0.1-0.1,0.2-0.2,0.3-0.1l46.9,25.8
		c0.5,0.3,1.1,0.3,1.6,0L254,55.2c0.1-0.1,0.3,0,0.3,0.1c0.1,0.1,0,0.3-0.1,0.3c0,0,0,0,0,0l-47.7,25.2
		C206.2,80.9,205.9,81,205.5,81z"/>
	<path class="st2" d="M171.2,97h-6.6c-1,0-1.9-0.8-1.9-1.9s0.8-1.9,1.9-1.9h6.6c1,0,1.9,0.8,1.9,1.9S172.3,97,171.2,97z"/>
	<path class="st2" d="M179,103.4h-14.4c-1,0-1.9-0.8-1.9-1.9s0.8-1.9,1.9-1.9H179c1,0,1.9,0.8,1.9,1.9S180.1,103.4,179,103.4z"/>
	<circle class="st6" cx="205.5" cy="81" r="7.5"/>
</g>
</svg>
