<?xml version="1.0" encoding="utf-8"?>
<!-- Generator: Adobe Illustrator 24.1.2, SVG Export Plug-In . SVG Version: 6.00 Build 0)  -->
<svg version="1.1" id="Capa_1" xmlns="http://www.w3.org/2000/svg" xmlns:xlink="http://www.w3.org/1999/xlink" x="0px" y="0px"
	 viewBox="0 0 110 91" style="enable-background:new 0 0 110 91;" xml:space="preserve">
<style type="text/css">
	.st0{fill:#DFDFDF;}
</style>
<g id="Grupo_1183">
	<path id="Rectángulo_118" class="st0" d="M11,0h88c6.1,0,11,4.9,11,11v69c0,6.1-4.9,11-11,11H11C4.9,91,0,86.1,0,80V11
		C0,4.9,4.9,0,11,0z"/>
	<g id="Find_code">
		<path id="Trazado_1219" d="M82.8,14.5H27.2c-1.8,0-3.2,1.4-3.2,3.2v48.1c0,1.8,1.4,3.2,3.2,3.2h23.5v3.3c0.1,2.4,2.1,4.2,4.5,4.1
			c2.2-0.1,4-1.9,4.1-4.1V69h23.5c1.8,0,3.2-1.4,3.2-3.2c0,0,0,0,0,0V17.7C86,15.9,84.6,14.5,82.8,14.5z M27.2,16.6h55.6
			c0.6,0,1.1,0.5,1.1,1.1c0,0,0,0,0,0l0,0v7.5H26.1v-7.5C26.1,17.1,26.6,16.6,27.2,16.6z M53.9,59.4c0.7,0.1,1.4,0.1,2.1,0v2.1h-2.1
			V59.4z M57.1,72.3c0,1.2-1,2.1-2.1,2.1s-2.1-1-2.1-2.1c0,0,0,0,0,0v-8.6h4.3V72.3z M82.8,66.9H59.3v-4.3c0-0.6-0.5-1.1-1.1-1.1
			c0,0,0,0,0,0l0,0V59c6.3-1.5,10.7-7.1,10.7-13.5c0-0.4,0-0.8-0.1-1.2c-0.1-0.6-0.7-1-1.3-0.9c-0.5,0.1-0.9,0.6-0.9,1.1
			c0,0.3,0.1,0.6,0.1,0.9c0,5.7-4.1,10.7-9.8,11.6c-1,0.2-2,0.2-3,0.2c-0.3,0-0.6-0.1-0.9-0.1c-6.4-1.1-10.7-7.1-9.7-13.5
			c1.1-6.4,7.1-10.7,13.5-9.7c2.3,0.4,4.4,1.4,6.1,3c0.4,0.4,1.1,0.5,1.5,0c0.4-0.4,0.4-1.1,0-1.5l-0.1-0.1
			c-5.6-5.3-14.4-5-19.6,0.5c-5.3,5.6-5,14.4,0.5,19.6c1.8,1.7,4.1,2.9,6.5,3.5v2.5c-0.6,0-1.1,0.5-1.1,1.1v4.3H27.2
			c-0.6,0-1.1-0.5-1.1-1.1V27.3h57.7v38.5C83.9,66.4,83.4,66.9,82.8,66.9C82.8,66.9,82.8,66.9,82.8,66.9L82.8,66.9L82.8,66.9z"/>
		<circle id="Elipse_191" cx="66.1" cy="20.5" r="2"/>
		<circle id="Elipse_192" cx="72.1" cy="20.5" r="2"/>
		<ellipse id="Elipse_193" cx="78.6" cy="20.5" rx="2.5" ry="2"/>
		<path id="Trazado_1220" d="M67.1,38.8c-0.3-0.5-0.9-0.7-1.4-0.5c-0.5,0.3-0.7,0.9-0.5,1.5l0,0c0.2,0.3,0.3,0.7,0.5,1
			c0.2,0.4,0.6,0.7,1,0.6c0.1,0,0.3,0,0.4-0.1c0.5-0.2,0.8-0.9,0.6-1.4C67.5,39.6,67.3,39.2,67.1,38.8z M30.4,22h20.3
			c0.6,0.1,1.1-0.4,1.2-1c0.1-0.6-0.4-1.1-1-1.2c-0.1,0-0.1,0-0.2,0H30.4c-0.6,0.1-1,0.6-1,1.2C29.5,21.5,29.9,21.9,30.4,22z
			 M60,40.4c-0.4-0.4-1.1-0.4-1.5,0c0,0,0,0,0,0c-0.4,0.4-0.4,1.1,0,1.5c0,0,0,0,0,0l0,0l3.5,3.5l-3.5,3.5c-0.4,0.4-0.4,1.1,0,1.5
			c0.4,0.4,1.1,0.4,1.5,0l0,0l4.3-4.3c0.4-0.4,0.4-1.1,0-1.5c0,0,0,0,0,0l0,0L60,40.4z M51.4,40.4c-0.4-0.4-1.1-0.4-1.5,0l0,0
			l-4.3,4.3c-0.4,0.4-0.4,1.1,0,1.5l0,0l4.3,4.3c0.4,0.4,1.1,0.4,1.5,0c0.4-0.4,0.4-1.1,0-1.5l0,0l0,0l-3.5-3.5l3.5-3.5
			C51.8,41.5,51.8,40.8,51.4,40.4C51.4,40.4,51.4,40.4,51.4,40.4z M56.2,39c-0.6-0.1-1.1,0.2-1.3,0.8l0,0l-2.1,10.7
			c-0.1,0.6,0.2,1.1,0.8,1.3c0,0,0,0,0,0h0.2c0.5,0,1-0.3,1.1-0.8l2.1-10.7C57.2,39.7,56.8,39.2,56.2,39C56.3,39,56.3,39,56.2,39
			L56.2,39z"/>
	</g>
</g>
</svg>
