<?xml version="1.0" encoding="utf-8"?>
<!-- Generator: Adobe Illustrator 24.1.2, SVG Export Plug-In . SVG Version: 6.00 Build 0)  -->
<svg version="1.1" id="Capa_1" xmlns="http://www.w3.org/2000/svg" xmlns:xlink="http://www.w3.org/1999/xlink" x="0px" y="0px"
	 viewBox="0 0 110 91" style="enable-background:new 0 0 110 91;" xml:space="preserve">
<style type="text/css">
	.st0{fill:#DFDFDF;}
</style>
<g id="Grupo_1175">
	<path id="Rectángulo_115" class="st0" d="M11,0h88c6.1,0,11,4.9,11,11v69c0,6.1-4.9,11-11,11H11C4.9,91,0,86.1,0,80V11
		C0,4.9,4.9,0,11,0z"/>
	<path id="path5" d="M40.4,14C31.4,14,24,21.4,24,30.4v29.8c0,9.1,7.4,16.4,16.4,16.4h29.9c9.1,0,16.4-7.4,16.4-16.4V30.4
		c0-9.1-7.3-16.4-16.4-16.4H40.4z M40.4,19.2h29.9c6.2,0,11.2,5,11.2,11.2v29.8c0,2.3-0.8,4.6-2.1,6.5c-4-9.6-13.3-16-23.7-16.2
		c7.2-0.2,12.9-6.3,12.7-13.5c-0.2-7.2-6.3-12.9-13.5-12.7s-12.9,6.3-12.7,13.5c0.2,6.9,5.8,12.5,12.7,12.7
		C44.4,50.6,35.1,56.8,31,66.3c-1.2-1.8-1.8-3.9-1.8-6.1V30.4C29.3,24.3,34.3,19.3,40.4,19.2L40.4,19.2z"/>
</g>
</svg>
