<?xml version="1.0" encoding="utf-8"?>
<!-- Generator: Adobe Illustrator 24.1.2, SVG Export Plug-In . SVG Version: 6.00 Build 0)  -->
<svg version="1.1" id="Capa_1" xmlns="http://www.w3.org/2000/svg" xmlns:xlink="http://www.w3.org/1999/xlink" x="0px" y="0px"
	 viewBox="0 0 110 91" style="enable-background:new 0 0 110 91;" xml:space="preserve">
<style type="text/css">
	.st0{fill:#DFDFDF;}
	.st1{fill:none;}
	.st2{opacity:0.1;enable-background:new    ;}
</style>
<g id="Grupo_1176">
	<path id="Rectángulo_116" class="st0" d="M11,0h88c6.1,0,11,4.9,11,11v69c0,6.1-4.9,11-11,11H11C4.9,91,0,86.1,0,80V11
		C0,4.9,4.9,0,11,0z"/>
	<g id="Grupo_516">
		<path id="Rectángulo_249" class="st1" d="M28.9,17.4h52.1c1.7,0,3,1.3,3,3v25c0,1.7-1.3,3-3,3H28.9c-1.7,0-3-1.3-3-3v-25
			C25.9,18.8,27.3,17.4,28.9,17.4z"/>
		<circle id="Elipse_186" class="st1" cx="64.7" cy="55.2" r="16.5"/>
		<path id="Trazado_1118" class="st2" d="M37.6,30.5h-1.9c-0.6,0-1-0.4-1-1v-1.9c0-0.6,0.4-1,1-1h4.8c1.1,0,2-0.8,2-1.9
			c0-1.1-0.8-2-1.9-2l0,0h-4.9c-2.7,0-4.8,2.2-4.9,4.8v1.9c0,2.7,2.2,4.9,4.8,4.9c0,0,0,0,0,0h1.9c0.6,0,1,0.4,1,1v1.9
			c0,0.6-0.4,1-1,1h-4.8c-1.1,0.1-1.9,1-1.8,2.1c0.1,1,0.8,1.7,1.8,1.8h4.9c2.7,0,4.8-2.2,4.8-4.9v-1.9
			C42.4,32.7,40.3,30.5,37.6,30.5L37.6,30.5z"/>
		<path id="Trazado_1119" class="st2" d="M81.2,17.4H28.9c-1.2,0-2.3,0.7-2.7,1.8c0.2-0.2,0.5-0.4,0.8-0.4h52.3c0.6,0,1,0.4,1,1V45
			c0,0.6-0.4,1-1,1c-0.1,0-0.1,0-0.2,0c-1.2-2.2-2.8-4.1-4.7-5.7c0.7-0.9,1.1-2,1.1-3.1v-9.7c0-2.7-2.2-4.9-4.8-4.9h-3.9
			c-2.7,0-4.8,2.2-4.8,4.9v8.8c-2.5,0.1-5,0.8-7.2,1.9h-3.4c-0.6,0-1-0.4-1-1v-2.9h5.8c1.1,0,2-0.8,2-1.9c0-1.1-0.8-2-1.9-2h-5.9
			v-2.9c0-0.6,0.4-1,1-1H56c1.1,0,2-0.8,2-1.9c0-1.1-0.8-2-1.9-2h-4.9c-2.7,0-4.8,2.2-4.8,4.8v9.7c0,2.1,1.4,3.9,3.3,4.6
			c-1.2,1.2-2.2,2.6-3.1,4.1H26.9c-0.6,0-1-0.4-1-1c-0.2,1.6,0.9,3.1,2.5,3.4h0.4h20.8c3.4-7,12.5-10.6,20-6.5
			c8.4,4.3,10.3,16.3,3.6,23C64.3,74,48.4,67.7,48.3,55c-0.1,9.1,7.1,16.6,16.2,16.7c0,0,0,0,0,0h0.2c11.9,0.2,19.9-12.8,15-23.2
			h1.5c1.7,0,3-1.4,2.9-3.1c0,0,0,0,0,0c0-0.1,0-0.2,0-0.3V20.3C84.1,18.7,82.8,17.4,81.2,17.4L81.2,17.4L81.2,17.4z M71.5,37.3
			c-0.2,1.4-1,0.7-1.8,0.3c-1.3-0.5-2.6-0.9-4-1.1v-9c0-0.6,0.4-1,1-1h3.9c0.6,0,1,0.4,1,1L71.5,37.3z"/>
		<path id="Trazado_1120" d="M37.6,26.6h4.8c1.1,0,2-0.8,2-1.9c0-1.1-0.8-2-1.9-2h-4.9c-2.7,0-4.8,2.2-4.8,4.8v1.9
			c0,2.7,2.2,4.8,4.8,4.8h1.9c0.6,0,1,0.4,1,1v1.9c0,0.6-0.4,1-1,1h-4.9c-1.1,0.1-1.9,1-1.8,2.1c0.1,1,0.8,1.7,1.8,1.8h4.8
			c2.7,0,4.9-2.1,4.9-4.8c0,0,0,0,0-0.1v-1.9c0-2.7-2.2-4.8-4.8-4.8h-1.9c-0.6,0-1-0.4-1-1v-1.9C36.6,27.1,37.1,26.6,37.6,26.6z"/>
		<path id="Trazado_1121" d="M86,45V19.9c0-2.7-2.2-4.8-4.8-4.9H28.9c-2.7,0-4.8,2.2-4.8,4.9V45c0,2.7,2.2,4.8,4.8,4.8H47
			c-3.3,11.4,5.8,23.4,17.7,23.2c4.2,0,8.3-1.4,11.6-4.1l6.4,6.4c0.8,0.7,2,0.7,2.7-0.1c0.7-0.7,0.7-1.9,0-2.6l0,0L79,66.3
			c3.8-4.6,5-10.8,3.4-16.6C84.5,49.1,86,47.2,86,45z M27.9,45V19.9c0-0.6,0.4-1,1-1h52.3c0.6,0,1,0.4,1,1V45c0,0.6-0.4,1-1,1
			c0,0,0,0-0.1,0c-0.1,0-0.1,0-0.2,0c-1.2-2.2-2.8-4.1-4.7-5.7c0.7-0.9,1.1-2,1.1-3.1v-9.7c0-2.7-2.2-4.8-4.8-4.9h-3.8
			c-2.7,0-4.8,2.2-4.8,4.9v8.8c-2.5,0.1-5,0.8-7.3,1.9h-3.4c-0.6,0-1-0.4-1-1v-2.9h5.8c1.1,0,2-0.8,2-1.9c0-1.1-0.8-2-1.9-2h-5.9
			v-2.9c0-0.6,0.4-1,1-1h4.8c1.1,0,1.9-0.9,1.9-1.9c0-1.1-0.9-1.9-1.9-1.9h-4.8c-2.7,0-4.8,2.2-4.8,4.8v9.7c0,2.1,1.3,3.9,3.3,4.6
			c-1.2,1.2-2.2,2.6-3.1,4.1H28.9C28.3,46,27.9,45.6,27.9,45z M67.6,36.5v-9c0-0.6,0.4-1,1-1h3.9c0.6,0,1,0.4,1,1v9.7
			c-0.2,1.4-1,0.7-1.8,0.4C70.4,37.1,69,36.8,67.6,36.5z M75.1,64.9c-8.9,9.3-25,2.8-24.9-10.1c-0.2-10.8,11.9-18,21.4-12.8
			C80,46.2,81.9,58.2,75.1,64.9L75.1,64.9z"/>
	</g>
</g>
</svg>
