<?xml version="1.0" encoding="utf-8"?>
<!-- Generator: Adobe Illustrator 24.1.2, SVG Export Plug-In . SVG Version: 6.00 Build 0)  -->
<svg version="1.1" id="Capa_1" xmlns="http://www.w3.org/2000/svg" xmlns:xlink="http://www.w3.org/1999/xlink" x="0px" y="0px"
	 viewBox="0 0 110 91" style="enable-background:new 0 0 110 91;" xml:space="preserve">
<style type="text/css">
	.st0{fill:#DFDFDF;}
	.st1{fill:none;}
</style>
<g id="Grupo_1178">
	<path id="Rectángulo_117" class="st0" d="M11,0h88c6.1,0,11,4.9,11,11v69c0,6.1-4.9,11-11,11H11C4.9,91,0,86.1,0,80V11
		C0,4.9,4.9,0,11,0z"/>
	<g id="Grupo_518">
		<path id="Trazado_1170" class="st1" d="M24,15h61.1v61.1H24V15z"/>
		<path id="Trazado_1171" d="M54.5,20.1c-14.1,0-25.4,11.4-25.4,25.5C29.1,59.6,40.5,71,54.6,71C68.6,71,80,59.6,80,45.5
			C80,31.5,68.6,20.1,54.5,20.1C54.5,20.1,54.5,20.1,54.5,20.1z M72.2,35.4h-7.5c-0.8-3.2-1.9-6.2-3.5-9.1
			C65.8,27.9,69.7,31.1,72.2,35.4L72.2,35.4z M54.6,25.3c2.1,3.1,3.8,6.5,4.9,10.1h-9.7C50.8,31.8,52.4,28.4,54.6,25.3z M34.8,50.6
			c-0.9-3.3-0.9-6.8,0-10.2h8.6c-0.2,1.7-0.3,3.4-0.4,5.1c0,1.7,0.1,3.4,0.4,5.1H34.8z M36.9,55.7h7.5c0.8,3.2,2,6.2,3.5,9.1
			C43.3,63.2,39.4,60,36.9,55.7z M44.4,35.4h-7.5c2.5-4.2,6.4-7.5,11-9.1C46.4,29.2,45.2,32.2,44.4,35.4L44.4,35.4z M54.6,65.8
			c-2.1-3.1-3.8-6.5-4.9-10.1h9.7C58.3,59.3,56.7,62.7,54.6,65.8z M60.5,50.6H48.6c-0.2-1.7-0.4-3.4-0.4-5.1c0-1.7,0.2-3.4,0.4-5.1
			h11.9c0.3,1.7,0.4,3.4,0.4,5.1C60.9,47.3,60.8,49,60.5,50.6z M61.1,64.8c1.5-2.9,2.7-5.9,3.5-9.1h7.5C69.7,60,65.8,63.2,61.1,64.8
			z M65.6,50.6c0.2-1.7,0.3-3.4,0.3-5.1c0-1.7-0.1-3.4-0.3-5.1h8.6c0.9,3.3,0.9,6.8,0,10.2H65.6z"/>
	</g>
</g>
</svg>
