<?xml version="1.0" encoding="utf-8"?>
<!-- Generator: Adobe Illustrator 24.1.2, SVG Export Plug-In . SVG Version: 6.00 Build 0)  -->
<svg version="1.1" id="Capa_1" xmlns="http://www.w3.org/2000/svg" xmlns:xlink="http://www.w3.org/1999/xlink" x="0px" y="0px"
	 viewBox="0 0 110 91" style="enable-background:new 0 0 110 91;" xml:space="preserve">
<style type="text/css">
	.st0{fill:#DFDFDF;}
</style>
<g id="Grupo_1179">
	<path id="Rectángulo_121" class="st0" d="M11,0h88c6.1,0,11,4.9,11,11v69c0,6.1-4.9,11-11,11H11C4.9,91,0,86.1,0,80V11
		C0,4.9,4.9,0,11,0z"/>
	<g id="Grupo_519">
		<path id="Trazado_1123" d="M65.2,76.4H44.4C38.7,76.4,34,71.7,34,66V47.8c0-5.7,4.7-10.4,10.4-10.4h20.8c5.8,0,10.4,4.6,10.4,10.4
			V66C75.6,71.7,70.9,76.4,65.2,76.4z M44.4,42.6c-2.9,0-5.2,2.3-5.2,5.2V66c0,2.9,2.3,5.2,5.2,5.2h20.8c2.9,0,5.2-2.3,5.2-5.2V47.8
			c0-2.9-2.3-5.2-5.2-5.2L44.4,42.6z"/>
		<path id="Trazado_1124" d="M67.8,42.6h-26c-1.4,0.1-2.5-0.9-2.6-2.3c0,0,0,0,0,0c0-0.1,0-0.2,0-0.3V29.6
			c0.1-8.6,7.2-15.5,15.9-15.3c8.3,0.1,15.1,6.8,15.3,15.1V40c0.1,1.4-1,2.5-2.3,2.6c0,0,0,0,0,0H67.8z M44.4,37.4h20.8v-7.8
			c0.2-5.7-4.2-10.6-10-10.8c-5.7-0.2-10.6,4.2-10.8,10c0,0.1,0,0.2,0,0.3c0,0.2,0,0.4,0,0.6V37.4z"/>
		<circle id="Elipse_187" cx="54.8" cy="53.2" r="5"/>
		<path id="Trazado_1125" d="M54.8,66c-1.3,0.1-2.5-0.9-2.6-2.3c0,0,0,0,0,0c0-0.1,0-0.2,0-0.3v-7.8c-0.1-1.3,0.9-2.5,2.3-2.6
			c0,0,0,0,0,0h0.3c1.4-0.1,2.5,0.9,2.6,2.3v8.1c0.1,1.4-1,2.5-2.3,2.6C55,66,54.9,66,54.8,66z"/>
	</g>
</g>
</svg>
