<?xml version="1.0" encoding="utf-8"?>
<!-- Generator: Adobe Illustrator 24.1.2, SVG Export Plug-In . SVG Version: 6.00 Build 0)  -->
<svg version="1.1" id="Capa_1" xmlns="http://www.w3.org/2000/svg" xmlns:xlink="http://www.w3.org/1999/xlink" x="0px" y="0px"
	 viewBox="0 0 110 91" style="enable-background:new 0 0 110 91;" xml:space="preserve">
<style type="text/css">
	.st0{fill:#DFDFDF;}
	.st1{fill:none;}
</style>
<g id="Grupo_1180">
	<path id="Rectángulo_119" class="st0" d="M11,0h88c6.1,0,11,4.9,11,11v69c0,6.1-4.9,11-11,11H11C4.9,91,0,86.1,0,80V11
		C0,4.9,4.9,0,11,0z"/>
	<g id="Grupo_520">
		<path id="Trazado_1172" class="st1" d="M24,14.5h62v62H24L24,14.5z"/>
		<path id="Trazado_1173" d="M73.2,22.3h-2.6V17h-5.2v5.2H44.6V17h-5.2v5.2h-2.6c-2.8,0-5.2,2.3-5.2,5.1v36.3c0,2.9,2.3,5.2,5.2,5.2
			h36.4c2.9,0,5.2-2.3,5.2-5.2V27.4C78.4,24.6,76.1,22.3,73.2,22.3z M73.2,63.8H36.8v-26h36.4V63.8z M36.8,32.6v-5.2h36.4v5.2
			L36.8,32.6z M51.3,59.7l15.4-15.4l-2.8-2.8L51.3,54.3l-5.5-5.5L43,51.5L51.3,59.7z"/>
	</g>
</g>
</svg>
