<?xml version="1.0" encoding="utf-8"?>
<!-- Generator: Adobe Illustrator 24.1.2, SVG Export Plug-In . SVG Version: 6.00 Build 0)  -->
<svg version="1.1" id="Capa_1" xmlns="http://www.w3.org/2000/svg" xmlns:xlink="http://www.w3.org/1999/xlink" x="0px" y="0px"
	 viewBox="0 0 110 91" style="enable-background:new 0 0 110 91;" xml:space="preserve">
<style type="text/css">
	.st0{fill:#DFDFDF;}
</style>
<g id="Grupo_1182">
	<path id="Rectángulo_118" class="st0" d="M11,0h88c6.1,0,11,4.9,11,11v69c0,6.1-4.9,11-11,11H11C4.9,91,0,86.1,0,80V11
		C0,4.9,4.9,0,11,0z"/>
	<g id="Grupo_523">
		<path id="Trazado_1176" d="M82,14.4H68.9c-0.4,0-0.8,0.4-0.8,0.8c0,0,0,0,0,0c0,0.4,0.4,0.8,0.8,0.8l0,0h12.5v10.6H66.5V15.2
			c0-0.4-0.3-0.8-0.8-0.8c0,0,0,0,0,0c-0.4,0-0.8,0.4-0.8,0.8v0v23h-6.5c-0.6,0-1,0.4-1,1v16.1c0,0.4,0.4,0.8,0.9,0.7
			c0.4,0,0.7-0.3,0.7-0.7V39.8h5.9v19.9c0,0.4,0.4,0.8,0.8,0.8h0c0.4,0,0.8-0.4,0.8-0.8c0,0,0,0,0,0V39.8h1.7c0.4,0,0.8-0.3,0.8-0.8
			c0,0,0,0,0,0c0-0.4-0.4-0.8-0.8-0.8l0,0h-1.7v-9.9H82c0.6,0,1-0.4,1-1V15.4C83,14.8,82.6,14.4,82,14.4z M40.1,75h-3.4V64
			c0-0.4-0.4-0.8-0.8-0.8c0,0,0,0,0,0c-0.4,0-0.8,0.4-0.8,0.8c0,0,0,0,0,0v12.5h5c0.4,0,0.8-0.4,0.8-0.8l0,0
			C40.9,75.3,40.6,75,40.1,75C40.1,75,40.1,75,40.1,75z M37.3,26.1H36c-0.5,0-0.8,0.4-0.8,0.8v0v33.9c0,0.4,0.3,0.8,0.8,0.8
			c0,0,0,0,0,0c0.4,0,0.8-0.4,0.8-0.8l0,0V27.7H39c0.5,0,0.8-0.4,0.8-0.8c0-0.2-0.1-0.4-0.3-0.6l-5-5.4c-0.3-0.3-0.8-0.3-1.2,0
			c0,0,0,0,0,0l0,0l-5,5.4c-0.3,0.3-0.3,0.8,0,1.2c0,0,0,0,0,0c0.1,0.1,0.4,0.2,0.6,0.2h2.3v9.1c0,0.4,0.4,0.8,0.8,0.8
			c0.4,0,0.8-0.4,0.8-0.8l0,0v-9.9c0-0.5-0.4-0.8-0.8-0.8h-1.4l3.3-3.6L37.3,26.1z"/>
		<path id="Trazado_1177" d="M32.1,39c-0.4,0-0.8,0.4-0.8,0.8V75h-3.5c-0.4,0-0.8,0.3-0.8,0.8c0,0,0,0,0,0c0,0.4,0.4,0.8,0.8,0.8
			c0,0,0,0,0,0h5.1V39.8C32.9,39.4,32.5,39,32.1,39C32.1,39,32.1,39,32.1,39z"/>
		<g id="Grupo_522">
			<path id="Trazado_1178" d="M57.7,75h-3.2V50.3c0-0.4-0.4-0.8-0.8-0.8l0,0c-0.4,0-0.8,0.4-0.8,0.8c0,0,0,0,0,0V75h-4.6V50.3
				c0-0.4-0.4-0.8-0.8-0.8l0,0c-0.4,0-0.8,0.4-0.8,0.8c0,0,0,0,0,0V75h-3.2c-0.4,0-0.8,0.3-0.8,0.8c0,0,0,0,0,0
				c0,0.4,0.4,0.8,0.8,0.8c0,0,0,0,0,0h14.1c0.4,0,0.8-0.4,0.8-0.8c0,0,0,0,0,0C58.5,75.3,58.2,75,57.7,75L57.7,75L57.7,75z
				 M44.7,26.5c0,3.3,2.7,6,6,6c3.3,0,6-2.7,6-6s-2.7-6-6-6l0,0l0,0C47.4,20.5,44.7,23.2,44.7,26.5z M55.1,26.5c0,2.4-2,4.4-4.4,4.4
				s-4.4-2-4.4-4.4s2-4.4,4.4-4.4l0,0C53.1,22.1,55.1,24.1,55.1,26.5L55.1,26.5z"/>
			<path id="Trazado_1179" d="M44.1,55.3V36.2h3.1l2.7,3.2c0.4,0.4,0.9,0.4,1.3,0.1l0.1-0.1l2.7-3.2h4.1c0.4,0,0.8-0.4,0.7-0.9
				c0-0.4-0.3-0.7-0.7-0.7H43.5c-0.5,0-1,0.4-1,1v19.7c0,0.4,0.3,0.8,0.8,0.8c0,0,0,0,0,0C43.7,56.1,44.1,55.7,44.1,55.3L44.1,55.3z
				 M50.7,37.7l-1.4-1.5H52L50.7,37.7z M79.1,75h-18c-0.4,0-0.8,0.4-0.8,0.8l0,0c0,0.4,0.3,0.8,0.8,0.8c0,0,0,0,0,0h18
				c0.4,0,0.8-0.4,0.8-0.8c0,0,0,0,0,0C79.9,75.3,79.6,75,79.1,75L79.1,75z"/>
		</g>
	</g>
</g>
</svg>
