<?xml version="1.0" encoding="utf-8"?>
<!-- Generator: Adobe Illustrator 24.1.2, SVG Export Plug-In . SVG Version: 6.00 Build 0)  -->
<svg version="1.1" id="Capa_1" xmlns="http://www.w3.org/2000/svg" xmlns:xlink="http://www.w3.org/1999/xlink" x="0px" y="0px"
	 viewBox="0 0 811 448" style="enable-background:new 0 0 811 448;" xml:space="preserve">
<style type="text/css">
	.st0{fill:#F3F3F3;}
	.st1{fill:#989898;}
	.st2{fill:#B8D3CE;}
	.st3{fill:#E0E0E0;}
	.st4{fill:#484848;}
	.st5{fill:#FFB8B8;}
	.st6{fill:#D8D8D8;}
	.st7{fill:#FFFEE7;}
	.st8{fill:#2F2E41;}
	.st9{opacity:0.2;enable-background:new    ;}
</style>
<g id="Grupo_525">
	<path id="Trazado_1240" class="st0" d="M296.6,247.6L356.4,37l374.7,105.5l-59.8,210.5L296.6,247.6z"/>
	<ellipse id="Elipse_194" class="st1" cx="364.4" cy="45.8" rx="3.1" ry="3.1"/>
	<ellipse id="Elipse_195" class="st1" cx="373.9" cy="48.5" rx="3.1" ry="3.1"/>
	<ellipse id="Elipse_196" class="st1" cx="383.4" cy="51.2" rx="3.1" ry="3.1"/>
	<path id="Trazado_1221" class="st1" d="M556.1,170.3c-5-0.9-10.2-0.8-15.1,0.4c1.5-4.9,1.8-10.1,1.1-15.2
		c-5.1,1.8-9.8,4.8-13.6,8.7c-1.2-5.3-3.6-10.2-7-14.5c-3.3,4-5.7,8.6-7.1,13.6c-3.6-3.6-8-6.5-12.7-8.3c0,0-2.3,11.4,3.2,20.8
		c4.8,8.4,14.1,12.3,16.1,13l0,0.1l0,0l0.3,0.1l0.1-0.6l0.1-0.1c0,0.1,0,0.1,0,0.2c-0.2,0.4-0.2,0.6-0.2,0.6l0.3,0.1l0,0h0.1
		c2.1,0.4,12.1,1.9,20.6-2.7C552,181.2,556.1,170.3,556.1,170.3z"/>
	<ellipse id="Elipse_197" class="st1" cx="537.5" cy="133.1" rx="8.1" ry="8"/>
	<path id="Trazado_1241" class="st1" d="M396.3,169l242.5,68.3l-1.5,5.3l-242.5-68.3L396.3,169z"/>
	<path id="Trazado_1242" class="st2" d="M412,201.5l41.8,11.8L442,254.9l-41.8-11.8L412,201.5z"/>
	<path id="Trazado_1243" class="st2" d="M489.4,223.3l41.8,11.8l-11.8,41.6l-41.8-11.8L489.4,223.3z"/>
	<path id="Trazado_1244" class="st2" d="M566.7,245.1l41.8,11.8l-11.8,41.6l-41.8-11.8L566.7,245.1z"/>
	<path id="Trazado_1245" class="st2" d="M403.3,252.9l31.1,8.8l-1,3.6l-31.1-8.8L403.3,252.9z"/>
	<path id="Trazado_1246" class="st2" d="M480.6,274.7l31.1,8.7l-1,3.6l-31.1-8.8L480.6,274.7z"/>
	<path id="Trazado_1247" class="st2" d="M558,296.5l31,8.7l-1,3.6l-31.1-8.7L558,296.5z"/>
	<ellipse id="Elipse_198" class="st3" cx="246.8" cy="320.7" rx="207.7" ry="7.6"/>
	<ellipse id="Elipse_199" class="st3" cx="613.1" cy="407.2" rx="161.6" ry="7.6"/>
	<path id="Trazado_1222" class="st4" d="M533.9,347.8h46.6v19.4h-27.1v19.4h27.1v19.4h-46.6V347.8z M589.8,347.8h46.6v16.9h-27.1
		v3.4h27.1V407h-46.6v-17.8h27.1v-3.4h-27.1V347.8L589.8,347.8z M645.8,347.8h46.6v16.9h-27.1v3.4h27.1V407h-46.6v-17.8h27.1v-3.4
		h-27.1V347.8L645.8,347.8z"/>
	<path id="Trazado_1223" class="st4" d="M129,259.2h19.3v18.9h17.6v-18.9h19.2v57.3h-19.3v-19.2h-17.5v19.2H129V259.2z M210.4,278.3
		h-16.9v-19h53.1v19h-16.9v38.3h-19.2L210.4,278.3L210.4,278.3L210.4,278.3z M255,259.2h20.1l12.3,20.1l12.3-20.1h20.1v57.3h-19.2
		v-28.4l-13.2,20.4h-0.3l-13.2-20.4v28.4H255V259.2z M329.4,259.2h19.2v38.4h27v19h-46.3L329.4,259.2L329.4,259.2z"/>
	<path id="Trazado_1224" class="st5" d="M95,298.6l-1.6,17.8l12.6-1v-15.2L95,298.6z"/>
	<path id="Trazado_1225" class="st5" d="M83.5,298.6l1.6,17.8l-12.6-1v-15.2L83.5,298.6z"/>
	<path id="Trazado_1226" d="M116.6,161.9c0,0,4.2,25.2,4.2,28.8s-1.6,27.3-4.2,32c-2.6,4.7-3.2,6.8-2.1,8.9c1.1,2.1,0.5,1.6,0,3.1
		c-0.5,1.6-1.6,1,0,3.1c1.3,1.9,1.3,4.4,0,6.3c-1.1,1.6,2.1,44-2.1,47.2c-4.2,3.1-5.3,13.6-5.3,13.6l-13.7-1.6v-11.5
		c0,0-3.2-8.4-1.1-13.6s3.2-33,3.2-33c-0.3-1.4-0.3-2.8,0-4.2c0.5-1.6,0-2.6-1-3.1c-1-0.5-1.6-2.6-1.6-2.6l-1.6-38.3L85,234.8
		c0,0,6.3,51.4,0,58.2V305H71.4l2.1-13.1c0,0-4.2-12.1-2.1-14.7s-6.3-44.6-5.3-46.1c1-1.6,0.5-2.1,0-3.1c-0.5-1-2.1-2.1-1.6-3.1
		s0-3.1,0-3.1s-10-49.2-5.3-54C64,163,116.6,161.9,116.6,161.9z"/>
	<path id="Trazado_1227" d="M96.6,309.5c0,0,1-5,9.5-3.3c0,0,2.1,4.3,2.1,6.4s2.1,16.3,2.1,16.3s8.4,14.1-2.1,14.1
		s-14.2-3.7-14.7-7.4c-0.5-3.7,0.5-4.7-1.6-6.3c-2.1-1.6-3.2-1.6-2.6-3.7s1.6-12.5,1.6-12.5s0.5-7.9,3.4-5.8l2.9,2.1"/>
	<path id="Trazado_1228" d="M81.9,309.5c0,0-1-5-9.5-3.3c0,0-2.1,4.3-2.1,6.4s-2.1,16.3-2.1,16.3s-8.4,14.1,2.1,14.1
		s14.2-3.7,14.7-7.4s-0.5-4.7,1.6-6.3s3.2-1.6,2.6-3.7c-0.5-2.1-1.6-12.5-1.6-12.5s-0.5-7.9-3.4-5.8l-2.9,2.1"/>
	<ellipse id="Elipse_200" class="st5" cx="97.2" cy="51.8" rx="14.2" ry="14.1"/>
	<path id="Trazado_1229" class="st5" d="M85.6,53.9c0,0-5.8,22.5-6.8,23.1c-1,0.5,24.2,2.6,24.2,2.6s-6.3-19.4,0-22.5L85.6,53.9z"/>
	<path id="Trazado_1230" class="st6" d="M81.9,67.7L81.9,67.7l-17.4,12l3.2,93.8c0,0,23.2-2.6,28.4-2.1s22.1-4.7,22.1-4.7l-7.4-88.2
		c-0.3-3.6-3.1-6.4-6.7-6.6l-3.2-0.2c0,0-3.2,7.8-12.7,3.8C85.1,74,82.7,71.1,81.9,67.7z"/>
	<path id="Trazado_1231" class="st7" d="M82.3,66.8L60.8,77l-4.2,60.3c0,0-8.4,36.2-1.6,46.7c4.2,6.3,10.9,10.5,18.4,11.5
		c0,0,15.3-60.3,11-80.7S82.3,66.8,82.3,66.8z"/>
	<path id="Trazado_1232" class="st5" d="M41.9,157.4v7.9c0,0-3.2,17.3,6.8,16.8s5.3-18.9,5.3-18.9l-3.2-5.8H41.9z"/>
	<path id="Trazado_1233" class="st5" d="M134.5,173.1l-1,8.9c0,0,5.3,17.8-4.7,18.3s-2.8-18.2-2.8-18.2l3.3-10.1L134.5,173.1z"/>
	<path id="Trazado_1234" class="st7" d="M100.6,69.8L100.6,69.8c9.6,2.3,18.5,7,25.9,13.4l0.1,0.1l-7.4,38.8l-1,14.1
		c0,0,19.5,69.2-3.2,59.2c0,0-19.5-60.3-16.8-88.1C100.9,79.6,100.6,69.8,100.6,69.8z"/>
	<path id="Trazado_1235" class="st7" d="M119.8,82.8c0.5-0.5,6.8,0.7,6.8,0.7s11.6,40.7,11.6,47.5c0,6.8,1.6,45.6,1.6,45.6
		l-13.9,1.4l-11.2-53.9L119.8,82.8z"/>
	<path id="Trazado_1236" class="st7" d="M64.5,77h-3.7c0,0-10.5,4.2-11,8.9c-0.5,4.7-14.7,52.4-14.7,52.4l3.7,24.1l13.7-2.1
		l2.6-26.7l13.7-29.4L64.5,77z"/>
	<path id="Trazado_1237" class="st8" d="M94.4,55.8l0.6-3.8c0.1-0.9,0.6-2,1.5-1.8c0.9,0.2,2.3,0.8,2.6,0.6c1-0.7,2.5,0.5,3.6-0.1
		c0.4-0.3,0.7-0.8,1.2-0.9c0.3,0,0.7,0.2,0.9,0.4c0.7,0.6,1.5,1,2.4,1.3c0.9,0.2,1.8,0,2.5-0.7c0.1-0.2,0.3-0.3,0.4-0.4
		c0.2-0.1,0.4-0.1,0.6,0l2.7,0.7c0.8-2.9,0.3-6-1.4-8.5c-1.1-1.5-2.4-2.8-3.9-3.8c-1.7-1.3-3.4-2.4-5.2-3.6c-1.9-1.3-4-2.3-6.3-2.8
		c-2.3-0.4-4.7,0.3-6.2,2.1c-0.7-0.5-1.2-1.2-1.4-1.9c-0.6,0.5-0.6,1.5-0.1,2.1c0.1,0.1,0.1,0.1,0.2,0.2l-2.3-1.4
		c-0.6,0.7,0.6,1.9,0.1,2.6c-0.2,0.2-0.4,0.3-0.6,0.4c-1.2,0.5-2.4,1.2-3.3,2.1c-1.2,1.4-2.1,3-2.6,4.8c-1.4,3.9-2.3,8.3-0.4,12
		c0.2,0.4,3.1,7.2,3.5,7.5c1.3,0.9,0.5-1.3,1.4,0c0.7,1,0.6-2.8,1.7-2c0.9,0.6,2,0.7,2.9,0.1c0.5-0.3,0.3-2,0.1-3.6
		c-0.2-1,0.5-2,1.5-2.1c0,0,0,0,0.1,0c0.2,0,0.5,0,0.7,0C93,55.7,94.4,55.9,94.4,55.8z"/>
	<path id="Trazado_1238" class="st9" d="M121.1,129.9l5.8,47.7h-3.7L121.1,129.9z"/>
	<path id="Trazado_1239" class="st9" d="M60,111.7L57.1,130l5.5-18.3H60z"/>
</g>
</svg>
