<?xml version="1.0" encoding="utf-8"?>
<!-- Generator: Adobe Illustrator 24.1.2, SVG Export Plug-In . SVG Version: 6.00 Build 0)  -->
<svg version="1.1" id="Capa_1" xmlns="http://www.w3.org/2000/svg" xmlns:xlink="http://www.w3.org/1999/xlink" x="0px" y="0px"
	 viewBox="0 0 297.6 152.1" style="enable-background:new 0 0 297.6 152.1;" xml:space="preserve">
<style type="text/css">
	.st0{fill:#F3F3F3;}
	.st1{fill:#989898;}
	.st2{fill:#B8D3CE;}
	.st3{fill:#E0E0E0;}
	.st4{fill:#484848;}
	.st5{fill:#FFB8B8;}
	.st6{fill:#D8D8D8;}
	.st7{fill:#FFFEE7;}
	.st8{fill:#2F2E41;}
	.st9{opacity:0.2;enable-background:new    ;}
</style>
<g id="Grupo_525">
	<path id="Trazado_1240" class="st0" d="M117.2,83.2l17.6-61.3l109.4,30.8l-17.6,61L117.2,83.2z"/>
	<ellipse id="Elipse_194" class="st1" cx="137" cy="24.2" rx="1" ry="1"/>
	<ellipse id="Elipse_195" class="st1" cx="139.7" cy="24.9" rx="1" ry="1"/>
	<ellipse id="Elipse_196" class="st1" cx="142.7" cy="25.9" rx="1" ry="1"/>
	<path id="Trazado_1221" class="st1" d="M193.1,60.3c-1.3-0.3-3-0.3-4.3,0c0.3-1.3,0.7-3,0.3-4.3c-1.3,0.7-3,1.3-4,2.7
		c-0.3-1.7-1-3-2-4.3c-1,1.3-1.7,2.7-2,4c-1-1-2.3-2-3.7-2.3c0,0-0.7,3.3,1,6c1.3,2.3,4,3.7,4.6,3.7l0,0l0,0l0,0v-0.3l0,0l0,0v0.3
		l0,0l0,0l0,0c0.7,0,3.7,0.7,6-0.7C191.7,63.6,193.1,60.3,193.1,60.3z"/>
	<ellipse id="Elipse_197" class="st1" cx="187.4" cy="49.7" rx="2.3" ry="2.3"/>
	<path id="Trazado_1241" class="st1" d="M146.3,60l70.6,19.9l-0.3,1.7L146,61.6L146.3,60z"/>
	<path id="Trazado_1242" class="st2" d="M151,69.6l12.3,3.3l-3.3,12.3l-12.3-3.3L151,69.6z"/>
	<path id="Trazado_1243" class="st2" d="M173.5,75.9l12.3,3.3l-3.3,12.3l-12.3-3.3L173.5,75.9z"/>
	<path id="Trazado_1244" class="st2" d="M196,82.2l12.3,3.3L205,97.7l-12.3-3.3L196,82.2z"/>
	<path id="Trazado_1245" class="st2" d="M148.3,84.5l8.9,2.7l-0.3,1l-8.9-2.7L148.3,84.5z"/>
	<path id="Trazado_1246" class="st2" d="M170.8,90.8l8.9,2.7l-0.3,1l-8.9-2.7L170.8,90.8z"/>
	<path id="Trazado_1247" class="st2" d="M193.4,97.4l8.9,2.7l-0.3,1l-8.9-2.7L193.4,97.4z"/>
	<ellipse id="Elipse_198" class="st3" cx="102.6" cy="104.4" rx="60.7" ry="2.3"/>
	<ellipse id="Elipse_199" class="st3" cx="209.6" cy="129.6" rx="47.1" ry="2.3"/>
	<path id="Trazado_1222" class="st4" d="M186.4,112.3H200v5.6h-7.9v5.6h7.9v5.6h-13.6V112.3z M202.7,112.3h13.6v5h-7.9v1h7.9v11.3
		h-13.6v-5.3h7.9v-1h-7.9V112.3L202.7,112.3z M219.2,112.3h13.6v5h-7.9v1h7.9v11.3h-13.6v-5.3h7.9v-1h-7.9V112.3L219.2,112.3z"/>
	<path id="Trazado_1223" class="st4" d="M68.5,86.5h5.6v5.6h5v-5.6h5.6v16.6h-5.6v-5.6h-5v5.6h-5.6V86.5z M92,92.1h-5v-5.6h15.6v5.6
		h-5v10.9H92V92.1L92,92.1L92,92.1z M105.2,86.5h6l3.7,6l3.7-6h6v16.6h-5.6v-8.3l-4,6l0,0l-4.3-6v8.3h-5.6V86.5H105.2L105.2,86.5z
		 M126.8,86.5h5.6v11.3h7.9v5.3h-13.6V86.5L126.8,86.5z"/>
	<path id="Trazado_1224" class="st5" d="M58.5,97.7l-0.7,5.3l3.7-0.3v-4.3L58.5,97.7z"/>
	<path id="Trazado_1225" class="st5" d="M55.2,97.7l0.3,5.3l-3.7-0.3v-4.3L55.2,97.7z"/>
	<path id="Trazado_1226" d="M64.8,58c0,0,1.3,7.3,1.3,8.3c0,1-0.3,7.9-1.3,9.3c-0.7,1.3-1,2-0.7,2.7c0.3,0.7,0,0.3,0,1
		c0,0.3-0.3,0.3,0,1c0.3,0.7,0.3,1.3,0,2c-0.3,0.3,0.7,12.9-0.7,13.9c-1.3,0.7-1.7,3.7-1.7,3.7l-4-0.3v-3.3c0,0-1-2.3-0.3-4
		s1-9.6,1-9.6c0-0.3,0-0.7,0-1.3c0-0.3,0-0.7-0.3-1c-0.3,0-0.3-0.7-0.3-0.7l-0.3-11.3l-2,10.9c0,0,2,14.9,0,16.9v3.7h-4l0.7-4
		c0,0-1.3-3.7-0.7-4.3s-2-12.9-1.7-13.6c0.3-0.3,0-0.7,0-1c0-0.3-0.7-0.3-0.3-0.3c0-0.3,0-1,0-1s-3-14.3-1.7-15.9
		C49.2,58.3,64.8,58,64.8,58z"/>
	<path id="Trazado_1227" d="M58.8,101.1c0,0,0.3-1.3,2.7-1c0,0,0.7,1.3,0.7,2c0,0.7,0.7,4.6,0.7,4.6s2.3,4-0.7,4s-4-1-4.3-2
		c0-1,0-1.3-0.3-2c-0.7-0.3-1-0.3-0.7-1c0.3-0.7,0.3-3.7,0.3-3.7s0-2.3,1-1.7L58.8,101.1"/>
	<path id="Trazado_1228" d="M54.5,101.1c0,0-0.3-1.3-2.7-1c0,0-0.7,1.3-0.7,2c0,0.7-0.7,4.6-0.7,4.6s-2.3,4,0.7,4c3,0,4-1,4.3-2.3
		c0.3-1.3,0-1.3,0.3-2c0.3-0.7,1-0.3,0.7-1c0-0.7-0.3-3.7-0.3-3.7s0-2.3-1-1.7L54.5,101.1"/>
	<ellipse id="Elipse_200" class="st5" cx="59.2" cy="25.9" rx="4" ry="4"/>
	<path id="Trazado_1229" class="st5" d="M55.5,26.5c0,0-1.7,6.6-2,6.6c0,0.3,7.3,1,7.3,1s-2-5.6,0-6.6L55.5,26.5z"/>
	<path id="Trazado_1230" class="st6" d="M54.5,30.5L54.5,30.5l-5,3.7l1,27.5c0,0,6.6-0.7,8.3-0.7s6.3-1.3,6.3-1.3l-2-25.8
		c0-1-1-2-2-2h-1c0,0-1,2.3-3.7,1C55.5,32.5,54.9,31.5,54.5,30.5z"/>
	<path id="Trazado_1231" class="st7" d="M54.9,30.1l-6.3,3l-1.3,17.6c0,0-2.3,10.6-0.3,13.6c1.3,2,3.3,3,5.3,3.3
		c0,0,4.3-17.6,3.3-23.5S54.9,30.1,54.9,30.1z"/>
	<path id="Trazado_1232" class="st5" d="M42.9,56.7V59c0,0-1,5,2,5s1.7-5.6,1.7-5.6l-1-1.7H42.9z"/>
	<path id="Trazado_1233" class="st5" d="M69.8,61.3L69.4,64c0,0,1.7,5.3-1.3,5.3c-3,0-0.7-5.3-0.7-5.3l1-3L69.8,61.3z"/>
	<path id="Trazado_1234" class="st7" d="M60.2,31.1L60.2,31.1c2.7,0.7,5.3,2,7.3,4l0,0l-2,11.3l-0.3,4c0,0,5.6,20.2-1,17.2
		c0,0-5.6-17.6-5-25.8C60.2,34.1,60.2,31.1,60.2,31.1z"/>
	<path id="Trazado_1235" class="st7" d="M65.8,34.8l2,0.3c0,0,3.3,11.9,3.3,13.9s0.3,13.3,0.3,13.3l-4,0.3l-3.3-15.6L65.8,34.8z"/>
	<path id="Trazado_1236" class="st7" d="M49.6,33.1h-1c0,0-3,1.3-3.3,2.7C44.9,37.1,40.9,51,40.9,51l1,6.9l4-0.7l0.7-7.9l4.3-8.3
		L49.6,33.1z"/>
	<path id="Trazado_1237" class="st8" d="M58.2,27.2l0.3-1c0-0.3,0.3-0.7,0.3-0.7c0.3,0,0.7,0.3,0.7,0.3c0.3-0.3,0.7,0,1,0l0.3-0.3
		h0.3c0.3,0.3,0.3,0.3,0.7,0.3c0.3,0,0.7,0,0.7-0.3l0,0c0,0,0,0,0.3,0l0.7,0.3c0.3-1,0-1.7-0.3-2.3c0-0.7-0.3-1-1-1.3
		c-0.3-0.3-1-0.7-1.3-1c-0.7-0.7-1.3-0.7-2-1c-0.7,0-1.3,0-1.7,0.7c-0.3,0-0.3-0.3-0.7-0.7c-0.3,0-0.3,0.3,0,0.7l0,0l-0.3-0.3
		c-0.3,0.3,0.3,0.7,0,0.7c0,0,0,0-0.3,0c-0.3,0-0.7,0.3-1,0.7c-0.3,0.7-0.7,1-0.7,1.7c-0.3,1-0.7,2.3,0,3.3c0,0,1,2,1,2.3
		c0.3,0.3,0-0.3,0.3,0c0.3,0.3,0.3-0.7,0.3-0.7c0.3,0.3,0.7,0.3,1,0c0,0,0-0.7,0-1c0-0.3,0-0.7,0.3-0.7l0,0c0.3,0,0.3,0,0.3,0
		C57.9,27.2,58.2,27.2,58.2,27.2z"/>
	<path id="Trazado_1238" class="st9" d="M66.1,48.7l1.7,13.9h-1L66.1,48.7z"/>
	<path id="Trazado_1239" class="st9" d="M48.2,43.4l-1,5.3l1.7-5.3H48.2z"/>
</g>
</svg>
