<?xml version="1.0" encoding="utf-8"?>
<!-- Generator: Adobe Illustrator 24.1.2, SVG Export Plug-In . SVG Version: 6.00 Build 0)  -->
<svg version="1.1" id="Capa_1" xmlns="http://www.w3.org/2000/svg" xmlns:xlink="http://www.w3.org/1999/xlink" x="0px" y="0px"
	 viewBox="0 0 65.1 33.7" style="enable-background:new 0 0 65.1 33.7;" xml:space="preserve">
<style type="text/css">
	.st0{fill:#F3F3F3;}
	.st1{fill:#989898;}
	.st2{fill:#B8D3CE;}
	.st3{fill:#E0E0E0;}
	.st4{fill:#484848;}
	.st5{fill:#FFB8B8;}
	.st6{fill:#D8D8D8;}
	.st7{fill:#FFFEE7;}
	.st8{fill:#2F2E41;}
	.st9{opacity:0.2;enable-background:new    ;}
</style>
<g id="Grupo_525">
	<path id="Trazado_1240" class="st0" d="M23,19l5.3-18.5l33,9.3L56,28.2L23,19z"/>
	<ellipse id="Elipse_194" class="st1" cx="29" cy="1.2" rx="0.3" ry="0.3"/>
	<ellipse id="Elipse_195" class="st1" cx="29.8" cy="1.4" rx="0.3" ry="0.3"/>
	<ellipse id="Elipse_196" class="st1" cx="30.7" cy="1.7" rx="0.3" ry="0.3"/>
	<path id="Trazado_1221" class="st1" d="M45.9,12.1c-0.4-0.1-0.9-0.1-1.3,0c0.1-0.4,0.2-0.9,0.1-1.3c-0.4,0.2-0.9,0.4-1.2,0.8
		c-0.1-0.5-0.3-0.9-0.6-1.3c-0.3,0.4-0.5,0.8-0.6,1.2c-0.3-0.3-0.7-0.6-1.1-0.7c0,0-0.2,1,0.3,1.8c0.4,0.7,1.2,1.1,1.4,1.1v0l0,0
		l0,0l0-0.1l0,0c0,0,0,0,0,0c0,0,0,0.1,0,0.1l0,0l0,0h0c0.2,0,1.1,0.2,1.8-0.2C45.5,13.1,45.9,12.1,45.9,12.1z"/>
	<ellipse id="Elipse_197" class="st1" cx="44.2" cy="8.9" rx="0.7" ry="0.7"/>
	<path id="Trazado_1241" class="st1" d="M31.8,12l21.3,6L53,18.5l-21.3-6L31.8,12z"/>
	<path id="Trazado_1242" class="st2" d="M33.2,14.9l3.7,1l-1,3.7l-3.7-1L33.2,14.9z"/>
	<path id="Trazado_1243" class="st2" d="M40,16.8l3.7,1l-1,3.7l-3.7-1L40,16.8z"/>
	<path id="Trazado_1244" class="st2" d="M46.8,18.7l3.7,1l-1,3.7l-3.7-1L46.8,18.7z"/>
	<path id="Trazado_1245" class="st2" d="M32.4,19.4l2.7,0.8l-0.1,0.3l-2.7-0.8L32.4,19.4z"/>
	<path id="Trazado_1246" class="st2" d="M39.2,21.3l2.7,0.8l-0.1,0.3l-2.7-0.8L39.2,21.3z"/>
	<path id="Trazado_1247" class="st2" d="M46,23.3l2.7,0.8l-0.1,0.3l-2.7-0.8L46,23.3z"/>
	<ellipse id="Elipse_198" class="st3" cx="18.6" cy="25.4" rx="18.3" ry="0.7"/>
	<ellipse id="Elipse_199" class="st3" cx="50.9" cy="33" rx="14.2" ry="0.7"/>
	<path id="Trazado_1222" class="st4" d="M43.9,27.8H48v1.7h-2.4v1.7H48v1.7h-4.1V27.8z M48.8,27.8h4.1v1.5h-2.4v0.3h2.4V33h-4.1
		v-1.6h2.4v-0.3h-2.4V27.8L48.8,27.8z M53.8,27.8h4.1v1.5h-2.4v0.3h2.4V33h-4.1v-1.6h2.4v-0.3h-2.4V27.8L53.8,27.8z"/>
	<path id="Trazado_1223" class="st4" d="M8.3,20H10v1.7h1.5V20h1.7v5h-1.7v-1.7H10V25H8.3V20z M15.4,21.7h-1.5V20h4.7v1.7h-1.5V25
		h-1.7L15.4,21.7L15.4,21.7L15.4,21.7z M19.4,20h1.8l1.1,1.8l1.1-1.8h1.8v5h-1.7v-2.5l-1.2,1.8h0L21,22.5V25h-1.7V20z M25.9,20h1.7
		v3.4H30V25h-4.1L25.9,20L25.9,20z"/>
	<path id="Trazado_1224" class="st5" d="M5.3,23.4L5.1,25l1.1-0.1v-1.3L5.3,23.4z"/>
	<path id="Trazado_1225" class="st5" d="M4.3,23.4L4.4,25l-1.1-0.1v-1.3L4.3,23.4z"/>
	<path id="Trazado_1226" d="M7.2,11.4c0,0,0.4,2.2,0.4,2.5c0,0.3-0.1,2.4-0.4,2.8c-0.2,0.4-0.3,0.6-0.2,0.8c0.1,0.2,0,0.1,0,0.3
		c0,0.1-0.1,0.1,0,0.3c0.1,0.2,0.1,0.4,0,0.6c-0.1,0.1,0.2,3.9-0.2,4.2C6.4,23.1,6.3,24,6.3,24l-1.2-0.1v-1c0,0-0.3-0.7-0.1-1.2
		c0.2-0.5,0.3-2.9,0.3-2.9c0-0.1,0-0.2,0-0.4c0-0.1,0-0.2-0.1-0.3c-0.1,0-0.1-0.2-0.1-0.2l-0.1-3.4l-0.6,3.3c0,0,0.6,4.5,0,5.1V24
		H3.2l0.2-1.2c0,0-0.4-1.1-0.2-1.3c0.2-0.2-0.6-3.9-0.5-4.1c0.1-0.1,0-0.2,0-0.3S2.5,17,2.6,17c0-0.1,0-0.3,0-0.3s-0.9-4.3-0.5-4.8
		C2.5,11.5,7.2,11.4,7.2,11.4z"/>
	<path id="Trazado_1227" d="M5.4,24.4c0,0,0.1-0.4,0.8-0.3c0,0,0.2,0.4,0.2,0.6s0.2,1.4,0.2,1.4s0.7,1.2-0.2,1.2S5.2,27,5.1,26.7
		c0-0.3,0-0.4-0.1-0.6C4.8,26,4.7,26,4.8,25.8s0.1-1.1,0.1-1.1s0-0.7,0.3-0.5L5.4,24.4"/>
	<path id="Trazado_1228" d="M4.1,24.4c0,0-0.1-0.4-0.8-0.3c0,0-0.2,0.4-0.2,0.6s-0.2,1.4-0.2,1.4s-0.7,1.2,0.2,1.2s1.2-0.3,1.3-0.7
		s0-0.4,0.1-0.6s0.3-0.1,0.2-0.3c0-0.2-0.1-1.1-0.1-1.1s0-0.7-0.3-0.5L4.1,24.4"/>
	<ellipse id="Elipse_200" class="st5" cx="5.5" cy="1.7" rx="1.2" ry="1.2"/>
	<path id="Trazado_1229" class="st5" d="M4.4,1.9c0,0-0.5,2-0.6,2C3.8,4,6,4.2,6,4.2s-0.6-1.7,0-2L4.4,1.9z"/>
	<path id="Trazado_1230" class="st6" d="M4.1,3.1L4.1,3.1L2.6,4.2l0.3,8.3c0,0,2-0.2,2.5-0.2c0.5,0,1.9-0.4,1.9-0.4L6.7,4.1
		c0-0.3-0.3-0.6-0.6-0.6l-0.3,0c0,0-0.3,0.7-1.1,0.3C4.4,3.7,4.2,3.4,4.1,3.1z"/>
	<path id="Trazado_1231" class="st7" d="M4.2,3L2.3,3.9L1.9,9.2c0,0-0.7,3.2-0.1,4.1c0.4,0.6,1,0.9,1.6,1c0,0,1.3-5.3,1-7.1
		S4.2,3,4.2,3z"/>
	<path id="Trazado_1232" class="st5" d="M0.6,11v0.7c0,0-0.3,1.5,0.6,1.5s0.5-1.7,0.5-1.7L1.4,11H0.6z"/>
	<path id="Trazado_1233" class="st5" d="M8.7,12.4l-0.1,0.8c0,0,0.5,1.6-0.4,1.6c-0.9,0-0.2-1.6-0.2-1.6l0.3-0.9L8.7,12.4z"/>
	<path id="Trazado_1234" class="st7" d="M5.8,3.3L5.8,3.3C6.6,3.5,7.4,3.9,8,4.5l0,0L7.4,7.9L7.3,9.1c0,0,1.7,6.1-0.3,5.2
		c0,0-1.7-5.3-1.5-7.8C5.8,4.2,5.8,3.3,5.8,3.3z"/>
	<path id="Trazado_1235" class="st7" d="M7.5,4.4c0,0,0.6,0.1,0.6,0.1s1,3.6,1,4.2c0,0.6,0.1,4,0.1,4L8,12.8L7,8.1L7.5,4.4z"/>
	<path id="Trazado_1236" class="st7" d="M2.6,3.9H2.3c0,0-0.9,0.4-1,0.8C1.2,5.1,0,9.3,0,9.3l0.3,2.1l1.2-0.2l0.2-2.4L3,6.3L2.6,3.9
		z"/>
	<path id="Trazado_1237" class="st8" d="M5.2,2.1l0.1-0.3c0-0.1,0.1-0.2,0.1-0.2c0.1,0,0.2,0.1,0.2,0.1c0.1-0.1,0.2,0,0.3,0
		c0,0,0.1-0.1,0.1-0.1c0,0,0.1,0,0.1,0c0.1,0.1,0.1,0.1,0.2,0.1c0.1,0,0.2,0,0.2-0.1c0,0,0,0,0,0c0,0,0,0,0.1,0l0.2,0.1
		c0.1-0.3,0-0.5-0.1-0.7C6.7,0.8,6.6,0.7,6.4,0.6C6.3,0.5,6.1,0.4,6,0.3C5.8,0.1,5.6,0.1,5.4,0C5.2,0,5,0,4.9,0.2
		C4.8,0.2,4.8,0.1,4.7,0c-0.1,0-0.1,0.1,0,0.2c0,0,0,0,0,0L4.6,0.1c-0.1,0.1,0.1,0.2,0,0.2c0,0,0,0-0.1,0c-0.1,0-0.2,0.1-0.3,0.2
		C4.1,0.7,4,0.8,4,1C3.9,1.3,3.8,1.7,4,2c0,0,0.3,0.6,0.3,0.7c0.1,0.1,0-0.1,0.1,0c0.1,0.1,0.1-0.2,0.1-0.2c0.1,0.1,0.2,0.1,0.3,0
		c0,0,0-0.2,0-0.3c0-0.1,0-0.2,0.1-0.2c0,0,0,0,0,0C5,2,5,2,5,2C5.1,2.1,5.2,2.1,5.2,2.1z"/>
	<path id="Trazado_1238" class="st9" d="M7.6,8.6l0.5,4.2H7.8L7.6,8.6z"/>
	<path id="Trazado_1239" class="st9" d="M2.2,7L1.9,8.6L2.4,7H2.2z"/>
</g>
</svg>
