<?xml version="1.0" encoding="utf-8"?>
<!-- Generator: Adobe Illustrator 24.1.2, SVG Export Plug-In . SVG Version: 6.00 Build 0)  -->
<svg version="1.1" id="Capa_1" xmlns="http://www.w3.org/2000/svg" xmlns:xlink="http://www.w3.org/1999/xlink" x="0px" y="0px"
	 viewBox="0 0 1031 776" style="enable-background:new 0 0 1031 776;" xml:space="preserve">
<style type="text/css">
	.st0{fill:#F3F3F3;}
	.st1{fill:#989898;}
	.st2{fill:#B8D3CE;}
	.st3{fill:#E0E0E0;}
	.st4{fill:#484848;}
	.st5{fill:#FFB8B8;}
	.st6{fill:#D8D8D8;}
	.st7{fill:#FFFEE7;}
	.st8{fill:#2F2E41;}
	.st9{opacity:0.2;enable-background:new    ;}
</style>
<g id="Grupo_525">
	<path id="Trazado_1240" class="st0" d="M366.6,421.5l82.6-288.5l514.6,145L881.2,565L366.6,421.5z"/>
	<ellipse id="Elipse_194" class="st1" cx="460.1" cy="144" rx="4.7" ry="4.7"/>
	<ellipse id="Elipse_195" class="st1" cx="472.6" cy="147.1" rx="4.7" ry="4.7"/>
	<ellipse id="Elipse_196" class="st1" cx="486.7" cy="151.8" rx="4.7" ry="4.7"/>
	<path id="Trazado_1221" class="st1" d="M723.7,313.9c-6.2-1.6-14-1.6-20.3,0c1.6-6.2,3.1-14,1.6-20.3c-6.2,3.1-14,6.2-18.7,12.5
		c-1.6-7.8-4.7-14-9.4-20.3c-4.7,6.2-7.8,12.5-9.4,18.7c-4.7-4.7-10.9-9.4-17.2-10.9c0,0-3.1,15.6,4.7,28.1
		c6.2,10.9,18.7,17.2,21.8,17.2l0,0l0,0l0,0v-1.6l0,0l0,0v1.6l0,0l0,0l0,0c3.1,0,17.2,3.1,28.1-3.1
		C717.4,329.5,723.7,313.9,723.7,313.9z"/>
	<ellipse id="Elipse_197" class="st1" cx="697.2" cy="264" rx="10.9" ry="10.9"/>
	<path id="Trazado_1241" class="st1" d="M503.8,312.4l332.1,93.6l-1.6,7.8l-332.1-93.6L503.8,312.4z"/>
	<path id="Trazado_1242" class="st2" d="M525.6,357.6l57.7,15.6l-15.6,57.7L510,415.3L525.6,357.6z"/>
	<path id="Trazado_1243" class="st2" d="M631.7,387.2l57.7,15.6l-15.6,57.7l-57.7-15.6L631.7,387.2z"/>
	<path id="Trazado_1244" class="st2" d="M737.7,416.8l57.7,15.6l-15.6,57.7l-57.7-15.6L737.7,416.8z"/>
	<path id="Trazado_1245" class="st2" d="M513.2,427.8l42.1,12.5l-1.6,4.7l-42.1-12.5L513.2,427.8z"/>
	<path id="Trazado_1246" class="st2" d="M619.2,457.4l42.1,12.5l-1.6,4.7l-42.1-12.5L619.2,457.4z"/>
	<path id="Trazado_1247" class="st2" d="M725.2,488.6l42.1,12.5l-1.6,4.7l-42.1-12.5L725.2,488.6z"/>
	<ellipse id="Elipse_198" class="st3" cx="298" cy="521.3" rx="285.4" ry="10.9"/>
	<ellipse id="Elipse_199" class="st3" cx="801.6" cy="639.8" rx="221.4" ry="10.9"/>
	<path id="Trazado_1222" class="st4" d="M692.5,558.7h63.9v26.5H719v26.5h37.4v26.5h-63.9V558.7z M768.9,558.7h63.9v23.4h-37.4v4.7
		h37.4v53h-63.9v-24.9h37.4v-4.7h-37.4V558.7L768.9,558.7z M846.9,558.7h63.9v23.4h-37.4v4.7h37.4v53h-63.9v-24.9h37.4v-4.7h-37.4
		V558.7L846.9,558.7z"/>
	<path id="Trazado_1223" class="st4" d="M137.4,437.1h26.5v26.5h23.4v-26.5h26.5v78h-26.5v-26.5h-23.4v26.5h-26.5V437.1z
		 M248.1,463.6h-23.4v-26.5H298v26.5h-23.4v51.5h-26.5L248.1,463.6L248.1,463.6L248.1,463.6z M310.4,437.1h28.1l17.2,28.1l17.2-28.1
		h28.1v78h-26.5v-39l-18.7,28.1l0,0l-20.3-28.1v39h-26.5v-78H310.4z M411.8,437.1h26.5v53h37.4v24.9h-63.9V437.1L411.8,437.1z"/>
	<path id="Trazado_1224" class="st5" d="M90.6,490.1l-3.1,24.9l17.2-1.6v-20.3L90.6,490.1z"/>
	<path id="Trazado_1225" class="st5" d="M75,490.1l1.6,24.9l-17.2-1.6v-20.3L75,490.1z"/>
	<path id="Trazado_1226" d="M120.2,303c0,0,6.2,34.3,6.2,39c0,4.7-1.6,37.4-6.2,43.7c-3.1,6.2-4.7,9.4-3.1,12.5c1.6,3.1,0,1.6,0,4.7
		c0,1.6-1.6,1.6,0,4.7c1.6,3.1,1.6,6.2,0,9.4c-1.6,1.6,3.1,60.8-3.1,65.5c-6.2,3.1-7.8,17.2-7.8,17.2l-18.7-1.6v-15.6
		c0,0-4.7-10.9-1.6-18.7c3.1-7.8,4.7-45.2,4.7-45.2c0-1.6,0-3.1,0-6.2c0-1.6,0-3.1-1.6-4.7c-1.6,0-1.6-3.1-1.6-3.1l-1.6-53
		l-9.4,51.5c0,0,9.4,70.2,0,79.5v17.2H57.8l3.1-18.7c0,0-6.2-17.2-3.1-20.3c3.1-3.1-9.4-60.8-7.8-63.9c1.6-1.6,0-3.1,0-4.7
		s-3.1-1.6-1.6-1.6c0-1.6,0-4.7,0-4.7s-14-67.1-7.8-74.8C46.9,304.6,120.2,303,120.2,303z"/>
	<path id="Trazado_1227" d="M92.1,505.7c0,0,1.6-6.2,12.5-4.7c0,0,3.1,6.2,3.1,9.4c0,3.1,3.1,21.8,3.1,21.8s10.9,18.7-3.1,18.7
		s-18.7-4.7-20.3-9.4c0-4.7,0-6.2-1.6-9.4c-3.1-1.6-4.7-1.6-3.1-4.7c1.6-3.1,1.6-17.2,1.6-17.2s0-10.9,4.7-7.8L92.1,505.7"/>
	<path id="Trazado_1228" d="M71.9,505.7c0,0-1.6-6.2-12.5-4.7c0,0-3.1,6.2-3.1,9.4c0,3.1-3.1,21.8-3.1,21.8s-10.9,18.7,3.1,18.7
		S75,546.3,76.6,540c1.6-6.2,0-6.2,1.6-9.4c1.6-3.1,4.7-1.6,3.1-4.7c0-3.1-1.6-17.2-1.6-17.2s0-10.9-4.7-7.8L71.9,505.7"/>
	<ellipse id="Elipse_200" class="st5" cx="93.7" cy="151.8" rx="18.7" ry="18.7"/>
	<path id="Trazado_1229" class="st5" d="M76.6,154.9c0,0-7.8,31.2-9.4,31.2c0,1.6,34.3,4.7,34.3,4.7s-9.4-26.5,0-31.2L76.6,154.9z"
		/>
	<path id="Trazado_1230" class="st6" d="M71.9,173.6L71.9,173.6l-23.4,17.2l4.7,129.4c0,0,31.2-3.1,39-3.1s29.6-6.2,29.6-6.2
		l-9.4-121.6c0-4.7-4.7-9.4-9.4-9.4h-4.7c0,0-4.7,10.9-17.2,4.7C76.6,182.9,73.4,178.3,71.9,173.6z"/>
	<path id="Trazado_1231" class="st7" d="M73.4,172l-29.6,14l-6.2,82.6c0,0-10.9,49.9-1.6,63.9c6.2,9.4,15.6,14,24.9,15.6
		c0,0,20.3-82.6,15.6-110.7S73.4,172,73.4,172z"/>
	<path id="Trazado_1232" class="st5" d="M17.3,296.8v10.9c0,0-4.7,23.4,9.4,23.4s7.8-26.5,7.8-26.5l-4.7-7.8H17.3z"/>
	<path id="Trazado_1233" class="st5" d="M143.6,318.6l-1.6,12.5c0,0,7.8,24.9-6.2,24.9c-14,0-3.1-24.9-3.1-24.9l4.7-14L143.6,318.6z
		"/>
	<path id="Trazado_1234" class="st7" d="M98.4,176.7L98.4,176.7c12.5,3.1,24.9,9.4,34.3,18.7l0,0l-9.4,53l-1.6,18.7
		c0,0,26.5,95.1-4.7,81.1c0,0-26.5-82.6-23.4-121.6C98.4,190.7,98.4,176.7,98.4,176.7z"/>
	<path id="Trazado_1235" class="st7" d="M124.9,193.9l9.4,1.6c0,0,15.6,56.1,15.6,65.5s1.6,62.4,1.6,62.4l-18.7,1.6l-15.6-73.3
		L124.9,193.9z"/>
	<path id="Trazado_1236" class="st7" d="M48.5,186.1h-4.7c0,0-14,6.2-15.6,12.5c-1.6,6.2-20.3,71.7-20.3,71.7l4.7,32.7l18.7-3.1
		l3.1-37.4l20.3-39L48.5,186.1z"/>
	<path id="Trazado_1237" class="st8" d="M89,158l1.6-4.7c0-1.6,1.6-3.1,1.6-3.1c1.6,0,3.1,1.6,3.1,1.6c1.6-1.6,3.1,0,4.7,0l1.6-1.6
		h1.6c1.6,1.6,1.6,1.6,3.1,1.6c1.6,0,3.1,0,3.1-1.6l0,0c0,0,0,0,1.6,0l3.1,1.6c1.6-4.7,0-7.8-1.6-10.9c0-3.1-1.6-4.7-4.7-6.2
		c-1.6-1.6-4.7-3.1-6.2-4.7c-3.1-3.1-6.2-3.1-9.4-4.7c-3.1,0-6.2,0-7.8,3.1c-1.6,0-1.6-1.6-3.1-3.1c-1.6,0-1.6,1.6,0,3.1l0,0
		l-1.6-1.6c-1.6,1.6,1.6,3.1,0,3.1c0,0,0,0-1.6,0s-3.1,1.6-4.7,3.1c-1.6,3.1-3.1,4.7-3.1,7.8c-1.6,4.7-3.1,10.9,0,15.6
		c0,0,4.7,9.4,4.7,10.9c1.6,1.6,0-1.6,1.6,0c1.6,1.6,1.6-3.1,1.6-3.1c1.6,1.6,3.1,1.6,4.7,0c0,0,0-3.1,0-4.7s0-3.1,1.6-3.1l0,0
		c1.6,0,1.6,0,1.6,0C87.5,158,89,158,89,158z"/>
	<path id="Trazado_1238" class="st9" d="M126.5,259.4l7.8,65.5h-4.7L126.5,259.4z"/>
	<path id="Trazado_1239" class="st9" d="M42.2,234.4l-4.7,24.9l7.8-24.9H42.2z"/>
</g>
</svg>
