<?xml version="1.0" encoding="utf-8"?>
<!-- Generator: Adobe Illustrator 24.1.2, SVG Export Plug-In . SVG Version: 6.00 Build 0)  -->
<svg version="1.1" id="Capa_1" xmlns="http://www.w3.org/2000/svg" xmlns:xlink="http://www.w3.org/1999/xlink" x="0px" y="0px"
	 viewBox="0 0 811 605.8" style="enable-background:new 0 0 811 605.8;" xml:space="preserve">
<style type="text/css">
	.st0{fill:#E4E4E4;}
	.st1{fill:#FFFFFF;}
	.st2{fill:#F0F0F0;}
	.st3{fill:#E6E6E6;}
	.st4{fill:#B8D3CE;}
	.st5{fill:#F2F2F2;}
	.st6{fill:#8CB4F4;}
	.st7{fill:#9E616A;}
	.st8{fill:#2F2E41;}
	.st9{fill:#3F3D56;}
	.st10{fill:#CCCCCC;}
</style>
<g id="Grupo_514">
	<path id="Trazado_1130" class="st0" d="M709.6,103.4H101.5c-1.9,0-3.4-1.5-3.4-3.4c0,0,0,0,0,0v-20c0-1.9,1.5-3.4,3.4-3.4
		c0,0,0,0,0,0h608.1c1.9,0,3.4,1.5,3.4,3.4v20C713,101.8,711.5,103.4,709.6,103.4C709.6,103.4,709.6,103.4,709.6,103.4z"/>
	<circle id="a7a88a4d-66b2-4c09-a29b-e65e87e57a01" class="st1" cx="117.8" cy="89" r="4.8"/>
	<circle id="ecd091ab-fa27-42b2-b94f-bd1073aab054" class="st1" cx="136.2" cy="89" r="4.8"/>
	<circle id="a332723e-32dc-4e13-8ae5-d2643a7feb7f" class="st1" cx="154.5" cy="89" r="4.8"/>
	<path id="Trazado_1131" class="st1" d="M691.6,85.6h-21.1c-0.9,0-1.6-0.7-1.6-1.6s0.7-1.6,1.6-1.6h21.1c0.9,0,1.6,0.7,1.6,1.6
		S692.4,85.6,691.6,85.6z"/>
	<path id="Trazado_1132" class="st1" d="M691.6,91.5h-21.1c-0.9,0-1.6-0.7-1.6-1.6s0.7-1.6,1.6-1.6h21.1c0.9,0,1.6,0.7,1.6,1.6
		S692.4,91.5,691.6,91.5L691.6,91.5z"/>
	<path id="Trazado_1133" class="st1" d="M691.6,97.4h-21.1c-0.9,0-1.6-0.7-1.6-1.6s0.7-1.6,1.6-1.6h21.1c0.9,0,1.6,0.7,1.6,1.6
		S692.4,97.4,691.6,97.4z"/>
	<path id="Trazado_1134" class="st2" d="M271.4,474.7c2.2-18,13.4-35.7,30.5-41.6c-6.8,18.5-6.8,38.8,0,57.4
		c2.6,7.1,6.3,14.8,3.8,22c-1.5,4.5-5.4,7.9-9.5,10c-4.2,2.1-8.9,3.2-13.5,4.2l-0.9,0.8C274.5,510.8,269.2,492.7,271.4,474.7z"/>
	<path id="Trazado_1135" class="st1" d="M302.2,433.4c-10,11.2-16.2,25.3-17.8,40.2c-0.4,3.2-0.3,6.5,0.3,9.6
		c0.7,3.1,2.2,5.9,4.4,8.2c2,2.2,4.3,4.2,5.7,6.8c1.4,2.7,1.6,5.9,0.5,8.8c-1.3,3.6-3.7,6.5-6.2,9.3c-2.8,3.1-5.7,6.2-6.9,10.3
		c-0.1,0.5-0.9,0.2-0.8-0.3c2.1-7.1,8.9-11.1,12.2-17.5c1.5-3,2.2-6.4,0.8-9.6c-1.3-2.8-3.6-4.8-5.6-7c-2.1-2.2-3.7-4.9-4.6-7.8
		c-0.8-3.1-1-6.4-0.7-9.6c0.6-7.2,2.3-14.3,5.1-21c3.1-7.7,7.6-14.8,13.1-20.9C302,432.4,302.5,433.1,302.2,433.4L302.2,433.4z"/>
	<path id="Trazado_1136" class="st1" d="M284.6,468.8c-5.1-1.2-8.6-6-8.2-11.2c0-0.2,0.2-0.4,0.4-0.4c0,0,0,0,0,0
		c0.2,0,0.4,0.2,0.4,0.4c-0.4,4.9,2.9,9.3,7.6,10.4C285.4,468.1,285.1,468.9,284.6,468.8z"/>
	<path id="Trazado_1137" class="st1" d="M288,490.4c4.5-2.7,7.8-6.9,9.2-11.9c0.1-0.5,0.9-0.2,0.8,0.3c-1.5,5.2-5,9.6-9.6,12.3
		C287.9,491.4,287.6,490.7,288,490.4z"/>
	<path id="Trazado_1138" class="st1" d="M292.4,446.8c1.8,0.9,4,0.8,5.7-0.3c0.4-0.3,0.8,0.4,0.4,0.7c-1.9,1.2-4.3,1.3-6.4,0.3
		c-0.2-0.1-0.3-0.3-0.3-0.5C292,446.9,292.2,446.8,292.4,446.8L292.4,446.8z"/>
	<path id="Trazado_1139" class="st2" d="M354.3,465.2l-0.8,0.5c-3.6,2.4-7,5-10.2,8l-0.8,0.7c-7.6,7.1-13.8,15.6-18.3,25
		c-1.8,3.7-3.3,7.6-4.5,11.6c-1.7,5.5-3,11.6-6.3,16.1c-0.3,0.5-0.7,0.9-1.1,1.4h-29.6l-0.2-0.1l-1.2,0.1c0-0.2,0.1-0.4,0.2-0.6
		s0.1-0.2,0.1-0.4s0-0.2,0.1-0.2v-0.1c0-0.1,0-0.1,0-0.2c0.3-1.2,0.6-2.4,0.9-3.6l0,0c2.3-9.2,5.7-18.1,10.1-26.6
		c0.1-0.3,0.3-0.5,0.4-0.8c2-3.7,4.4-7.3,7-10.6c1.4-1.8,3-3.6,4.6-5.3c4.2-4.3,9-7.9,14.4-10.8c10.6-5.6,22.9-7.7,34.2-4.3
		L354.3,465.2z"/>
	<path id="Trazado_1140" class="st1" d="M354.2,465.6c-14.7,2.9-28.1,10.4-38.4,21.4c-2.2,2.3-4.1,5-5.5,7.9c-1.3,2.9-1.8,6-1.4,9.2
		c0.3,2.9,0.9,5.9,0.4,8.8c-0.5,3-2.3,5.7-4.9,7.4c-3.2,2.1-6.9,3-10.5,3.7c-4.1,0.8-8.3,1.5-11.7,4.1c-0.4,0.3-0.9-0.4-0.5-0.7
		c5.9-4.4,13.8-3.5,20.3-6.6c3.1-1.5,5.6-3.8,6.4-7.2c0.7-3,0-6-0.3-9c-0.4-3,0-6.1,1.1-9c1.3-3,3-5.7,5.2-8.1
		c4.8-5.4,10.5-10.1,16.7-13.8c7.1-4.2,14.9-7.2,23-8.9C354.7,464.7,354.7,465.5,354.2,465.6L354.2,465.6z"/>
	<path id="Trazado_1141" class="st1" d="M318.9,483.3c-3.3-4.1-3.2-9.9,0.2-13.9c0.3-0.4,1,0.1,0.6,0.5c-3.2,3.7-3.3,9.1-0.2,12.9
		C319.9,483.2,319.3,483.7,318.9,483.3z"/>
	<path id="Trazado_1142" class="st1" d="M308.6,502.6c5.2,0.6,10.4-0.8,14.5-3.9c0.4-0.3,0.9,0.4,0.5,0.7c-4.4,3.2-9.8,4.7-15.1,4.1
		C307.9,503.4,308.1,502.5,308.6,502.6z"/>
	<path id="Trazado_1143" class="st1" d="M338.4,470.5c0.9,1.8,2.7,3,4.8,3.2c0.5,0.1,0.4,0.8-0.1,0.8c-2.2-0.2-4.2-1.6-5.3-3.6
		c-0.1-0.2-0.1-0.4,0.1-0.6C338,470.2,338.3,470.3,338.4,470.5L338.4,470.5z"/>
	<path id="Trazado_1144" class="st3" d="M297.4,216.2h-97.8c-6.3,0-11.4-5.1-11.4-11.4v-53.3c0-6.3,5.1-11.4,11.4-11.4h97.8
		c6.3,0,11.4,5.1,11.4,11.4v53.3C308.8,211.1,303.7,216.2,297.4,216.2z"/>
	<path id="Trazado_1145" class="st4" d="M446.7,216.2h-97.8c-6.3,0-11.4-5.1-11.4-11.4v-53.3c0-6.3,5.1-11.4,11.4-11.4h97.8
		c6.3,0,11.4,5.1,11.4,11.4v53.3C458.1,211.1,453,216.2,446.7,216.2z"/>
	<path id="Trazado_1146" class="st3" d="M596,216.2h-97.8c-6.3,0-11.4-5.1-11.4-11.4v-53.3c0-6.3,5.1-11.4,11.4-11.4H596
		c6.3,0,11.4,5.1,11.4,11.4v53.3C607.4,211.1,602.3,216.2,596,216.2z"/>
	<path id="Trazado_1147" class="st5" d="M297.4,334.9h-97.8c-6.3,0-11.4-5.1-11.4-11.4v-53.3c0-6.3,5.1-11.4,11.4-11.4h97.8
		c6.3,0,11.4,5.1,11.4,11.4v53.3C308.7,329.8,303.7,334.9,297.4,334.9z"/>
	<path id="Trazado_1148" class="st3" d="M446.7,334.9h-97.8c-6.3,0-11.4-5.1-11.4-11.4v-53.3c0-6.3,5.1-11.4,11.4-11.4h97.8
		c6.3,0,11.4,5.1,11.4,11.4v53.3C458.1,329.8,453,334.9,446.7,334.9z"/>
	<g id="aa405d94-515b-444f-88dd-2c52df39214d">
		<circle id="ede3a9f0-5e02-4455-ac7e-751a5f8c3692" class="st6" cx="453.6" cy="327.2" r="17.5"/>
		<path id="ba039ca8-d148-45ed-9781-bacb7304e881" class="st1" d="M460.8,325.8h-5.9v-6c0-0.8-0.6-1.4-1.4-1.4l0,0
			c-0.8,0-1.4,0.6-1.4,1.4l0,0l0,0v5.9h-5.9c-0.8,0-1.4,0.6-1.4,1.4l0,0c0,0.8,0.6,1.4,1.4,1.4h5.9v5.9c0,0.8,0.6,1.4,1.4,1.4
			c0,0,0,0,0,0l0,0c0.8,0,1.4-0.6,1.4-1.4l0,0v-5.9h5.9c0.8,0,1.4-0.6,1.4-1.4l0,0C462.2,326.4,461.6,325.8,460.8,325.8L460.8,325.8
			L460.8,325.8z"/>
	</g>
	<circle id="e4c91425-bc08-43ed-9b2d-9a6452dd6ab0" class="st6" cx="605.2" cy="211.6" r="17.5"/>
	<path id="b08e8960-896e-4763-a2dc-6c3da3e5d175" class="st1" d="M612.4,210.1h-5.9v-5.9c0-0.8-0.6-1.4-1.4-1.4l0,0
		c-0.8,0-1.4,0.6-1.4,1.4l0,0l0,0v5.9h-5.9c-0.8,0-1.4,0.6-1.4,1.4l0,0c0,0.8,0.6,1.4,1.4,1.4c0,0,0,0,0,0h5.9v5.9
		c0,0.8,0.6,1.4,1.4,1.4l0,0c0.8,0,1.4-0.6,1.4-1.4l0,0l0,0v-5.9h5.9c0.8,0,1.4-0.6,1.4-1.4v0l0,0
		C613.8,210.7,613.2,210.1,612.4,210.1C612.5,210.1,612.5,210.1,612.4,210.1L612.4,210.1L612.4,210.1z"/>
	<g id="b77ad267-181d-433f-b31f-af61e58bf4a6">
		<circle id="e8aef769-5476-47e9-8295-ae809767f9aa" class="st6" cx="304.3" cy="210.1" r="17.5"/>
		<path id="efbebd4e-dbd2-4103-8d2c-f0ca8346a3bf" class="st1" d="M311.5,208.6h-5.9v-5.9c0-0.8-0.6-1.4-1.4-1.4c0,0,0,0,0,0l0,0
			c-0.8,0-1.4,0.6-1.4,1.4v0l0,0v5.9h-5.9c-0.8,0-1.4,0.6-1.4,1.4l0,0c0,0.8,0.6,1.4,1.4,1.4h5.9v5.9c0,0.8,0.6,1.4,1.4,1.4
			c0,0,0,0,0,0l0,0c0.8,0,1.4-0.6,1.4-1.4v-5.9h5.9c0.8,0,1.4-0.6,1.4-1.4l0,0C312.9,209.2,312.3,208.6,311.5,208.6L311.5,208.6
			L311.5,208.6z"/>
	</g>
	<path id="Trazado_1149" class="st7" d="M435,186c1.2,3.6-0.8,7.6-4.4,8.8c-0.4,0.1-0.8,0.2-1.2,0.3l-8.1,55.1l-13.3-6.5l13.3-55.1
		c-0.3-3.8,2.7-7.2,6.5-7.4C431.1,181,434.1,182.9,435,186z"/>
	<path id="Trazado_1150" class="st7" d="M338.6,362.5c2.2-3.1,1.5-7.5-1.6-9.7c-0.3-0.2-0.7-0.4-1.1-0.6l5.4-58.6l-11.4,5.9
		l-3.6,56.5c-1.5,3.6,0.2,7.6,3.7,9.1C333.2,366.4,336.7,365.3,338.6,362.5z"/>
	<path id="Trazado_1151" class="st7" d="M346.4,332.9l48.9-1.9l2.8-50.9h-56.5L346.4,332.9z"/>
	<path id="Trazado_1152" class="st7" d="M337.3,512.5h8.4l4-32.3h-12.4L337.3,512.5z"/>
	<path id="Trazado_1153" class="st8" d="M335.2,508.4l13.2-0.8v5.7l12.6,8.7c1.6,1.1,2,3.3,0.9,4.9c-0.7,1-1.8,1.5-2.9,1.5h-15.8
		l-2.7-5.6l-1.1,5.6h-5.9L335.2,508.4z"/>
	<path id="Trazado_1154" class="st7" d="M374.5,512.5h8.4l4-32.3h-12.4V512.5z"/>
	<path id="Trazado_1155" class="st8" d="M345.7,320.9c0,0-14.7,11.8-6.7,54.1c-1.2,0.1,0.2,2.5,0.2,2.5l1.1,34.4l0.9,3.9l-2.9,6.4
		l1.2,6.9l-3.7,62.8l13.8,1.8l13.2-65.2l2.5-7.3l2.5-6.4l-1.4-6.8l1.1-10.6l7.6-35.9l1.9,62.2l-2.6,5.9l1.5,6.5l-3.2,3.5l-1.3,58.2
		l14.7,0.7l12.2-58.7l-0.9-7.5l1.6-5.5v-12.9l2.8-6.1l6.1-33.3c0,0,1.8-26-11.5-56.6L345.7,320.9z"/>
	<path id="Trazado_1156" class="st9" d="M351.7,237.9c0,0-18.5,3.7-21.7,19.4s-5.2,51.5-5.2,51.5l0.7,5l17.9,4.2l11.4-50
		L351.7,237.9z"/>
	<path id="Trazado_1157" class="st9" d="M393.9,243.2c0,0,1.9-2.6,12.4-3.1c0.4,0-0.1-0.9-0.1-0.9l5.1-24.7l16.8,9.3l-2.8,25.9
		l-27.7,31.5L393.9,243.2z"/>
	<path id="Trazado_1158" class="st9" d="M383.4,316.8c-7.9,0-19.9-0.9-37.8-3.5c-2.4-0.4-4.2-2.2-4.6-4.6c-1.2-1.3-1.5-3.2-0.7-4.7
		l0,0l-0.4-0.5c-1.3-1.5-1.4-3.7-0.3-5.4l-5.6-39.8c-1.2-8.2,3.8-15.9,11.7-18.4l2.1-0.6l7.8-10.2h0.2l24.9,0.3l8.1,10.3l13.1,3.1
		l0,0.2l3.1,17.5c1.6,9.1-2,12.7-6.7,20.7l1.4,22.5l0.6,1.1c0.7,1.3,0.4,2.9-0.7,3.8c0.4,1.2,0.4,2.5,0.1,3.6l-0.3,1.1
		c0,0-0.1,0.5-0.8,1C397.2,315.4,393.6,316.8,383.4,316.8z"/>
	<path id="Trazado_1159" class="st8" d="M372.4,508.4l13.2-0.8v5.7l12.6,8.7c1.6,1.1,2,3.3,0.9,4.9c-0.7,1-1.8,1.5-2.9,1.5h-15.8
		l-2.7-5.6l-1.1,5.6h-5.9L372.4,508.4z"/>
	<circle id="Elipse_188" class="st7" cx="367" cy="203.8" r="19.5"/>
	<path id="Trazado_1160" class="st8" d="M378.5,184.7c-7.2-4.9-13.5-5.7-18.7-4.3c-0.7-1-1.6-1.9-2.7-2.4
		c-4-10.2-16.3-16.3-26.9-13.3s-18,14.8-16,25.6c1.2,6.7,5.5,12.6,7.2,19.2c3.3,12.8-4.7,27.5-17.3,31.7c11.9,2.4,25-4.9,29.3-16.3
		c2.1-5.5,2.2-11.6,2.5-17.5c0.1-4.1,0.6-8.1,1.5-12.1c0.5-1.8,1.1-3.5,1.9-5.1c1.8-3.6,4.8-6.5,8.4-8.2c-0.7,2.1-0.3,4.3,1,6
		c-2.8,3.5-4.3,7.3-4.3,9.6c-5.8,10.6,2.5,19.7,13.1,25.5c4.2,2.3,9.1,3.2,13.9,2.4l0.4-1.9l0.6,1.7l2,5.7c2.3,1.1,4.6,2.3,6.9,3.7
		c-0.9-4.1-1.5-8.1-2-12.1c-0.7-5.4,1.7-13.4,3.3-18.3c1-3,1.6-6.2,1.6-9.4v-0.1l1.6,5.2l5.9-2.5
		C390.6,191.3,391.7,184.1,378.5,184.7z"/>
	<path id="Trazado_1161" class="st10" d="M622.7,529.4H188.3c-0.5,0-0.9-0.4-0.9-0.9c0-0.5,0.4-0.9,0.9-0.9h434.4
		c0.5,0,0.9,0.4,0.9,0.9C623.6,529,623.2,529.4,622.7,529.4z"/>
	<circle id="e4c91425-bc08-43ed-9b2d-9a6452dd6ab0-2" class="st3" cx="302.3" cy="329.5" r="17.5"/>
	<path id="Trazado_1162" class="st5" d="M565.1,319.5h-61.3c-3.9,0-7.1-3.2-7.1-7.1l0,0V279c0-3.9,3.2-7.1,7.1-7.1h61.3
		c3.9,0,7.1,3.2,7.1,7.1v33.4C572.2,316.3,569,319.5,565.1,319.5z"/>
	<g id="bc9af32e-f7cd-4c85-a4cc-5543d455b8de">
		<circle id="b56288f5-6382-4006-aaf1-aded98dde780" class="st6" cx="566" cy="296.7" r="9.3"/>
		<path id="b9aaef6b-2cfc-46ac-8dc0-30fdc28925de" class="st1" d="M569.8,295.9h-3.2v-3.2c0-0.4-0.3-0.8-0.8-0.8l0,0
			c-0.4,0-0.8,0.3-0.8,0.8v3.2H562c-0.4,0-0.8,0.3-0.8,0.8l0,0c0,0.4,0.3,0.8,0.8,0.8h3.2v3.2c0,0.4,0.3,0.8,0.8,0.8l0,0
			c0.4,0,0.8-0.3,0.8-0.8v-3.2h3.2c0.4,0,0.8-0.3,0.8-0.8l0,0C570.6,296.2,570.3,295.9,569.8,295.9z"/>
	</g>
	<path id="Trazado_1163" class="st6" d="M590,310h-50.5c-4.5,0-8.1-3.6-8.1-8.1v-30.1c0.2-0.8,1-1.3,1.8-1.2c0.6,0.1,1,0.6,1.2,1.2
		v8.1l58.6,5.4c2.4,0,4.4,2,4.4,4.5c0,0.1,0,0.2,0,0.3l-3,15.8C594.5,308.2,592.5,310.1,590,310L590,310z M534.5,282.9v19.1
		c0,2.8,2.3,5.1,5.1,5.1H590c0.8,0,1.5-0.7,1.5-1.5c0-0.1,0-0.2,0-0.3l3-15.7c-0.1-0.8-0.7-1.4-1.5-1.4h-0.1L534.5,282.9z"/>
	<circle id="Elipse_189" class="st6" cx="526.1" cy="321.4" r="2.5"/>
	<circle id="Elipse_190" class="st6" cx="588.1" cy="321.4" r="2.5"/>
	<path id="Trazado_1164" class="st6" d="M590.6,319h-66.4c-0.8,0.1-1.5-0.6-1.6-1.4s0.6-1.5,1.4-1.6c0.1,0,0.1,0,0.2,0h66.4
		c0.8,0.1,1.4,0.8,1.4,1.6C591.9,318.3,591.3,318.9,590.6,319z"/>
	<path id="Trazado_1165" class="st6" d="M536.9,272.8H524c-0.8,0-1.5-0.7-1.5-1.5c0-0.8,0.7-1.5,1.5-1.5h12.9c0.8,0,1.5,0.7,1.5,1.5
		C538.4,272.1,537.8,272.8,536.9,272.8z"/>
	<path id="Trazado_1166" class="st6" d="M547.3,318.2c-0.4,0-0.7-0.1-1-0.4l-9.8-8.4c-0.7-0.5-0.8-1.4-0.3-2.1
		c0.5-0.7,1.4-0.8,2.1-0.3c0,0,0.1,0.1,0.1,0.1l0,0l9.8,8.4c0.6,0.5,0.7,1.5,0.2,2.1C548.2,318,547.7,318.2,547.3,318.2L547.3,318.2
		z"/>
	<path id="Trazado_1167" class="st6" d="M549.4,309.1c-0.8,0-1.5-0.7-1.5-1.5l0,0v-23.9c0.1-0.8,0.8-1.4,1.6-1.4
		c0.7,0.1,1.3,0.6,1.4,1.4l0,0v23.9C550.8,308.4,550.2,309.1,549.4,309.1L549.4,309.1z"/>
	<path id="Trazado_1168" class="st6" d="M580.8,309.1c-0.8,0-1.5-0.7-1.5-1.5v-21.9c-0.1-0.8,0.6-1.5,1.4-1.6
		c0.8-0.1,1.5,0.6,1.6,1.4c0,0.1,0,0.1,0,0.2v21.9C582.3,308.5,581.6,309.1,580.8,309.1L580.8,309.1L580.8,309.1L580.8,309.1z"/>
</g>
</svg>
