<?xml version="1.0" encoding="utf-8"?>
<!-- Generator: Adobe Illustrator 24.1.2, SVG Export Plug-In . SVG Version: 6.00 Build 0)  -->
<svg version="1.1" id="Capa_1" xmlns="http://www.w3.org/2000/svg" xmlns:xlink="http://www.w3.org/1999/xlink" x="0px" y="0px"
	 viewBox="0 0 1031.1 776.1" style="enable-background:new 0 0 1031.1 776.1;" xml:space="preserve">
<style type="text/css">
	.st0{fill:#E4E4E4;}
	.st1{fill:#FFFFFF;}
	.st2{fill:#F0F0F0;}
	.st3{fill:#E6E6E6;}
	.st4{fill:#B8D3CE;}
	.st5{fill:#F2F2F2;}
	.st6{fill:#8CB4F4;}
	.st7{fill:#9E616A;}
	.st8{fill:#2F2E41;}
	.st9{fill:#3F3D56;}
	.st10{fill:#CCCCCC;}
</style>
<g id="Grupo_514">
	<path id="Trazado_1130" class="st0" d="M896.3,138.1H134.8c-2.4,0-4.3-1.9-4.3-4.3l0,0v-25c0-2.4,1.9-4.3,4.3-4.3l0,0h761.5
		c2.4,0,4.3,1.9,4.3,4.3v25C900.5,136.1,898.7,138.1,896.3,138.1L896.3,138.1z"/>
	<circle id="a7a88a4d-66b2-4c09-a29b-e65e87e57a01" class="st1" cx="155.2" cy="120.1" r="6"/>
	<circle id="ecd091ab-fa27-42b2-b94f-bd1073aab054" class="st1" cx="178.3" cy="120.1" r="6"/>
	<circle id="a332723e-32dc-4e13-8ae5-d2643a7feb7f" class="st1" cx="201.2" cy="120.1" r="6"/>
	<path id="Trazado_1131" class="st1" d="M873.7,115.8h-26.4c-1.1,0-2-0.9-2-2s0.9-2,2-2h26.4c1.1,0,2,0.9,2,2
		S874.7,115.8,873.7,115.8z"/>
	<path id="Trazado_1132" class="st1" d="M873.7,123.2h-26.4c-1.1,0-2-0.9-2-2s0.9-2,2-2h26.4c1.1,0,2,0.9,2,2
		S874.7,123.2,873.7,123.2L873.7,123.2z"/>
	<path id="Trazado_1133" class="st1" d="M873.7,130.6h-26.4c-1.1,0-2-0.9-2-2c0-1.1,0.9-2,2-2h26.4c1.1,0,2,0.9,2,2
		C875.7,129.7,874.7,130.6,873.7,130.6z"/>
	<path id="Trazado_1134" class="st2" d="M347.6,603.1c2.8-22.5,16.8-44.7,38.2-52.1c-8.5,23.2-8.5,48.6,0,71.9
		c3.3,8.9,7.9,18.5,4.8,27.5c-1.9,5.6-6.8,9.9-11.9,12.5c-5.3,2.6-11.1,4-16.9,5.3l-1.1,1C351.4,648.3,344.8,625.6,347.6,603.1z"/>
	<path id="Trazado_1135" class="st1" d="M386.1,551.3c-12.5,14-20.3,31.7-22.3,50.3c-0.5,4-0.4,8.1,0.4,12c0.9,3.9,2.8,7.4,5.5,10.3
		c2.5,2.8,5.4,5.3,7.1,8.5c1.8,3.4,2,7.4,0.6,11c-1.6,4.5-4.6,8.1-7.8,11.6c-3.5,3.9-7.1,7.8-8.6,12.9c-0.1,0.6-1.1,0.3-1-0.4
		c2.6-8.9,11.1-13.9,15.3-21.9c1.9-3.8,2.8-8,1-12c-1.6-3.5-4.5-6-7-8.8c-2.6-2.8-4.6-6.1-5.8-9.8c-1-3.9-1.3-8-0.9-12
		c0.8-9,2.9-17.9,6.4-26.3c3.9-9.6,9.5-18.5,16.4-26.2C385.9,550.1,386.5,551,386.1,551.3L386.1,551.3z"/>
	<path id="Trazado_1136" class="st1" d="M364.1,595.7c-6.4-1.5-10.8-7.5-10.3-14c0-0.3,0.3-0.5,0.5-0.5l0,0c0.3,0,0.5,0.3,0.5,0.5
		c-0.5,6.1,3.6,11.6,9.5,13C365.1,594.8,364.7,595.8,364.1,595.7z"/>
	<path id="Trazado_1137" class="st1" d="M368.4,622.7c5.6-3.4,9.8-8.6,11.5-14.9c0.1-0.6,1.1-0.3,1,0.4c-1.9,6.5-6.3,12-12,15.4
		C368.2,624,367.9,623.1,368.4,622.7z"/>
	<path id="Trazado_1138" class="st1" d="M373.9,568.1c2.3,1.1,5,1,7.1-0.4c0.5-0.4,1,0.5,0.5,0.9c-2.4,1.5-5.4,1.6-8,0.4
		c-0.3-0.1-0.4-0.4-0.4-0.6C373.4,568.2,373.6,568.1,373.9,568.1L373.9,568.1z"/>
	<path id="Trazado_1139" class="st2" d="M451.4,591.2l-1,0.6c-4.5,3-8.8,6.3-12.8,10l-1,0.9c-9.5,8.9-17.3,19.5-22.9,31.3
		c-2.3,4.6-4.1,9.5-5.6,14.5c-2.1,6.9-3.8,14.5-7.9,20.2c-0.4,0.6-0.9,1.1-1.4,1.8h-37.1l-0.3-0.1l-1.5,0.1c0-0.3,0.1-0.5,0.3-0.8
		c0.1-0.3,0.1-0.3,0.1-0.5c0-0.3,0-0.3,0.1-0.3v-0.1c0-0.1,0-0.1,0-0.3c0.4-1.5,0.8-3,1.1-4.5l0,0c2.9-11.5,7.1-22.7,12.6-33.3
		c0.1-0.4,0.4-0.6,0.5-1c2.5-4.6,5.5-9.1,8.8-13.3c1.8-2.3,3.8-4.5,5.8-6.6c5.3-5.4,11.3-9.9,18-13.5c13.3-7,28.7-9.6,42.8-5.4
		L451.4,591.2z"/>
	<path id="Trazado_1140" class="st1" d="M451.2,591.7c-18.4,3.6-35.2,13-48.1,26.8c-2.8,2.9-5.1,6.3-6.9,9.9
		c-1.6,3.6-2.3,7.5-1.8,11.5c0.4,3.6,1.1,7.4,0.5,11c-0.6,3.8-2.9,7.1-6.1,9.3c-4,2.6-8.6,3.8-13.1,4.6c-5.1,1-10.4,1.9-14.7,5.1
		c-0.5,0.4-1.1-0.5-0.6-0.9c7.4-5.5,17.3-4.4,25.4-8.3c3.9-1.9,7-4.8,8-9c0.9-3.8,0-7.5-0.4-11.3c-0.5-3.8,0-7.6,1.4-11.3
		c1.6-3.8,3.8-7.1,6.5-10.1c6-6.8,13.1-12.6,20.9-17.3c8.9-5.3,18.7-9,28.8-11.1C451.9,590.5,451.9,591.5,451.2,591.7L451.2,591.7z"
		/>
	<path id="Trazado_1141" class="st1" d="M407,613.8c-4.1-5.1-4-12.4,0.3-17.4c0.4-0.5,1.3,0.1,0.8,0.6c-4,4.6-4.1,11.4-0.3,16.2
		C408.3,613.7,407.5,614.3,407,613.8z"/>
	<path id="Trazado_1142" class="st1" d="M394.1,638c6.5,0.8,13-1,18.2-4.9c0.5-0.4,1.1,0.5,0.6,0.9c-5.5,4-12.3,5.9-18.9,5.1
		C393.3,639,393.5,637.9,394.1,638z"/>
	<path id="Trazado_1143" class="st1" d="M431.5,597.8c1.1,2.3,3.4,3.8,6,4c0.6,0.1,0.5,1-0.1,1c-2.8-0.3-5.3-2-6.6-4.5
		c-0.1-0.3-0.1-0.5,0.1-0.8C431,597.4,431.3,597.5,431.5,597.8L431.5,597.8z"/>
	<path id="Trazado_1144" class="st3" d="M380.1,279.4H257.7c-7.9,0-14.3-6.4-14.3-14.3v-66.7c0-7.9,6.4-14.3,14.3-14.3h122.5
		c7.9,0,14.3,6.4,14.3,14.3v66.7C394.4,273,388,279.4,380.1,279.4z"/>
	<path id="Trazado_1145" class="st4" d="M567.1,279.4H444.6c-7.9,0-14.3-6.4-14.3-14.3v-66.7c0-7.9,6.4-14.3,14.3-14.3h122.5
		c7.9,0,14.3,6.4,14.3,14.3v66.7C581.4,273,575,279.4,567.1,279.4z"/>
	<path id="Trazado_1146" class="st3" d="M754,279.4H631.6c-7.9,0-14.3-6.4-14.3-14.3v-66.7c0-7.9,6.4-14.3,14.3-14.3H754
		c7.9,0,14.3,6.4,14.3,14.3v66.7C768.3,273,761.9,279.4,754,279.4z"/>
	<path id="Trazado_1147" class="st5" d="M380.1,428H257.7c-7.9,0-14.3-6.4-14.3-14.3V347c0-7.9,6.4-14.3,14.3-14.3h122.5
		c7.9,0,14.3,6.4,14.3,14.3v66.7C394.3,421.6,388,428,380.1,428z"/>
	<path id="Trazado_1148" class="st3" d="M567.1,428H444.6c-7.9,0-14.3-6.4-14.3-14.3V347c0-7.9,6.4-14.3,14.3-14.3h122.5
		c7.9,0,14.3,6.4,14.3,14.3v66.7C581.4,421.6,575,428,567.1,428z"/>
	<g id="aa405d94-515b-444f-88dd-2c52df39214d">
		<circle id="ede3a9f0-5e02-4455-ac7e-751a5f8c3692" class="st6" cx="575.7" cy="418.4" r="21.9"/>
		<path id="ba039ca8-d148-45ed-9781-bacb7304e881" class="st1" d="M584.7,416.6h-7.4v-7.5c0-1-0.8-1.8-1.8-1.8l0,0
			c-1,0-1.8,0.8-1.8,1.8l0,0l0,0v7.4h-7.4c-1,0-1.8,0.8-1.8,1.8l0,0c0,1,0.8,1.8,1.8,1.8h7.4v7.4c0,1,0.8,1.8,1.8,1.8l0,0l0,0
			c1,0,1.8-0.8,1.8-1.8l0,0V420h7.4c1,0,1.8-0.8,1.8-1.8l0,0C586.5,417.4,585.7,416.6,584.7,416.6L584.7,416.6L584.7,416.6z"/>
	</g>
	<circle id="e4c91425-bc08-43ed-9b2d-9a6452dd6ab0" class="st6" cx="765.6" cy="273.6" r="21.9"/>
	<path id="b08e8960-896e-4763-a2dc-6c3da3e5d175" class="st1" d="M774.6,271.7h-7.4v-7.4c0-1-0.8-1.8-1.8-1.8l0,0
		c-1,0-1.8,0.8-1.8,1.8l0,0l0,0v7.4h-7.4c-1,0-1.8,0.8-1.8,1.8l0,0c0,1,0.8,1.8,1.8,1.8l0,0h7.4v7.4c0,1,0.8,1.8,1.8,1.8l0,0
		c1,0,1.8-0.8,1.8-1.8l0,0l0,0v-7.4h7.4c1,0,1.8-0.8,1.8-1.8l0,0l0,0C776.3,272.5,775.6,271.7,774.6,271.7
		C774.7,271.7,774.7,271.7,774.6,271.7L774.6,271.7L774.6,271.7z"/>
	<g id="b77ad267-181d-433f-b31f-af61e58bf4a6">
		<circle id="e8aef769-5476-47e9-8295-ae809767f9aa" class="st6" cx="388.8" cy="271.7" r="21.9"/>
		<path id="efbebd4e-dbd2-4103-8d2c-f0ca8346a3bf" class="st1" d="M397.8,269.8h-7.4v-7.4c0-1-0.8-1.8-1.8-1.8l0,0l0,0
			c-1,0-1.8,0.8-1.8,1.8l0,0l0,0v7.4h-7.4c-1,0-1.8,0.8-1.8,1.8l0,0c0,1,0.8,1.8,1.8,1.8h7.4v7.4c0,1,0.8,1.8,1.8,1.8l0,0l0,0
			c1,0,1.8-0.8,1.8-1.8v-7.4h7.4c1,0,1.8-0.8,1.8-1.8l0,0C399.5,270.6,398.8,269.8,397.8,269.8L397.8,269.8L397.8,269.8z"/>
	</g>
	<path id="Trazado_1149" class="st7" d="M552.4,241.5c1.5,4.5-1,9.5-5.5,11c-0.5,0.1-1,0.3-1.5,0.4l-10.1,69l-16.7-8.1l16.7-69
		c-0.4-4.8,3.4-9,8.1-9.3C547.5,235.3,551.3,237.7,552.4,241.5z"/>
	<path id="Trazado_1150" class="st7" d="M431.7,462.6c2.8-3.9,1.9-9.4-2-12.1c-0.4-0.3-0.9-0.5-1.4-0.8l6.8-73.4l-14.3,7.4
		l-4.5,70.7c-1.9,4.5,0.3,9.5,4.6,11.4C425,467.4,429.3,466.1,431.7,462.6z"/>
	<path id="Trazado_1151" class="st7" d="M441.5,425.5l61.2-2.4l3.5-63.7h-70.7L441.5,425.5z"/>
	<path id="Trazado_1152" class="st7" d="M430.1,650.4h10.5l5-40.4h-15.5V650.4z"/>
	<path id="Trazado_1153" class="st8" d="M427.5,645.3l16.5-1v7.1l15.8,10.9c2,1.4,2.5,4.1,1.1,6.1c-0.9,1.3-2.3,1.9-3.6,1.9h-19.8
		l-3.4-7l-1.4,7h-7.4L427.5,645.3z"/>
	<path id="Trazado_1154" class="st7" d="M476.7,650.4h10.5l5-40.4h-15.5V650.4z"/>
	<path id="Trazado_1155" class="st8" d="M440.6,410.5c0,0-18.4,14.8-8.4,67.7c-1.5,0.1,0.3,3.1,0.3,3.1l1.4,43.1l1.1,4.9l-3.6,8
		l1.5,8.6l-4.6,78.6l17.3,2.3l16.5-81.6l3.1-9.1l3.1-8l-1.8-8.5l1.4-13.3l9.5-45l2.4,77.9l-3.3,7.4l1.9,8.1l-4,4.4l-1.6,72.9
		l18.4,0.9l15.3-73.5l-1.1-9.4l2-6.9v-16.2l3.5-7.6l7.6-41.7c0,0,2.3-32.6-14.4-70.9L440.6,410.5z"/>
	<path id="Trazado_1156" class="st9" d="M448.1,306.5c0,0-23.2,4.6-27.2,24.3c-4,19.7-6.5,64.5-6.5,64.5l0.9,6.3l22.4,5.3l14.3-62.6
		L448.1,306.5z"/>
	<path id="Trazado_1157" class="st9" d="M501,313.2c0,0,2.4-3.3,15.5-3.9c0.5,0-0.1-1.1-0.1-1.1l6.4-30.9l21,11.6l-3.5,32.4
		l-34.7,39.4L501,313.2z"/>
	<path id="Trazado_1158" class="st9" d="M487.8,405.3c-9.9,0-24.9-1.1-47.3-4.4c-3-0.5-5.3-2.8-5.8-5.8c-1.5-1.6-1.9-4-0.9-5.9l0,0
		l-0.5-0.6c-1.6-1.9-1.8-4.6-0.4-6.8l-7-49.8c-1.5-10.3,4.8-19.9,14.7-23l2.6-0.8l9.8-12.8h0.3l31.2,0.4l10.1,12.9l16.4,3.9v0.3
		l3.9,21.9c2,11.4-2.5,15.9-8.4,25.9l1.8,28.2l0.8,1.4c0.9,1.6,0.5,3.6-0.9,4.8c0.5,1.5,0.5,3.1,0.1,4.5l-0.4,1.4c0,0-0.1,0.6-1,1.3
		C505.1,403.6,500.6,405.3,487.8,405.3z"/>
	<path id="Trazado_1159" class="st8" d="M474,645.3l16.5-1v7.1l15.8,10.9c2,1.4,2.5,4.1,1.1,6.1c-0.9,1.3-2.3,1.9-3.6,1.9h-19.8
		l-3.4-7l-1.4,7h-7.4L474,645.3z"/>
	<circle id="Elipse_188" class="st7" cx="467.3" cy="263.8" r="24.4"/>
	<path id="Trazado_1160" class="st8" d="M481.7,239.9c-9-6.1-16.9-7.1-23.4-5.4c-0.9-1.3-2-2.4-3.4-3c-5-12.8-20.4-20.4-33.7-16.7
		c-13.3,3.8-22.5,18.5-20,32.1c1.5,8.4,6.9,15.8,9,24c4.1,16-5.9,34.4-21.7,39.7c14.9,3,31.3-6.1,36.7-20.4
		c2.6-6.9,2.8-14.5,3.1-21.9c0.1-5.1,0.8-10.1,1.9-15.2c0.6-2.3,1.4-4.4,2.4-6.4c2.3-4.5,6-8.1,10.5-10.3c-0.9,2.6-0.4,5.4,1.3,7.5
		c-3.5,4.4-5.4,9.1-5.4,12c-7.3,13.3,3.1,24.7,16.4,31.9c5.3,2.9,11.4,4,17.4,3l0.5-2.4l0.8,2.1l2.5,7.1c2.9,1.4,5.8,2.9,8.6,4.6
		c-1.1-5.1-1.9-10.1-2.5-15.2c-0.9-6.8,2.1-16.8,4.1-22.9c1.3-3.8,2-7.8,2-11.8v-0.1l2,6.5l7.4-3.1
		C496.8,248.2,498.2,239.2,481.7,239.9z"/>
	<path id="Trazado_1161" class="st10" d="M787.5,671.5h-544c-0.6,0-1.1-0.5-1.1-1.1s0.5-1.1,1.1-1.1h544c0.6,0,1.1,0.5,1.1,1.1
		C788.6,671,788.1,671.5,787.5,671.5z"/>
	<circle id="e4c91425-bc08-43ed-9b2d-9a6452dd6ab0-2" class="st3" cx="386.3" cy="421.2" r="21.9"/>
	<path id="Trazado_1162" class="st5" d="M715.3,408.7h-76.8c-4.9,0-8.9-4-8.9-8.9l0,0V358c0-4.9,4-8.9,8.9-8.9h76.8
		c4.9,0,8.9,4,8.9,8.9v41.8C724.2,404.7,720.2,408.7,715.3,408.7z"/>
	<g id="bc9af32e-f7cd-4c85-a4cc-5543d455b8de">
		<circle id="b56288f5-6382-4006-aaf1-aded98dde780" class="st6" cx="716.5" cy="380.2" r="11.6"/>
		<path id="b9aaef6b-2cfc-46ac-8dc0-30fdc28925de" class="st1" d="M721.2,379.2h-4v-4c0-0.5-0.4-1-1-1l0,0c-0.5,0-1,0.4-1,1v4h-3.8
			c-0.5,0-1,0.4-1,1l0,0c0,0.5,0.4,1,1,1h4v4c0,0.5,0.4,1,1,1l0,0c0.5,0,1-0.4,1-1v-4h4c0.5,0,1-0.4,1-1l0,0
			C722.2,379.5,721.9,379.2,721.2,379.2z"/>
	</g>
	<path id="Trazado_1163" class="st6" d="M746.5,396.8h-63.2c-5.6,0-10.1-4.5-10.1-10.1V349c0.3-1,1.3-1.6,2.3-1.5
		c0.8,0.1,1.3,0.8,1.5,1.5v10.1l73.4,6.8c3,0,5.5,2.5,5.5,5.6c0,0.1,0,0.3,0,0.4l-3.8,19.8C752.2,394.6,749.7,396.9,746.5,396.8
		L746.5,396.8z M677,362.9v23.9c0,3.5,2.9,6.4,6.4,6.4h63.1c1,0,1.9-0.9,1.9-1.9c0-0.1,0-0.3,0-0.4l3.8-19.7c-0.1-1-0.9-1.8-1.9-1.8
		h-0.1L677,362.9z"/>
	<circle id="Elipse_189" class="st6" cx="666.5" cy="411.1" r="3.1"/>
	<circle id="Elipse_190" class="st6" cx="744.1" cy="411.1" r="3.1"/>
	<path id="Trazado_1164" class="st6" d="M747.3,408.1h-83.1c-1,0.1-1.9-0.8-2-1.8c-0.1-1,0.8-1.9,1.8-2c0.1,0,0.1,0,0.3,0h83.1
		c1,0.1,1.8,1,1.8,2C748.9,407.2,748.1,408,747.3,408.1z"/>
	<path id="Trazado_1165" class="st6" d="M680,350.2h-16.2c-1,0-1.9-0.9-1.9-1.9c0-1,0.9-1.9,1.9-1.9H680c1,0,1.9,0.9,1.9,1.9
		C681.9,349.4,681.2,350.2,680,350.2z"/>
	<path id="Trazado_1166" class="st6" d="M693.1,407.1c-0.5,0-0.9-0.1-1.3-0.5l-12.3-10.5c-0.9-0.6-1-1.8-0.4-2.6s1.8-1,2.6-0.4
		l0.1,0.1l0,0l12.3,10.5c0.8,0.6,0.9,1.9,0.3,2.6C694.2,406.8,693.6,407.1,693.1,407.1L693.1,407.1z"/>
	<path id="Trazado_1167" class="st6" d="M695.7,395.7c-1,0-1.9-0.9-1.9-1.9l0,0v-29.9c0.1-1,1-1.8,2-1.8c0.9,0.1,1.6,0.8,1.8,1.8
		l0,0v29.9C697.4,394.8,696.7,395.7,695.7,395.7L695.7,395.7z"/>
	<path id="Trazado_1168" class="st6" d="M735,395.7c-1,0-1.9-0.9-1.9-1.9v-27.4c-0.1-1,0.8-1.9,1.8-2c1-0.1,1.9,0.8,2,1.8
		c0,0.1,0,0.1,0,0.3v27.4C736.9,394.9,736,395.7,735,395.7L735,395.7L735,395.7L735,395.7z"/>
</g>
</svg>
