<?xml version="1.0" encoding="utf-8"?>
<!-- Generator: Adobe Illustrator 24.1.2, SVG Export Plug-In . SVG Version: 6.00 Build 0)  -->
<svg version="1.1" id="Capa_1" xmlns="http://www.w3.org/2000/svg" xmlns:xlink="http://www.w3.org/1999/xlink" x="0px" y="0px"
	 viewBox="0 0 811 737" style="enable-background:new 0 0 811 737;" xml:space="preserve">
<style type="text/css">
	.st0{fill:#B8D3CE;}
	.st1{fill:#525353;}
	.st2{fill:#AA9678;}
	.st3{fill:#C4B6A1;}
	.st4{fill:#FFFFFF;}
	.st5{fill:#676A6A;}
	.st6{fill:#909393;}
	.st7{fill:#BBBCBD;}
	.st8{fill:#E3DDDB;}
	.st9{fill:#FCB03F;}
	.st10{fill:#9F2254;}
	.st11{fill:#DF0067;}
	.st12{fill:#8B7460;}
</style>
<path id="Trazado_1180" class="st0" d="M300.9,527.5c4.8-2.1,9.6-4.1,14.4-5.9c5.5-2.1,11-4,16.6-5.7c7-2.1,14-4,21.1-5.5
	c9.6-2,19.3-3.5,29.1-4.5c-5.5,17.4-11.6,34.5-18.2,51.5c0.3,3.3,0.4,6.6,0.5,10c27.1-5.4,54.9-5.4,82,0c0.1-3.3,0.2-6.6,0.5-10
	c-6.6-17-12.6-34.1-18.1-51.5c9.8,1,19.5,2.5,29.1,4.5c7.1,1.5,14.2,3.4,21.1,5.5c5.6,1.7,11.1,3.6,16.6,5.7
	c4.9,1.8,9.7,3.8,14.4,5.9c34.3,15.3,64.9,37.9,89.7,66.2C663,539.1,703,458.5,703,368.5C703,204.2,569.8,71,405.5,71
	S108,204.2,108,368.5c0,90,40,170.6,103.2,225.2C235.9,565.4,266.5,542.8,300.9,527.5"/>
<path id="Trazado_1181" class="st1" d="M510.1,527.5l18.5,63.5l5.2,0.2c3.4,0,5.8,0.9,5.8,4.3c0,5.7,0.3,12,0.8,17.6
	c4.6,3.9,10.2,8.3,14.5,12.6c15.9-9.3,30.9-20,44.9-32C575.1,565.4,544.5,542.8,510.1,527.5 M474,526.9l21.7-5.3
	c-5.5-2.1-11-4-16.6-5.7c-7-2.1-14-4-21.1-5.5c-9.6-2-19.3-3.5-29.1-4.5c5.5,17.4,11.6,34.5,18.1,51.5c-0.3,3.3-0.4,6.6-0.5,10
	c15.4,3,30.5,8.3,44.4,14.5L474,526.9"/>
<path id="Trazado_1182" d="M256.1,625.7c3.5,2,6.9,4,10.5,5.9c1.2-6,3.2-14.2,3.8-20.4C265.8,615.1,260.3,621.4,256.1,625.7
	 M490.5,581.3c-14.1-6.3-28.9-10.9-44.1-13.9c-27.1-5.4-54.9-5.4-82,0c-15.4,3-31.4,7.6-45.4,13.8l-1.5,9.3h175.6L490.5,581.3"/>
<path id="Trazado_1183" class="st1" d="M269.9,613c0.6-5.4,0.9-10.8,0.9-16.1c0-3.4,2.3-5.6,5.7-5.6l5.6-0.2l18.8-63.5
	c-34.3,15.3-64.9,37.9-89.6,66.2c13.9,12,28.9,22.8,44.9,32c4.2-4.3,8.7-8.4,13.3-12.3"/>
<path id="Trazado_1184" d="M542.8,624.3c1.2,6,1.5,7.2,1.7,7.3c3.5-1.9,7-3.8,10.5-5.9c-4.3-4.3-8.8-8.5-13.4-12.4L542.8,624.3"/>
<path id="Trazado_1185" class="st2" d="M490.5,581.3l2.8,9.1h35.9l-19.1-62.9c-4.7-2.1-9.6-4.1-14.4-5.9l-21.7,5.3L490.5,581.3"/>
<path id="Trazado_1186" class="st3" d="M282.4,603.2l0.6-0.4h-0.5C282.4,602.9,282.4,603,282.4,603.2"/>
<path id="Trazado_1187" class="st2" d="M528.6,602.8H528l0.6,0.4C528.6,603,528.6,602.9,528.6,602.8"/>
<path id="Trazado_1188" class="st2" d="M528,601.9L405.2,602l0.3,64c44.1,0.1,87.7-9.7,127.6-28.7c-2.5-11.1-2.8-23-3.2-34.7
	C529.7,602.5,528,601.9,528,601.9"/>
<path id="Trazado_1189" class="st3" d="M405.3,602.3c0,0-123.4-0.2-123.6,0c-0.4,11.6-2.8,25.4-3.8,35.1
	c39.9,18.9,83.4,28.7,127.6,28.7l0.1-63.5L405.3,602.3"/>
<path id="Trazado_1192" class="st2" d="M497.5,554.8l0.1,0.2L497.5,554.8c-2.5-2.1-4.8-4.3-6.9-6.8
	C492.8,550.5,495.1,552.7,497.5,554.8"/>
<path id="Trazado_1193" class="st4" d="M588.4,285.6L588.4,285.6 M600.4,371.3L600.4,371.3"/>
<path id="Trazado_1195" class="st5" d="M600.1,366.6c0,0.1,0,0.1,0,0.2c0,0,0,0.1,0,0.1l0,0c0.1,1.2,0.2,2.3,0.2,3.5
	c0,0.2,0,0.4,0,0.6v0.2c0,0.2,0,0.5,0,0.7c0,1.2-0.1,2.3-0.2,3.5l0,0v0.2c0,0.1,0,0.2,0,0.3c-0.2,1.2-0.4,2.4-0.7,3.5l0,0l0,0l0,0
	v-0.1l0,0l7.8-8.1l-7.9-8.2l0,0C599.7,364.1,599.9,365.3,600.1,366.6"/>
<path id="Trazado_1196" d="M600.1,375.9c0-0.2,0.1-0.3,0.1-0.5c0.1-1.1,0.2-2.3,0.2-3.5c0-0.3,0-0.5,0-0.8s0-0.5,0-0.7
	c0-1.2-0.1-2.4-0.2-3.5c0-0.1-0.1-0.3-0.1-0.4c-0.2-1.2-0.4-2.4-0.7-3.6c-0.1-0.4-0.2-0.8-0.4-1.1c-0.6-2.2-1.6-4.2-2.8-6.1
	c-0.4-0.7-0.9-1.3-1.4-1.9c-0.5-0.5-1-1-1.5-1.4c-0.2-0.2-0.4-0.3-0.6-0.4c-0.6-0.4-1.3-0.8-2.1-1c-1.4-0.5-2.9-0.5-4.3,0
	c-0.7,0.2-1.4,0.6-2.1,1c-0.2,0.1-0.4,0.2-0.6,0.4c-1,0.7-1.8,1.6-2.5,2.6c-0.2,0.2-0.3,0.4-0.5,0.7c-1.2,1.9-2.2,3.9-2.8,6.1
	l-0.1,0.3c-0.3,1.1-0.6,2.2-0.8,3.3c-0.1,0.4-0.1,0.7-0.2,1.1c-0.2,1.3-0.3,2.7-0.3,4c0,0.2,0,0.4,0,0.6h0c0,11.3,5.4,20.5,12,20.5
	c1.1,0,2.3-0.3,3.3-0.8c0.6-0.3,1.2-0.7,1.8-1.1c0.2-0.2,0.4-0.4,0.7-0.6c0.5-0.5,1.1-1.1,1.5-1.6c0.3-0.4,0.7-0.9,1-1.4
	c0.2-0.3,0.4-0.6,0.5-1c0.3-0.6,0.7-1.3,0.9-1.9c0.1-0.2,0.2-0.5,0.3-0.7c0.4-1,0.7-2,1-3C599.7,378.2,599.9,377.1,600.1,375.9
	L600.1,375.9z M588.9,368.5c-2.5,0-4.5-3.4-4.5-7.7s2-7.7,4.5-7.7s4.5,3.4,4.5,7.7C593.4,365,591.3,368.5,588.9,368.5L588.9,368.5z"
	/>
<path id="Trazado_1197" class="st4" d="M588.9,353.1c-2.5,0-4.5,3.4-4.5,7.7c0,4.3,2,7.7,4.5,7.7c2.5,0,4.5-3.5,4.5-7.7
	C593.4,356.5,591.3,353.1,588.9,353.1"/>
<path id="Trazado_1198" class="st6" d="M577.8,361.8c0.6-2.2,1.6-4.2,2.8-6.1c0.2-0.2,0.3-0.4,0.5-0.7c0.7-1,1.5-1.9,2.5-2.6
	c0.2-0.2,0.4-0.3,0.6-0.4c0.6-0.4,1.3-0.8,2.1-1c1.4-0.5,2.9-0.5,4.3,0c0.7,0.2,1.4,0.6,2.1,1c0.2,0.1,0.4,0.3,0.6,0.4
	c0.6,0.4,1.1,0.9,1.5,1.4c0.5,0.6,1,1.2,1.4,1.9c1.2,1.9,2.2,3.9,2.8,6.1l0,0l-10.6-48.5L577.8,361.8L577.8,361.8"/>
<path id="Trazado_1199" d="M448,370.7c0-1-0.1-1.9-0.2-2.9c0,0,0,0,0,0c-0.1-0.9-0.3-1.9-0.5-2.8V365c-0.2-0.9-0.4-1.8-0.7-2.6v-0.1
	c-0.3-0.9-0.6-1.7-1-2.5c0,0,0,0,0-0.1c-3-6.6-8.3-11.8-15-14.5h-0.1c-1.6-0.7-3.3-1.2-5-1.5h-0.1c-3.5-0.7-7.1-0.7-10.7,0h-0.2
	c-1.7,0.3-3.3,0.8-4.9,1.5l-0.1,0c-1.6,0.6-3.1,1.4-4.6,2.4c-1.5,0.9-2.8,2-4.1,3.2v0.1h-0.1c-2,1.9-3.7,4.1-5.1,6.5l0,0.1
	c-0.4,0.7-0.8,1.5-1.1,2.3l-0.1,0.2c-0.3,0.7-0.6,1.5-0.8,2.2c0,0.2-0.1,0.3-0.2,0.4c-0.2,0.7-0.4,1.4-0.6,2.2
	c0,0.2-0.1,0.4-0.2,0.6c-0.1,0.7-0.3,1.5-0.3,2.2c0,0.2-0.1,0.4-0.1,0.7c-0.3,2.8-0.2,5.6,0.4,8.3c0,0,0,0.1,0,0.1
	c0.3,1.7,0.9,3.4,1.5,5v0.1c2.4,5.8,6.7,10.7,12.2,13.8h0c0.8,0.4,1.5,0.8,2.3,1.2l0.2,0.1c0.7,0.3,1.5,0.6,2.3,0.8l0.4,0.1
	c0.7,0.2,1.4,0.4,2.2,0.6c0.2,0,0.4,0.1,0.6,0.2c0.7,0.1,1.4,0.2,2.2,0.3c0.2,0,0.4,0.1,0.7,0.1c15.4,1.6,29.2-9.6,30.8-25
	c0.1-1,0.1-1.9,0.1-2.9c0-0.1,0-0.1,0-0.2S448.1,370.8,448,370.7L448,370.7z M420,367.5c-5.8,0-10.5-4.7-10.5-10.5
	c0-5.8,4.7-10.5,10.5-10.5c5.8,0,10.5,4.7,10.5,10.5C430.6,362.7,425.9,367.5,420,367.5C420,367.5,420,367.5,420,367.5z"/>
<path id="Trazado_1200" class="st4" d="M420,346.4c-5.8,0-10.5,4.7-10.5,10.5c0,5.8,4.7,10.5,10.5,10.5c5.8,0,10.5-4.7,10.5-10.5
	C430.6,351.1,425.9,346.4,420,346.4C420,346.4,420,346.4,420,346.4L420,346.4"/>
<path id="Trazado_1201" class="st7" d="M400.7,350.9h0.1v-0.1l19.3-59v-13.9c-10.9-2.3-22-3.5-33.1-3.5c-3.8,0-7.5,0.2-11.2,0.4
	l-1.6,0.1c-19.4,1.5-38.4,6.5-56.1,14.6c-15.1,7-29.2,16-41.9,26.8l0,0l0,0c-3.4,2.9-6.7,5.9-9.8,9.1c-0.6,0.6-1.2,1.2-1.8,1.8
	c-3,3-5.9,6.1-8.7,9.3c-0.6,0.7-1.2,1.4-1.8,2.1c-2.8,3.3-5.5,6.7-8.1,10.2c-0.2,0.3-0.4,0.6-0.6,0.9c-2.5,3.4-4.8,6.8-7.1,10.3
	c-0.4,0.7-0.9,1.4-1.3,2c-1.8,2.9-3.5,5.9-5.2,8.9h87.9L400.7,350.9"/>
<path id="Trazado_1202" class="st8" d="M475,344.2c0.2-2.3,0.3-4.6,0.4-6.9c0.2-3.1,0.3-6.2,0.3-9.4c0-2.5,0-4.9,0-7.3
	c0-0.7,0-1.4,0-2.1c-0.1-6.3-0.3-12.5-0.7-18.8H475v0c-2.3-1.3-4.6-2.7-7-4l-0.2-0.1l-1.8-1l0,0l-1.3-0.7l-0.2-0.1l-0.9-0.5
	c-4-2.1-8.2-4-12.4-5.8c-10-4.2-23.5-7.9-31.1-9.7v13.9l19.1,59.1v0c2,1.9,3.7,4.1,5,6.4l0,0c0.5,0.8,0.9,1.6,1.2,2.4c0,0,0,0,0,0
	c0.4,0.8,0.7,1.7,1,2.5v0.1c0.3,0.9,0.5,1.7,0.7,2.6v0.1c0.2,0.9,0.4,1.8,0.5,2.8c0,0,0,0,0,0c0.1,1,0.2,1.9,0.2,2.9l0.1,0.2h23.4
	c1.6-8.6,2.7-17.3,3.4-26C474.9,344.7,474.9,344.5,475,344.2"/>
<path id="Trazado_1203" class="st9" d="M505.6,323.3C505.6,323.3,505.6,323.4,505.6,323.3L505.6,323.3"/>
<path id="Trazado_1204" class="st6" d="M400.9,350.7c1.3-1.2,2.6-2.2,4.1-3.2c1.4-0.9,3-1.7,4.6-2.4l0.1,0c1.6-0.6,3.2-1.1,4.9-1.5
	h0.2c3.5-0.7,7.1-0.7,10.7,0h0.1c1.7,0.4,3.5,0.9,5.1,1.5c3.2,1.3,6.2,3.2,8.7,5.7v0l-19.1-59.1L400.9,350.7"/>
<path id="Trazado_1205" class="st5" d="M394.1,381.7c-0.7-1.6-1.2-3.3-1.5-5.1c0,0,0-0.1,0-0.1c-0.5-2.7-0.7-5.6-0.4-8.3
	c0-0.2,0.1-0.4,0.1-0.7c0.1-0.7,0.2-1.5,0.3-2.2c0-0.2,0.1-0.4,0.2-0.6c0.2-0.7,0.4-1.4,0.6-2.1c0-0.1,0.1-0.3,0.2-0.4
	c0.3-0.8,0.5-1.5,0.8-2.2c0-0.1,0.1-0.2,0.1-0.2c0.4-0.8,0.7-1.5,1.1-2.3l0.1-0.1c1.4-2.4,3.1-4.6,5.1-6.5l-81.2,20.1h-0.2
	l80.4,19.7c-2.4-2.5-4.4-5.5-5.7-8.7V381.7"/>
<path id="Trazado_1206" class="st8" d="M576.8,366.5c0-0.4,0.1-0.7,0.2-1c0.2-1.1,0.4-2.2,0.8-3.4c0-0.1,0-0.3,0.1-0.4l10.6-48.5
	v-27.7c-8.7-7.1-17.9-11.1-27.6-11.1c-12.2,0-23.6,6.7-32.1,15.1c-9.3,9.1-16.5,20.6-22.3,32.1c-0.3,0.5-0.5,1-0.8,1.6
	c1.8,1.6,3.6,3.1,5.3,4.7c4,3.6,7.8,7.3,11.7,11.1c1.8,1.8,3.5,3.6,5.3,5.3c1.8,1.8,3.7,3.8,5.5,5.7c3.4,3.5,6.7,7.1,9.9,10.7
	c2.8,3.1,5.6,6.2,8.3,9.3l0,0c0.5,0.5,0.8,0.8,0.9,1h23.9c0-0.2,0-0.4,0-0.6C576.5,369.2,576.6,367.9,576.8,366.5 M505.7,323.4
	L505.7,323.4L505.7,323.4l0.1,0.1c0,0,0-0.1,0-0.1"/>
<path id="Trazado_1207" class="st1" d="M217.2,401.4l0.2-0.6c3.2-8.3,6.9-16.5,11.1-24.3c0.6-1.2,1.3-2.5,2-3.7
	c0.4-0.7,0.8-1.3,1.2-2c1.7-3,3.4-6,5.2-8.9c0.4-0.7,0.9-1.4,1.3-2.1c2.3-3.5,4.6-7,7.1-10.3c0.2-0.3,0.4-0.6,0.6-0.9
	c2.6-3.5,5.3-6.9,8.1-10.2c0.6-0.7,1.2-1.4,1.8-2.1c2.8-3.2,5.7-6.3,8.7-9.3c0.6-0.6,1.2-1.2,1.8-1.7c3.2-3.1,6.4-6.2,9.8-9.1l0,0
	c13.4-44.8,56.5-72.3,104.9-72.3c19.6,0.1,38.8,5.5,55.4,15.8c17,10.4,28.6,20.6,37.7,38.4l0.1,0.3c0.2,0.5,0.5,0.9,0.7,1.3v0h0
	c7.6,4.7,14.8,9.9,21.6,15.7c2.3,1.9,4.5,3.9,6.7,5.9c0.7,0.7,1.5,1.3,2.2,2c0,0,0-0.1,0-0.1c0,0,0,0,0-0.1l0.7-1.5
	c6.8-43,28.5-66.5,50.9-66.5c16.9,0,29.2,10.1,38.4,37.2l0.1,0.3l0,0c2.8,3,5.4,6.2,7.8,9.5l0,0l0.1,0.2l0,0
	c0.1,0.4,0.2,0.8,0.4,1.2l0,0l-0.4-1.4c-27.8-82.5-105.8-141.8-197.7-141.8c-115.2,0-208.7,93.4-208.7,208.7
	c-0.1,22.1,3.4,44,10.3,64.9v-0.1C209.9,422.7,213.1,411.9,217.2,401.4"/>
<path id="Trazado_1208" class="st4" d="M606.7,371.2l-7.3,8.1l0,0v0c-0.3,1-0.6,2-1,3c-0.1,0.3-0.2,0.5-0.3,0.7
	c-0.3,0.7-0.6,1.3-0.9,2c-0.2,0.3-0.4,0.7-0.5,1c-0.3,0.5-0.6,0.9-1,1.4c-0.5,0.6-1,1.1-1.5,1.6c-0.2,0.2-0.4,0.4-0.7,0.6
	c-0.5,0.4-1.1,0.8-1.8,1.1c-1,0.5-2.1,0.8-3.3,0.8c-6.6,0-12-9.2-12-20.5h-24l0,0c4.5,5.2,9,10.5,13.3,15.8
	c4.2,5.1,8.4,10.3,12.4,15.5l0.6,0.8c3.9,5,7.7,9.9,11.5,14.9l1.1,1.5c4,5.3,8.1,10.7,12.1,16c7-20.8,10.7-42.6,10.9-64.6l-6.8-0.3
	L606.7,371.2"/>
<path id="Trazado_1209" d="M374.2,274.8l1.6-0.1c3.7-0.3,7.5-0.4,11.3-0.4c11.1,0,22.2,1.2,33.1,3.4l0,0c7.6,1.8,21.1,5.5,31.1,9.7
	c4.2,1.8,8.3,3.7,12.4,5.8l0.9,0.5l0.2,0.1l1.3,0.7l0,0l1.8,1l0.2,0.1c2.6,1.5,5.4,3.1,6.5,3.7l0.3,0.2l0.2,0.1
	c-0.2-0.5-0.5-0.9-0.7-1.3l-0.1-0.3c-9-17.9-22.9-32.9-39.9-43.4c-16.7-10.2-35.8-15.7-55.4-15.8c-48.4,0-89.3,32.6-102.7,77.4
	c12.6-10.8,26.7-19.9,41.8-26.8C335.8,281.3,354.8,276.4,374.2,274.8"/>
<path id="Trazado_1210" class="st7" d="M603.6,302.3L603.6,302.3l-0.1-0.2l0,0c-2.4-3.3-4.9-6.4-7.6-9.4l-0.1-0.1
	c-1.2-1.3-2.4-2.5-3.6-3.7c-0.5-0.4-0.9-0.8-1.4-1.2c-0.8-0.7-1.5-1.4-2.3-2v27.7l10.6,48.5l0,0c0.1,0.4,0.3,0.7,0.4,1.1l7.4,8.2
	l0.1-0.1h7.7c0-0.7,0-1.4,0-2.1l0,0c0-22.2-3.6-44.3-10.6-65.4l0,0C603.9,303.1,603.8,302.7,603.6,302.3"/>
<path id="Trazado_1211" d="M528.8,289.5c8.5-8.3,19.9-15.1,32.1-15.1c9.7,0,18.9,3.9,27.6,11.1v0.1l0,0c0.8,0.6,1.5,1.4,2.3,2
	c0.5,0.4,0.9,0.8,1.4,1.2c1.2,1.2,2.5,2.4,3.6,3.7l0.1,0.1l0,0l0,0l-0.1-0.3c-9.3-27.1-24.2-44.7-41.1-44.7c-22.4,0-41.4,31-48.2,74
	l0.1-0.1C512.3,310.1,519.5,298.7,528.8,289.5 M498.5,554.1c-2.5-2.1-4.8-4.3-6.8-6.8c-1.8-2-3.4-4.2-5-6.4c-0.5-0.7-1-1.4-1.5-2.2
	c-1.5-2.5-2.7-5.1-3.9-7.8c-1.5-3.2-1.5-5.3-2.3-8.3c-0.6-2.2-1.1-4.4-1.5-6.7c-0.6-3.6-0.8-7.3-0.7-11c0.1-2.2,0.3-4.4,0.6-6.6
	c0.3-2.2,0.7-4.4,1.3-6.6c2-7.6,5.1-14.8,9.2-21.5l1.2-2.6c1.5-2.5,1.8-2.4,3.2-4.8c19.9-33.6,30.6-59,25.4-98.1c-0.5-4-1.2-8-2-12
	c-0.5,2.9-0.9,5.8-1.5,8.6c-0.3,0.8-0.6,1.7-0.9,2.5c-8.7,25.6-22.3,44.4-41.9,65.6c-2.7,3-5.5,5.9-8.3,8.8
	c-5,5.2-10,10.3-15.1,15.3l-6.5,6.4c-2,2-4.5,6.3-7.5,9.4c-1.9,5.2-4,11-5.7,17.2c-0.8-0.3-1.6-0.6-2.4-0.9
	c-38-14.7-63.5-34.4-63.5-34.4s19.6,25.5,52.6,49.5c3,2.2,6.2,4.2,9.4,6.1c-1.4,21.6,8.2,42.3,51.1,48.4c7.4,1,14.8,1,22.2,0.1
	c-0.1-0.2,0.4-0.2,0.4-0.3c0-0.1,0.4-0.5,0.4-0.5"/>
<path id="Trazado_1212" class="st10" d="M475.6,498.6c38.1,6.1,94.5,5.1,153.1-22.3c1.4-0.7,3,1.1,4.4,0.4c0,0-40,40.9-87.8,64
	c-1.4,0.7-2.8,1.4-4.2,2c-4.6,2.1-9.3,4-14,5.6c-9,3.4-18.4,5.7-27.9,7c-0.4,0.1-0.8,0.1-1.3,0.2l-0.2-0.5l-0.1-0.2
	c-2.5-2.1-4.8-4.3-6.9-6.8c-1.8-2-3.4-4.2-5-6.4c-2.1-3.1-4-6.4-5.6-9.8c-1.3-2.9-2.4-5.9-3.3-8.9c-1.6-5.7-2.4-11.7-2.2-17.6
	c0.1-2.2,0.3-4.4,0.6-6.6L475.6,498.6"/>
<path id="Trazado_1213" class="st9" d="M448.2,455.2c5.1-5.1,10.2-10.2,15.1-15.3c2.8-2.9,5.6-5.8,8.3-8.7
	c19.6-21.3,34-41.1,42.6-66.7c0.2-0.8,0.4-1.5,0.6-2.3l0.1-0.4c0.2-1,0.4-2,0.6-3.2c0.1-0.8,2.7-2.5,2.7-3.3
	c-2.2-11.1-7.2-22.9-12.6-31.8c0,0,0,0.1,0,0.1l-0.1-0.1c-0.7-0.7-1.5-1.3-2.2-2c-2.2-2-4.4-4-6.7-5.9c-6.8-5.8-14-11-21.6-15.7
	c0.4,6.3,0.6,12.5,0.7,18.8c0,0.7,0,1.4,0,2.1c0,2.5,0,4.9,0,7.3c-0.1,3.1-0.2,6.2-0.3,9.4c-0.1,2.3-0.3,4.6-0.4,6.9
	c0,0.2,0,0.5-0.1,0.7c-0.7,8.7-1.8,17.4-3.4,26l-2.8,13c-5.7,23.3-17.4,44.4-27,66.3c-2.5,5.8-5,11.6-7.1,17.6l-0.6,1.7
	c2.5-2.7,5.1-5.3,7.7-7.9L448.2,455.2"/>
<path id="Trazado_1214" class="st1" d="M322.3,580.5c13.5-6,27.7-10.4,42.2-13.1c-0.1-3.3-0.2-6.6-0.5-10
	c6.6-17,12.6-34.2,18.2-51.5c-9.8,1-19.5,2.5-29.1,4.5c-7.1,1.5-14.2,3.4-21.1,5.5c-5.6,1.7-11.1,3.6-16.6,5.7l21.7,5.3l-17.4,54.8
	L322.3,580.5"/>
<path id="Trazado_1215" class="st11" d="M590.4,418.2c-3.8-5-7.7-10-11.5-14.9l-0.6-0.8c-4.1-5.3-8.3-10.5-12.6-15.7
	s-8.6-10.4-13.2-15.6c-0.3-0.3-0.6-0.7-0.8-1c-3.7-4.2-7.4-8.4-11.2-12.5c-2.3-2.5-4.6-5-7-7.5c-1.8-1.9-3.7-3.8-5.5-5.7
	c-1.9-1.9-3.5-3.6-5.3-5.3c-3.8-3.8-7.7-7.5-11.7-11.1c-1.8-1.6-3.5-3.2-5.3-4.7v0c3.8,10.8,8.1,21.8,10.2,33.1
	c0.5,2.9,1,5.8,1.4,8.6c5.3,39.1-7.3,64.6-27.2,98.2c-1.5,2.5-2.9,4.9-4.4,7.4c-4.1,6.7-7.2,13.9-9.2,21.5c-0.5,2.2-1,4.4-1.3,6.6
	c39,6.3,97.7,7.5,157.8-22c0,0-11.8-17.3-29.5-41.1c-4-5.3-8-10.6-12-15.9L590.4,418.2"/>
<path id="Trazado_1216" class="st2" d="M317.4,591.4l19.5-64.6l-21.7-5.3c-4.9,1.8-9.7,3.8-14.4,5.9l-19.3,63.9l21.6,0.3
	L317.4,591.4"/>
<path id="Trazado_1217" class="st4" d="M331.2,563.5c1.9,0.7,3.8,1.4,5.8,2.1c47.7,16.7,99.9,15.5,146.9-3.4
	c1.3-0.5,2.5-1.1,3.8-1.6c2-0.9,4.1-1.8,6.1-2.7c1.8-0.8,3.6-1.6,5.4-2.6c-0.4,0.1-0.8,0.1-1.3,0.2c-7.4,0.9-14.8,0.8-22.2-0.2
	c-42.9-6.2-52.5-26.9-51.1-48.4c-3.2-1.9-6.4-3.9-9.4-6.1c-33-24-52.6-49.5-52.6-49.5s25.5,19.7,63.5,34.4l2.4,0.9
	c1.8-6.1,3.9-12,5.7-17.2l0.6-1.7c2.1-6,4.5-11.8,7.1-17.6c9.6-21.8,21.3-43,27-66.3l2.7-13h-23.5v0l0,0c0,0.1,0,0.1,0,0.2
	c0,15.5-12.5,28-28,28h0c-1,0-2-0.1-2.9-0.2c-0.2,0-0.4-0.1-0.7-0.1c-0.7-0.1-1.5-0.2-2.2-0.3c-0.2,0-0.4-0.1-0.6-0.2
	c-0.7-0.2-1.5-0.3-2.2-0.6l-0.4-0.1c-0.8-0.3-1.5-0.5-2.3-0.8l-0.2-0.1c-0.8-0.3-1.6-0.7-2.3-1.2l0,0c-2.4-1.4-4.6-3.1-6.5-5.1
	L319.4,371h-87.8c-0.4,0.7-0.8,1.3-1.2,2c-0.7,1.2-1.3,2.5-2,3.7c-2.2,4.1-4.2,8.2-6.1,12.4c-1.8,3.9-3.4,7.8-5,11.8l-0.2,0.5
	c-4,10.5-7.2,21.3-9.6,32.3c13.7,41.7,40.3,78.1,75.9,103.9c1,0.7,2.1,1.4,3.1,2.1C300.5,549.4,315.4,557.4,331.2,563.5"/>
<path id="Trazado_1218" class="st12" d="M541.7,613.4c-0.5-5.6-0.8-11.2-0.9-16.8c0-3.4-2.8-6.2-6.2-6.2H276.4
	c-3.4,0-6.2,2.8-6.2,6.2c0,5.7-0.3,11.2-0.9,16.8c-0.6,6.1-1.5,12.2-2.8,18.2c3.7,2,7.5,3.9,11.4,5.7c2.6-11.2,4.1-22.6,4.5-34.1
	v-0.4h246.1c0,0.1,0,0.3,0,0.4c0.4,11.5,1.9,22.9,4.5,34.1c3.8-1.8,7.6-3.7,11.4-5.7C543.2,625.6,542.2,619.5,541.7,613.4"/>
</svg>
