<?xml version="1.0" encoding="utf-8"?>
<!-- Generator: Adobe Illustrator 24.1.2, SVG Export Plug-In . SVG Version: 6.00 Build 0)  -->
<svg version="1.1" id="Capa_1" xmlns="http://www.w3.org/2000/svg" xmlns:xlink="http://www.w3.org/1999/xlink" x="0px" y="0px"
	 viewBox="0 0 297.6 152.1" style="enable-background:new 0 0 297.6 152.1;" xml:space="preserve">
<style type="text/css">
	.st0{fill:#B8D3CE;}
	.st1{fill:#525353;}
	.st2{fill:#AA9678;}
	.st3{fill:#C4B6A1;}
	.st4{fill:#FFFFFF;}
	.st5{fill:#676A6A;}
	.st6{fill:#909393;}
	.st7{fill:#BBBCBD;}
	.st8{fill:#E3DDDB;}
	.st9{fill:#FCB03F;}
	.st10{fill:#9F2254;}
	.st11{fill:#DF0067;}
	.st12{fill:#8B7460;}
</style>
<path id="Trazado_1180" class="st0" d="M129.4,105.8c1-0.4,1.7-0.7,2.7-1c1-0.3,2-0.7,3-1c1.3-0.4,2.7-0.7,4-1
	c1.7-0.4,3.7-0.7,5.3-1c-1,3.3-2.4,6.6-3.3,9.6c0,0.7,0,1.3,0,2c5-1,10.3-1,15.3,0c0-0.7,0-1.3,0-2c-1.3-3.3-2.4-6.3-3.3-9.6
	c2,0.4,3.7,0.4,5.3,1c1.3,0.4,2.7,0.7,4,1c1,0.4,2,0.7,3,1c1,0.4,1.7,0.7,2.7,1c6.3,3,12.3,7,16.9,12.3c12-10.3,19.3-25.3,19.3-42.2
	C204.9,45,180,20,149.1,20S93.2,45,93.2,75.9c0,16.9,7.7,32.3,19.3,42.2C117.1,113.1,122.8,108.8,129.4,105.8"/>
<path id="Trazado_1181" class="st1" d="M168.7,105.8l3.3,12h1c0.7,0,1,0.4,1,0.7c0,1,0,2.4,0,3.3c1,0.7,2,1.7,2.7,2.4
	c3-1.7,5.7-3.7,8.3-6C181,113.1,175.3,108.8,168.7,105.8 M162,105.8l4-1c-1-0.4-2-0.7-3-1c-1.3-0.4-2.7-0.7-4-1
	c-1.7-0.4-3.7-0.7-5.3-1c1,3.3,2.4,6.6,3.3,9.6c0,0.7,0,1.3,0,2c3,0.7,5.7,1.7,8.3,2.7L162,105.8"/>
<path id="Trazado_1182" d="M120.8,124.4c0.7,0.4,1.3,0.7,2,1c0.4-1,0.7-2.7,0.7-4C122.8,122.4,121.8,123.4,120.8,124.4 M165,116.1
	c-2.7-1.3-5.3-2-8.3-2.7c-5-1-10.3-1-15.3,0c-3,0.7-6,1.3-8.6,2.7l-0.4,1.7h32.9L165,116.1"/>
<path id="Trazado_1183" class="st1" d="M123.4,122.1c0-1,0.4-2,0.4-3c0-0.7,0.4-1,1-1h1l3.7-12c-6.3,3-12.3,7-16.9,12.3
	c2.7,2.4,5.3,4.3,8.3,6C121.8,123.4,122.5,122.8,123.4,122.1"/>
<path id="Trazado_1184" d="M175,124.1c0.4,1,0.4,1.3,0.4,1.3c0.7-0.4,1.3-0.7,2-1c-0.7-0.7-1.7-1.7-2.7-2.4L175,124.1"/>
<path id="Trazado_1185" class="st2" d="M165,116.1l0.7,1.7h6.6l-3.7-12c-1-0.4-1.7-0.7-2.7-1l-4,1L165,116.1"/>
<path id="Trazado_1186" class="st3" d="M125.8,120.1L125.8,120.1L125.8,120.1L125.8,120.1"/>
<path id="Trazado_1187" class="st2" d="M172.3,120.1L172.3,120.1L172.3,120.1L172.3,120.1"/>
<path id="Trazado_1188" class="st2" d="M172,119.8h-22.9v12c8.3,0,16.6-1.7,23.9-5.3c-0.4-2-0.7-4.3-0.7-6.6
	C172.3,120.1,172,119.8,172,119.8"/>
<path id="Trazado_1189" class="st3" d="M149.1,120.1h-23.3c0,2.4-0.7,4.6-0.7,6.6c7.7,3.7,15.6,5.3,23.9,5.3V120.1L149.1,120.1"/>
<path id="Trazado_1192" class="st2" d="M166.3,111.1L166.3,111.1L166.3,111.1c-0.4-0.4-1-0.7-1.3-1.3
	C165.3,110.1,166,110.8,166.3,111.1"/>
<path id="Trazado_1193" class="st4" d="M183.3,60.3L183.3,60.3 M185.6,76.5L185.6,76.5"/>
<path id="Trazado_1195" class="st5" d="M185.6,75.6L185.6,75.6L185.6,75.6L185.6,75.6c0,0.4,0,0.4,0,0.7l0,0l0,0l0,0
	c0,0.4,0,0.4,0,0.7l0,0l0,0l0,0c0,0.4,0,0.4,0,0.7l0,0l0,0l0,0l0,0l0,0l1.3-1.7l-1.3-1.7l0,0C185.6,75.2,185.6,75.6,185.6,75.6"/>
<path id="Trazado_1196" d="M185.6,77.6C185.6,77.2,185.6,77.2,185.6,77.6c0-0.4,0-0.7,0-0.7l0,0l0,0c0-0.4,0-0.4,0-0.7l0,0
	c0-0.4,0-0.4,0-0.7c0,0,0,0,0-0.4s-0.4-0.7-0.7-1l-0.4-0.4l-0.4-0.4l0,0c0,0-0.4,0-0.4-0.4c-0.4,0-0.7,0-0.7,0s-0.4,0-0.4,0.4l0,0
	c-0.4,0-0.4,0.4-0.4,0.4l0,0c-0.4,0.4-0.4,0.7-0.7,1l0,0c0,0.4,0,0.4,0,0.7c0,0,0,0,0,0.4s0,0.7,0,0.7l0,0l0,0c0,2,1,4,2.4,4
	c0.4,0,0.4,0,0.7,0c0,0,0.4,0,0.4-0.4l0,0l0.4-0.4c0,0,0-0.4,0.4-0.4c0,0,0,0,0-0.4c0,0,0-0.4,0.4-0.4l0,0c0-0.4,0-0.4,0.4-0.7
	C185.6,77.9,185.6,77.6,185.6,77.6L185.6,77.6z M183.6,75.9c-0.4,0-1-0.7-1-1.3s0.4-1.3,1-1.3s1,0.7,1,1.3
	C184.3,75.2,184,75.9,183.6,75.9L183.6,75.9z"/>
<path id="Trazado_1197" class="st4" d="M183.6,73.2c-0.4,0-1,0.7-1,1.3s0.4,1.3,1,1.3s1-0.7,1-1.3C184.3,73.9,184,73.2,183.6,73.2"
	/>
<path id="Trazado_1198" class="st6" d="M181.3,74.9c0-0.4,0.4-0.7,0.7-1l0,0c0-0.4,0.4-0.4,0.4-0.4l0,0c0,0,0.4,0,0.4-0.4
	c0.4,0,0.7,0,0.7,0s0.4,0,0.4,0.4l0,0l0.4,0.4l0.4,0.4c0.4,0.4,0.4,0.7,0.7,1l0,0l-1.7-9.6L181.3,74.9L181.3,74.9"/>
<path id="Trazado_1199" d="M157,76.5c0-0.4,0-0.4,0-0.7l0,0c0-0.4,0-0.4,0-0.7l0,0c0-0.4,0-0.4,0-0.4l0,0c0-0.4,0-0.4-0.4-0.4l0,0
	c-0.7-1.3-1.7-2.4-2.7-2.7l0,0c-0.4,0-0.7-0.4-1-0.4l0,0c-0.7,0-1.3,0-2,0l0,0c-0.4,0-0.7,0-1,0.4l0,0c-0.4,0-0.7,0.4-1,0.4
	c-0.4,0.4-0.7,0.4-0.7,0.7l0,0l0,0c-0.4,0.4-0.7,0.7-1,1.3l0,0c0,0,0,0.4-0.4,0.4l0,0v0.4l0,0v0.4l0,0v0.4l0,0c0,0.7,0,1,0,1.7l0,0
	c0,0.4,0.4,0.7,0.4,1l0,0c0.4,1,1.3,2,2.4,2.7l0,0c0,0,0.4,0,0.4,0.4l0,0h0.4l0,0h0.4l0,0h0.4l0,0c3,0.4,5.7-1.7,5.7-4.6
	C157,76.9,157,76.5,157,76.5L157,76.5L157,76.5L157,76.5z M151.7,75.9c-1,0-2-1-2-2s1-2,2-2c1,0,2,1,2,2S152.7,75.9,151.7,75.9
	L151.7,75.9z"/>
<path id="Trazado_1200" class="st4" d="M151.7,71.9c-1,0-2,1-2,2c0,1,1,2,2,2c1,0,2-1,2-2C153.7,72.6,152.7,71.9,151.7,71.9
	L151.7,71.9L151.7,71.9"/>
<path id="Trazado_1201" class="st7" d="M148,72.6L148,72.6L148,72.6l3.7-11v-2.7c-2-0.4-4-0.7-6.3-0.7c-0.7,0-1.3,0-2,0H143
	c-3.7,0.4-7.3,1.3-10.6,2.7c-3,1.3-5.7,3-8,5l0,0l0,0c-0.7,0.7-1.3,1-2,1.7l-0.4,0.4c-0.7,0.7-1,1-1.7,1.7l-0.4,0.4
	c-0.7,0.7-1,1.3-1.7,2c0,0,0,0,0,0.4c-0.4,0.7-1,1.3-1.3,2l-0.4,0.4c-0.4,0.7-0.7,1-1,1.7h16.6L148,72.6"/>
<path id="Trazado_1202" class="st8" d="M162,71.6c0-0.4,0-1,0-1.3c0-0.7,0-1.3,0-1.7s0-1,0-1.3v-0.4c0-1.3,0-2.4,0-3.7l0,0l0,0
	c-0.4-0.4-1-0.7-1.3-0.7l0,0l-0.4-0.4l0,0H160l0,0h-0.4c-0.7-0.4-1.7-0.7-2.4-1c-2-0.7-4.3-1.3-6-1.7v2.7l3.7,11l0,0
	c0.4,0.4,0.7,0.7,1,1.3l0,0l0.4,0.4l0,0c0,0,0,0.4,0.4,0.4l0,0c0,0.4,0,0.4,0,0.4l0,0c0,0.4,0,0.4,0,0.7l0,0c0,0.4,0,0.4,0,0.7l0,0
	h4.3C161.7,74.9,162,73.2,162,71.6L162,71.6"/>
<path id="Trazado_1203" class="st9" d="M168,67.6L168,67.6L168,67.6"/>
<path id="Trazado_1204" class="st6" d="M148,72.6c0.4-0.4,0.4-0.4,0.7-0.7c0.4-0.4,0.7-0.4,1-0.4l0,0c0.4,0,0.7-0.4,1-0.4l0,0
	c0.7,0,1.3,0,2,0l0,0c0.4,0,0.7,0.4,1,0.4c0.7,0.4,1.3,0.7,1.7,1l0,0l-3.7-11L148,72.6"/>
<path id="Trazado_1205" class="st5" d="M146.7,78.5c0-0.4-0.4-0.7-0.4-1l0,0c0-0.7,0-1,0-1.7l0,0v-0.4l0,0v-0.4l0,0v-0.4l0,0
	c0,0,0-0.4,0.4-0.4l0,0c0.4-0.4,0.7-1,1-1.3l-15,3.5l0,0l15.3,3.7C147.4,79.5,147.1,79.3,146.7,78.5L146.7,78.5"/>
<path id="Trazado_1206" class="st8" d="M181.3,75.6L181.3,75.6c0-0.4,0-0.7,0.4-0.7l0,0l2-9v-5.3c-1.7-1.3-3.3-2-5.3-2
	c-2.4,0-4.3,1.3-6,3c-1.7,1.7-3,4-4.3,6v0.3c0.4,0.4,0.7,0.7,1,1c0.7,0.7,1.3,1.3,2.4,2c0.4,0.4,0.7,0.7,1,1c0.4,0.4,0.7,0.7,1,1
	c0.7,0.7,1.3,1.3,2,2c0.7,0.7,1,1.3,1.7,1.7l0,0c0,0,0,0,0.4,0.4h4.6l0,0C181.3,76.2,181.3,75.9,181.3,75.6 M168,67.6L168,67.6
	L168,67.6L168,67.6L168,67.6"/>
<path id="Trazado_1207" class="st1" d="M113.5,82.2L113.5,82.2c0.7-1.7,1.3-3.3,2-4.6c0-0.4,0.4-0.4,0.4-0.7c0,0,0-0.4,0.4-0.4
	c0.4-0.7,0.7-1,1-1.7l0.4-0.4c0.4-0.7,1-1.3,1.3-2c0,0,0,0,0-0.4c0.4-0.7,1-1.3,1.7-2l0.4-0.4c0.7-0.7,1-1.3,1.7-1.7l0.4-0.4
	c0.7-0.7,1.3-1.3,2-1.7l0,0c2.7-8.3,10.6-13.6,19.6-13.6c3.7,0,7.3,1,10.3,3c3.3,2,5.3,4,7,7.3l0,0v0.4l0,0l0,0c1.3,1,2.7,2,4,3
	c0.4,0.4,1,0.7,1.3,1l0.4,0.4l0,0l0,0v-0.2c1.3-8,5.3-12.6,9.6-12.6c3.3,0,5.7,2,7.3,7l0,0l0,0c0.7,0.7,1,1.3,1.3,1.7l0,0l0,0l0,0
	c0,0,0,0,0,0.4l0,0v-0.4c-5.3-15.6-20-26.6-37.2-26.6c-21.9-0.1-39.5,17.5-39.5,39.1c0,4.3,0.7,8.3,2,12.3l0,0
	C112.2,86.2,112.8,84.2,113.5,82.2"/>
<path id="Trazado_1208" class="st4" d="M186.9,76.5l-1.3,1.7l0,0l0,0c0,0.4,0,0.4-0.4,0.7l0,0c0,0,0,0.4-0.4,0.4c0,0,0,0,0,0.4
	c0,0,0,0.4-0.4,0.4l-0.4,0.4l0,0c0,0-0.4,0-0.4,0.4c-0.4,0-0.4,0-0.7,0c-1.3,0-2.4-1.7-2.4-4h-4.3l0,0c1,1,1.7,2,2.7,3
	c0.7,1,1.7,2,2.4,3l0,0c0.7,1,1.3,2,2.4,2.7l0.4,0.4c0.7,1,1.7,2,2.4,3c1.3-4,2-8,2-12.3H186.9L186.9,76.5"/>
<path id="Trazado_1209" d="M143.1,58.3L143.1,58.3c1,0,1.7,0,2.4,0c2,0,4.3,0.4,6.3,0.7l0,0c1.3,0.4,4,1,6,1.7
	c0.7,0.4,1.7,0.7,2.4,1h0.4l0,0h0.4l0,0l0.4,0.4l0,0c0.4,0.4,1,0.7,1.3,0.7l0,0l0,0v-0.4l0,0c-1.7-3.3-4.3-6.3-7.7-8.3
	c-3-2-6.7-3-10.3-3c-9,0-16.9,6-19.3,14.7c2.4-2,5-3.7,8-5C135.7,59.6,139.4,58.6,143.1,58.3"/>
<path id="Trazado_1210" class="st7" d="M186.3,63.6L186.3,63.6L186.3,63.6L186.3,63.6c-0.4-0.7-1-1.3-1.3-1.7l0,0
	c-0.4-0.4-0.4-0.4-0.7-0.7c0,0-0.4,0-0.4-0.4l-0.4-0.4v5.3l2,9l0,0c0,0,0,0,0,0.4l1.3,1.7l0,0h1.3v-0.4l0,0
	C188.3,71.9,187.6,67.9,186.3,63.6L186.3,63.6L186.3,63.6"/>
<path id="Trazado_1211" d="M172.3,61.3c1.7-1.7,3.7-3,6-3c1.7,0,3.7,0.7,5.3,2l0,0l0,0l0.4,0.4c0,0,0.4,0,0.4,0.4
	c0.4,0.4,0.4,0.4,0.7,0.7l0,0l0,0l0,0l0,0c-2-5-4.6-8.3-8-8.3c-4.3,0-7.7,6-9,14l0,0C169,64.9,170.4,62.9,172.3,61.3 M166.7,110.8
	c-0.4-0.4-1-0.7-1.3-1.3c-0.4-0.4-0.7-0.7-1-1.3l-0.4-0.4c-0.4-0.4-0.7-0.7-0.7-1.3c-0.4-0.7-0.4-1-0.4-1.7c0-0.4-0.4-0.7-0.4-1.3
	s0-1.3,0-2c0-0.4,0-0.7,0-1.3c0-0.4,0-0.7,0.4-1.3c0.4-1.3,1-2.7,1.7-4l0.4-0.4c0.4-0.4,0.4-0.4,0.7-1c3.7-6.3,5.7-11,4.6-18.6
	c0-0.7-0.4-1.7-0.4-2.4c0,0.7-0.4,1-0.4,1.7c0,0,0,0.4-0.4,0.4c-1.7,4.6-4.3,8.3-8,12.3c-0.7,0.7-1,1-1.7,1.7c-1,1-2,2-3,3l-1,1.7
	c-0.4,0.4-1,1.3-1.3,1.7c-0.4,1-0.7,2-1,3.3c0,0-0.4,0-0.4-0.4c-7.3-2.7-12-6.3-12-6.3s3.7,4.6,9.9,9.3c0.7,0.4,1.3,0.7,1.7,1
	c-0.4,4,1.7,8,9.6,9C163.7,111.4,165,111.4,166.7,110.8C166.3,111.1,166.3,111.1,166.7,110.8C166.3,111.1,166.7,111.1,166.7,110.8"
	/>
<path id="Trazado_1212" class="st10" d="M162.3,100.5c7.3,1,17.6,1,28.9-4.3c0.4,0,0.7,0.4,0.7,0c0,0-7.7,7.7-16.6,12
	c-0.4,0-0.7,0.4-0.7,0.4c-1,0.4-1.7,0.7-2.7,1c-1.7,0.7-3.3,1-5.3,1.3c0,0,0,0-0.4,0l0,0l0,0c-0.4-0.4-1-0.7-1.3-1.3
	c-0.4-0.4-0.7-0.7-1-1.3c-0.4-0.7-0.7-1.3-1-2c-0.4-0.7-0.4-1-0.7-1.7c-0.4-1-0.4-2.4-0.4-3.3C162,101.1,162,100.8,162.3,100.5
	L162.3,100.5"/>
<path id="Trazado_1213" class="st9" d="M157,92.2c1-1,2-2,3-3c0.7-0.7,1-1,1.7-1.7c3.7-4,6.3-7.7,8-12.6v-0.4l0,0c0-0.4,0-0.4,0-0.7
	c0,0,0.7-0.4,0.7-0.7c-0.4-2-1.3-4.3-2.4-6l0,0l0,0l-0.4-0.4c-0.4-0.4-0.7-0.7-1.3-1c-1.3-1-2.7-2-4-3c0,1.3,0,2.4,0,3.7V67
	c0,0.4,0,1,0,1.3c0,0.7,0,1.3,0,1.7s0,1,0,1.3l0,0c0,1.7-0.4,3.3-0.7,5l-0.7,2.4c-1,4.3-3.3,8.3-5,12.6c-0.4,1-1,2.4-1.3,3.3v0.4
	c0.4-0.7,1-1,1.3-1.3L157,92.2"/>
<path id="Trazado_1214" class="st1" d="M133.5,115.8c2.7-1,5.3-2,8-2.4c0-0.7,0-1.3,0-2c1.3-3.3,2.4-6.3,3.3-9.6
	c-2,0.4-3.7,0.4-5.3,1c-1.3,0.4-2.7,0.7-4,1c-1,0.4-2,0.7-3,1l4,1l-3.3,10.3L133.5,115.8"/>
<path id="Trazado_1215" class="st11" d="M184,85.2c-0.7-1-1.3-2-2.4-2.7l0,0c-0.7-1-1.7-2-2.4-3c-0.7-1-1.7-2-2.4-3c0,0,0,0,0-0.4
	c-0.7-0.7-1.3-1.7-2-2.4c-0.4-0.4-1-1-1.3-1.3s-0.7-0.7-1-1c-0.4-0.4-0.7-0.7-1-1c-0.7-0.7-1.3-1.3-2.4-2c-0.4-0.4-0.7-0.7-1-1l0,0
	c0.7,2,1.7,4,2,6.3c0,0.7,0.4,1,0.4,1.7c1,7.3-1.3,12.3-5,18.6c-0.4,0.4-0.7,1-0.7,1.3c-0.7,1.3-1.3,2.7-1.7,4
	c0,0.4-0.4,0.7-0.4,1.3c7.3,1.3,18.3,1.3,29.6-4c0,0-2.4-3.3-5.7-7.7C185.6,87.5,184.6,86.5,184,85.2L184,85.2"/>
<path id="Trazado_1216" class="st2" d="M132.4,117.8l3.7-12.3l-4-1c-1,0.4-1.7,0.7-2.7,1l-3.7,12h4L132.4,117.8"/>
<path id="Trazado_1217" class="st4" d="M135.1,112.8c0.4,0,0.7,0.4,1,0.4c9,3,18.9,3,27.6-0.7c0.4,0,0.4-0.4,0.7-0.4
	c0.4-0.4,0.7-0.4,1-0.7c0.4,0,0.7-0.4,1-0.4c0,0,0,0-0.4,0c-1.3,0.4-2.7,0-4.3,0c-8-1.3-9.9-5-9.6-9c-0.7-0.4-1.3-0.7-1.7-1
	c-6.3-4.6-9.9-9.3-9.9-9.3s4.6,3.7,12,6.3l0.4,0.4c0.4-1,0.7-2.4,1-3.3v-0.4c0.4-1,1-2.4,1.3-3.3c1.7-4,4-8,5-12.6l0.7-2.4h-4.3l0,0
	l0,0l0,0c0,3-2.4,5.3-5.3,5.3l0,0c-0.4,0-0.4,0-0.7,0l0,0H150l0,0h-0.3l0,0h-0.4l0,0c0,0-0.4,0-0.4-0.4l0,0c-0.4-0.4-1-0.7-1.3-1
	l-14.9-4h-16.6c0,0,0,0.4-0.4,0.4c0,0.4-0.4,0.4-0.4,0.7c-0.4,0.7-0.7,1.7-1,2.4c-0.3,0.7-0.7,1.3-1,2.4l0,0c-0.7,2-1.3,4-1.7,6
	c2.7,8,7.7,14.7,14.3,19.6c0.4,0,0.4,0.4,0.7,0.4C129.1,110.1,132.1,111.4,135.1,112.8"/>
<path id="Trazado_1218" class="st12" d="M174.6,122.1c0-1,0-2-0.4-3.3c0-0.7-0.7-1.3-1.3-1.3h-48.2c-0.7,0-1.3,0.7-1.3,1.3
	c0,1,0,2-0.4,3.3c0,1-0.4,2.4-0.7,3.3c0.7,0.4,1.3,0.7,2,1c0.4-2,0.7-4.3,1-6.3l0,0h46.3l0,0c0,2.4,0.4,4.3,1,6.3
	c0.7-0.4,1.3-0.7,2-1C175,124.4,174.6,123.1,174.6,122.1"/>
</svg>
