<?xml version="1.0" encoding="utf-8"?>
<!-- Generator: Adobe Illustrator 24.1.2, SVG Export Plug-In . SVG Version: 6.00 Build 0)  -->
<svg version="1.1" id="Capa_1" xmlns="http://www.w3.org/2000/svg" xmlns:xlink="http://www.w3.org/1999/xlink" x="0px" y="0px"
	 viewBox="0 0 65.4 33.7" style="enable-background:new 0 0 65.4 33.7;" xml:space="preserve">
<style type="text/css">
	.st0{fill:#B8D3CE;}
	.st1{fill:#525353;}
	.st2{fill:#AA9678;}
	.st3{fill:#C4B6A1;}
	.st4{fill:#FFFFFF;}
	.st5{fill:#676A6A;}
	.st6{fill:#909393;}
	.st7{fill:#BBBCBD;}
	.st8{fill:#E3DDDB;}
	.st9{fill:#FCB03F;}
	.st10{fill:#9F2254;}
	.st11{fill:#DF0067;}
	.st12{fill:#8B7460;}
</style>
<path id="Trazado_1180" class="st0" d="M26.8,25.8c0.3-0.1,0.5-0.2,0.8-0.3c0.3-0.1,0.6-0.2,0.9-0.3c0.4-0.1,0.8-0.2,1.2-0.3
	c0.5-0.1,1.1-0.2,1.6-0.3c-0.3,1-0.7,2-1,2.9c0,0.2,0,0.4,0,0.6c1.5-0.3,3.1-0.3,4.6,0c0-0.2,0-0.4,0-0.6c-0.4-1-0.7-1.9-1-2.9
	c0.6,0.1,1.1,0.1,1.6,0.3c0.4,0.1,0.8,0.2,1.2,0.3c0.3,0.1,0.6,0.2,0.9,0.3c0.3,0.1,0.5,0.2,0.8,0.3c1.9,0.9,3.7,2.1,5.1,3.7
	c3.6-3.1,5.8-7.6,5.8-12.7C49.5,7.5,42,0,32.7,0S15.9,7.5,15.9,16.8c0,5.1,2.3,9.7,5.8,12.7C23.1,28,24.8,26.7,26.8,25.8"/>
<path id="Trazado_1181" class="st1" d="M38.6,25.8l1,3.6l0.3,0c0.2,0,0.3,0.1,0.3,0.2c0,0.3,0,0.7,0,1c0.3,0.2,0.6,0.5,0.8,0.7
	c0.9-0.5,1.7-1.1,2.5-1.8C42.3,28,40.6,26.7,38.6,25.8 M36.6,25.8l1.2-0.3c-0.3-0.1-0.6-0.2-0.9-0.3c-0.4-0.1-0.8-0.2-1.2-0.3
	c-0.5-0.1-1.1-0.2-1.6-0.3c0.3,1,0.7,2,1,2.9c0,0.2,0,0.4,0,0.6c0.9,0.2,1.7,0.5,2.5,0.8L36.6,25.8"/>
<path id="Trazado_1182" d="M24.2,31.4c0.2,0.1,0.4,0.2,0.6,0.3c0.1-0.3,0.2-0.8,0.2-1.2C24.8,30.8,24.5,31.1,24.2,31.4 M37.5,28.9
	c-0.8-0.4-1.6-0.6-2.5-0.8c-1.5-0.3-3.1-0.3-4.6,0c-0.9,0.2-1.8,0.4-2.6,0.8l-0.1,0.5h9.9L37.5,28.9"/>
<path id="Trazado_1183" class="st1" d="M25,30.7c0-0.3,0.1-0.6,0.1-0.9c0-0.2,0.1-0.3,0.3-0.3l0.3,0l1.1-3.6
	c-1.9,0.9-3.7,2.1-5.1,3.7c0.8,0.7,1.6,1.3,2.5,1.8C24.5,31.1,24.7,30.9,25,30.7"/>
<path id="Trazado_1184" d="M40.5,31.3c0.1,0.3,0.1,0.4,0.1,0.4c0.2-0.1,0.4-0.2,0.6-0.3c-0.2-0.2-0.5-0.5-0.8-0.7L40.5,31.3"/>
<path id="Trazado_1185" class="st2" d="M37.5,28.9l0.2,0.5h2l-1.1-3.6c-0.3-0.1-0.5-0.2-0.8-0.3l-1.2,0.3L37.5,28.9"/>
<path id="Trazado_1186" class="st3" d="M25.7,30.1L25.7,30.1L25.7,30.1C25.7,30.1,25.7,30.1,25.7,30.1"/>
<path id="Trazado_1187" class="st2" d="M39.7,30.1L39.7,30.1L39.7,30.1C39.7,30.1,39.7,30.1,39.7,30.1"/>
<path id="Trazado_1188" class="st2" d="M39.6,30l-6.9,0l0,3.6c2.5,0,5-0.5,7.2-1.6c-0.1-0.6-0.2-1.3-0.2-2
	C39.7,30.1,39.6,30,39.6,30"/>
<path id="Trazado_1189" class="st3" d="M32.7,30.1c0,0-7,0-7,0c0,0.7-0.2,1.4-0.2,2c2.3,1.1,4.7,1.6,7.2,1.6L32.7,30.1L32.7,30.1"/>
<path id="Trazado_1192" class="st2" d="M37.9,27.4L37.9,27.4L37.9,27.4c-0.1-0.1-0.3-0.2-0.4-0.4C37.6,27.1,37.8,27.3,37.9,27.4"/>
<path id="Trazado_1193" class="st4" d="M43,12.1L43,12.1 M43.7,17L43.7,17"/>
<path id="Trazado_1195" class="st5" d="M43.7,16.7C43.7,16.7,43.7,16.7,43.7,16.7L43.7,16.7L43.7,16.7c0,0.1,0,0.1,0,0.2
	c0,0,0,0,0,0v0c0,0,0,0,0,0c0,0.1,0,0.1,0,0.2l0,0v0c0,0,0,0,0,0c0,0.1,0,0.1,0,0.2l0,0l0,0l0,0v0l0,0l0.4-0.5l-0.4-0.5l0,0
	C43.7,16.6,43.7,16.7,43.7,16.7"/>
<path id="Trazado_1196" d="M43.7,17.3C43.7,17.2,43.7,17.2,43.7,17.3c0-0.1,0-0.2,0-0.2c0,0,0,0,0,0c0,0,0,0,0,0c0-0.1,0-0.1,0-0.2
	c0,0,0,0,0,0c0-0.1,0-0.1,0-0.2c0,0,0,0,0-0.1c0-0.1-0.1-0.2-0.2-0.3c0,0-0.1-0.1-0.1-0.1c0,0-0.1-0.1-0.1-0.1c0,0,0,0,0,0
	c0,0-0.1,0-0.1-0.1c-0.1,0-0.2,0-0.2,0c0,0-0.1,0-0.1,0.1c0,0,0,0,0,0c-0.1,0-0.1,0.1-0.1,0.1c0,0,0,0,0,0c-0.1,0.1-0.1,0.2-0.2,0.3
	l0,0c0,0.1,0,0.1,0,0.2c0,0,0,0,0,0.1c0,0.1,0,0.2,0,0.2c0,0,0,0,0,0l0,0c0,0.6,0.3,1.2,0.7,1.2c0.1,0,0.1,0,0.2,0
	c0,0,0.1,0,0.1-0.1c0,0,0,0,0,0c0,0,0.1-0.1,0.1-0.1c0,0,0-0.1,0.1-0.1c0,0,0,0,0-0.1c0,0,0-0.1,0.1-0.1c0,0,0,0,0,0
	c0-0.1,0-0.1,0.1-0.2C43.7,17.4,43.7,17.3,43.7,17.3L43.7,17.3z M43.1,16.8c-0.1,0-0.3-0.2-0.3-0.4c0-0.2,0.1-0.4,0.3-0.4
	s0.3,0.2,0.3,0.4C43.3,16.6,43.2,16.8,43.1,16.8L43.1,16.8z"/>
<path id="Trazado_1197" class="st4" d="M43.1,16c-0.1,0-0.3,0.2-0.3,0.4s0.1,0.4,0.3,0.4s0.3-0.2,0.3-0.4C43.3,16.2,43.2,16,43.1,16
	"/>
<path id="Trazado_1198" class="st6" d="M42.4,16.5c0-0.1,0.1-0.2,0.2-0.3c0,0,0,0,0,0c0-0.1,0.1-0.1,0.1-0.1c0,0,0,0,0,0
	c0,0,0.1,0,0.1-0.1c0.1,0,0.2,0,0.2,0c0,0,0.1,0,0.1,0.1c0,0,0,0,0,0c0,0,0.1,0.1,0.1,0.1c0,0,0.1,0.1,0.1,0.1
	c0.1,0.1,0.1,0.2,0.2,0.3l0,0L43,13.7L42.4,16.5L42.4,16.5"/>
<path id="Trazado_1199" d="M35.1,17c0-0.1,0-0.1,0-0.2l0,0c0-0.1,0-0.1,0-0.2v0c0-0.1,0-0.1,0-0.1v0c0-0.1,0-0.1-0.1-0.1
	c0,0,0,0,0,0c-0.2-0.4-0.5-0.7-0.8-0.8h0c-0.1,0-0.2-0.1-0.3-0.1h0c-0.2,0-0.4,0-0.6,0h0c-0.1,0-0.2,0-0.3,0.1h0
	c-0.1,0-0.2,0.1-0.3,0.1c-0.1,0.1-0.2,0.1-0.2,0.2v0h0c-0.1,0.1-0.2,0.2-0.3,0.4v0c0,0,0,0.1-0.1,0.1l0,0c0,0,0,0.1,0,0.1
	c0,0,0,0,0,0c0,0,0,0.1,0,0.1c0,0,0,0,0,0c0,0,0,0.1,0,0.1c0,0,0,0,0,0c0,0.2,0,0.3,0,0.5v0c0,0.1,0.1,0.2,0.1,0.3v0
	c0.1,0.3,0.4,0.6,0.7,0.8l0,0c0,0,0.1,0,0.1,0.1l0,0c0,0,0.1,0,0.1,0l0,0c0,0,0.1,0,0.1,0c0,0,0,0,0,0c0,0,0.1,0,0.1,0c0,0,0,0,0,0
	c0.9,0.1,1.7-0.5,1.7-1.4C35.1,17.1,35.1,17,35.1,17C35.1,17,35.1,17,35.1,17C35.1,17,35.1,17,35.1,17L35.1,17z M33.5,16.8
	c-0.3,0-0.6-0.3-0.6-0.6c0-0.3,0.3-0.6,0.6-0.6c0.3,0,0.6,0.3,0.6,0.6C34.1,16.5,33.8,16.8,33.5,16.8L33.5,16.8z"/>
<path id="Trazado_1200" class="st4" d="M33.5,15.6c-0.3,0-0.6,0.3-0.6,0.6s0.3,0.6,0.6,0.6c0.3,0,0.6-0.3,0.6-0.6
	C34.1,15.8,33.8,15.6,33.5,15.6L33.5,15.6L33.5,15.6"/>
<path id="Trazado_1201" class="st7" d="M32.4,15.8L32.4,15.8L32.4,15.8l1.1-3.3v-0.8c-0.6-0.1-1.2-0.2-1.9-0.2c-0.2,0-0.4,0-0.6,0
	l-0.1,0c-1.1,0.1-2.2,0.4-3.2,0.8c-0.9,0.4-1.7,0.9-2.4,1.5l0,0l0,0c-0.2,0.2-0.4,0.3-0.6,0.5c0,0-0.1,0.1-0.1,0.1
	c-0.2,0.2-0.3,0.3-0.5,0.5c0,0-0.1,0.1-0.1,0.1c-0.2,0.2-0.3,0.4-0.5,0.6c0,0,0,0,0,0.1c-0.1,0.2-0.3,0.4-0.4,0.6
	c0,0-0.1,0.1-0.1,0.1c-0.1,0.2-0.2,0.3-0.3,0.5h5L32.4,15.8"/>
<path id="Trazado_1202" class="st8" d="M36.6,15.5c0-0.1,0-0.3,0-0.4c0-0.2,0-0.4,0-0.5c0-0.1,0-0.3,0-0.4c0,0,0-0.1,0-0.1
	c0-0.4,0-0.7,0-1.1l0,0l0,0c-0.1-0.1-0.3-0.2-0.4-0.2l0,0l-0.1-0.1l0,0l-0.1,0l0,0l-0.1,0c-0.2-0.1-0.5-0.2-0.7-0.3
	c-0.6-0.2-1.3-0.4-1.8-0.5v0.8l1.1,3.3l0,0c0.1,0.1,0.2,0.2,0.3,0.4l0,0c0,0,0.1,0.1,0.1,0.1l0,0c0,0,0,0.1,0.1,0.1v0
	c0,0.1,0,0.1,0,0.1v0c0,0.1,0,0.1,0,0.2l0,0c0,0.1,0,0.1,0,0.2l0,0h1.3C36.5,16.5,36.6,16,36.6,15.5C36.6,15.5,36.6,15.5,36.6,15.5"
	/>
<path id="Trazado_1203" class="st9" d="M38.4,14.3C38.4,14.3,38.4,14.3,38.4,14.3L38.4,14.3"/>
<path id="Trazado_1204" class="st6" d="M32.4,15.8c0.1-0.1,0.1-0.1,0.2-0.2c0.1-0.1,0.2-0.1,0.3-0.1h0c0.1,0,0.2-0.1,0.3-0.1h0
	c0.2,0,0.4,0,0.6,0h0c0.1,0,0.2,0.1,0.3,0.1c0.2,0.1,0.4,0.2,0.5,0.3l0,0l-1.1-3.3L32.4,15.8"/>
<path id="Trazado_1205" class="st5" d="M32,17.6c0-0.1-0.1-0.2-0.1-0.3v0c0-0.2,0-0.3,0-0.5c0,0,0,0,0,0c0,0,0-0.1,0-0.1
	c0,0,0,0,0,0c0,0,0-0.1,0-0.1c0,0,0,0,0,0c0,0,0-0.1,0-0.1c0,0,0,0,0,0c0,0,0-0.1,0.1-0.1l0,0c0.1-0.1,0.2-0.3,0.3-0.4L27.8,17h0
	l4.6,1.1C32.2,17.9,32.1,17.8,32,17.6L32,17.6"/>
<path id="Trazado_1206" class="st8" d="M42.4,16.7C42.4,16.7,42.4,16.7,42.4,16.7c0-0.1,0-0.2,0.1-0.2c0,0,0,0,0,0l0.6-2.7v-1.6
	c-0.5-0.4-1-0.6-1.6-0.6c-0.7,0-1.3,0.4-1.8,0.9c-0.5,0.5-0.9,1.2-1.3,1.8c0,0,0,0.1,0,0.1c0.1,0.1,0.2,0.2,0.3,0.3
	c0.2,0.2,0.4,0.4,0.7,0.6c0.1,0.1,0.2,0.2,0.3,0.3c0.1,0.1,0.2,0.2,0.3,0.3c0.2,0.2,0.4,0.4,0.6,0.6c0.2,0.2,0.3,0.4,0.5,0.5l0,0
	c0,0,0,0,0.1,0.1h1.4c0,0,0,0,0,0C42.4,16.9,42.4,16.8,42.4,16.7 M38.4,14.3L38.4,14.3L38.4,14.3L38.4,14.3L38.4,14.3"/>
<path id="Trazado_1207" class="st1" d="M22,18.7L22,18.7c0.2-0.5,0.4-1,0.6-1.4c0-0.1,0.1-0.1,0.1-0.2c0,0,0-0.1,0.1-0.1
	c0.1-0.2,0.2-0.3,0.3-0.5c0,0,0.1-0.1,0.1-0.1c0.1-0.2,0.3-0.4,0.4-0.6c0,0,0,0,0-0.1c0.1-0.2,0.3-0.4,0.5-0.6c0,0,0.1-0.1,0.1-0.1
	c0.2-0.2,0.3-0.4,0.5-0.5c0,0,0.1-0.1,0.1-0.1c0.2-0.2,0.4-0.4,0.6-0.5l0,0c0.8-2.5,3.2-4.1,5.9-4.1c1.1,0,2.2,0.3,3.1,0.9
	c1,0.6,1.6,1.2,2.1,2.2l0,0c0,0,0,0.1,0,0.1l0,0l0,0c0.4,0.3,0.8,0.6,1.2,0.9c0.1,0.1,0.3,0.2,0.4,0.3c0,0,0.1,0.1,0.1,0.1v0
	c0,0,0,0,0,0l0-0.1c0.4-2.4,1.6-3.8,2.9-3.8c1,0,1.7,0.6,2.2,2.1l0,0l0,0c0.2,0.2,0.3,0.4,0.4,0.5l0,0l0,0l0,0c0,0,0,0,0,0.1l0,0
	l0-0.1c-1.6-4.7-6-8-11.2-8c-6.5,0-11.8,5.3-11.8,11.8c0,1.3,0.2,2.5,0.6,3.7v0C21.6,19.9,21.8,19.3,22,18.7"/>
<path id="Trazado_1208" class="st4" d="M44.1,17l-0.4,0.5l0,0l0,0c0,0.1,0,0.1-0.1,0.2c0,0,0,0,0,0c0,0,0,0.1-0.1,0.1c0,0,0,0,0,0.1
	c0,0,0,0.1-0.1,0.1c0,0-0.1,0.1-0.1,0.1c0,0,0,0,0,0c0,0-0.1,0-0.1,0.1c-0.1,0-0.1,0-0.2,0c-0.4,0-0.7-0.5-0.7-1.2H41l0,0
	c0.3,0.3,0.5,0.6,0.8,0.9c0.2,0.3,0.5,0.6,0.7,0.9l0,0c0.2,0.3,0.4,0.6,0.7,0.8l0.1,0.1c0.2,0.3,0.5,0.6,0.7,0.9
	c0.4-1.2,0.6-2.4,0.6-3.7L44.1,17L44.1,17"/>
<path id="Trazado_1209" d="M30.9,11.5L30.9,11.5c0.3,0,0.5,0,0.7,0c0.6,0,1.3,0.1,1.9,0.2l0,0c0.4,0.1,1.2,0.3,1.8,0.5
	c0.2,0.1,0.5,0.2,0.7,0.3l0.1,0l0,0l0.1,0l0,0l0.1,0.1l0,0c0.1,0.1,0.3,0.2,0.4,0.2l0,0l0,0c0,0,0-0.1,0-0.1l0,0
	c-0.5-1-1.3-1.9-2.3-2.5c-0.9-0.6-2-0.9-3.1-0.9c-2.7,0-5.1,1.8-5.8,4.4c0.7-0.6,1.5-1.1,2.4-1.5C28.7,11.9,29.8,11.6,30.9,11.5"/>
<path id="Trazado_1210" class="st7" d="M43.9,13.1L43.9,13.1L43.9,13.1L43.9,13.1c-0.1-0.2-0.3-0.4-0.4-0.5l0,0
	c-0.1-0.1-0.1-0.1-0.2-0.2c0,0-0.1,0-0.1-0.1c0,0-0.1-0.1-0.1-0.1v1.6l0.6,2.7l0,0c0,0,0,0,0,0.1l0.4,0.5l0,0h0.4c0,0,0-0.1,0-0.1
	l0,0C44.5,15.6,44.3,14.4,43.9,13.1L43.9,13.1C43.9,13.1,43.9,13.1,43.9,13.1"/>
<path id="Trazado_1211" d="M39.7,12.4c0.5-0.5,1.1-0.9,1.8-0.9c0.5,0,1.1,0.2,1.6,0.6v0l0,0c0,0,0.1,0.1,0.1,0.1c0,0,0.1,0,0.1,0.1
	c0.1,0.1,0.1,0.1,0.2,0.2l0,0l0,0l0,0l0,0C42.9,11,42.1,10,41.1,10c-1.3,0-2.3,1.8-2.7,4.2l0,0C38.7,13.5,39.1,12.9,39.7,12.4
	 M38,27.3c-0.1-0.1-0.3-0.2-0.4-0.4c-0.1-0.1-0.2-0.2-0.3-0.4c0,0-0.1-0.1-0.1-0.1C37.1,26.3,37,26.2,37,26
	c-0.1-0.2-0.1-0.3-0.1-0.5c0-0.1-0.1-0.2-0.1-0.4c0-0.2,0-0.4,0-0.6c0-0.1,0-0.2,0-0.4c0-0.1,0-0.2,0.1-0.4c0.1-0.4,0.3-0.8,0.5-1.2
	l0.1-0.1c0.1-0.1,0.1-0.1,0.2-0.3c1.1-1.9,1.7-3.3,1.4-5.6c0-0.2-0.1-0.5-0.1-0.7c0,0.2-0.1,0.3-0.1,0.5c0,0,0,0.1-0.1,0.1
	c-0.5,1.4-1.3,2.5-2.4,3.7c-0.2,0.2-0.3,0.3-0.5,0.5c-0.3,0.3-0.6,0.6-0.9,0.9L34.7,22c-0.1,0.1-0.3,0.4-0.4,0.5
	c-0.1,0.3-0.2,0.6-0.3,1c0,0-0.1,0-0.1-0.1c-2.2-0.8-3.6-1.9-3.6-1.9s1.1,1.4,3,2.8c0.2,0.1,0.4,0.2,0.5,0.3
	c-0.1,1.2,0.5,2.4,2.9,2.7C37.1,27.5,37.5,27.5,38,27.3C37.9,27.4,37.9,27.4,38,27.3C37.9,27.4,38,27.4,38,27.3"/>
<path id="Trazado_1212" class="st10" d="M36.7,24.2c2.2,0.3,5.3,0.3,8.7-1.3c0.1,0,0.2,0.1,0.2,0c0,0-2.3,2.3-5,3.6
	c-0.1,0-0.2,0.1-0.2,0.1c-0.3,0.1-0.5,0.2-0.8,0.3c-0.5,0.2-1,0.3-1.6,0.4c0,0,0,0-0.1,0l0,0l0,0c-0.1-0.1-0.3-0.2-0.4-0.4
	c-0.1-0.1-0.2-0.2-0.3-0.4c-0.1-0.2-0.2-0.4-0.3-0.6c-0.1-0.2-0.1-0.3-0.2-0.5c-0.1-0.3-0.1-0.7-0.1-1
	C36.6,24.4,36.6,24.3,36.7,24.2L36.7,24.2"/>
<path id="Trazado_1213" class="st9" d="M35.1,21.7c0.3-0.3,0.6-0.6,0.9-0.9c0.2-0.2,0.3-0.3,0.5-0.5c1.1-1.2,1.9-2.3,2.4-3.8
	c0,0,0-0.1,0-0.1l0,0c0-0.1,0-0.1,0-0.2c0,0,0.2-0.1,0.2-0.2c-0.1-0.6-0.4-1.3-0.7-1.8v0l0,0c0,0-0.1-0.1-0.1-0.1
	c-0.1-0.1-0.2-0.2-0.4-0.3c-0.4-0.3-0.8-0.6-1.2-0.9c0,0.4,0,0.7,0,1.1c0,0,0,0.1,0,0.1c0,0.1,0,0.3,0,0.4c0,0.2,0,0.4,0,0.5
	c0,0.1,0,0.3,0,0.4c0,0,0,0,0,0c0,0.5-0.1,1-0.2,1.5l-0.2,0.7c-0.3,1.3-1,2.5-1.5,3.8c-0.1,0.3-0.3,0.7-0.4,1l0,0.1
	c0.1-0.2,0.3-0.3,0.4-0.4L35.1,21.7"/>
<path id="Trazado_1214" class="st1" d="M28,28.8c0.8-0.3,1.6-0.6,2.4-0.7c0-0.2,0-0.4,0-0.6c0.4-1,0.7-1.9,1-2.9
	c-0.6,0.1-1.1,0.1-1.6,0.3c-0.4,0.1-0.8,0.2-1.2,0.3c-0.3,0.1-0.6,0.2-0.9,0.3l1.2,0.3l-1,3.1L28,28.8"/>
<path id="Trazado_1215" class="st11" d="M43.2,19.6c-0.2-0.3-0.4-0.6-0.7-0.8l0,0c-0.2-0.3-0.5-0.6-0.7-0.9
	c-0.2-0.3-0.5-0.6-0.7-0.9c0,0,0,0,0-0.1c-0.2-0.2-0.4-0.5-0.6-0.7c-0.1-0.1-0.3-0.3-0.4-0.4c-0.1-0.1-0.2-0.2-0.3-0.3
	c-0.1-0.1-0.2-0.2-0.3-0.3c-0.2-0.2-0.4-0.4-0.7-0.6c-0.1-0.1-0.2-0.2-0.3-0.3l0,0c0.2,0.6,0.5,1.2,0.6,1.9c0,0.2,0.1,0.3,0.1,0.5
	c0.3,2.2-0.4,3.7-1.5,5.6c-0.1,0.1-0.2,0.3-0.2,0.4c-0.2,0.4-0.4,0.8-0.5,1.2c0,0.1-0.1,0.2-0.1,0.4c2.2,0.4,5.5,0.4,8.9-1.2
	c0,0-0.7-1-1.7-2.3C43.7,20.3,43.4,20,43.2,19.6L43.2,19.6"/>
<path id="Trazado_1216" class="st2" d="M27.7,29.4l1.1-3.7l-1.2-0.3c-0.3,0.1-0.5,0.2-0.8,0.3l-1.1,3.6l1.2,0L27.7,29.4"/>
<path id="Trazado_1217" class="st4" d="M28.5,27.9c0.1,0,0.2,0.1,0.3,0.1c2.7,0.9,5.7,0.9,8.3-0.2c0.1,0,0.1-0.1,0.2-0.1
	c0.1-0.1,0.2-0.1,0.3-0.2c0.1,0,0.2-0.1,0.3-0.1c0,0,0,0-0.1,0c-0.4,0.1-0.8,0-1.3,0c-2.4-0.4-3-1.5-2.9-2.7
	c-0.2-0.1-0.4-0.2-0.5-0.3c-1.9-1.4-3-2.8-3-2.8s1.4,1.1,3.6,1.9l0.1,0.1c0.1-0.3,0.2-0.7,0.3-1l0-0.1c0.1-0.3,0.3-0.7,0.4-1
	c0.5-1.2,1.2-2.4,1.5-3.8l0.2-0.7h-1.3l0,0l0,0c0,0,0,0,0,0c0,0.9-0.7,1.6-1.6,1.6l0,0c-0.1,0-0.1,0-0.2,0c0,0,0,0,0,0
	c0,0-0.1,0-0.1,0c0,0,0,0,0,0c0,0-0.1,0-0.1,0l0,0c0,0-0.1,0-0.1,0l0,0c0,0-0.1,0-0.1-0.1l0,0c-0.1-0.1-0.3-0.2-0.4-0.3L27.8,17h-5
	c0,0,0,0.1-0.1,0.1c0,0.1-0.1,0.1-0.1,0.2c-0.1,0.2-0.2,0.5-0.3,0.7c-0.1,0.2-0.2,0.4-0.3,0.7l0,0c-0.2,0.6-0.4,1.2-0.5,1.8
	c0.8,2.4,2.3,4.4,4.3,5.9c0.1,0,0.1,0.1,0.2,0.1C26.7,27.1,27.6,27.5,28.5,27.9"/>
<path id="Trazado_1218" class="st12" d="M40.4,30.7c0-0.3,0-0.6-0.1-1c0-0.2-0.2-0.4-0.4-0.4H25.4c-0.2,0-0.4,0.2-0.4,0.4
	c0,0.3,0,0.6-0.1,1c0,0.3-0.1,0.7-0.2,1c0.2,0.1,0.4,0.2,0.6,0.3c0.1-0.6,0.2-1.3,0.3-1.9v0h13.9c0,0,0,0,0,0c0,0.7,0.1,1.3,0.3,1.9
	c0.2-0.1,0.4-0.2,0.6-0.3C40.5,31.4,40.4,31,40.4,30.7"/>
</svg>
