<?xml version="1.0" encoding="utf-8"?>
<!-- Generator: Adobe Illustrator 24.1.2, SVG Export Plug-In . SVG Version: 6.00 Build 0)  -->
<svg version="1.1" id="Capa_1" xmlns="http://www.w3.org/2000/svg" xmlns:xlink="http://www.w3.org/1999/xlink" x="0px" y="0px"
	 viewBox="0 0 1031 776" style="enable-background:new 0 0 1031 776;" xml:space="preserve">
<style type="text/css">
	.st0{fill:#B8D3CE;}
	.st1{fill:#525353;}
	.st2{fill:#AA9678;}
	.st3{fill:#C4B6A1;}
	.st4{fill:#FFFFFF;}
	.st5{fill:#676A6A;}
	.st6{fill:#909393;}
	.st7{fill:#BBBCBD;}
	.st8{fill:#E3DDDB;}
	.st9{fill:#FCB03F;}
	.st10{fill:#9F2254;}
	.st11{fill:#DF0067;}
	.st12{fill:#8B7460;}
</style>
<path id="Trazado_1180" class="st0" d="M417.8,538.6c5-1.7,8.4-3.4,13.5-5s10.1-3.4,15.1-5c6.7-1.7,13.5-3.4,20.2-5
	c8.4-1.7,18.5-3.4,26.9-5c-5,16.8-11.8,33.6-16.8,48.8c0,3.4,0,6.7,0,10.1c25.2-5,52.2-5,77.4,0c0-3.4,0-6.7,0-10.1
	c-6.7-16.8-11.8-32-16.8-48.8c10.1,1.7,18.5,1.7,26.9,5c6.7,1.7,13.5,3.4,20.2,5c5,1.7,10.1,3.4,15.1,5c5,1.7,8.4,3.4,13.5,5
	c32,15.1,62.3,35.3,85.8,62.3c60.6-52.2,97.6-127.9,97.6-213.7c3.4-156.5-122.8-282.7-279.3-282.7S234.4,230.7,234.4,387.2
	c0,85.8,38.7,163.2,97.6,213.7C355.5,575.6,384.1,553.7,417.8,538.6"/>
<path id="Trazado_1181" class="st1" d="M616.3,538.6l16.8,60.6h5c3.4,0,5,1.7,5,3.4c0,5,0,11.8,0,16.8c5,3.4,10.1,8.4,13.5,11.8
	c15.1-8.4,28.6-18.5,42.1-30.3C678.6,575.6,650,553.7,616.3,538.6 M582.7,538.6l20.2-5c-5-1.7-10.1-3.4-15.1-5
	c-6.7-1.7-13.5-3.4-20.2-5c-8.4-1.7-18.5-3.4-26.9-5c5,16.8,11.8,33.6,16.8,48.8c0,3.4,0,6.7,0,10.1c15.1,3.4,28.6,8.4,42.1,13.5
	L582.7,538.6"/>
<path id="Trazado_1182" d="M374,632.8c3.4,1.7,6.7,3.4,10.1,5c1.7-5,3.4-13.5,3.4-20.2C384.1,622.7,379.1,627.8,374,632.8
	 M597.8,590.7c-13.5-6.7-26.9-10.1-42.1-13.5c-25.2-5-52.2-5-77.4,0c-15.1,3.4-30.3,6.7-43.7,13.5l-1.7,8.4h166.6L597.8,590.7"/>
<path id="Trazado_1183" class="st1" d="M387.5,621c0-5,1.7-10.1,1.7-15.1c0-3.4,1.7-5,5-5h5l18.5-60.6c-32,15.1-62.3,35.3-85.8,62.3
	c13.5,11.8,26.9,21.9,42.1,30.3C379.1,627.8,382.5,624.4,387.5,621"/>
<path id="Trazado_1184" d="M648.3,631.1c1.7,5,1.7,6.7,1.7,6.7c3.4-1.7,6.7-3.4,10.1-5c-3.4-3.4-8.4-8.4-13.5-11.8L648.3,631.1"/>
<path id="Trazado_1185" class="st2" d="M597.8,590.7l3.4,8.4h33.6l-18.5-60.6c-5-1.7-8.4-3.4-13.5-5l-20.2,5L597.8,590.7"/>
<path id="Trazado_1186" class="st3" d="M399.3,610.9L399.3,610.9L399.3,610.9L399.3,610.9"/>
<path id="Trazado_1187" class="st2" d="M634.8,610.9L634.8,610.9L634.8,610.9L634.8,610.9"/>
<path id="Trazado_1188" class="st2" d="M633.1,609.2H517.1v60.6c42.1,0,84.1-8.4,121.1-26.9c-1.7-10.1-3.4-21.9-3.4-33.6
	C634.8,610.9,633.1,609.2,633.1,609.2"/>
<path id="Trazado_1189" class="st3" d="M517.1,610.9H399.3c0,11.8-3.4,23.6-3.4,33.6c38.7,18.5,79.1,26.9,121.1,26.9V610.9
	L517.1,610.9"/>
<path id="Trazado_1192" class="st2" d="M604.5,565.5L604.5,565.5L604.5,565.5c-1.7-1.7-5-3.4-6.7-6.7
	C599.5,560.5,602.9,563.8,604.5,565.5"/>
<path id="Trazado_1193" class="st4" d="M690.3,308.1L690.3,308.1 M702.1,390.5L702.1,390.5"/>
<path id="Trazado_1195" class="st5" d="M702.1,385.5L702.1,385.5L702.1,385.5L702.1,385.5c0,1.7,0,1.7,0,3.4l0,0l0,0l0,0
	c0,1.7,0,1.7,0,3.4l0,0l0,0l0,0c0,1.7,0,1.7,0,3.4l0,0l0,0l0,0l0,0l0,0l6.7-8.4l-6.7-8.4l0,0C702.1,383.8,702.1,385.5,702.1,385.5"
	/>
<path id="Trazado_1196" d="M702.1,395.6C702.1,393.9,702.1,393.9,702.1,395.6c0-1.7,0-3.4,0-3.4l0,0l0,0c0-1.7,0-1.7,0-3.4l0,0
	c0-1.7,0-1.7,0-3.4c0,0,0,0,0-1.7s-1.7-3.4-3.4-5l-1.7-1.7l-1.7-1.7l0,0c0,0-1.7,0-1.7-1.7c-1.7,0-3.4,0-3.4,0s-1.7,0-1.7,1.7l0,0
	c-1.7,0-1.7,1.7-1.7,1.7l0,0c-1.7,1.7-1.7,3.4-3.4,5l0,0c0,1.7,0,1.7,0,3.4c0,0,0,0,0,1.7s0,3.4,0,3.4l0,0l0,0
	c0,10.1,5,20.2,11.8,20.2c1.7,0,1.7,0,3.4,0c0,0,1.7,0,1.7-1.7l0,0l1.7-1.7c0,0,0-1.7,1.7-1.7c0,0,0,0,0-1.7c0,0,0-1.7,1.7-1.7l0,0
	c0-1.7,0-1.7,1.7-3.4C702.1,397.3,702.1,395.6,702.1,395.6L702.1,395.6z M692,387.2c-1.7,0-5-3.4-5-6.7c0-3.4,1.7-6.7,5-6.7
	s5,3.4,5,6.7C695.4,383.8,693.7,387.2,692,387.2L692,387.2z"/>
<path id="Trazado_1197" class="st4" d="M692,373.7c-1.7,0-5,3.4-5,6.7s1.7,6.7,5,6.7s5-3.4,5-6.7C695.4,377.1,693.7,373.7,692,373.7
	"/>
<path id="Trazado_1198" class="st6" d="M680.3,382.1c0-1.7,1.7-3.4,3.4-5l0,0c0-1.7,1.7-1.7,1.7-1.7l0,0c0,0,1.7,0,1.7-1.7
	c1.7,0,3.4,0,3.4,0s1.7,0,1.7,1.7l0,0l1.7,1.7l1.7,1.7c1.7,1.7,1.7,3.4,3.4,5l0,0l-8.4-48.8L680.3,382.1L680.3,382.1"/>
<path id="Trazado_1199" d="M557.4,390.5c0-1.7,0-1.7,0-3.4l0,0c0-1.7,0-1.7,0-3.4l0,0c0-1.7,0-1.7,0-1.7l0,0c0-1.7,0-1.7-1.7-1.7
	l0,0c-3.4-6.7-8.4-11.8-13.5-13.5l0,0c-1.7,0-3.4-1.7-5-1.7l0,0c-3.4,0-6.7,0-10.1,0l0,0c-1.7,0-3.4,0-5,1.7l0,0
	c-1.7,0-3.4,1.7-5,1.7c-1.7,1.7-3.4,1.7-3.4,3.4l0,0l0,0c-1.7,1.7-3.4,3.4-5,6.7l0,0c0,0,0,1.7-1.7,1.7l0,0v1.7l0,0v1.7l0,0v1.7l0,0
	c0,3.4,0,5,0,8.4l0,0c0,1.7,1.7,3.4,1.7,5l0,0c1.7,5,6.7,10.1,11.8,13.5l0,0c0,0,1.7,0,1.7,1.7l0,0h1.7l0,0h1.7l0,0h1.7l0,0
	c15.1,1.7,28.6-8.4,28.6-23.6C557.4,392.2,557.4,390.5,557.4,390.5L557.4,390.5L557.4,390.5L557.4,390.5z M530.5,387.2
	c-5,0-10.1-5-10.1-10.1s5-10.1,10.1-10.1s10.1,5,10.1,10.1S535.6,387.2,530.5,387.2L530.5,387.2z"/>
<path id="Trazado_1200" class="st4" d="M530.5,367c-5,0-10.1,5-10.1,10.1c0,5,5,10.1,10.1,10.1s10.1-5,10.1-10.1
	C540.6,370.3,535.6,367,530.5,367L530.5,367L530.5,367"/>
<path id="Trazado_1201" class="st7" d="M512,370.3L512,370.3L512,370.3l18.5-55.5v-13.5c-10.1-1.7-20.2-3.4-32-3.4
	c-3.4,0-6.7,0-10.1,0h-1.7c-18.5,1.7-37,6.7-53.8,13.5c-15.1,6.7-28.6,15.1-40.4,25.2l0,0l0,0c-3.4,3.4-6.7,5-10.1,8.4l-1.7,1.7
	c-3.4,3.4-5,5-8.4,8.4l-1.7,1.7c-3.4,3.4-5,6.7-8.4,10.1c0,0,0,0,0,1.7c-1.7,3.4-5,6.7-6.7,10.1l-1.7,1.7c-1.7,3.4-3.4,5-5,8.4h84.1
	L512,370.3"/>
<path id="Trazado_1202" class="st8" d="M582.7,365.3c0-1.7,0-5,0-6.7c0-3.4,0-6.7,0-8.4s0-5,0-6.7v-1.7c0-6.7,0-11.8,0-18.5l0,0l0,0
	c-1.7-1.7-5-3.4-6.7-3.4l0,0l-1.7-1.7l0,0h-1.7l0,0h-1.7c-3.4-1.7-8.4-3.4-11.8-5c-10.1-3.4-21.9-6.7-30.3-8.4v13.5l18.5,55.5l0,0
	c1.7,1.7,3.4,3.4,5,6.7l0,0l1.7,1.7l0,0c0,0,0,1.7,1.7,1.7l0,0c0,1.7,0,1.7,0,1.7l0,0c0,1.7,0,1.7,0,3.4l0,0c0,1.7,0,1.7,0,3.4l0,0
	h21.9C581,382.1,582.7,373.7,582.7,365.3L582.7,365.3"/>
<path id="Trazado_1203" class="st9" d="M613,345.1L613,345.1L613,345.1"/>
<path id="Trazado_1204" class="st6" d="M512,370.3c1.7-1.7,1.7-1.7,3.4-3.4c1.7-1.7,3.4-1.7,5-1.7l0,0c1.7,0,3.4-1.7,5-1.7l0,0
	c3.4,0,6.7,0,10.1,0l0,0c1.7,0,3.4,1.7,5,1.7c3.4,1.7,6.7,3.4,8.4,5l0,0l-18.5-55.5L512,370.3"/>
<path id="Trazado_1205" class="st5" d="M505.3,400.6c0-1.7-1.7-3.4-1.7-5l0,0c0-3.4,0-5,0-8.4l0,0v-1.7l0,0v-1.7l0,0v-1.7l0,0
	c0,0,0-1.7,1.7-1.7l0,0c1.7-1.7,3.4-5,5-6.7l-75.7,16.8l0,0L512,409C508.6,405.7,507,404,505.3,400.6L505.3,400.6"/>
<path id="Trazado_1206" class="st8" d="M680.3,385.5L680.3,385.5c0-1.7,0-3.4,1.7-3.4l0,0l10.1-45.4v-26.9
	c-8.4-6.7-16.8-10.1-26.9-10.1c-11.8,0-21.9,6.7-30.3,15.1c-8.4,8.4-15.1,20.2-21.9,30.3v1.7c1.7,1.7,3.4,3.4,5,5
	c3.4,3.4,6.7,6.7,11.8,10.1c1.7,1.7,3.4,3.4,5,5c1.7,1.7,3.4,3.4,5,5c3.4,3.4,6.7,6.7,10.1,10.1c3.4,3.4,5,6.7,8.4,8.4l0,0
	c0,0,0,0,1.7,1.7h23.6l0,0C680.3,388.8,680.3,387.2,680.3,385.5 M613,345.1L613,345.1L613,345.1L613,345.1L613,345.1"/>
<path id="Trazado_1207" class="st1" d="M337,419.1L337,419.1c3.4-8.4,6.7-16.8,10.1-23.6c0-1.7,1.7-1.7,1.7-3.4c0,0,0-1.7,1.7-1.7
	c1.7-3.4,3.4-5,5-8.4l1.7-1.7c1.7-3.4,5-6.7,6.7-10.1c0,0,0,0,0-1.7c1.7-3.4,5-6.7,8.4-10.1l1.7-1.7c3.4-3.4,5-6.7,8.4-8.4l1.7-1.7
	c3.4-3.4,6.7-6.7,10.1-8.4l0,0c13.5-42.1,53.8-69,99.3-69c18.5,0,37,5,52.2,15.1c16.8,10.1,26.9,20.2,35.3,37l0,0v1.7l0,0l0,0
	c6.7,5,13.5,10.1,20.2,15.1c1.7,1.7,5,3.4,6.7,5l1.7,1.7l0,0l0,0v-1.7c6.7-40.4,26.9-63.9,48.8-63.9c16.8,0,28.6,10.1,37,35.3l0,0
	l0,0c3.4,3.4,5,6.7,6.7,8.4l0,0l0,0l0,0c0,0,0,0,0,1.7l0,0v-1.7c-26.9-79.1-100.9-134.6-188.4-134.6
	c-109.4,0-198.5,89.2-198.5,198.5c0,21.9,3.4,42.1,10.1,62.3l0,0C330.3,439.3,333.7,429.2,337,419.1"/>
<path id="Trazado_1208" class="st4" d="M708.9,390.5l-6.7,8.4l0,0l0,0c0,1.7,0,1.7-1.7,3.4l0,0c0,0,0,1.7-1.7,1.7c0,0,0,0,0,1.7
	c0,0,0,1.7-1.7,1.7l-1.7,1.7l0,0c0,0-1.7,0-1.7,1.7c-1.7,0-1.7,0-3.4,0c-6.7,0-11.8-8.4-11.8-20.2h-21.9l0,0c5,5,8.4,10.1,13.5,15.1
	c3.4,5,8.4,10.1,11.8,15.1l0,0c3.4,5,6.7,10.1,11.8,13.5l1.7,1.7c3.4,5,8.4,10.1,11.8,15.1c6.7-20.2,10.1-40.4,10.1-62.3
	L708.9,390.5L708.9,390.5"/>
<path id="Trazado_1209" d="M486.8,298L486.8,298c5,0,8.4,0,11.8,0c10.1,0,21.9,1.7,32,3.4l0,0c6.7,1.7,20.2,5,30.3,8.4
	c3.4,1.7,8.4,3.4,11.8,5h1.7l0,0h1.7l0,0l1.7,1.7l0,0c1.7,1.7,5,3.4,6.7,3.4l0,0l0,0v-1.7l0,0c-8.4-16.8-21.9-32-38.7-42.1
	C530.5,266,512,261,493.5,261c-45.4,0-85.8,30.3-97.6,74c11.8-10.1,25.2-18.5,40.4-25.2C449.8,304.7,468.3,299.7,486.8,298"/>
<path id="Trazado_1210" class="st7" d="M705.5,324.9L705.5,324.9L705.5,324.9L705.5,324.9c-1.7-3.4-5-6.7-6.7-8.4l0,0
	c-1.7-1.7-1.7-1.7-3.4-3.4c0,0-1.7,0-1.7-1.7l-1.7-1.7v26.9l10.1,45.4l0,0c0,0,0,0,0,1.7l6.7,8.4l0,0h6.7v-1.7l0,0
	C715.6,367,712.2,346.8,705.5,324.9L705.5,324.9L705.5,324.9"/>
<path id="Trazado_1211" d="M634.8,313.1c8.4-8.4,18.5-15.1,30.3-15.1c8.4,0,18.5,3.4,26.9,10.1l0,0l0,0l1.7,1.7c0,0,1.7,0,1.7,1.7
	c1.7,1.7,1.7,1.7,3.4,3.4l0,0l0,0l0,0l0,0c-10.1-25.2-23.6-42.1-40.4-42.1c-21.9,0-38.7,30.3-45.4,70.7l0,0
	C618,331.6,624.7,321.5,634.8,313.1 M606.2,563.8c-1.7-1.7-5-3.4-6.7-6.7c-1.7-1.7-3.4-3.4-5-6.7l-1.7-1.7c-1.7-1.7-3.4-3.4-3.4-6.7
	c-1.7-3.4-1.7-5-1.7-8.4c0-1.7-1.7-3.4-1.7-6.7s0-6.7,0-10.1c0-1.7,0-3.4,0-6.7c0-1.7,0-3.4,1.7-6.7c1.7-6.7,5-13.5,8.4-20.2
	l1.7-1.7c1.7-1.7,1.7-1.7,3.4-5c18.5-32,28.6-55.5,23.6-94.2c0-3.4-1.7-8.4-1.7-11.8c0,3.4-1.7,5-1.7,8.4c0,0,0,1.7-1.7,1.7
	c-8.4,23.6-21.9,42.1-40.4,62.3c-3.4,3.4-5,5-8.4,8.4c-5,5-10.1,10.1-15.1,15.1l-5,8.4c-1.7,1.7-5,6.7-6.7,8.4
	c-1.7,5-3.4,10.1-5,16.8c0,0-1.7,0-1.7-1.7c-37-13.5-60.6-32-60.6-32s18.5,23.6,50.5,47.1c3.4,1.7,6.7,3.4,8.4,5
	c-1.7,20.2,8.4,40.4,48.8,45.4C591.1,567.2,597.8,567.2,606.2,563.8C604.5,565.5,604.5,565.5,606.2,563.8
	C604.5,565.5,606.2,565.5,606.2,563.8"/>
<path id="Trazado_1212" class="st10" d="M584.4,511.7c37,5,89.2,5,146.4-21.9c1.7,0,3.4,1.7,3.4,0c0,0-38.7,38.7-84.1,60.6
	c-1.7,0-3.4,1.7-3.4,1.7c-5,1.7-8.4,3.4-13.5,5c-8.4,3.4-16.8,5-26.9,6.7c0,0,0,0-1.7,0l0,0l0,0c-1.7-1.7-5-3.4-6.7-6.7
	c-1.7-1.7-3.4-3.4-5-6.7c-1.7-3.4-3.4-6.7-5-10.1c-1.7-3.4-1.7-5-3.4-8.4c-1.7-5-1.7-11.8-1.7-16.8
	C582.7,515,582.7,513.3,584.4,511.7L584.4,511.7"/>
<path id="Trazado_1213" class="st9" d="M557.4,469.6c5-5,10.1-10.1,15.1-15.1c3.4-3.4,5-5,8.4-8.4c18.5-20.2,32-38.7,40.4-63.9v-1.7
	l0,0c0-1.7,0-1.7,0-3.4c0,0,3.4-1.7,3.4-3.4c-1.7-10.1-6.7-21.9-11.8-30.3l0,0l0,0l-1.7-1.7c-1.7-1.7-3.4-3.4-6.7-5
	c-6.7-5-13.5-10.1-20.2-15.1c0,6.7,0,11.8,0,18.5v1.7c0,1.7,0,5,0,6.7c0,3.4,0,6.7,0,8.4s0,5,0,6.7l0,0c0,8.4-1.7,16.8-3.4,25.2
	l-3.4,11.8c-5,21.9-16.8,42.1-25.2,63.9c-1.7,5-5,11.8-6.7,16.8v1.7c1.7-3.4,5-5,6.7-6.7L557.4,469.6"/>
<path id="Trazado_1214" class="st1" d="M438,589.1c13.5-5,26.9-10.1,40.4-11.8c0-3.4,0-6.7,0-10.1c6.7-16.8,11.8-32,16.8-48.8
	c-10.1,1.7-18.5,1.7-26.9,5c-6.7,1.7-13.5,3.4-20.2,5c-5,1.7-10.1,3.4-15.1,5l20.2,5l-16.8,52.2L438,589.1"/>
<path id="Trazado_1215" class="st11" d="M693.7,434.3c-3.4-5-6.7-10.1-11.8-13.5l0,0c-3.4-5-8.4-10.1-11.8-15.1
	c-3.4-5-8.4-10.1-11.8-15.1c0,0,0,0,0-1.7c-3.4-3.4-6.7-8.4-10.1-11.8c-1.7-1.7-5-5-6.7-6.7c-1.7-1.7-3.4-3.4-5-5
	c-1.7-1.7-3.4-3.4-5-5c-3.4-3.4-6.7-6.7-11.8-10.1c-1.7-1.7-3.4-3.4-5-5l0,0c3.4,10.1,8.4,20.2,10.1,32c0,3.4,1.7,5,1.7,8.4
	c5,37-6.7,62.3-25.2,94.2c-1.7,1.7-3.4,5-3.4,6.7c-3.4,6.7-6.7,13.5-8.4,20.2c0,1.7-1.7,3.4-1.7,6.7c37,6.7,92.5,6.7,149.7-20.2
	c0,0-11.8-16.8-28.6-38.7C702.1,446,697.1,441,693.7,434.3L693.7,434.3"/>
<path id="Trazado_1216" class="st2" d="M432.9,599.2l18.5-62.3l-20.2-5c-5,1.7-8.4,3.4-13.5,5l-18.5,60.6h20.2L432.9,599.2"/>
<path id="Trazado_1217" class="st4" d="M446.4,573.9c1.7,0,3.4,1.7,5,1.7c45.4,15.1,95.9,15.1,139.6-3.4c1.7,0,1.7-1.7,3.4-1.7
	c1.7-1.7,3.4-1.7,5-3.4c1.7,0,3.4-1.7,5-1.7c0,0,0,0-1.7,0c-6.7,1.7-13.5,0-21.9,0c-40.4-6.7-50.5-25.2-48.8-45.4
	c-3.4-1.7-6.7-3.4-8.4-5c-32-23.6-50.5-47.1-50.5-47.1s23.6,18.5,60.6,32l1.7,1.7c1.7-5,3.4-11.8,5-16.8v-1.7c1.7-5,5-11.8,6.7-16.8
	c8.4-20.2,20.2-40.4,25.2-63.9l3.4-11.8h-21.9l0,0l0,0l0,0c0,15.1-11.8,26.9-26.9,26.9l0,0c-1.7,0-1.7,0-3.4,0l0,0h-1.7l0,0h-1.7
	l0,0h-1.7l0,0c0,0-1.7,0-1.7-1.7l0,0c-1.7-1.7-5-3.4-6.7-5l-75.7-20.2h-84.1c0,0,0,1.7-1.7,1.7c0,1.7-1.7,1.7-1.7,3.4
	c-1.7,3.4-3.4,8.4-5,11.8s-3.4,6.7-5,11.8l0,0c-3.4,10.1-6.7,20.2-8.4,30.3c13.5,40.4,38.7,74,72.3,99.3c1.7,0,1.7,1.7,3.4,1.7
	C416.1,560.5,431.2,567.2,446.4,573.9"/>
<path id="Trazado_1218" class="st12" d="M646.6,621c0-5,0-10.1-1.7-16.8c0-3.4-3.4-6.7-6.7-6.7h-244c-3.4,0-6.7,3.4-6.7,6.7
	c0,5,0,10.1-1.7,16.8c0,5-1.7,11.8-3.4,16.8c3.4,1.7,6.7,3.4,10.1,5c1.7-10.1,3.4-21.9,5-32l0,0h233.9l0,0c0,11.8,1.7,21.9,5,32
	c3.4-1.7,6.7-3.4,10.1-5C648.3,632.8,646.6,626.1,646.6,621"/>
</svg>
