<?xml version="1.0" encoding="utf-8"?>
<!-- Generator: Adobe Illustrator 24.1.2, SVG Export Plug-In . SVG Version: 6.00 Build 0)  -->
<svg version="1.1" xmlns="http://www.w3.org/2000/svg" xmlns:xlink="http://www.w3.org/1999/xlink" x="0px" y="0px"
	 viewBox="0 0 297.6 152.1" style="enable-background:new 0 0 297.6 152.1;" xml:space="preserve">
<style type="text/css">
	.st0{opacity:5.000000e-02;}
	.st1{opacity:0.12;}
	.st2{fill:url(#SVGID_1_);}
	.st3{fill:url(#SVGID_2_);}
	.st4{fill:url(#SVGID_3_);}
	.st5{opacity:0.3;fill:#FFFFFF;}
	.st6{opacity:0.62;fill:#5F5B63;}
	.st7{opacity:0.46;fill:#BDBACB;}
	.st8{opacity:0.74;fill:url(#SVGID_4_);}
	.st9{fill:url(#SVGID_5_);}
	.st10{fill:url(#SVGID_6_);}
	.st11{fill:url(#SVGID_7_);}
	.st12{fill:url(#SVGID_8_);}
	.st13{fill:url(#SVGID_9_);}
	.st14{opacity:0.47;fill:url(#SVGID_10_);}
	.st15{fill:url(#SVGID_11_);}
	.st16{opacity:0.41;fill:url(#SVGID_12_);}
	.st17{fill:url(#SVGID_13_);}
	.st18{fill:url(#SVGID_14_);}
	.st19{opacity:0.32;fill:url(#SVGID_15_);}
	.st20{opacity:0.19;fill:url(#SVGID_16_);}
	.st21{opacity:0.19;fill:url(#SVGID_17_);}
	.st22{opacity:0.6;fill:url(#SVGID_18_);}
	.st23{fill:url(#SVGID_19_);}
	.st24{fill:url(#SVGID_20_);}
	.st25{fill:url(#SVGID_21_);}
	.st26{opacity:0.89;}
	.st27{fill:url(#SVGID_22_);}
	.st28{fill:url(#SVGID_23_);}
	.st29{fill:url(#SVGID_24_);}
	.st30{opacity:0.32;fill:url(#SVGID_25_);}
	.st31{opacity:0.57;fill:url(#SVGID_26_);}
	.st32{opacity:0.46;fill:url(#SVGID_27_);}
	.st33{fill:#5F5B63;}
	.st34{opacity:0.81;fill:#BDBACB;}
	.st35{opacity:0.42;fill:#5F5B63;}
	.st36{fill:url(#SVGID_28_);}
	.st37{fill:url(#SVGID_29_);}
	.st38{fill:url(#SVGID_30_);}
	.st39{opacity:0.45;}
	.st40{fill:url(#SVGID_31_);}
	.st41{fill:url(#SVGID_32_);}
</style>
<g id="Layer_1">
</g>
<g id="Layer_2">
	<g id="Shopify">
		<g>
			<g class="st0">
				
					<image style="overflow:visible;" width="739" height="380" xlink:href="90C3351A.png"  transform="matrix(0.24 0 0 0.24 57.2049 75.73)">
				</image>
			</g>
			<g class="st1">
				
					<image style="overflow:visible;" width="704" height="368" xlink:href="90C3351E.png"  transform="matrix(0.24 0 0 0.24 62.0049 77.41)">
				</image>
			</g>
			<g>
				<linearGradient id="SVGID_1_" gradientUnits="userSpaceOnUse" x1="129.5771" y1="101.3072" x2="129.5771" y2="108.3765">
					<stop  offset="0" style="stop-color:#12100B;stop-opacity:0"/>
					<stop  offset="1" style="stop-color:#12100B;stop-opacity:0.52"/>
				</linearGradient>
				<path class="st2" d="M159,48.5c-0.7-0.1-2.3-3.7-2.5-3.7c0,0-39.9,11.6-40.4,12.3c-0.6,0.7-17.5,60.4-17.5,60.4l61.9,11.6
					L159,48.5z"/>
				<linearGradient id="SVGID_2_" gradientUnits="userSpaceOnUse" x1="176.7167" y1="99.2841" x2="176.7167" y2="106.867">
					<stop  offset="0" style="stop-color:#12100B;stop-opacity:0"/>
					<stop  offset="1" style="stop-color:#12100B;stop-opacity:0.52"/>
				</linearGradient>
				<path class="st3" d="M176.3,47.1c0,0-0.1-0.5-0.4-0.7c-0.3-0.2-0.6-0.2-0.6-0.2l-8.7-0.7l-6.4-6.4c-0.2-0.2-0.5-0.3-0.8-0.4
					l1.1,90.4l33.5-7.3L176.3,47.1z"/>
			</g>
			<linearGradient id="SVGID_3_" gradientUnits="userSpaceOnUse" x1="184.6797" y1="126.8989" x2="135.1451" y2="110.3484">
				<stop  offset="0" style="stop-color:#12100B;stop-opacity:0"/>
				<stop  offset="1" style="stop-color:#12100B;stop-opacity:0.4"/>
			</linearGradient>
			<polygon class="st4" points="160.5,129.1 196.1,129.8 210,125 194.1,121.9 			"/>
			<path class="st5" d="M160.6,51c1.3,0.5,2.6-0.4,2.9-1.9c0.3-1.5-0.6-3.1-1.9-3.6c-1.3-0.5-2.6,0.4-2.9,1.9
				C158.4,48.9,159.3,50.5,160.6,51z"/>
			<path class="st6" d="M134.2,56.1c-0.1,0-0.2,0-0.3,0c-1-0.1-1.9-1.1-2-2.1c0-1-0.6-24.5,13.1-29.9c3.5-1.4,6.6-1,9.4,0.9
				c3.3,2.3,5.7,7,7.2,13.8c1,4.8,1.2,8.9,1.2,9.1c0,1-0.8,1.7-1.8,1.6c-1-0.1-1.9-1.1-2-2.1c-0.2-4.3-1.6-16.1-6.4-19.4
				c-1.5-1.1-3.4-1.2-5.7-0.3c-11.8,4.6-11.3,26.7-11.3,26.9C135.8,55.5,135.1,56.1,134.2,56.1z"/>
			<path class="st6" d="M134.2,56.1c-0.1,0-0.2,0-0.3,0c-1-0.1-1.9-1.1-2-2.1c0-1-0.6-24.5,13.1-29.9c3.5-1.4,6.6-1,9.4,0.9
				c3.3,2.3,5.7,7,7.2,13.8c1,4.8,1.2,8.9,1.2,9.1c0,1-0.8,1.7-1.8,1.6c-1-0.1-1.9-1.1-2-2.1c-0.2-4.3-1.6-16.1-6.4-19.4
				c-1.5-1.1-3.4-1.2-5.7-0.3c-11.8,4.6-11.3,26.7-11.3,26.9C135.8,55.5,135.1,56.1,134.2,56.1z"/>
			<path class="st7" d="M153.8,25.1c-2.5-1.8-5.5-2-8.7-0.8c-5.6,2.2-9.6,8-11.5,16.7c-1.4,6.5-1.3,12.3-1.3,12.6
				c0,0.3,0.1,0.6,0.4,0.9c0.2,0.2,0.5,0.4,0.8,0.5c0.1,0,0.1,0,0.2,0c0.6,0,1-0.4,1-1c0-0.2-0.6-22.7,11.6-27.4
				c2.5-1,4.6-0.8,6.4,0.4c5.1,3.6,6.6,15.7,6.8,20.1c0,0.6,0.6,1.2,1.2,1.3c0.7,0.1,1.2-0.4,1.1-1
				C161.8,46.6,161.1,30.3,153.8,25.1z"/>
			<path class="st7" d="M133.6,54.3c0,0-0.1,0-0.1,0c-0.4-0.1-0.7-0.4-0.7-0.8c0-0.2-0.2-6,1.3-12.5c1.9-8.7,5.8-14.3,11.3-16.5
				c3.1-1.2,5.9-1,8.2,0.7c7,5,7.7,21.1,7.8,21.8c0,0.4-0.3,0.6-0.7,0.6c-0.4-0.1-0.7-0.4-0.7-0.8c0-0.2-0.7-16-7-20.5
				c-1.9-1.3-4.2-1.5-6.8-0.5c-12.4,4.8-11.9,27.6-11.8,27.8C134.2,54,134,54.3,133.6,54.3z"/>
			<path class="st6" d="M138.7,36.2c0.5-0.9,1-1.9,1.4-2.9c-0.2,0.3-1.4,3.6-5.3,3.1C134.8,36.5,137.1,37.1,138.7,36.2z"/>
			<path class="st6" d="M137.3,40.3c0.4-1,0.7-2,1-3.1c-0.1,0.4-0.8,3.8-4.8,3.8C133.6,41,135.9,41.4,137.3,40.3z"/>
			<path class="st6" d="M136.4,44.4c0.3-1.1,0.5-2.1,0.7-3.2c-0.1,0.4-0.2,3.8-4.3,4.3C132.8,45.5,135.1,45.7,136.4,44.4z"/>
			<path class="st6" d="M159.4,32.2c-0.5-1.1-1.1-2.2-1.6-3.3c0.2,0.4,2.1,3.9,0,6.5C157.7,35.4,159.4,34.1,159.4,32.2z"/>
			<path class="st6" d="M155.9,26.5c-1-0.8-2-1.5-3.1-2.2c0.3,0.3,3.7,2.6,3.5,6.2C156.4,30.4,157,28.3,155.9,26.5z"/>
			<path class="st6" d="M161,38c-0.3-1.2-0.6-2.3-1-3.5c0.1,0.4,1.3,4.1-1.3,6.2C158.7,40.7,160.6,39.8,161,38z"/>
			<path class="st6" d="M162.4,43.8c-0.1-1.2-0.3-2.3-0.6-3.5c0,0.4,0.8,4.2-2.1,5.8C159.7,46.2,161.7,45.6,162.4,43.8z"/>
			<path class="st6" d="M135.8,49c0.2-1.1,0.3-2.2,0.3-3.4c-0.1,0.4,0,4-3.7,4.9C132.4,50.5,134.7,50.5,135.8,49z"/>
			<path class="st6" d="M140.5,32.8c0.7-0.8,1.4-1.6,2-2.4c-0.3,0.3-2.3,2.8-6,1.9C136.5,32.2,138.7,33.3,140.5,32.8z"/>
			<path class="st6" d="M142.9,29.9c0.9-0.6,1.7-1.3,2.5-2c-0.3,0.2-2.9,2.3-6.4,0.7C138.9,28.7,140.9,30.1,142.9,29.9z"/>
			<path class="st6" d="M146.3,27.8c1.1-0.3,2.1-0.7,3.1-1.1c-0.4,0.1-3.6,1.3-6.7-1.1C142.7,25.6,144.3,27.5,146.3,27.8z"/>
			<path class="st6" d="M149.3,26.7c0.9,0.1,1.8,0.2,2.7,0.3c-0.3-0.1-3.1-0.3-4.7-2.8C147.3,24.2,147.9,25.9,149.3,26.7z"/>
			<path class="st6" d="M153,28.1c0.7,0.7,1.3,1.4,2.1,2c-0.2-0.3-2.4-2.3-1.9-4.9C153.1,25.2,152.4,26.6,153,28.1z"/>
			
				<linearGradient id="SVGID_4_" gradientUnits="userSpaceOnUse" x1="139.3368" y1="24.801" x2="133.1607" y2="50.7076" gradientTransform="matrix(1 0 0.1763 1 4.4352 0)">
				<stop  offset="0" style="stop-color:#FFFFFF;stop-opacity:0.65"/>
				<stop  offset="1" style="stop-color:#FFFFFF;stop-opacity:0"/>
			</linearGradient>
			<path class="st8" d="M160.6,46.7c0-0.7-0.7-16.6-7.6-21.5c-1.3-0.9-2.7-1.4-4.3-1.4c-1.1,0-2.3,0.2-3.6,0.7
				c-5.4,2.1-9.2,7.7-11.1,16.3c-1.4,6.4-1.3,12.1-1.2,12.4c0,0.2,0.2,0.4,0.4,0.4c0,0,0,0,0.1,0c0.2,0,0.3-0.1,0.3-0.3
				c0-0.2-0.6-23.2,12-28.1c2.7-1.1,5.2-0.9,7.2,0.5c6.5,4.6,7.2,20.7,7.2,20.8c0,0.2,0.2,0.4,0.4,0.4c0,0,0,0,0,0
				C160.5,47,160.6,46.8,160.6,46.7z"/>
			<g>
				
					<linearGradient id="SVGID_5_" gradientUnits="userSpaceOnUse" x1="145.6117" y1="32.8126" x2="148.5575" y2="52.7151" gradientTransform="matrix(1 0 0.1763 1 4.4352 0)">
					<stop  offset="0" style="stop-color:#12100B;stop-opacity:0"/>
					<stop  offset="1" style="stop-color:#12100B;stop-opacity:0.4"/>
				</linearGradient>
				<path class="st9" d="M161.7,38.8c-1.5-6.8-3.9-11.4-7.2-13.8c-1.8-1.3-3.8-1.8-5.9-1.7c1.7,0.1,3.3,0.7,4.7,1.7
					c3.3,2.3,5.7,7,7.2,13.8c1,4.8,1.2,8.9,1.2,9.1c0,0.7-0.4,1.3-1,1.5c0.1,0,0.2,0.1,0.3,0.1c1,0.1,1.9-0.6,1.8-1.6
					C162.9,47.7,162.7,43.6,161.7,38.8z"/>
			</g>
			
				<linearGradient id="SVGID_6_" gradientUnits="userSpaceOnUse" x1="126.4271" y1="46.2779" x2="136.755" y2="24.6053" gradientTransform="matrix(1 0 0.1763 1 4.4352 0)">
				<stop  offset="0" style="stop-color:#12100B;stop-opacity:0"/>
				<stop  offset="1" style="stop-color:#12100B;stop-opacity:0.4"/>
			</linearGradient>
			<path class="st10" d="M145.8,27.7c-11.8,4.6-11.3,26.7-11.3,26.9c0,0.7-0.4,1.3-1,1.5c0.1,0,0.2,0.1,0.3,0.1c0.1,0,0.2,0,0.3,0
				c0.9,0,1.6-0.7,1.6-1.6c0-0.2-0.6-22.3,11.3-26.9c0.8-0.3,1.5-0.5,2.2-0.6C148.2,27,147.1,27.2,145.8,27.7z"/>
			<linearGradient id="SVGID_7_" gradientUnits="userSpaceOnUse" x1="143.628" y1="30.4144" x2="149.2282" y2="58.6488">
				<stop  offset="0" style="stop-color:#12100B;stop-opacity:0"/>
				<stop  offset="1" style="stop-color:#12100B;stop-opacity:0.4"/>
			</linearGradient>
			<path class="st11" d="M134.2,56.1c-0.1,0-0.2,0-0.3,0c-1-0.1-1.9-1.1-2-2.1c0-1-0.6-24.5,13.1-29.9c3.5-1.4,6.6-1,9.4,0.9
				c3.3,2.3,5.7,7,7.2,13.8c1,4.8,1.2,8.9,1.2,9.1c0,1-0.8,1.7-1.8,1.6c-1-0.1-1.9-1.1-2-2.1c-0.2-4.3-1.6-16.1-6.4-19.4
				c-1.5-1.1-3.4-1.2-5.7-0.3c-11.8,4.6-11.3,26.7-11.3,26.9C135.8,55.5,135.1,56.1,134.2,56.1z"/>
			<linearGradient id="SVGID_8_" gradientUnits="userSpaceOnUse" x1="155.0568" y1="37.989" x2="121.3562" y2="120.9624">
				<stop  offset="0" style="stop-color:#C1D35A"/>
				<stop  offset="1" style="stop-color:#7FB229"/>
			</linearGradient>
			<path class="st12" d="M163.7,33.1l-53.3,16.5c0,0-2.3,0.7-2.8,1.3c-0.6,0.7-0.7,2.6-0.7,2.6l-8.2,63.6l61.9,11.6l4.8-95.7
				C164.6,32.9,163.9,33.1,163.7,33.1z"/>
			<linearGradient id="SVGID_9_" gradientUnits="userSpaceOnUse" x1="205.1275" y1="74.26" x2="173.8663" y2="79.1591">
				<stop  offset="0" style="stop-color:#BCCF00"/>
				<stop  offset="1" style="stop-color:#5CA531"/>
			</linearGradient>
			<path class="st13" d="M182.2,41.3c0,0-0.1-0.5-0.4-0.7c-0.3-0.2-0.6-0.2-0.6-0.2l-8.7-0.7l-6.4-6.4c-0.2-0.2-0.5-0.3-0.8-0.4
				l-4.8,95.7l33.5-7.3L182.2,41.3z"/>
			
				<linearGradient id="SVGID_10_" gradientUnits="userSpaceOnUse" x1="123.8403" y1="81.8117" x2="115.6738" y2="148.3105" gradientTransform="matrix(0.9991 4.350000e-02 -4.350000e-02 0.9991 11.7554 -7.3156)">
				<stop  offset="0" style="stop-color:#26231E;stop-opacity:0.5"/>
				<stop  offset="8.962709e-02" style="stop-color:#26231E;stop-opacity:0.4552"/>
				<stop  offset="1" style="stop-color:#26231E;stop-opacity:0"/>
			</linearGradient>
			<path class="st14" d="M141.1,85.6c-0.9-1.3-2.1-2.4-3.2-3.4c-1.1-1-2.4-1.8-3.5-2.6c-0.8-0.5-1.6-1-2.2-1.5
				c-0.6-0.5-1.1-1-1.5-1.5c-0.4-0.5-0.7-1-0.9-1.5c-0.2-0.5-0.3-1-0.2-1.5c0-0.7,0.2-1.4,0.5-1.9c0.3-0.6,0.7-1.1,1.2-1.5
				c0.5-0.4,1.1-0.8,1.8-1c0.7-0.2,1.5-0.4,2.4-0.5c1-0.1,1.9,0,2.7,0.1c0.9,0.1,1.7,0.2,2.5,0.4c0.8,0.2,1.5,0.4,2.2,0.7
				c0.7,0.2,1.2,0.5,1.7,0.7l4.1-12.3c-0.6-0.3-1.4-0.6-2.2-0.8c-0.9-0.2-1.8-0.4-2.9-0.6c-1-0.1-2.2-0.2-3.4-0.2
				c-1.2,0-2.4,0.1-3.7,0.3c-2.8,0.4-5.4,1.1-7.6,2.3c-2.2,1.1-4,2.5-5.6,4.1c-1.5,1.6-2.7,3.5-3.6,5.6c-0.8,2.1-1.3,4.4-1.5,6.9
				c-0.1,1.5,0.1,2.9,0.4,4.2c0.3,1.3,0.8,2.5,1.5,3.6c0.7,1.1,1.4,2.1,2.3,3.1c0.9,1,1.9,1.8,3,2.6c0.9,0.6,1.6,1.2,2.2,1.8
				c0.6,0.6,1.1,1.2,1.5,1.7c0.4,0.6,0.6,1.1,0.8,1.7c0.2,0.6,0.2,1.2,0.2,1.8c0,0.6-0.2,1.2-0.4,1.8c-0.2,0.5-0.6,1-1,1.4
				c-0.5,0.4-1,0.6-1.6,0.8c-0.6,0.1-1.4,0.2-2.2,0c-0.9-0.1-1.9-0.4-2.8-0.8c-0.9-0.3-1.8-0.8-2.6-1.2c-0.8-0.5-1.6-0.9-2.2-1.4
				c-0.7-0.5-1.2-0.9-1.7-1.3l-2.8,9.4c0.5,0.6,1.1,1.2,1.8,1.8c0.7,0.6,1.5,1.2,2.4,1.7c0.9,0.5,1.9,1,3,1.5
				c1.1,0.4,2.2,0.8,3.4,1.1c0,0,0,0,0.1,0c0,0,0,0,0.1,0c0,0,0,0,0.1,0c0,0,0,0,0.1,0c2.6,0.6,5,0.7,7.4,0.4
				c2.4-0.3,4.6-1.1,6.5-2.4c1.9-1.3,3.5-3.1,4.7-5.4c1.2-2.3,1.9-5.1,2-8.4c0.1-2-0.2-3.8-0.7-5.4
				C142.9,88.3,142.1,86.9,141.1,85.6z"/>
			
				<linearGradient id="SVGID_11_" gradientUnits="userSpaceOnUse" x1="124.4596" y1="82.431" x2="116.293" y2="148.9297" gradientTransform="matrix(0.9991 4.350000e-02 -4.350000e-02 0.9991 11.7554 -7.3156)">
				<stop  offset="0" style="stop-color:#FFFFFF"/>
				<stop  offset="1" style="stop-color:#DAD6EC"/>
			</linearGradient>
			<path class="st15" d="M141.7,86.2c-0.9-1.3-2.1-2.4-3.2-3.4c-1.1-1-2.4-1.8-3.5-2.6c-0.8-0.5-1.6-1-2.2-1.5
				c-0.6-0.5-1.1-1-1.5-1.5c-0.4-0.5-0.7-1-0.9-1.5c-0.2-0.5-0.3-1-0.2-1.5c0-0.7,0.2-1.4,0.5-1.9c0.3-0.6,0.7-1.1,1.2-1.5
				c0.5-0.4,1.1-0.8,1.8-1c0.7-0.2,1.5-0.4,2.4-0.5c1-0.1,1.9,0,2.7,0.1c0.9,0.1,1.7,0.2,2.5,0.4c0.8,0.2,1.5,0.4,2.2,0.7
				c0.7,0.2,1.2,0.5,1.7,0.7l4.1-12.3c-0.6-0.3-1.4-0.6-2.2-0.8c-0.9-0.2-1.8-0.4-2.9-0.6c-1-0.1-2.2-0.2-3.4-0.2
				c-1.2,0-2.4,0.1-3.7,0.3c-2.8,0.4-5.4,1.1-7.6,2.3c-2.2,1.1-4,2.5-5.6,4.1c-1.5,1.6-2.7,3.5-3.6,5.6c-0.8,2.1-1.3,4.4-1.5,6.9
				c-0.1,1.5,0.1,2.9,0.4,4.2c0.3,1.3,0.8,2.5,1.5,3.6c0.7,1.1,1.4,2.1,2.3,3.1c0.9,1,1.9,1.8,3,2.6c0.9,0.6,1.6,1.2,2.2,1.8
				c0.6,0.6,1.1,1.2,1.5,1.7c0.4,0.6,0.6,1.1,0.8,1.7c0.2,0.6,0.2,1.2,0.2,1.8c0,0.6-0.2,1.2-0.4,1.8c-0.2,0.5-0.6,1-1.1,1.4
				c-0.5,0.4-1,0.6-1.6,0.8c-0.6,0.1-1.4,0.2-2.2,0c-0.9-0.1-1.9-0.4-2.8-0.8c-0.9-0.3-1.8-0.8-2.6-1.2c-0.8-0.5-1.6-0.9-2.2-1.4
				c-0.7-0.5-1.2-0.9-1.7-1.3l-2.8,9.4c0.5,0.6,1.1,1.2,1.8,1.8c0.7,0.6,1.5,1.2,2.4,1.7c0.9,0.5,1.9,1,3,1.5
				c1.1,0.4,2.2,0.8,3.4,1.1c0,0,0,0,0.1,0c0,0,0,0,0.1,0c0,0,0,0,0.1,0c0,0,0,0,0.1,0c2.6,0.6,5,0.7,7.4,0.4
				c2.4-0.3,4.6-1.1,6.5-2.4c1.9-1.3,3.5-3.1,4.7-5.4c1.2-2.3,1.9-5.1,2-8.4c0.1-2-0.2-3.8-0.7-5.4C143.5,89,142.7,87.5,141.7,86.2z
				"/>
			<linearGradient id="SVGID_12_" gradientUnits="userSpaceOnUse" x1="147.5904" y1="82.3562" x2="188.284" y2="78.4255">
				<stop  offset="0" style="stop-color:#26231E;stop-opacity:0.5"/>
				<stop  offset="3.803299e-02" style="stop-color:#26231E;stop-opacity:0.4837"/>
				<stop  offset="0.4243" style="stop-color:#26231E;stop-opacity:0.3185"/>
				<stop  offset="1" style="stop-color:#26231E;stop-opacity:0"/>
			</linearGradient>
			<path class="st16" d="M174.7,110.9l-2.1-71.1l-0.4-0.4l1,70.5c0,0-8.9,13.5-10.2,13.1c-2-0.6,3.8-88.9,3.8-88.9l-0.7-0.7
				c-0.2-0.2-0.5-0.3-0.8-0.4l-4.7,94.3l0,0l-0.1,1.3l1.7-2.1l0,0L174.7,110.9z"/>
			<linearGradient id="SVGID_13_" gradientUnits="userSpaceOnUse" x1="154.7795" y1="35.6068" x2="150.0794" y2="42.784">
				<stop  offset="0" style="stop-color:#12100B;stop-opacity:0"/>
				<stop  offset="1" style="stop-color:#12100B;stop-opacity:0.4"/>
			</linearGradient>
			<path class="st17" d="M150.5,37.2c-0.8,3-1.7,5.8-2.4,7.4c-0.4,1,0,2,1,2.1c1,0.1,2.1-0.6,2.5-1.6c0.1-0.2,1.7-4.3,2.8-9.1
				c0,0,0,0,0-0.1L150.5,37.2z"/>
			<linearGradient id="SVGID_14_" gradientUnits="userSpaceOnUse" x1="126.3607" y1="44.4159" x2="122.3592" y2="49.1796">
				<stop  offset="0" style="stop-color:#12100B;stop-opacity:0"/>
				<stop  offset="1" style="stop-color:#12100B;stop-opacity:0.4"/>
			</linearGradient>
			<path class="st18" d="M122.1,46c-0.9,1.9-1.8,3.5-2.4,4.6c-0.6,0.9-0.2,1.9,0.7,2.2c1,0.3,2.2-0.3,2.7-1.2
				c0.1-0.1,1.9-3.2,3.5-7.1L122.1,46z"/>
			<linearGradient id="SVGID_15_" gradientUnits="userSpaceOnUse" x1="176.2812" y1="121.0777" x2="177.8556" y2="127.0997">
				<stop  offset="0" style="stop-color:#12100B;stop-opacity:0"/>
				<stop  offset="1" style="stop-color:#12100B;stop-opacity:0.4"/>
			</linearGradient>
			<polygon class="st19" points="160.5,128.7 174.7,110.9 194.1,121.5 			"/>
			<linearGradient id="SVGID_16_" gradientUnits="userSpaceOnUse" x1="174.1963" y1="111.597" x2="177.8315" y2="127.2997">
				<stop  offset="0" style="stop-color:#FFFFFF;stop-opacity:0.5"/>
				<stop  offset="8.962709e-02" style="stop-color:#FFFFFF;stop-opacity:0.4552"/>
				<stop  offset="1" style="stop-color:#FFFFFF;stop-opacity:0"/>
			</linearGradient>
			<polygon class="st20" points="160.5,128.7 174.5,110.9 194.1,121.5 			"/>
			<linearGradient id="SVGID_17_" gradientUnits="userSpaceOnUse" x1="172.7772" y1="113.3401" x2="179.1474" y2="129.8128">
				<stop  offset="0" style="stop-color:#12100B;stop-opacity:0"/>
				<stop  offset="1" style="stop-color:#12100B;stop-opacity:0.4"/>
			</linearGradient>
			<polygon class="st21" points="160.5,128.7 174.5,110.9 194.1,121.5 			"/>
			<linearGradient id="SVGID_18_" gradientUnits="userSpaceOnUse" x1="166.1016" y1="45.2342" x2="125.6742" y2="90.8779">
				<stop  offset="0" style="stop-color:#FFFFFF;stop-opacity:0.5"/>
				<stop  offset="1" style="stop-color:#FFFFFF;stop-opacity:0"/>
			</linearGradient>
			<path class="st22" d="M146.8,78.9c7.3,9.9,12.2,20.6,14.6,31l3.8-76.8c-0.7-0.1-1.4,0-1.5,0.1l-53.3,16.5c0,0-0.5,0.1-1.1,0.4
				C122.8,54.6,136.3,64.6,146.8,78.9z"/>
			<linearGradient id="SVGID_19_" gradientUnits="userSpaceOnUse" x1="159.4474" y1="79.8898" x2="204.3095" y2="81.2619">
				<stop  offset="0" style="stop-color:#26231E;stop-opacity:0.5"/>
				<stop  offset="8.962709e-02" style="stop-color:#26231E;stop-opacity:0.4552"/>
				<stop  offset="1" style="stop-color:#26231E;stop-opacity:0"/>
			</linearGradient>
			<path class="st23" d="M181.9,40.7c0.3,0.3,0.3,0.6,0.3,0.6l11.7,80.1l-19.3-10.6l-2.1-71.1l8.6,0.6
				C181.1,40.4,181.6,40.4,181.9,40.7z"/>
			<linearGradient id="SVGID_20_" gradientUnits="userSpaceOnUse" x1="193.0838" y1="44.0967" x2="189.6069" y2="56.9865">
				<stop  offset="0" style="stop-color:#FFFFFF;stop-opacity:0.4"/>
				<stop  offset="1" style="stop-color:#FFFFFF;stop-opacity:0"/>
			</linearGradient>
			<path class="st24" d="M180.5,40.9c0,0,0.4,0,0.7,0.3c0.3,0.3,0.4,0.6,0.4,0.6l11.5,79.2l0.9,0.5l-11.7-80.1c0,0,0-0.4-0.3-0.6
				c-0.3-0.3-0.7-0.3-0.7-0.3l-8.6-0.6L180.5,40.9z"/>
			<linearGradient id="SVGID_21_" gradientUnits="userSpaceOnUse" x1="126.5679" y1="127.8536" x2="129.5962" y2="112.4056">
				<stop  offset="0" style="stop-color:#26231E;stop-opacity:0.5"/>
				<stop  offset="8.962709e-02" style="stop-color:#26231E;stop-opacity:0.4552"/>
				<stop  offset="1" style="stop-color:#26231E;stop-opacity:0"/>
			</linearGradient>
			<polygon class="st25" points="98.6,117.1 160.5,128.7 163.6,63.1 105.1,63.5 			"/>
			<path class="st5" d="M120.3,54.2c1.2,0.5,2.7-0.4,3.3-1.9c0.6-1.5,0-3.1-1.2-3.6c-1.2-0.5-2.7,0.4-3.3,1.9
				C118.5,52.2,119,53.8,120.3,54.2z"/>
			<path class="st26" d="M120.3,53.5c1.2,0.5,2.7-0.4,3.3-1.9c0.6-1.5,0-3.1-1.2-3.6c-1.2-0.5-2.7,0.4-3.3,1.9
				C118.5,51.5,119,53.1,120.3,53.5z"/>
			<linearGradient id="SVGID_22_" gradientUnits="userSpaceOnUse" x1="153.5003" y1="80.4909" x2="194.3493" y2="82.1671">
				<stop  offset="0" style="stop-color:#26231E;stop-opacity:0.5"/>
				<stop  offset="1" style="stop-color:#26231E;stop-opacity:0"/>
			</linearGradient>
			<path class="st27" d="M172.5,39.8l-6.4-6.4c-0.2-0.2-0.5-0.3-0.8-0.4l-4.8,95.7l14.1-17.8L172.5,39.8z"/>
			<linearGradient id="SVGID_23_" gradientUnits="userSpaceOnUse" x1="139.1638" y1="33.363" x2="132.1636" y2="109.8994">
				<stop  offset="0" style="stop-color:#FFFFFF;stop-opacity:0.5"/>
				<stop  offset="1" style="stop-color:#FFFFFF;stop-opacity:0"/>
			</linearGradient>
			<path class="st28" d="M163.7,33.1l-53.3,16.5c0,0-2.3,0.6-2.8,1.3c0,0-0.1,0.1-0.1,0.2l53.8-14.9c0.4-0.1,1.5-0.5,1.4,2.6
				l-3.3,89.7l1.2,0.2l4.8-95.7C164.6,32.9,163.9,33.1,163.7,33.1z"/>
			<linearGradient id="SVGID_24_" gradientUnits="userSpaceOnUse" x1="139.1638" y1="33.363" x2="132.1636" y2="109.8994">
				<stop  offset="0" style="stop-color:#FFFFFF;stop-opacity:0.5"/>
				<stop  offset="1" style="stop-color:#FFFFFF;stop-opacity:0"/>
			</linearGradient>
			<path class="st29" d="M163.7,33.1l-53.3,16.5c0,0-2.3,0.6-2.8,1.3c0,0-0.1,0.1-0.1,0.2l12.5-3.4l42.8-13.3c0.2,0,0.9-0.2,1.5-0.1
				l-4.7,94.2l0.9,0.2l4.8-95.7C164.6,32.9,163.9,33.1,163.7,33.1z"/>
			<linearGradient id="SVGID_25_" gradientUnits="userSpaceOnUse" x1="174.58" y1="111.7478" x2="160.67" y2="133.7348">
				<stop  offset="0" style="stop-color:#FFFFFF;stop-opacity:0.5"/>
				<stop  offset="8.962709e-02" style="stop-color:#FFFFFF;stop-opacity:0.4552"/>
				<stop  offset="1" style="stop-color:#FFFFFF;stop-opacity:0"/>
			</linearGradient>
			<path class="st30" d="M177.5,112.4l-2.8-1.6l-14.1,17.8l0.8-0.2c0,0,12.5-16,13.6-16.5C175.7,111.6,177.5,112.4,177.5,112.4z"/>
			<linearGradient id="SVGID_26_" gradientUnits="userSpaceOnUse" x1="170.2758" y1="109.8179" x2="169.3056" y2="113.4148">
				<stop  offset="0" style="stop-color:#12100B;stop-opacity:0"/>
				<stop  offset="1" style="stop-color:#12100B;stop-opacity:0.4"/>
			</linearGradient>
			<path class="st31" d="M160.5,128.7l14.1-17.8C174.7,110.9,165.7,120.6,160.5,128.7z"/>
			<linearGradient id="SVGID_27_" gradientUnits="userSpaceOnUse" x1="185.0454" y1="113.6974" x2="184.8061" y2="114.5845">
				<stop  offset="0" style="stop-color:#12100B;stop-opacity:0"/>
				<stop  offset="1" style="stop-color:#12100B;stop-opacity:0.4"/>
			</linearGradient>
			<path class="st32" d="M194.1,121.5l-19.5-10.6C174.7,110.9,176.9,111.2,194.1,121.5z"/>
			<path class="st5" d="M148.5,47.7c1.2,0.5,2.7-0.4,3.3-1.9c0.6-1.5,0-3.1-1.2-3.6c-1.2-0.5-2.7,0.4-3.3,1.9
				C146.7,45.7,147.3,47.3,148.5,47.7z"/>
			<path class="st26" d="M148.5,47c1.2,0.5,2.7-0.4,3.3-1.9c0.6-1.5,0-3.1-1.2-3.6c-1.2-0.5-2.7,0.4-3.3,1.9
				C146.7,45,147.3,46.6,148.5,47z"/>
			<path class="st33" d="M121.2,52.9c-0.1,0-0.2,0-0.3,0c-1-0.1-1.7-1.1-1.6-2.1c0.1-1,3.7-24.5,18.4-29.9c3.7-1.4,6.8-1,9.2,0.9
				c2.9,2.3,4.5,7,4.7,13.8c0.2,4.8-0.4,8.9-0.4,9.1c-0.1,1-1.1,1.7-2.1,1.6c-1-0.1-1.7-1.1-1.6-2.1c0.6-4.3,1.2-16.1-3-19.4
				c-1.3-1.1-3.2-1.2-5.6-0.3C126.4,29,123,51,123,51.3C122.9,52.2,122.1,52.9,121.2,52.9z"/>
			<path class="st7" d="M146.3,21.9c-2.2-1.8-5.1-2-8.6-0.8c-6,2.2-11,8-14.5,16.7c-2.6,6.5-3.4,12.3-3.5,12.6c0,0.3,0,0.6,0.2,0.9
				c0.2,0.2,0.5,0.4,0.8,0.5c0.1,0,0.1,0,0.2,0c0.6,0,1.1-0.4,1.2-1c0-0.2,3.4-22.7,16.4-27.4c2.6-1,4.8-0.8,6.3,0.4
				c4.4,3.6,3.9,15.7,3.2,20.1c-0.1,0.6,0.4,1.2,1,1.3c0.6,0.1,1.2-0.4,1.3-1C150.5,43.4,152.7,27,146.3,21.9z"/>
			<path class="st34" d="M120.9,51c0,0-0.1,0-0.1,0c-0.4-0.1-0.6-0.4-0.6-0.8c0-0.2,0.9-6,3.5-12.5c3.4-8.7,8.4-14.3,14.2-16.5
				c3.3-1.2,6-1,8.1,0.7c6.2,5,4,21.1,3.9,21.8c-0.1,0.4-0.4,0.6-0.8,0.6c-0.4-0.1-0.7-0.4-0.6-0.8c0-0.2,2.1-16-3.4-20.5
				c-1.7-1.3-3.9-1.5-6.7-0.5c-13.3,4.8-16.7,27.6-16.7,27.8C121.6,50.8,121.3,51,120.9,51z"/>
			<path class="st35" d="M129.2,33c0.7-0.9,1.3-1.9,1.9-2.9c-0.3,0.3-2.1,3.6-5.9,3.1C125.3,33.2,127.4,33.9,129.2,33z"/>
			<path class="st35" d="M127.1,37c0.6-1,1.1-2,1.6-3.1c-0.2,0.4-1.4,3.8-5.4,3.8C123.2,37.7,125.5,38.1,127.1,37z"/>
			<path class="st35" d="M125.4,41.1c0.5-1.1,0.9-2.1,1.3-3.2c-0.2,0.4-0.9,3.8-5,4.3C121.7,42.2,123.9,42.4,125.4,41.1z"/>
			<path class="st6" d="M150.6,28.9c-0.3-1.1-0.7-2.2-1.1-3.3c0.1,0.4,1.4,3.9-1.2,6.5C148.3,32.1,150.2,30.9,150.6,28.9z"/>
			<path class="st6" d="M148.1,23.2c-0.8-0.8-1.7-1.5-2.7-2.2c0.3,0.3,3.3,2.6,2.4,6.2C147.9,27.1,148.8,25.1,148.1,23.2z"/>
			<path class="st6" d="M151.2,34.7c-0.1-1.2-0.2-2.3-0.4-3.5c0,0.4,0.6,4.1-2.4,6.2C148.4,37.4,150.5,36.5,151.2,34.7z"/>
			<path class="st6" d="M151.5,40.6c0.1-1.2,0.1-2.3,0-3.5c0,0.4,0.1,4.2-3.2,5.8C148.4,42.9,150.6,42.3,151.5,40.6z"/>
			<path class="st35" d="M124,45.8c0.4-1.1,0.6-2.2,0.9-3.4c-0.1,0.4-0.7,4-4.5,4.9C120.4,47.3,122.7,47.2,124,45.8z"/>
			<path class="st35" d="M131.6,29.5c0.9-0.8,1.7-1.6,2.5-2.4c-0.3,0.3-2.8,2.8-6.4,1.9C127.7,29,129.7,30.1,131.6,29.5z"/>
			<path class="st35" d="M134.5,26.7c1-0.6,1.9-1.3,2.9-2c-0.4,0.2-3.3,2.3-6.6,0.7C130.7,25.4,132.5,26.9,134.5,26.7z"/>
			<path class="st6" d="M138.2,24.6c1.1-0.3,2.2-0.7,3.3-1.1c-0.4,0.1-3.8,1.3-6.5-1.1C135,22.3,136.3,24.2,138.2,24.6z"/>
			<path class="st6" d="M141.5,23.4c0.9,0.1,1.8,0.2,2.6,0.3c-0.3-0.1-3-0.3-4.2-2.8C139.9,20.9,140.3,22.6,141.5,23.4z"/>
			<path class="st6" d="M144.9,24.8c0.5,0.7,1.1,1.4,1.7,2c-0.2-0.3-2-2.3-1-4.9C145.6,21.9,144.6,23.3,144.9,24.8z"/>
			<linearGradient id="SVGID_28_" gradientUnits="userSpaceOnUse" x1="140.6486" y1="21.5341" x2="134.4725" y2="47.4408">
				<stop  offset="0" style="stop-color:#FFFFFF;stop-opacity:0.65"/>
				<stop  offset="1" style="stop-color:#FFFFFF;stop-opacity:0"/>
			</linearGradient>
			<path class="st36" d="M149.2,43.4c0.1-0.7,2.2-16.6-3.8-21.5c-1.1-0.9-2.5-1.4-4.1-1.4c-1.1,0-2.4,0.2-3.7,0.7
				c-5.8,2.1-10.6,7.7-14,16.3c-2.5,6.4-3.4,12.1-3.4,12.4c0,0.2,0.1,0.4,0.3,0.4c0,0,0,0,0.1,0c0.2,0,0.3-0.1,0.3-0.3
				c0-0.2,3.5-23.2,17-28.1c2.9-1.1,5.3-0.9,7.1,0.5c5.7,4.6,3.6,20.7,3.5,20.8c0,0.2,0.1,0.4,0.3,0.4c0,0,0,0,0,0
				C149.1,43.7,149.2,43.6,149.2,43.4z"/>
			<g>
				<linearGradient id="SVGID_29_" gradientUnits="userSpaceOnUse" x1="146.924" y1="29.5458" x2="149.8697" y2="49.4482">
					<stop  offset="0" style="stop-color:#12100B;stop-opacity:0"/>
					<stop  offset="1" style="stop-color:#12100B;stop-opacity:0.4"/>
				</linearGradient>
				<path class="st37" d="M151.7,35.5c-0.3-6.8-1.9-11.4-4.7-13.8c-1.6-1.3-3.4-1.8-5.6-1.7c1.7,0.1,3.1,0.7,4.4,1.7
					c2.9,2.3,4.5,7,4.7,13.8c0.2,4.8-0.4,8.9-0.4,9.1c-0.1,0.7-0.6,1.3-1.3,1.5c0.1,0,0.2,0.1,0.3,0.1c1,0.1,2-0.6,2.1-1.6
					C151.3,44.5,151.9,40.3,151.7,35.5z"/>
			</g>
			<linearGradient id="SVGID_30_" gradientUnits="userSpaceOnUse" x1="127.7391" y1="43.0112" x2="138.0671" y2="21.3384">
				<stop  offset="0" style="stop-color:#12100B;stop-opacity:0"/>
				<stop  offset="1" style="stop-color:#12100B;stop-opacity:0.4"/>
			</linearGradient>
			<path class="st38" d="M137.8,24.4c-12.6,4.6-16,26.7-16,26.9c-0.1,0.7-0.6,1.3-1.3,1.5c0.1,0,0.2,0.1,0.3,0.1c0.1,0,0.2,0,0.3,0
				c0.9,0,1.7-0.7,1.8-1.6c0-0.2,3.4-22.3,16-26.9c0.9-0.3,1.6-0.5,2.3-0.6C140.3,23.7,139.2,23.9,137.8,24.4z"/>
			<g class="st39">
				<linearGradient id="SVGID_31_" gradientUnits="userSpaceOnUse" x1="120.6003" y1="42.5882" x2="121.2627" y2="50.1813">
					<stop  offset="0" style="stop-color:#12100B;stop-opacity:0"/>
					<stop  offset="1" style="stop-color:#12100B;stop-opacity:0.4"/>
				</linearGradient>
				<path class="st40" d="M121,50.3c-0.6-0.2-1.1-0.8-1.3-1.5c-0.2,1.1-0.3,1.8-0.3,1.9c-0.1,1,0.6,2,1.6,2.1c0.1,0,0.2,0,0.3,0
					c0.9,0,1.7-0.7,1.8-1.6c0,0,0.1-0.6,0.3-1.6C122.6,50.3,121.7,50.5,121,50.3z"/>
				<linearGradient id="SVGID_32_" gradientUnits="userSpaceOnUse" x1="149.2613" y1="40.0874" x2="149.9237" y2="47.6808">
					<stop  offset="0" style="stop-color:#12100B;stop-opacity:0"/>
					<stop  offset="1" style="stop-color:#12100B;stop-opacity:0.4"/>
				</linearGradient>
				<path class="st41" d="M149,43.2c-0.5-0.2-0.9-0.6-1.2-1.1c-0.1,0.8-0.1,1.5-0.2,2c-0.1,1,0.6,2,1.6,2.1c1,0.1,2-0.6,2.1-1.6
					c0-0.1,0.1-0.9,0.2-2.2C150.8,43.2,149.9,43.5,149,43.2z"/>
			</g>
		</g>
	</g>
</g>
</svg>
