<?xml version="1.0" encoding="utf-8"?>
<!-- Generator: Adobe Illustrator 24.1.2, SVG Export Plug-In . SVG Version: 6.00 Build 0)  -->
<svg version="1.1" id="Capa_1" xmlns="http://www.w3.org/2000/svg" xmlns:xlink="http://www.w3.org/1999/xlink" x="0px" y="0px"
	 viewBox="0 0 110 91" style="enable-background:new 0 0 110 91;" xml:space="preserve">
<style type="text/css">
	.st0{fill:#DFDFDF;}
</style>
<g id="Grupo_1168">
	<path id="Rectángulo_123" class="st0" d="M11,0h88c6.1,0,11,4.9,11,11v69c0,6.1-4.9,11-11,11H11C4.9,91,0,86.1,0,80V11
		C0,4.9,4.9,0,11,0z"/>
	<g id="layer1">
		<path id="path5209" d="M84,17L84,17c-0.1,0-0.3,0-0.4,0.1l-2.9,1.1c-0.2,0.1-0.4,0.2-0.5,0.4c0,0-3.6,4.9-7.4,10.5
			s-7.9,11.9-9.1,15.2c-0.8,2.1-1.3,4.3-1.4,6.6c0,0.2,0,0.3,0,0.5c-1.8,0.2-3.1,1.8-2.9,3.6c0.1,0.4,0.2,0.8,0.4,1.2
			c-3,2-4.2,5.8-3,9.2l0,0c0.9,2.3,0.4,5-1.3,6.9c-0.4,0.5-0.4,1.1,0.1,1.6c0.2,0.2,0.4,0.2,0.6,0.3c6.1,0.9,12.1-2.3,14.8-7.8
			c0.1-0.1,0.1-0.2,0.2-0.3l0,0c0.1-0.2,0.1-0.5,0-0.8c0.4-1.1,0.6-2.3,0.5-3.5c1.8-0.4,2.8-2.2,2.4-4c0,0,0,0,0,0
			c-0.1-0.4-0.3-0.8-0.5-1.1c0.1-0.1,0.2-0.2,0.4-0.3c1.6-1.6,3-3.4,4-5.5c1.8-3.1,3.7-10.3,5.4-16.9s3-12.5,3-12.5
			c0.1-0.2,0.1-0.4,0-0.6l-1.1-2.9C85,17.3,84.5,17,84,17z M83.4,19.5l0.6,1.6c-0.1,0.3-1.3,5.7-2.9,12.1c-1.7,6.6-3.9,14-5.2,16.4
			c-0.9,1.8-2.1,3.5-3.6,4.9c-0.2,0.2-0.5,0.4-0.7,0.6L68,53.5l-3.5-1.6c0-0.3-0.1-0.6-0.1-0.9c0.1-2,0.6-4,1.3-5.9
			c0.9-2.6,5.1-9.1,8.9-14.7s7-10,7.2-10.2L83.4,19.5z M29.6,45.3c-0.6,0-1.1,0.5-1.1,1.1l0,0l0,0v4.4c0,0.6,0.5,1.1,1.1,1.1l0,0
			h1.1v2.2h-3.3c-1.8,0-3.3,1.5-3.3,3.3v13.3c0,1.8,1.5,3.3,3.3,3.3h20c1.8,0,3.3-1.5,3.3-3.3V57.5c0-1.8-1.5-3.3-3.3-3.3H44v-2.2
			h1.1c0.6,0,1.1-0.5,1.1-1.1l0,0v-4.4c0-0.6-0.5-1.1-1.1-1.1H29.6z M30.6,47.5H44v2.2H30.6V47.5z M32.8,51.9h8.9v2.2h-8.8
			L32.8,51.9z M62.6,53.6c0.2,0,0.3,0,0.4,0.1l8.1,3.6c0.6,0.2,0.8,0.9,0.6,1.5s-0.9,0.8-1.5,0.6l0,0l-8.2-3.7
			c-0.5-0.3-0.7-0.9-0.5-1.4C61.8,53.9,62.2,53.6,62.6,53.6L62.6,53.6z M27.3,56.4h20c0.6,0,1.1,0.4,1.1,1v13.4c0,0.6-0.5,1.1-1,1.1
			c0,0,0,0,0,0h-20c-0.6,0-1.1-0.5-1.1-1.1v-1.2h12.1c0.6,0,1.1-0.5,1.1-1.1l0,0v-8.9c0-0.6-0.5-1.1-1.1-1.1c0,0,0,0,0,0H26.2v-1.1
			C26.2,56.9,26.7,56.4,27.3,56.4C27.3,56.4,27.3,56.4,27.3,56.4L27.3,56.4z M61.2,57.7l8,3.6c0.3,1.2,0.2,2.4-0.3,3.5l0,0
			c-1.9,4.2-6.2,6.9-10.8,6.8c0.1-0.2,0.2-0.3,0.3-0.4c1-2.1,1-4.6,0.2-6.8l0,0c-0.1-0.3-0.2-0.6-0.2-0.9
			C58,61.2,59.1,58.9,61.2,57.7L61.2,57.7z M26.2,60.7h11.1v6.7H26.2L26.2,60.7z"/>
	</g>
</g>
</svg>
