<?xml version="1.0" encoding="utf-8"?>
<!-- Generator: Adobe Illustrator 24.1.2, SVG Export Plug-In . SVG Version: 6.00 Build 0)  -->
<svg version="1.1" id="Capa_1" xmlns="http://www.w3.org/2000/svg" xmlns:xlink="http://www.w3.org/1999/xlink" x="0px" y="0px"
	 viewBox="0 0 110 91" style="enable-background:new 0 0 110 91;" xml:space="preserve">
<style type="text/css">
	.st0{fill:#DFDFDF;}
</style>
<g id="Grupo_712">
	<path id="Rectángulo_116" class="st0" d="M11,0h88c6.1,0,11,4.9,11,11v69c0,6.1-4.9,11-11,11H11C4.9,91,0,86.1,0,80V11
		C0,4.9,4.9,0,11,0z"/>
	<g id="Grupo_709">
		<path id="Trazado_1757" d="M79.5,15H30.5c-3.6,0-6.5,2.9-6.5,6.5l0,0v49.1c0,3.6,2.9,6.4,6.5,6.4h49.1c3.6,0,6.5-2.9,6.5-6.4l0,0
			V21.5C86,17.9,83.1,15,79.5,15z M30.5,17.6h49.1c2.1,0,3.9,1.7,3.9,3.9c0,0,0,0,0,0l0,0v3.9H26.6v-3.9
			C26.6,19.3,28.4,17.6,30.5,17.6L30.5,17.6z M79.5,74.4H30.5c-2.1,0-3.8-1.7-3.8-3.9l0,0V27.9h56.8v42.6
			C83.4,72.7,81.7,74.4,79.5,74.4C79.5,74.4,79.5,74.4,79.5,74.4z"/>
		<path id="Trazado_1758" d="M79.9,21.5c0.6,0.4,1.5,0.2,1.9-0.4c0.4-0.6,0.3-1.4-0.3-1.8c-0.6-0.4-1.4-0.3-1.9,0.3c0,0,0,0,0,0
			c0,0-0.1,0.1-0.1,0.1C79.2,20.3,79.3,21.1,79.9,21.5z M76.6,20.4c0-0.7-0.6-1.4-1.3-1.4s-1.3,0.6-1.3,1.4s0.6,1.4,1.3,1.4l0,0l0,0
			C76,21.7,76.6,21.1,76.6,20.4z M69.4,21.6c0.7,0.3,1.5,0,1.8-0.7c0.2-0.5,0.1-1.1-0.3-1.5C69,18,67.5,20.9,69.4,21.6L69.4,21.6z
			 M29.4,21.7h24.3c0.7,0,1.3-0.6,1.3-1.4S54.4,19,53.6,19H29.4c-0.7,0-1.4,0.6-1.4,1.4S28.6,21.7,29.4,21.7L29.4,21.7L29.4,21.7z
			 M40.2,55.5c6.7,0,12.1-5.4,12.1-12.2c0-6.7-5.4-12.1-12.2-12.1c-6.7,0-12.1,5.4-12.1,12.1l0,0C28,50,33.4,55.4,40.2,55.5
			C40.1,55.4,40.1,55.5,40.2,55.5L40.2,55.5z M34.9,51.2c3.4-5,7.1-5,10.5,0C42.2,53.3,38.1,53.3,34.9,51.2L34.9,51.2z M37.5,42
			c0-1.5,1.2-2.7,2.7-2.7c1.5,0,2.7,1.2,2.7,2.7s-1.2,2.7-2.7,2.7C38.7,44.7,37.5,43.4,37.5,42L37.5,42L37.5,42z M40.2,33.9
			c5.2,0,9.5,4.2,9.5,9.4c0,2.2-0.8,4.3-2.2,6c-0.9-1.4-2.1-2.6-3.5-3.5c2.2-2.1,2.2-5.5,0.2-7.6C42,36,38.6,36,36.4,38
			c-2.2,2.1-2.2,5.5-0.2,7.6c0,0,0,0,0,0l0.2,0.2c-1.4,0.9-2.6,2.1-3.5,3.5c-3.3-4-2.8-10,1.3-13.3C35.9,34.6,38,33.9,40.2,33.9z
			 M52.3,64.9H41.5c-0.7,0-1.3,0.6-1.3,1.4c0,0.7,0.6,1.3,1.3,1.3h10.8c0.7,0,1.3-0.6,1.3-1.4C53.6,65.5,53,64.9,52.3,64.9z
			 M52.3,59.5h-23c-0.7,0-1.3,0.6-1.3,1.4c0,0.7,0.6,1.3,1.3,1.3h23c0.7,0,1.3-0.6,1.3-1.4C53.6,60.1,53,59.5,52.3,59.5z M52.3,70.3
			h-23c-0.7,0-1.3,0.6-1.3,1.4c0,0.7,0.6,1.3,1.3,1.3h23c0.7,0,1.3-0.6,1.3-1.4C53.6,70.9,53,70.3,52.3,70.3z M80.6,64.9h-23
			c-0.7,0-1.3,0.6-1.3,1.4v5.4c0,0.7,0.6,1.3,1.3,1.3h22.9c0.7,0,1.3-0.6,1.3-1.3c0,0,0,0,0,0l0,0v-5.4C82,65.5,81.4,64.9,80.6,64.9
			C80.6,64.9,80.6,64.9,80.6,64.9z M79.3,70.3H59.1v-2.7h20.3V70.3z M80.6,48.7h-8.1c-0.7,0-1.3,0.6-1.3,1.3v10.8
			c0,0.7,0.6,1.3,1.3,1.3h8.1c0.7,0,1.3-0.6,1.3-1.3c0,0,0,0,0,0l0,0V50C82,49.3,81.4,48.7,80.6,48.7z M79.3,59.5h-5.4v-8.1h5.4
			V59.5z M57.7,62.2h9.4c0.7,0,1.4-0.6,1.4-1.3c0-0.7-0.6-1.4-1.3-1.4c0,0,0,0,0,0h-9.4c-0.7,0-1.4,0.6-1.4,1.3
			C56.3,61.6,57,62.2,57.7,62.2C57.7,62.2,57.7,62.2,57.7,62.2L57.7,62.2z M57.7,56.8h9.4c0.7,0,1.3-0.6,1.3-1.3
			c0-0.7-0.6-1.4-1.3-1.4h-9.4c-0.7,0-1.3,0.6-1.3,1.4C56.4,56.2,57,56.8,57.7,56.8L57.7,56.8z M57.7,51.4h9.4
			c0.7,0,1.3-0.6,1.3-1.4c0-0.7-0.6-1.3-1.3-1.3h-9.4c-0.7,0-1.3,0.6-1.3,1.3C56.4,50.8,57,51.4,57.7,51.4L57.7,51.4z M80.6,43.3
			h-23c-0.7,0-1.3,0.6-1.3,1.3c0,0.7,0.6,1.4,1.3,1.4h23c0.7,0,1.3-0.6,1.3-1.4C82,43.9,81.4,43.3,80.6,43.3z M80.6,29.8h-23
			c-0.7,0-1.3,0.6-1.3,1.3v8.2c0,0.7,0.6,1.3,1.3,1.3h23c0.7,0,1.4-0.6,1.4-1.3c0,0,0,0,0-0.1l0,0v-8.1C82,30.4,81.4,29.8,80.6,29.8
			C80.7,29.8,80.6,29.8,80.6,29.8L80.6,29.8z M79.3,37.9H59.1v-5.4h20.3L79.3,37.9z M29.3,67.6H36c0.7,0,1.3-0.6,1.3-1.4
			c0-0.7-0.6-1.3-1.3-1.3h-6.7c-0.7,0-1.3,0.6-1.3,1.4C28,67,28.6,67.6,29.3,67.6L29.3,67.6z"/>
	</g>
</g>
</svg>
