<?xml version="1.0" encoding="utf-8"?>
<!-- Generator: Adobe Illustrator 24.1.2, SVG Export Plug-In . SVG Version: 6.00 Build 0)  -->
<svg version="1.1" id="Capa_1" xmlns="http://www.w3.org/2000/svg" xmlns:xlink="http://www.w3.org/1999/xlink" x="0px" y="0px"
	 viewBox="0 0 110 91" style="enable-background:new 0 0 110 91;" xml:space="preserve">
<style type="text/css">
	.st0{fill:#DFDFDF;}
</style>
<path id="Rectángulo_117" class="st0" d="M11,0h88c6.1,0,11,4.9,11,11v69c0,6.1-4.9,11-11,11H11C4.9,91,0,86.1,0,80V11
	C0,4.9,4.9,0,11,0z"/>
<g id="_Group_">
	<path id="_Compound_Path_" d="M80.7,20.1c0-3.1-2.5-5.7-5.7-5.7H35c-3.1,0-5.7,2.5-5.7,5.7l0,0v50.8c0,3.1,2.5,5.7,5.7,5.7
		c0,0,0,0,0,0h40c3.1,0,5.7-2.5,5.7-5.7c0,0,0,0,0,0l0,0L80.7,20.1z M77.8,70.9c0,1.6-1.3,2.8-2.8,2.8H35c-1.6,0-2.8-1.3-2.8-2.8
		V20.1c0-1.6,1.3-2.8,2.8-2.8h40c1.6,0,2.8,1.3,2.8,2.8V70.9z"/>
	<path id="_Compound_Path_2" d="M48.5,23.3c0-0.8-0.6-1.4-1.4-1.4h-8.5c-0.8,0-1.4,0.6-1.4,1.4v8.5c0,0.8,0.6,1.4,1.4,1.4h8.5
		c0.8,0,1.4-0.6,1.4-1.4L48.5,23.3z M40,24.7h5.7v5.7H40V24.7z"/>
	<path id="_Path_" d="M51.9,26.1H63c0.8,0,1.4-0.6,1.4-1.4c0-0.8-0.6-1.4-1.4-1.4H51.9c-0.8,0-1.4,0.6-1.4,1.4
		C50.5,25.4,51.1,26.1,51.9,26.1z"/>
	<path id="_Path_2" d="M71.5,28.9H51.9c-0.8,0-1.4,0.6-1.4,1.4c0,0.8,0.6,1.4,1.4,1.4h19.6c0.8,0,1.4-0.6,1.4-1.4
		C72.9,29.5,72.2,28.9,71.5,28.9z"/>
	<path id="_Compound_Path_3" d="M48.5,38.8c0-0.8-0.6-1.4-1.4-1.4h-8.5c-0.8,0-1.4,0.6-1.4,1.4v8.5c0,0.8,0.6,1.4,1.4,1.4h8.5
		c0.8,0,1.4-0.6,1.4-1.4V38.8z M40,40.3h5.7v5.7H40V40.3z"/>
	<path id="_Path_3" d="M51.9,41.7H63c0.8-0.1,1.4-0.8,1.3-1.5c-0.1-0.7-0.6-1.2-1.3-1.3H51.9c-0.8-0.1-1.5,0.5-1.5,1.3
		c-0.1,0.8,0.5,1.5,1.3,1.5C51.7,41.7,51.8,41.7,51.9,41.7z"/>
	<path id="_Path_4" d="M71.5,44.5H51.9c-0.8,0-1.4,0.6-1.4,1.4c0,0.8,0.6,1.4,1.4,1.4h19.6c0.8,0,1.4-0.6,1.4-1.4
		C72.9,45.1,72.2,44.5,71.5,44.5z"/>
	<path id="_Path_5" d="M37.7,57.3h16.7c0.8,0,1.4-0.6,1.4-1.4c0-0.8-0.6-1.4-1.4-1.4H37.7c-0.8,0-1.4,0.6-1.4,1.4
		C36.3,56.6,36.9,57.3,37.7,57.3L37.7,57.3z"/>
	<path id="_Path_6" d="M71.5,60.1H37.7c-0.8,0-1.4,0.6-1.4,1.4c0,0.8,0.6,1.4,1.4,1.4h33.8c0.8,0,1.4-0.6,1.4-1.4
		C72.9,60.7,72.2,60.1,71.5,60.1z M71.5,65.8H37.7c-0.8,0-1.4,0.6-1.4,1.4c0,0.8,0.6,1.4,1.4,1.4h33.8c0.8,0,1.4-0.6,1.4-1.4
		C72.9,66.4,72.2,65.8,71.5,65.8z"/>
</g>
</svg>
