<?xml version="1.0" encoding="utf-8"?>
<!-- Generator: Adobe Illustrator 24.1.2, SVG Export Plug-In . SVG Version: 6.00 Build 0)  -->
<svg version="1.1" id="Capa_1" xmlns="http://www.w3.org/2000/svg" xmlns:xlink="http://www.w3.org/1999/xlink" x="0px" y="0px"
	 viewBox="0 0 110 91" style="enable-background:new 0 0 110 91;" xml:space="preserve">
<style type="text/css">
	.st0{fill:#DFDFDF;}
</style>
<g id="Grupo_1170">
	<path id="Rectángulo_124" class="st0" d="M11,0h88c6.1,0,11,4.9,11,11v69c0,6.1-4.9,11-11,11H11C4.9,91,0,86.1,0,80V11
		C0,4.9,4.9,0,11,0z"/>
	<path id="Trazado_1759" d="M68.8,14.2H41.2c-1.4,0-2.5,1.1-2.5,2.5v57.6c0,1.4,1.1,2.5,2.5,2.5h27.5c1.4,0,2.5-1.1,2.5-2.5
		c0,0,0,0,0,0V16.7C71.3,15.3,70.2,14.2,68.8,14.2C68.8,14.2,68.8,14.2,68.8,14.2z M55,75.5c-1.4,0-2.5-1.1-2.5-2.5s1.1-2.5,2.5-2.5
		s2.5,1.1,2.5,2.5S56.4,75.5,55,75.5z M68.8,68.5c0,0.4-0.3,0.7-0.7,0.8c0,0,0,0,0,0H42c-0.4,0-0.8-0.3-0.8-0.8V22.5
		c0-0.4,0.3-0.7,0.8-0.8h26c0.4,0,0.8,0.3,0.8,0.8l0,0V68.5z"/>
</g>
</svg>
