<?xml version="1.0" encoding="utf-8"?>
<!-- Generator: Adobe Illustrator 24.1.2, SVG Export Plug-In . SVG Version: 6.00 Build 0)  -->
<svg version="1.1" id="Capa_1" xmlns="http://www.w3.org/2000/svg" xmlns:xlink="http://www.w3.org/1999/xlink" x="0px" y="0px"
	 viewBox="0 0 110 91" style="enable-background:new 0 0 110 91;" xml:space="preserve">
<style type="text/css">
	.st0{fill:#DFDFDF;}
</style>
<g id="Grupo_1173">
	<path id="Rectángulo_120" class="st0" d="M11,0h88c6.1,0,11,4.9,11,11v69c0,6.1-4.9,11-11,11H11C4.9,91,0,86.1,0,80V11
		C0,4.9,4.9,0,11,0z"/>
	<g id="layer1">
		<path id="rect5001" d="M45.3,31.5c-0.6,0-1.1,0.5-1.1,1.1c0,0,0,0,0,0l0,0V38H25.8c-0.6,0-1.1,0.5-1.1,1.1v19.5
			c0,0.6,0.5,1.1,1.1,1.1h58.4c0.6,0,1.1-0.5,1.1-1.1l0,0V41.3c0-0.6-0.5-1.1-1.1-1.1l0,0H65.8v-7.6c0-0.6-0.5-1.1-1.1-1.1l0,0
			L45.3,31.5L45.3,31.5z M46.3,33.7h17.3v23.8H46.3V33.7z M55,38L55,38h-0.1c-0.1,0-0.2,0-0.3,0.1h-0.1l0,0c0,0,0,0-0.1,0.1l0,0
			l-0.1,0.1c0,0,0,0-0.1,0l0,0l-2.2,2.1c-0.4,0.4-0.4,1.1,0,1.5s1.1,0.4,1.5,0l0,0l0.3-0.3v7.3h-1.1c-0.6,0-1.1,0.4-1.1,1
			c0,0.6,0.4,1.1,1,1.1h2c0.2,0,0.3,0,0.5,0h1.9c0.6,0,1.1-0.4,1.1-1c0-0.6-0.4-1.1-1-1.1l0,0h-1.1v-9.7c0-0.3-0.1-0.6-0.3-0.8
			l-0.1-0.1l0,0c-0.1-0.1-0.3-0.2-0.5-0.2h-0.1L55,38L55,38z M26.9,40.2h17.3v17.3H26.9V40.2z M35.5,42.3c-1.8,0-3.2,1.5-3.2,3.3
			c0,0.6,0.5,1.1,1.1,1.1c0.6,0,1.1-0.5,1.1-1.1c0-0.6,0.5-1.1,1.1-1.1c0.6,0,1.1,0.5,1.1,1.1c0,0.5-0.1,0.9-0.4,1.3
			c-0.4,0.4-0.8,0.8-1.3,1.1c-0.6,0.4-1.2,0.9-1.7,1.5c-0.6,0.7-0.9,1.7-0.9,2.6c0,0.6,0.5,1.1,1.1,1.1c0,0,0,0,0,0h4.3
			c0.6,0,1.1-0.5,1.1-1.1c0-0.6-0.5-1.1-1.1-1.1c0,0,0,0,0,0h-2.9c0,0,0-0.1,0-0.2c0.4-0.4,0.8-0.8,1.3-1.1c0.6-0.4,1.2-0.9,1.7-1.5
			c0.6-0.7,0.9-1.7,0.9-2.6C38.7,43.7,37.3,42.3,35.5,42.3L35.5,42.3z M65.8,42.3h17.3v15.2H65.8V42.3z M74.1,44.5
			c-0.3,0-0.6,0.1-0.9,0.2c-1.2,0.5-2,1.7-2,3c0.1,0.6,0.6,1,1.2,1c0.5,0,0.9-0.5,1-1c0-0.6,0.5-1.1,1.1-1.1s1.1,0.5,1.1,1.1
			s-0.5,1.1-1.1,1.1l0,0c-0.1,0-0.3,0-0.4,0.1h-0.1l0,0c-0.2,0.1-0.3,0.2-0.4,0.4l0,0c-0.1,0.1-0.1,0.3-0.1,0.4v0.2c0,0,0,0,0,0.1
			v0.1v0.1l0.1,0.1v0.1v0.1l0,0l0,0l0.1,0.1l0.1,0.1h0.1l0.1,0.1h0.1c0.1,0.1,0.3,0.1,0.4,0.1c0.6-0.1,1.1,0.3,1.2,0.9
			c0.1,0.6-0.3,1.1-0.9,1.2c-0.6,0.1-1.1-0.3-1.2-0.8c0.1-0.6-0.4-1.1-1-1.2c-0.6-0.1-1.1,0.4-1.2,1c0,0.1,0,0.1,0,0.2
			c0,1.8,1.5,3.3,3.3,3.3s3.3-1.5,3.3-3.3c0-0.4-0.1-0.9-0.3-1.3c-0.5-0.2-0.8-0.8-0.5-1.3c0,0,0,0,0,0c0.1-0.2,0.3-0.4,0.5-0.5
			c0.7-1.7-0.1-3.5-1.8-4.2C75.2,44.5,74.7,44.5,74.1,44.5L74.1,44.5z"/>
	</g>
</g>
</svg>
