<?xml version="1.0" encoding="utf-8"?>
<!-- Generator: Adobe Illustrator 24.1.2, SVG Export Plug-In . SVG Version: 6.00 Build 0)  -->
<svg version="1.1" id="Capa_1" xmlns="http://www.w3.org/2000/svg" xmlns:xlink="http://www.w3.org/1999/xlink" x="0px" y="0px"
	 viewBox="0 0 110 91" style="enable-background:new 0 0 110 91;" xml:space="preserve">
<style type="text/css">
	.st0{fill:#DFDFDF;}
	.st1{fill:#212121;}
</style>
<path id="Rectángulo_118" class="st0" d="M11,0h88c6.1,0,11,4.9,11,11v69c0,6.1-4.9,11-11,11H11C4.9,91,0,86.1,0,80V11
	C0,4.9,4.9,0,11,0z"/>
<g id="Grupo_710">
	<path id="Trazado_1761" class="st1" d="M33.9,23C29,23,25,27,25,31.9c0,0,0,0,0,0l0,0v26.8c0,1.8,0.5,3.5,1.5,5l6.6-22.5
		c0.8-2.9,3.5-4.8,6.4-4.8h39.1c0-4.9-4-8.9-8.9-8.9l0,0H48.1l-5-4c-0.4-0.3-0.9-0.5-1.4-0.5L33.9,23z"/>
	<path id="Trazado_1762" class="st1" d="M87.3,43.7c0.3-1.2-0.3-2.4-1.5-2.8c-0.2-0.1-0.4-0.1-0.6-0.1H39.5c-1,0-1.9,0.7-2.1,1.6
		l-6.5,22.3c-0.3,1.2,0.3,2.4,1.5,2.8c0,0,0,0,0,0c0.2,0.1,0.4,0.1,0.6,0.1h42.3c3,0,5.6-2,6.4-4.8L87.3,43.7z"/>
</g>
</svg>
