<?xml version="1.0" encoding="utf-8"?>
<!-- Generator: Adobe Illustrator 24.1.2, SVG Export Plug-In . SVG Version: 6.00 Build 0)  -->
<svg version="1.1" id="Capa_1" xmlns="http://www.w3.org/2000/svg" xmlns:xlink="http://www.w3.org/1999/xlink" x="0px" y="0px"
	 viewBox="0 0 1093.4 1080" style="enable-background:new 0 0 1093.4 1080;" xml:space="preserve">
<style type="text/css">
	.st0{fill:#E6E6E6;}
	.st1{fill:#FFFFFF;}
	.st2{fill:#B8D3CE;}
	.st3{fill:#8CB4F4;}
	.st4{fill:#FFB8B8;}
	.st5{fill:#CCCCCC;}
	.st6{fill:#2F2E41;}
	.st7{fill:#3F3D56;}
</style>
<g id="Grupo_708">
	<path id="Trazado_1719" class="st0" d="M815.5,256.2h-6V93.9c0-51.9-42-93.9-93.9-93.9H371.9C320,0,278,42.1,278,93.9l0,0v890.3
		c0,51.9,42.1,93.9,93.9,93.9c0,0,0,0,0,0h343.8c51.9,0,93.9-42,93.9-93.9c0,0,0,0,0,0l0,0V371.7h6L815.5,256.2z"/>
	<path id="Trazado_1720" class="st1" d="M789.6,94.6v889c0,38.7-31.4,70.1-70.1,70.1l0,0H374c-38.7,0-70.1-31.4-70.1-70.1v0v-889
		c0-38.7,31.4-70.1,70.1-70.2h41.9c-6.9,17.1,1.3,36.5,18.4,43.5c4,1.6,8.2,2.4,12.5,2.5h197c18.4,0,33.3-15,33.3-33.4
		c0-4.3-0.8-8.5-2.5-12.5h44.9C758.2,24.4,789.6,55.8,789.6,94.6z"/>
	<path id="Trazado_1721" class="st2" d="M451.3,268.2h-53c-9.1,0-16.5-7.4-16.5-16.5v-53c0-9.1,7.4-16.5,16.5-16.5h53
		c9.1,0,16.5,7.4,16.5,16.5v53C467.8,260.8,460.4,268.2,451.3,268.2z"/>
	<path id="Trazado_1722" class="st2" d="M573.2,268.2h-53c-9.1,0-16.5-7.4-16.5-16.5v-53c0-9.1,7.4-16.5,16.5-16.5h53
		c9.1,0,16.5,7.4,16.5,16.5v53C589.7,260.8,582.3,268.2,573.2,268.2L573.2,268.2z"/>
	<path id="Trazado_1723" class="st0" d="M695.1,268.2h-53c-9.1,0-16.5-7.4-16.5-16.5v-53c0-9.1,7.4-16.5,16.5-16.5l0,0h53
		c9.1,0,16.5,7.4,16.5,16.5v53C711.6,260.8,704.2,268.2,695.1,268.2z"/>
	<path id="Trazado_1724" class="st0" d="M451.3,403.8h-53c-9.1,0-16.5-7.4-16.5-16.5v-53.1c0-9.1,7.4-16.5,16.5-16.5h53
		c9.1,0,16.5,7.4,16.5,16.5v53.1C467.8,396.4,460.4,403.7,451.3,403.8z"/>
	<path id="Trazado_1725" class="st0" d="M573.2,403.8h-53c-9.1,0-16.5-7.4-16.5-16.5v-53.1c0-9.1,7.4-16.5,16.5-16.5h53
		c9.1,0,16.5,7.4,16.5,16.5v53.1C589.7,396.4,582.3,403.7,573.2,403.8z"/>
	<path id="Trazado_1726" class="st0" d="M695.1,403.8h-53c-9.1,0-16.5-7.4-16.5-16.5v-53.1c0-9.1,7.4-16.5,16.5-16.5h53
		c9.1,0,16.5,7.4,16.5,16.5v53.1C711.6,396.4,704.2,403.7,695.1,403.8z"/>
	<path id="Trazado_1727" class="st0" d="M451.3,539.3h-53c-9.1,0-16.5-7.4-16.5-16.5v-53c0-9.1,7.4-16.5,16.5-16.5h53
		c9.1,0,16.5,7.4,16.5,16.5v53.1C467.8,531.9,460.4,539.3,451.3,539.3z"/>
	<path id="Trazado_1728" class="st0" d="M573.2,539.3h-53c-9.1,0-16.5-7.4-16.5-16.5v-53c0-9.1,7.4-16.5,16.5-16.5h53
		c9.1,0,16.5,7.4,16.5,16.5v53.1C589.7,531.9,582.3,539.3,573.2,539.3L573.2,539.3z"/>
	<path id="Trazado_1729" class="st0" d="M695.1,539.3h-53c-9.1,0-16.5-7.4-16.5-16.5v-53c0-9.1,7.4-16.5,16.5-16.5h53
		c9.1,0,16.5,7.4,16.5,16.5v53.1C711.6,531.9,704.2,539.3,695.1,539.3z"/>
	<path id="Trazado_1730" class="st0" d="M451.3,674.8h-53c-9.1,0-16.5-7.4-16.5-16.5v-53c0-9.1,7.4-16.5,16.5-16.5h53
		c9.1,0,16.5,7.4,16.5,16.5v53C467.8,667.5,460.4,674.8,451.3,674.8L451.3,674.8z"/>
	<path id="Trazado_1731" class="st0" d="M573.2,674.8h-53c-9.1,0-16.5-7.4-16.5-16.5v-53c0-9.1,7.4-16.5,16.5-16.5h53
		c9.1,0,16.5,7.4,16.5,16.5v53C589.7,667.5,582.3,674.8,573.2,674.8z"/>
	<path id="Trazado_1732" class="st0" d="M695.1,674.8h-53c-9.1,0-16.5-7.4-16.5-16.5v-53c0-9.1,7.4-16.5,16.5-16.5h53
		c9.1,0,16.5,7.4,16.5,16.5v53C711.6,667.5,704.2,674.8,695.1,674.8L695.1,674.8z"/>
	<path id="Trazado_1733" class="st3" d="M607.3,659.1h-53c-9.5,0-17.3-7.7-17.3-17.2c0,0,0,0,0,0v-53.1c0-9.5,7.7-17.2,17.2-17.2h53
		c9.5,0,17.2,7.7,17.2,17.2v53.1C624.5,651.4,616.8,659.1,607.3,659.1z"/>
	<path id="Trazado_1734" class="st4" d="M356.3,796c7.6-3.8,10.7-13,6.9-20.5c-0.4-0.8-0.9-1.6-1.4-2.3l11.5-112h-24.8l-9.1,109.4
		c-6.5,5.5-7.3,15.2-1.8,21.7C342.2,797.8,349.9,799.3,356.3,796L356.3,796z"/>
	<circle id="Elipse_260" class="st4" cx="379.1" cy="564.3" r="35"/>
	<path id="Trazado_1735" class="st5" d="M385.6,726.4c-2.9,0-5.4-1.9-6.2-4.7c-2.8-10.2-10.1-27.4-21.7-51.2
		c-10.2-21.1-1.5-46.5,19.6-56.7c1.5-0.7,2.9-1.3,4.5-1.9l0,0c22.1-7.8,46.3,3.8,54.1,25.9c0,0,0,0,0,0c0.1,0.4,0.3,0.8,0.4,1.1
		c8.9,28.2,8.6,58.4,7.9,70c-0.1,2.9-2.2,5.3-5,6L387,726.3C386.6,726.4,386.1,726.4,385.6,726.4L385.6,726.4z"/>
	<path id="Trazado_1736" class="st4" d="M436.3,1059h17.4l8.3-67.4h-25.8L436.3,1059z"/>
	<path id="Trazado_1737" class="st6" d="M487.5,1075.3h-55V1054h33.7C478,1054,487.5,1063.5,487.5,1075.3
		C487.5,1075.3,487.5,1075.3,487.5,1075.3z"/>
	<path id="Trazado_1738" class="st4" d="M261.4,1036.4l15.3,8.4l39.8-55l-22.6-12.4L261.4,1036.4z"/>
	<path id="Trazado_1739" class="st6" d="M298.5,1075.3l-48.2-26.5l10.2-18.6l29.5,16.3C300.4,1052.1,304.1,1065,298.5,1075.3
		C298.5,1075.3,298.5,1075.3,298.5,1075.3L298.5,1075.3z"/>
	<path id="Trazado_1740" class="st6" d="M435.5,1021.6c-3.2,0-5.9-2.4-6.4-5.6l-21.9-168.5c-0.3-2-2-3.3-4-3.1
		c-1.1,0.1-2.1,0.8-2.7,1.8l-91.2,165.3c-1.5,2.8-4.9,4.1-7.9,3l-19.9-7.6c-3.3-1.3-5-5-3.7-8.3c0,0,0,0,0,0c0,0,0-0.1,0-0.1
		l63.2-155.1c0.2-0.4,0.3-0.8,0.3-1.2c8.6-66.2,30.3-99.8,36.8-108.6c0.9-1.3,1.2-2.9,0.7-4.5l-0.9-2.7c-0.7-2.2-0.3-4.5,1.2-6.2
		c23.3-26.5,63.9-12,64.3-11.9h0.2l0.1,0.2c45.5,62.5,28.7,265.2,24.9,305.2c-0.3,3.1-2.8,5.6-6,5.8l-26.9,2.1L435.5,1021.6z"/>
	<path id="Trazado_1741" class="st4" d="M515.2,605c-0.2,0.8-0.3,1.5-0.3,2.3l-61.3,35.3l-14.9-8.6l-15.9,20.8l24.9,17.8
		c4.1,2.9,9.7,2.8,13.7-0.3l63.2-49.8c7.8,2.9,16.4-1.1,19.2-8.8c2.9-7.8-1.1-16.4-8.8-19.2c-7.7-2.9-16.4,1.1-19.2,8.8
		C515.6,603.8,515.4,604.4,515.2,605L515.2,605z"/>
	<path id="Trazado_1742" class="st5" d="M451.6,644.4L431.8,670c-2.2,2.8-6.1,3.3-8.9,1.2c-0.2-0.2-0.5-0.4-0.7-0.6l-22.4-23.3
		c-7.4-6.5-8.2-17.8-1.7-25.2c6-6.8,16.1-8.1,23.6-3l28.1,15.7c3.1,1.7,4.2,5.6,2.5,8.7c0,0,0,0,0,0
		C452,643.9,451.8,644.1,451.6,644.4L451.6,644.4z"/>
	<path id="Trazado_1743" class="st5" d="M374.9,689l-31.9-5.8c-3.5-0.6-5.8-4-5.2-7.4c0.1-0.3,0.1-0.6,0.2-0.9l10.3-30.6
		c2.3-9.6,11.9-15.5,21.5-13.2c8.8,2.1,14.7,10.5,13.6,19.5v0.1l-1.1,32.1c-0.1,3.5-3.1,6.3-6.6,6.2c0,0,0,0,0,0
		C375.5,689,375.1,689,374.9,689L374.9,689z"/>
	<path id="Trazado_1744" class="st6" d="M384.6,556.3c9,6.2,20.8,12.5,30,6c5.9-4.5,8.2-12.4,5.5-19.3
		c-4.5-12.6-16.5-18.1-28.1-22.3c-15-5.5-31.4-9.9-46.9-6c-15.5,4-29.2,19-26.4,34.8c2.2,12.7,14.2,23.3,12.5,36
		c-1.7,12.8-16.2,19.6-28.9,21.9c-12.8,2.3-27,3-36.2,12.2c-11.7,11.7-8.8,32.6,2.2,44.9s27.6,17.9,43.7,21.7
		c21.3,5,44.4,7.7,64.7-0.7c20.2-8.4,36-30.9,30.2-52c-2.5-8.9-8.3-16.5-14-23.8c-5.6-7.3-11.4-15-13.5-24
		c-1.8-7.5-0.5-16.2,4.5-21.8c1.9-2,2.2-5,0.8-7.4L384.6,556.3z"/>
	<path id="Trazado_1745" class="st4" d="M740.8,1061.4h-18.2l-8.6-70.1h26.8L740.8,1061.4z"/>
	<path id="Trazado_1746" class="st6" d="M709.6,1056.2h35v22h-57C687.6,1066.1,697.4,1056.2,709.6,1056.2z"/>
	<path id="Trazado_1747" class="st4" d="M808.9,1061.4h-18.2l-8.6-70.1h26.8L808.9,1061.4z"/>
	<path id="Trazado_1748" class="st6" d="M777.8,1056.2h35v22h-57.1C755.7,1066,765.6,1056.2,777.8,1056.2z"/>
	<path id="Trazado_1749" class="st4" d="M806.7,852.7c-7.4-4.7-9.5-14.6-4.8-22c0,0,0,0,0,0c0.5-0.8,1.1-1.5,1.7-2.2l-11.9-169.7
		l34.4,3.3l1,166.2c6,6.4,5.7,16.6-0.7,22.6C821,856,812.9,856.7,806.7,852.7L806.7,852.7z"/>
	<path id="Trazado_1750" class="st6" d="M739.9,1026.1l-20-1c-3.5-0.2-6.3-3.1-6.3-6.6l-1.4-202.3c0-3.7,2.9-6.7,6.6-6.7h0
		c0.3,0,0.7,0,1,0l80,11.6c3.3,0.5,5.7,3.2,5.7,6.5l10.3,187.4c0,3.7-2.9,6.7-6.6,6.7h-21.6c-3.3,0-6.1-2.4-6.6-5.6l-13.4-84.5
		c-0.5-2.8-3.2-4.7-6-4.2c-2.2,0.4-4,2.2-4.3,4.4l-10.6,88.3c-0.4,3.3-3.3,5.8-6.6,5.9H739.9z"/>
	<path id="Trazado_1751" class="st7" d="M754,827.7c-17.6-9.8-31.4-12.4-38.1-13c-3.6-0.3-6.3-3.6-6-7.2c0-0.1,0-0.2,0-0.3
		L729.2,665c2.2-16.9,13.1-31.5,28.7-38.4c15.1-6.9,32.7-5.6,46.5,3.6c0.7,0.4,1.3,0.9,1.9,1.3c16,11.7,23.4,31.9,18.7,51.2
		c-11.8,48.1-15.8,126.9-16.5,142.2c-0.1,2.7-1.8,5-4.3,6c-7.2,2.6-14.9,4-22.6,4C772,834.9,762.4,832.5,754,827.7z"/>
	<path id="Trazado_1752" class="st7" d="M799.5,715.8c-1.6-1.2-2.6-3-2.8-5l-2.5-45.7c-0.6-10.1,7.1-18.8,17.3-19.4
		c8.7-0.5,16.6,5.2,18.8,13.6l11.1,40.9c1,3.6-1.1,7.2-4.7,8.2c0,0,0,0,0,0l-31.5,8.6C803.2,717.4,801.1,717,799.5,715.8z"/>
	<circle id="Elipse_261" class="st4" cx="770" cy="570.7" r="36.4"/>
	<path id="Trazado_1753" class="st4" d="M638.2,642.2c0.2,0.8,0.3,1.6,0.4,2.4l63.6,36.7l15.5-8.9l16.5,21.6L701,717.6l-72.6-57.3
		c-8.1,3-17-1.1-20-9.2c-3-8.1,1.1-17,9.2-20c8-3,17,1.1,20,9.2C637.8,640.9,638,641.5,638.2,642.2L638.2,642.2z"/>
	<path id="Trazado_1754" class="st7" d="M704.4,678.2c-0.2-2,0.5-4,1.9-5.4l32.4-32.4c7.1-7.2,18.8-7.3,26-0.1
		c6.2,6.2,7.2,15.8,2.4,23.1L744.1,699c-2,3.1-6.1,4-9.2,2l-27.4-17.9C705.7,682,704.7,680.2,704.4,678.2L704.4,678.2z"/>
	<path id="Trazado_1755" class="st6" d="M795.7,599.5c-6.8,7.2-19.3,3.3-20.3-6.5c-0.1-0.8-0.1-1.5,0-2.3c0.5-4.4,3-8.3,2.4-13
		c-0.1-1.2-0.6-2.2-1.2-3.2c-5.4-7.2-18.1,3.2-23.2-3.3c-3.1-4,0.6-10.4-1.8-14.9c-3.2-6-12.6-3-18.4-6.2
		c-6.5-3.6-6.2-13.7-1.9-19.8c5.3-7.4,14.5-11.4,23.6-12s18.1,1.9,26.7,5.2c9.7,3.8,19.2,8.9,25.2,17.5c7.2,10.4,7.9,24.2,4.3,36.3
		C808.8,584.6,801.3,593.6,795.7,599.5z"/>
	<path id="Trazado_1756" class="st5" d="M1091.9,1080H1.5c-0.8,0-1.5-0.7-1.5-1.5c0-0.8,0.7-1.5,1.5-1.5h1090.4
		c0.8,0,1.5,0.7,1.5,1.5C1093.4,1079.3,1092.7,1080,1091.9,1080z"/>
</g>
</svg>
