<?xml version="1.0" encoding="utf-8"?>
<!-- Generator: Adobe Illustrator 24.1.2, SVG Export Plug-In . SVG Version: 6.00 Build 0)  -->
<svg version="1.1" id="Capa_1" xmlns="http://www.w3.org/2000/svg" xmlns:xlink="http://www.w3.org/1999/xlink" x="0px" y="0px"
	 viewBox="0 0 1031 776.1" style="enable-background:new 0 0 1031 776.1;" xml:space="preserve">
<style type="text/css">
	.st0{fill:#E6E6E6;}
	.st1{fill:#FFFFFF;}
	.st2{fill:#B8D3CE;}
	.st3{fill:#8CB4F4;}
	.st4{fill:#FFB8B8;}
	.st5{fill:#CCCCCC;}
	.st6{fill:#2F2E41;}
	.st7{fill:#3F3D56;}
</style>
<g id="Grupo_708">
	<path id="Trazado_1719" class="st0" d="M700.1,193.1H696V81.6c0-35.6-28.8-64.5-64.5-64.5H395.4c-35.6,0-64.5,28.9-64.5,64.5l0,0
		v611.5c0,35.6,28.9,64.5,64.5,64.5l0,0h236.1c35.6,0,64.5-28.8,64.5-64.5l0,0l0,0V272.5h4.1L700.1,193.1z"/>
	<path id="Trazado_1720" class="st1" d="M682.3,82.1v610.6c0,26.6-21.6,48.1-48.1,48.1l0,0H396.9c-26.6,0-48.1-21.6-48.1-48.1l0,0
		V82.1c0-26.6,21.6-48.1,48.1-48.2h28.8c-4.7,11.7,0.9,25.1,12.6,29.9c2.7,1.1,5.6,1.6,8.6,1.7h135.3c12.6,0,22.9-10.3,22.9-22.9
		c0-3-0.5-5.8-1.7-8.6h30.8C660.8,33.9,682.3,55.5,682.3,82.1z"/>
	<path id="Trazado_1721" class="st2" d="M450,201.4h-36.4c-6.3,0-11.3-5.1-11.3-11.3v-36.4c0-6.3,5.1-11.3,11.3-11.3H450
		c6.3,0,11.3,5.1,11.3,11.3V190C461.3,196.3,456.2,201.4,450,201.4z"/>
	<path id="Trazado_1722" class="st2" d="M533.7,201.4h-36.4c-6.3,0-11.3-5.1-11.3-11.3v-36.4c0-6.3,5.1-11.3,11.3-11.3h36.4
		c6.3,0,11.3,5.1,11.3,11.3V190C545,196.3,540,201.4,533.7,201.4L533.7,201.4z"/>
	<path id="Trazado_1723" class="st0" d="M617.4,201.4H581c-6.3,0-11.3-5.1-11.3-11.3v-36.4c0-6.3,5.1-11.3,11.3-11.3l0,0h36.4
		c6.3,0,11.3,5.1,11.3,11.3V190C628.8,196.3,623.7,201.4,617.4,201.4z"/>
	<path id="Trazado_1724" class="st0" d="M450,294.5h-36.4c-6.3,0-11.3-5.1-11.3-11.3v-36.5c0-6.3,5.1-11.3,11.3-11.3H450
		c6.3,0,11.3,5.1,11.3,11.3v36.5C461.3,289.4,456.2,294.4,450,294.5z"/>
	<path id="Trazado_1725" class="st0" d="M533.7,294.5h-36.4c-6.3,0-11.3-5.1-11.3-11.3v-36.5c0-6.3,5.1-11.3,11.3-11.3h36.4
		c6.3,0,11.3,5.1,11.3,11.3v36.5C545,289.4,540,294.4,533.7,294.5z"/>
	<path id="Trazado_1726" class="st0" d="M617.4,294.5H581c-6.3,0-11.3-5.1-11.3-11.3v-36.5c0-6.3,5.1-11.3,11.3-11.3h36.4
		c6.3,0,11.3,5.1,11.3,11.3v36.5C628.8,289.4,623.7,294.4,617.4,294.5z"/>
	<path id="Trazado_1727" class="st0" d="M450,387.6h-36.4c-6.3,0-11.3-5.1-11.3-11.3v-36.4c0-6.3,5.1-11.3,11.3-11.3H450
		c6.3,0,11.3,5.1,11.3,11.3v36.5C461.3,382.5,456.2,387.6,450,387.6z"/>
	<path id="Trazado_1728" class="st0" d="M533.7,387.6h-36.4c-6.3,0-11.3-5.1-11.3-11.3v-36.4c0-6.3,5.1-11.3,11.3-11.3h36.4
		c6.3,0,11.3,5.1,11.3,11.3v36.5C545,382.5,540,387.6,533.7,387.6L533.7,387.6z"/>
	<path id="Trazado_1729" class="st0" d="M617.4,387.6H581c-6.3,0-11.3-5.1-11.3-11.3v-36.4c0-6.3,5.1-11.3,11.3-11.3h36.4
		c6.3,0,11.3,5.1,11.3,11.3v36.5C628.8,382.5,623.7,387.6,617.4,387.6z"/>
	<path id="Trazado_1730" class="st0" d="M450,480.6h-36.4c-6.3,0-11.3-5.1-11.3-11.3v-36.4c0-6.3,5.1-11.3,11.3-11.3H450
		c6.3,0,11.3,5.1,11.3,11.3v36.4C461.3,475.6,456.2,480.6,450,480.6L450,480.6z"/>
	<path id="Trazado_1731" class="st0" d="M533.7,480.6h-36.4c-6.3,0-11.3-5.1-11.3-11.3v-36.4c0-6.3,5.1-11.3,11.3-11.3h36.4
		c6.3,0,11.3,5.1,11.3,11.3v36.4C545,475.6,540,480.6,533.7,480.6z"/>
	<path id="Trazado_1732" class="st0" d="M617.4,480.6H581c-6.3,0-11.3-5.1-11.3-11.3v-36.4c0-6.3,5.1-11.3,11.3-11.3h36.4
		c6.3,0,11.3,5.1,11.3,11.3v36.4C628.8,475.6,623.7,480.6,617.4,480.6L617.4,480.6z"/>
	<path id="Trazado_1733" class="st3" d="M557.1,469.9h-36.4c-6.5,0-11.9-5.3-11.9-11.8l0,0v-36.5c0-6.5,5.3-11.8,11.8-11.8h36.4
		c6.5,0,11.8,5.3,11.8,11.8V458C568.9,464.6,563.6,469.9,557.1,469.9z"/>
	<path id="Trazado_1734" class="st4" d="M384.7,563.9c5.2-2.6,7.3-8.9,4.7-14.1c-0.3-0.5-0.6-1.1-1-1.6l7.9-76.9h-17l-6.3,75.1
		c-4.5,3.8-5,10.4-1.2,14.9C375,565.1,380.3,566.1,384.7,563.9L384.7,563.9z"/>
	<circle id="Elipse_260" class="st4" cx="400.4" cy="404.7" r="24"/>
	<path id="Trazado_1735" class="st5" d="M404.8,516.1c-2,0-3.7-1.3-4.3-3.2c-1.9-7-6.9-18.8-14.9-35.2c-7-14.5-1-31.9,13.5-38.9
		c1-0.5,2-0.9,3.1-1.3l0,0c15.2-5.4,31.8,2.6,37.2,17.8l0,0c0.1,0.3,0.2,0.5,0.3,0.8c6.1,19.4,5.9,40.1,5.4,48.1
		c-0.1,2-1.5,3.6-3.4,4.1l-35.9,7.8C405.5,516.1,405.2,516.1,404.8,516.1L404.8,516.1z"/>
	<path id="Trazado_1736" class="st4" d="M439.7,744.5h12l5.7-46.3h-17.7L439.7,744.5z"/>
	<path id="Trazado_1737" class="st6" d="M474.8,755.7h-37.8v-14.6h23.1C468.3,741.1,474.8,747.6,474.8,755.7L474.8,755.7z"/>
	<path id="Trazado_1738" class="st4" d="M319.5,729l10.5,5.8l27.3-37.8l-15.5-8.5L319.5,729z"/>
	<path id="Trazado_1739" class="st6" d="M345,755.7l-33.1-18.2l7-12.8l20.3,11.2C346.3,739.8,348.9,748.6,345,755.7L345,755.7
		L345,755.7z"/>
	<path id="Trazado_1740" class="st6" d="M439.1,718.8c-2.2,0-4.1-1.6-4.4-3.8l-15-115.7c-0.2-1.4-1.4-2.3-2.7-2.1
		c-0.8,0.1-1.4,0.5-1.9,1.2l-62.6,113.5c-1,1.9-3.4,2.8-5.4,2.1l-13.7-5.2c-2.3-0.9-3.4-3.4-2.5-5.7l0,0V703l43.4-106.5
		c0.1-0.3,0.2-0.5,0.2-0.8c5.9-45.5,20.8-68.5,25.3-74.6c0.6-0.9,0.8-2,0.5-3.1l-0.6-1.9c-0.5-1.5-0.2-3.1,0.8-4.3
		c16-18.2,43.9-8.2,44.2-8.2h0.1l0.1,0.1c31.3,42.9,19.7,182.2,17.1,209.6c-0.2,2.1-1.9,3.8-4.1,4l-18.5,1.4H439.1z"/>
	<path id="Trazado_1741" class="st4" d="M493.9,432.7c-0.1,0.5-0.2,1-0.2,1.6l-42.1,24.2l-10.2-5.9l-10.9,14.3l17.1,12.2
		c2.8,2,6.7,1.9,9.4-0.2l43.4-34.2c5.4,2,11.3-0.8,13.2-6c2-5.4-0.8-11.3-6-13.2c-5.3-2-11.3,0.8-13.2,6
		C494.1,431.9,494,432.3,493.9,432.7L493.9,432.7z"/>
	<path id="Trazado_1742" class="st5" d="M450.2,459.8l-13.6,17.6c-1.5,1.9-4.2,2.3-6.1,0.8c-0.1-0.1-0.3-0.3-0.5-0.4l-15.4-16
		c-5.1-4.5-5.6-12.2-1.2-17.3c4.1-4.7,11.1-5.6,16.2-2.1l19.3,10.8c2.1,1.2,2.9,3.8,1.7,6l0,0C450.5,459.4,450.3,459.6,450.2,459.8
		L450.2,459.8z"/>
	<path id="Trazado_1743" class="st5" d="M397.5,490.4l-21.9-4c-2.4-0.4-4-2.7-3.6-5.1c0.1-0.2,0.1-0.4,0.1-0.6l7.1-21
		c1.6-6.6,8.2-10.6,14.8-9.1c6,1.4,10.1,7.2,9.3,13.4v0.1l-0.8,22c-0.1,2.4-2.1,4.3-4.5,4.3l0,0
		C397.9,490.4,397.6,490.4,397.5,490.4L397.5,490.4z"/>
	<path id="Trazado_1744" class="st6" d="M404.2,399.2c6.2,4.3,14.3,8.6,20.6,4.1c4.1-3.1,5.6-8.5,3.8-13.3
		c-3.1-8.7-11.3-12.4-19.3-15.3c-10.3-3.8-21.6-6.8-32.2-4.1c-10.6,2.7-20.1,13.1-18.1,23.9c1.5,8.7,9.8,16,8.6,24.7
		c-1.2,8.8-11.1,13.5-19.8,15c-8.8,1.6-18.5,2.1-24.9,8.4c-8,8-6,22.4,1.5,30.8s19,12.3,30,14.9c14.6,3.4,30.5,5.3,44.4-0.5
		c13.9-5.8,24.7-21.2,20.7-35.7c-1.7-6.1-5.7-11.3-9.6-16.3c-3.8-5-7.8-10.3-9.3-16.5c-1.2-5.2-0.3-11.1,3.1-15
		c1.3-1.4,1.5-3.4,0.5-5.1L404.2,399.2z"/>
	<path id="Trazado_1745" class="st4" d="M648.8,746.2h-12.5l-5.9-48.1h18.4V746.2z"/>
	<path id="Trazado_1746" class="st6" d="M627.4,742.6h24v15.1h-39.2C612.3,749.4,619,742.6,627.4,742.6z"/>
	<path id="Trazado_1747" class="st4" d="M695.6,746.2h-12.5l-5.9-48.1h18.4V746.2z"/>
	<path id="Trazado_1748" class="st6" d="M674.2,742.6h24v15.1h-39.2C659.1,749.3,665.9,742.6,674.2,742.6z"/>
	<path id="Trazado_1749" class="st4" d="M694.1,602.8c-5.1-3.2-6.5-10-3.3-15.1l0,0c0.3-0.5,0.8-1,1.2-1.5l-8.2-116.6l23.6,2.3
		l0.7,114.2c4.1,4.4,3.9,11.4-0.5,15.5C703.9,605.1,698.3,605.6,694.1,602.8L694.1,602.8z"/>
	<path id="Trazado_1750" class="st6" d="M648.2,721.9l-13.7-0.7c-2.4-0.1-4.3-2.1-4.3-4.5l-1-138.9c0-2.5,2-4.6,4.5-4.6l0,0
		c0.2,0,0.5,0,0.7,0l54.9,8c2.3,0.3,3.9,2.2,3.9,4.5l7.1,128.7c0,2.5-2,4.6-4.5,4.6H681c-2.3,0-4.2-1.6-4.5-3.8l-9.2-58
		c-0.3-1.9-2.2-3.2-4.1-2.9c-1.5,0.3-2.7,1.5-3,3l-7.3,60.6c-0.3,2.3-2.3,4-4.5,4.1L648.2,721.9L648.2,721.9z"/>
	<path id="Trazado_1751" class="st7" d="M657.9,585.7c-12.1-6.7-21.6-8.5-26.2-8.9c-2.5-0.2-4.3-2.5-4.1-4.9c0-0.1,0-0.1,0-0.2
		l13.3-97.7c1.5-11.6,9-21.6,19.7-26.4c10.4-4.7,22.5-3.8,31.9,2.5c0.5,0.3,0.9,0.6,1.3,0.9c11,8,16.1,21.9,12.8,35.2
		c-8.1,33-10.9,87.2-11.3,97.7c-0.1,1.9-1.2,3.4-3,4.1c-4.9,1.8-10.2,2.7-15.5,2.7C670.2,590.6,663.7,589,657.9,585.7z"/>
	<path id="Trazado_1752" class="st7" d="M689.1,508.8c-1.1-0.8-1.8-2.1-1.9-3.4l-1.7-31.4c-0.4-6.9,4.9-12.9,11.9-13.3
		c6-0.3,11.4,3.6,12.9,9.3l7.6,28.1c0.7,2.5-0.8,4.9-3.2,5.6l0,0l-21.6,5.9C691.7,509.9,690.2,509.6,689.1,508.8z"/>
	<circle id="Elipse_261" class="st4" cx="668.9" cy="409.1" r="25"/>
	<path id="Trazado_1753" class="st4" d="M578.3,458.2c0.1,0.5,0.2,1.1,0.3,1.6l43.7,25.2L633,479l11.3,14.8L621.5,510l-49.9-39.4
		c-5.6,2.1-11.7-0.8-13.7-6.3c-2.1-5.6,0.8-11.7,6.3-13.7c5.5-2.1,11.7,0.8,13.7,6.3C578.1,457.4,578.2,457.8,578.3,458.2
		L578.3,458.2z"/>
	<path id="Trazado_1754" class="st7" d="M623.8,483c-0.1-1.4,0.3-2.7,1.3-3.7l22.3-22.3c4.9-4.9,12.9-5,17.9-0.1
		c4.3,4.3,4.9,10.9,1.6,15.9l-15.8,24.5c-1.4,2.1-4.2,2.7-6.3,1.4l-18.8-12.3C624.7,485.6,624,484.3,623.8,483L623.8,483z"/>
	<path id="Trazado_1755" class="st6" d="M686.5,428.9c-4.7,4.9-13.3,2.3-13.9-4.5c-0.1-0.5-0.1-1,0-1.6c0.3-3,2.1-5.7,1.6-8.9
		c-0.1-0.8-0.4-1.5-0.8-2.2c-3.7-4.9-12.4,2.2-15.9-2.3c-2.1-2.7,0.4-7.1-1.2-10.2c-2.2-4.1-8.7-2.1-12.6-4.3
		c-4.5-2.5-4.3-9.4-1.3-13.6c3.6-5.1,10-7.8,16.2-8.2c6.3-0.4,12.4,1.3,18.3,3.6c6.7,2.6,13.2,6.1,17.3,12c4.9,7.1,5.4,16.6,3,24.9
		C695.5,418.7,690.4,424.9,686.5,428.9z"/>
	<path id="Trazado_1756" class="st5" d="M890,758.9H141c-0.5,0-1-0.5-1-1s0.5-1,1-1H890c0.5,0,1,0.5,1,1S890.5,758.9,890,758.9z"/>
</g>
</svg>
