<svg id="Capa_1" data-name="Capa 1" xmlns="http://www.w3.org/2000/svg" viewBox="0 0 110 91"><defs><style>.cls-1{fill:#dfdfdf;}</style></defs><g id="Grupo_1212" data-name="Grupo 1212"><rect id="Rectángulo_114" data-name="Rectángulo 114" class="cls-1" width="110" height="91" rx="11"/><path id="Trazado_1991" data-name="Trazado 1991" d="M82.38,35.7H78.17V30.09a5.62,5.62,0,0,0-5.61-5.61H29.06a5.61,5.61,0,0,0-5.61,5.61V53.94a5.61,5.61,0,0,0,5.61,5.61H45.59l-.84,4.21H41.69a1.41,1.41,0,0,0,0,2.81H59.93a1.41,1.41,0,0,0,0-2.81H56.87L56,59.55h9.51v2.81a4.22,4.22,0,0,0,4.21,4.21H82.38a4.23,4.23,0,0,0,4.21-4.21V39.91A4.22,4.22,0,0,0,82.38,35.7ZM47.61,63.76l.84-4.21h4.71L54,63.76Zm17.93-7H29.06a2.8,2.8,0,0,1-2.8-2.81h0v-1.4H65.54Zm0-16.84v9.82H26.26V30.09a2.8,2.8,0,0,1,2.8-2.81h43.5a2.8,2.8,0,0,1,2.8,2.81h0V35.7H69.75a4.22,4.22,0,0,0-4.21,4.21ZM83.78,62.36a1.41,1.41,0,0,1-1.4,1.4H69.75a1.41,1.41,0,0,1-1.4-1.4v-2.1H83.78Zm0-4.91H68.35V44.82H83.78Zm0-15.44H68.35v-2.1a1.41,1.41,0,0,1,1.4-1.4H82.38a1.42,1.42,0,0,1,1.4,1.4Z"/></g></svg>