<svg id="Capa_1" data-name="Capa 1" xmlns="http://www.w3.org/2000/svg" viewBox="0 0 110 91"><defs><style>.cls-1{fill:#dfdfdf;}</style></defs><g id="Grupo_1215" data-name="Grupo 1215"><rect id="Rectángulo_117" data-name="Rectángulo 117" class="cls-1" width="110" height="91" rx="11"/><path id="Trazado_1996" data-name="Trazado 1996" d="M63.73,15.45h-33a4.85,4.85,0,0,0-4.85,4.85v1h-1a1,1,0,1,0,0,1.94h1V29h-1a1,1,0,1,0,0,1.95h1V36.8h-1a1,1,0,1,0,0,1.94h1v5.82h-1a1,1,0,1,0,0,1.94h1v5.82h-1a1,1,0,1,0,0,1.94h1v5.83h-1a1,1,0,1,0,0,1.94h1v5.82h-1a1,1,0,1,0,0,1.94h1v1a4.85,4.85,0,0,0,4.85,4.85h33a4.85,4.85,0,0,0,4.85-4.85h0V20.3a4.85,4.85,0,0,0-4.85-4.85Zm2.91,55.31a2.91,2.91,0,0,1-2.91,2.91h-33a2.91,2.91,0,0,1-2.91-2.91v-1h1a1,1,0,0,0,0-1.94h-1V62h1a1,1,0,0,0,0-2h-1V54.26h1a1,1,0,1,0,0-1.94h-1V46.5h1a1,1,0,0,0,0-1.94h-1V38.74h1a1,1,0,1,0,0-1.94h-1V31h1a1,1,0,0,0,0-1.94h-1V23.21h1a1,1,0,0,0,0-1.94h-1v-1a2.91,2.91,0,0,1,2.91-2.91h33a2.91,2.91,0,0,1,2.91,2.91Zm16.5-49.49h-1v-1a4.85,4.85,0,0,0-9.7-.28,1.31,1.31,0,0,0,0,.28V64.94a1,1,0,0,0,.15.54l3.73,5.59v3.57a1,1,0,0,0,1.94,0h0V71.07L82,65.48a1,1,0,0,0,.16-.54V23.21h1a1,1,0,0,1,1,1h0v9.7a1,1,0,1,0,1.94,0v-9.7a2.92,2.92,0,0,0-2.91-2.91ZM80.22,64.65,77.31,69,74.4,64.65v-3a7.53,7.53,0,0,1,5.82,0Zm0-5a9.63,9.63,0,0,0-5.82,0V50.05a7.53,7.53,0,0,1,5.82,0Zm0-11.64a9.63,9.63,0,0,0-5.82,0V27.1h5.82Zm0-22.84H74.4V20.3a2.91,2.91,0,1,1,5.82,0h0ZM59.85,21.27H34.62a1,1,0,0,0-1,1h0V30a1,1,0,0,0,1,1H59.85a1,1,0,0,0,1-1h0V22.24a1,1,0,0,0-1-1Zm-1,7.76H35.59V23.21H58.88ZM56,34.86H38.5a1,1,0,0,0,0,1.94H56a1,1,0,0,0,0-1.94Z"/></g></svg>