<svg id="Capa_1" data-name="Capa 1" xmlns="http://www.w3.org/2000/svg" viewBox="0 0 110 91"><defs><style>.cls-1{fill:#dfdfdf;}</style></defs><g id="Grupo_1216" data-name="Grupo 1216"><rect id="Rectángulo_121" data-name="Rectángulo 121" class="cls-1" width="110" height="91" rx="11"/><path id="Trazado_1990" data-name="Trazado 1990" d="M84,58.06H80.12V46.47a1.83,1.83,0,0,0-1.71-1.94H56.93V36.8h7.73a1.81,1.81,0,0,0,1.93-1.71.81.81,0,0,0,0-.22V19.41a1.82,1.82,0,0,0-1.71-1.93H45.34a1.83,1.83,0,0,0-1.93,1.72.74.74,0,0,0,0,.21V34.87a1.82,1.82,0,0,0,1.71,1.93.81.81,0,0,0,.22,0h7.73v7.73H31.81a1.83,1.83,0,0,0-1.93,1.72V58.06H26a1.83,1.83,0,0,0-1.94,1.71V71.58a1.83,1.83,0,0,0,1.72,1.93H37.61a1.82,1.82,0,0,0,1.93-1.71.81.81,0,0,0,0-.22V60a1.82,1.82,0,0,0-1.71-1.93H33.74V48.4H53.07v9.66H49.2a1.83,1.83,0,0,0-1.93,1.71V71.58A1.82,1.82,0,0,0,49,73.51H60.8a1.82,1.82,0,0,0,1.93-1.71V60A1.83,1.83,0,0,0,61,58.06H56.93V48.4H76.25v9.66H72.39a1.82,1.82,0,0,0-1.93,1.71.81.81,0,0,0,0,.22V71.58a1.82,1.82,0,0,0,1.71,1.93H84a1.83,1.83,0,0,0,1.94-1.71V60a1.83,1.83,0,0,0-1.72-1.93A.81.81,0,0,0,84,58.06ZM47.27,21.35H62.73V32.94H47.27ZM35.68,69.65H28V61.92h7.73Zm23.18,0H51.14V61.92h7.72Zm23.19,0H74.32V61.92h7.73Z"/></g></svg>