<svg id="Capa_1" data-name="Capa 1" xmlns="http://www.w3.org/2000/svg" viewBox="0 0 110 91"><defs><style>.cls-1{fill:#dfdfdf;}.cls-2{fill:#4f5266;}</style></defs><g id="Grupo_1217" data-name="Grupo 1217"><rect id="Rectángulo_119" data-name="Rectángulo 119" class="cls-1" width="110" height="91" rx="11"/><g id="Grupo_810" data-name="Grupo 810"><path id="Trazado_1987" data-name="Trazado 1987" class="cls-2" d="M38.52,60A14.43,14.43,0,1,1,53,45.53,14.43,14.43,0,0,1,38.52,60Zm0-26.79A12.37,12.37,0,1,0,50.89,45.52,12.37,12.37,0,0,0,38.52,33.16Z"/><circle id="Elipse_290" data-name="Elipse 290" class="cls-2" cx="33.37" cy="41.4" r="2.06"/><circle id="Elipse_291" data-name="Elipse 291" class="cls-2" cx="43.68" cy="41.4" r="2.06"/><path id="Trazado_1988" data-name="Trazado 1988" class="cls-2" d="M71.49,60A14.43,14.43,0,1,1,85.92,45.52h0A14.34,14.34,0,0,1,71.67,60Zm0-26.79A12.37,12.37,0,1,0,83.86,45.52,12.37,12.37,0,0,0,71.49,33.16Z"/><circle id="Elipse_292" data-name="Elipse 292" class="cls-2" cx="66.34" cy="41.4" r="2.06"/><circle id="Elipse_293" data-name="Elipse 293" class="cls-2" cx="76.64" cy="41.4" r="2.06"/><path id="Trazado_1989" data-name="Trazado 1989" class="cls-2" d="M77.26,51.71a1.58,1.58,0,0,1-.82-.42,6.85,6.85,0,0,0-5-2.47,6.13,6.13,0,0,0-4.94,2.47,1,1,0,1,1-1.65-1.23h0A8.37,8.37,0,0,1,71.49,47a9.08,9.08,0,0,1,6.6,3.09,1,1,0,0,1-.19,1.42l0,0A.78.78,0,0,1,77.26,51.71ZM38.52,53.77a9.11,9.11,0,0,1-6.59-3.09,1,1,0,1,1,1.65-1.24h0a6.59,6.59,0,0,0,4.94,2.27,6.19,6.19,0,0,0,4.95-2.48,1.28,1.28,0,0,1,1.44-.2,1,1,0,0,1,.22,1.42l0,0A8.63,8.63,0,0,1,38.52,53.77Z"/></g></g></svg>