<svg id="Capa_1" data-name="Capa 1" xmlns="http://www.w3.org/2000/svg" viewBox="0 0 110 91"><defs><style>.cls-1{fill:#dfdfdf;}.cls-2{fill-rule:evenodd;}</style></defs><g id="Grupo_1218" data-name="Grupo 1218"><rect id="Rectángulo_120" data-name="Rectángulo 120" class="cls-1" width="110" height="91" rx="11"/><g id="Grupo_809" data-name="Grupo 809"><path id="Trazado_1985" data-name="Trazado 1985" d="M39.49,32.58A2.58,2.58,0,0,1,42.08,30H67.94a2.59,2.59,0,1,1,0,5.17H42.08A2.59,2.59,0,0,1,39.49,32.58Zm2.59,7.76a2.59,2.59,0,1,0,0,5.17H67.94a2.59,2.59,0,1,0,0-5.17ZM39.49,53.27a2.59,2.59,0,0,1,2.59-2.59H67.94a2.59,2.59,0,0,1,0,5.18H42.08a2.59,2.59,0,0,1-2.59-2.59ZM42.08,61a2.59,2.59,0,1,0,0,5.17H67.94a2.59,2.59,0,1,0,0-5.17Z"/><path id="Trazado_1986" data-name="Trazado 1986" class="cls-2" d="M67.94,17.07a2.59,2.59,0,0,0-2.59-2.59H44.67a2.59,2.59,0,0,0-2.59,2.59H36.91a7.75,7.75,0,0,0-7.76,7.75h0v44a7.75,7.75,0,0,0,7.76,7.75h36.2a7.76,7.76,0,0,0,7.76-7.75v-44a7.76,7.76,0,0,0-7.76-7.75ZM44.67,24.82a2.58,2.58,0,0,1-2.59-2.58H36.91a2.59,2.59,0,0,0-2.59,2.58v44a2.58,2.58,0,0,0,2.59,2.58h36.2a2.57,2.57,0,0,0,2.58-2.58v-44a2.58,2.58,0,0,0-2.58-2.58H67.94a2.58,2.58,0,0,1-2.59,2.58H44.67Z"/></g></g></svg>