<svg id="Capa_1" data-name="Capa 1" xmlns="http://www.w3.org/2000/svg" viewBox="0 0 804 456.1"><defs><style>.cls-1{fill:#fff;}.cls-2{fill:#e4e4e4;}.cls-3{fill:#ebf3fa;}.cls-4{fill:#cacaca;}.cls-5{fill:#b8d3ce;}.cls-6{fill:#2f2e41;}.cls-7{fill:#ffb6b6;}.cls-8{fill:#ffb8b8;}.cls-9{fill:#f0f0f0;}</style></defs><g id="Grupo_616" data-name="Grupo 616"><rect id="Rectángulo_296" data-name="Rectángulo 296" class="cls-1" x="338.4" y="0.93" width="464.69" height="301.91"/><path id="Trazado_1470" data-name="Trazado 1470" class="cls-2" d="M804,303.74H337.5V0H804Zm-464.7-1.8H802.19V1.84H339.3Z"/><path id="Trazado_1471" data-name="Trazado 1471" d="M541.54,30.46c13.65.23,13.65,20.54,0,20.77C527.89,51,527.89,30.69,541.54,30.46Z"/><path id="Trazado_1472" data-name="Trazado 1472" class="cls-3" d="M570.74,30.46c13.65.23,13.65,20.54,0,20.77C557.1,51,557.1,30.69,570.74,30.46Z"/><path id="Trazado_1473" data-name="Trazado 1473" class="cls-4" d="M600,30.46c13.65.23,13.64,20.54,0,20.77C586.3,51,586.3,30.69,600,30.46Z"/><rect id="Rectángulo_297" data-name="Rectángulo 297" class="cls-4" x="418.66" y="109.97" width="92.94" height="1.13"/><path id="Trazado_1474" data-name="Trazado 1474" class="cls-4" d="M723.39,273.31H595.53V153.9H723.39Zm-126.74-1.13H722.26V155H596.65Z"/><rect id="Rectángulo_298" data-name="Rectángulo 298" class="cls-4" x="658.89" y="126.93" width="1.13" height="173.31" transform="translate(53.42 550.07) rotate(-46.99)"/><rect id="Rectángulo_299" data-name="Rectángulo 299" class="cls-4" x="572.79" y="213.07" width="173.31" height="1.13" transform="translate(31.53 507.29) rotate(-43.01)"/><path id="Trazado_1475" data-name="Trazado 1475" class="cls-4" d="M723.39,94.19H418.1V73.35H723.39ZM419.23,93.07h303V74.48h-303Z"/><path id="Trazado_1476" data-name="Trazado 1476" class="cls-4" d="M531,186.31H419V165.47H531Zm-110.89-1.12H529.89V166.6H420.13Z"/><path id="Trazado_1477" data-name="Trazado 1477" class="cls-4" d="M531,221.54H419V200.7H531Zm-110.89-1.13H529.89V201.82H420.13Z"/><path id="Trazado_1478" data-name="Trazado 1478" class="cls-4" d="M531,256.76H419V235.92H531Zm-110.89-1.13H529.89V237.05H420.13Z"/><path id="Trazado_1479" data-name="Trazado 1479" class="cls-5" d="M448.34,135.79h-30c2.32-9.33,2-19.43,0-30h30A37.3,37.3,0,0,0,448.34,135.79Z"/><rect id="Rectángulo_300" data-name="Rectángulo 300" class="cls-1" x="422.85" y="112.12" width="18.21" height="3.64"/><rect id="Rectángulo_301" data-name="Rectángulo 301" class="cls-1" x="422.85" y="119.4" width="18.21" height="3.64"/><rect id="Rectángulo_302" data-name="Rectángulo 302" class="cls-1" x="422.85" y="126.69" width="18.21" height="3.64"/><path id="Trazado_1480" data-name="Trazado 1480" class="cls-5" d="M674.58,181.16h-30c2.32-9.33,2-19.43,0-30h30A37.38,37.38,0,0,0,674.58,181.16Z"/><rect id="Rectángulo_303" data-name="Rectángulo 303" class="cls-1" x="649.09" y="157.49" width="18.21" height="3.64"/><rect id="Rectángulo_304" data-name="Rectángulo 304" class="cls-1" x="649.09" y="164.77" width="18.21" height="3.64"/><rect id="Rectángulo_305" data-name="Rectángulo 305" class="cls-1" x="649.09" y="172.06" width="18.21" height="3.64"/><path id="Trazado_1481" data-name="Trazado 1481" class="cls-5" d="M713.21,116.78h-30c2.32-9.33,2-19.43,0-30h30a37.3,37.3,0,0,0,0,30Z"/><rect id="Rectángulo_306" data-name="Rectángulo 306" class="cls-1" x="687.72" y="93.11" width="18.21" height="3.64"/><rect id="Rectángulo_307" data-name="Rectángulo 307" class="cls-1" x="687.72" y="100.39" width="18.21" height="3.64"/><rect id="Rectángulo_308" data-name="Rectángulo 308" class="cls-1" x="687.72" y="107.68" width="18.21" height="3.64"/><path id="Trazado_1482" data-name="Trazado 1482" class="cls-6" d="M186.59,138.61H135.11V111.07a25.74,25.74,0,0,1,51.48,0Z"/><path id="Trazado_1483" data-name="Trazado 1483" class="cls-7" d="M209.57,445.09h11.07l5.27-42.71H209.56Z"/><path id="Trazado_1484" data-name="Trazado 1484" class="cls-6" d="M206.74,441.48h21.81a13.9,13.9,0,0,1,13.9,13.9h0v.45h-35.7Z"/><path id="Trazado_1485" data-name="Trazado 1485" class="cls-7" d="M77.21,430.32l9.64,5.44,25.58-34.6-14.23-8Z"/><path id="Trazado_1486" data-name="Trazado 1486" class="cls-6" d="M76.52,425.78l19,10.72h0a13.9,13.9,0,0,1,5.27,18.93l-.22.4L69.47,438.27Z"/><path id="Trazado_1487" data-name="Trazado 1487" class="cls-6" d="M148,253l-.85,4.27s-2.57,2.56-1.29,3.85.86,7.26.86,7.26c-.72,10.91-15,72.19-17.52,84.16,0,0-19.65,12.82-35,38S78.33,422.2,78.33,422.2l17.09,7.26,42.72-51.69s12-7.27,16.24-13.67,30.76-72.63,30.76-72.63l15,69.21s-.85,25.2,3,41.44a173.41,173.41,0,0,1,4.28,31.19l20.08-2.14S226.15,370.5,224,364.1c0,0,9-73.92-9-103.39l-14.47-38.56-14.16-5.45Z"/><path id="Trazado_1488" data-name="Trazado 1488" class="cls-8" d="M160.58,92.06c27,.46,26.95,40.56,0,41C133.63,132.62,133.63,92.52,160.58,92.06Z"/><path id="Trazado_1489" data-name="Trazado 1489" class="cls-6" d="M181.33,111.51h-4.58l-1.25-3.12.62,3.12H151.06l.82-6.53-6.09,6.53h-6.08V108a20.81,20.81,0,0,1,41.62-.29v3.83Z"/><path id="Trazado_1490" data-name="Trazado 1490" class="cls-2" d="M188.38,145.05l-50.95.41,10.77,109.2s59.57-3.14,59.61-21.33l-5.58-16.15Z"/><path id="Path_138" data-name="Path 138" class="cls-1" d="M283.18,335.6,105.6,372.38c-1.81.37-3.91-2.34-4.68-6.05L82.26,276.2c-.77-3.72.08-7,1.9-7.41L261.73,232c1.82-.37,3.91,2.33,4.69,6l18.66,90.13C285.84,331.91,285,335.22,283.18,335.6Z"/><g id="Group_38" data-name="Group 38"><circle id="Ellipse_7" data-name="Ellipse 7" class="cls-9" cx="148.65" cy="292.65" r="15.86"/><path id="Path_63" data-name="Path 63" class="cls-2" d="M207.26,330.42l-76.18,15.77-.29,0,23.11-69.87a2.58,2.58,0,0,1,4.39-.91l32.85,36.87,1.57,1.76Z"/><path id="Path_65" data-name="Path 65" class="cls-2" d="M249.67,321.63l-65.89,13.65,8.93-21.19.64-1.53L205,285a3.45,3.45,0,0,1,4.62-1.52,3.37,3.37,0,0,1,.32.19,1.81,1.81,0,0,1,.3.25Z"/></g><path id="Path_138-2" data-name="Path 138-2" class="cls-4" d="M283.18,335.6,105.6,372.38c-1.81.37-3.91-2.34-4.68-6.05L82.26,276.2c-.77-3.72.08-7,1.9-7.41L261.73,232c1.82-.37,3.91,2.33,4.69,6l18.66,90.13C285.84,331.91,285,335.22,283.18,335.6ZM84.71,271.48c-1.09.23-1.6,2.22-1.13,4.45l18.66,90.13c.46,2.22,1.72,3.85,2.81,3.63l177.58-36.78c1.09-.22,1.6-2.21,1.14-4.44L265.1,238.34c-.46-2.23-1.72-3.86-2.81-3.63Z"/><path id="Trazado_1491" data-name="Trazado 1491" class="cls-7" d="M230.64,252.18a8.47,8.47,0,0,1-4.06-11.27,8.33,8.33,0,0,1,.75-1.29L217,223.25l8.42-8.7,14.24,23.33a8.52,8.52,0,0,1-9,14.3Z"/><path id="Trazado_1492" data-name="Trazado 1492" class="cls-2" d="M180.55,149.35l7.39-4.87s5.7,1.28,11.77,13,30.53,63.83,30.53,63.83l-10.06,10.21-26.82-40.93Z"/><path id="Trazado_1493" data-name="Trazado 1493" class="cls-7" d="M135.26,265.23a8.48,8.48,0,0,0-1.21-11.92,9.64,9.64,0,0,0-1.24-.84L135,233.24l-11.35-4.19-2.75,27.19a8.52,8.52,0,0,0,14.33,9Z"/><path id="Trazado_1494" data-name="Trazado 1494" class="cls-2" d="M144.14,154.87l-6.7-9.37s-4.59-1-10,5.3-8.58,85.35-8.58,85.35l19.87,4.52,11.74-56Z"/><path id="Trazado_1495" data-name="Trazado 1495" class="cls-4" d="M345,456.07H.9a.9.9,0,0,1,0-1.8H345a.9.9,0,1,1,0,1.8Z"/><path id="Trazado_1496" data-name="Trazado 1496" class="cls-5" d="M123.6,292.65l-29.39,6.24c.33-9.61-2-19.43-6.24-29.39l29.39-6.24A37.3,37.3,0,0,0,123.6,292.65Z"/><rect id="Rectángulo_309" data-name="Rectángulo 309" class="cls-1" x="93.92" y="272.86" width="18.21" height="3.64" transform="translate(-54.8 27.39) rotate(-11.99)"/><rect id="Rectángulo_310" data-name="Rectángulo 310" class="cls-1" x="95.43" y="279.98" width="18.21" height="3.64" transform="translate(-56.25 27.86) rotate(-11.99)"/><rect id="Rectángulo_311" data-name="Rectángulo 311" class="cls-1" x="96.95" y="287.11" width="18.21" height="3.64" transform="translate(-57.69 28.33) rotate(-11.99)"/></g></svg>