<?xml version="1.0" encoding="utf-8"?>
<!-- Generator: Adobe Illustrator 24.1.2, SVG Export Plug-In . SVG Version: 6.00 Build 0)  -->
<svg version="1.1" id="Capa_1" xmlns="http://www.w3.org/2000/svg" xmlns:xlink="http://www.w3.org/1999/xlink" x="0px" y="0px"
	 viewBox="0 0 1031.1 776.1" style="enable-background:new 0 0 1031.1 776.1;" xml:space="preserve">
<style type="text/css">
	.st0{fill:#FFFFFF;}
	.st1{fill:#E4E4E4;}
	.st2{fill:#EBF3FA;}
	.st3{fill:#CACACA;}
	.st4{fill:#B8D3CE;}
	.st5{fill:#2F2E41;}
	.st6{fill:#FFB6B6;}
	.st7{fill:#FFB8B8;}
	.st8{fill:#F0F0F0;}
</style>
<g id="Grupo_616">
	<rect id="Rectángulo_296" x="436.5" y="105.7" class="st0" width="577.7" height="375.3"/>
	<path id="Trazado_1470" class="st1" d="M1015.3,482.2h-580V104.6h580V482.2z M437.6,479.9h575.5V106.8H437.6V479.9z"/>
	<path id="Trazado_1471" d="M689,142.4c17,0.3,17,25.5,0,25.8C672.1,168,672.1,142.7,689,142.4z"/>
	<path id="Trazado_1472" class="st2" d="M725.3,142.4c17,0.3,17,25.5,0,25.8C708.4,168,708.4,142.7,725.3,142.4z"/>
	<path id="Trazado_1473" class="st3" d="M761.7,142.4c17,0.3,17,25.5,0,25.8C744.7,168,744.7,142.7,761.7,142.4z"/>
	<rect id="Rectángulo_297" x="536.3" y="241.3" class="st3" width="115.5" height="1.4"/>
	<path id="Trazado_1474" class="st3" d="M915.1,444.3h-159V295.9h159V444.3z M757.5,442.9h156.2V297.3H757.5V442.9z"/>
	
		<rect id="Rectángulo_298" x="834.9" y="262.3" transform="matrix(0.6821 -0.7312 0.7312 0.6821 -4.9693 728.6412)" class="st3" width="1.4" height="215.5"/>
	
		<rect id="Rectángulo_299" x="727.9" y="369.5" transform="matrix(0.7312 -0.6821 0.6821 0.7312 -27.9377 669.5079)" class="st3" width="215.5" height="1.4"/>
	<path id="Trazado_1475" class="st3" d="M915.1,221.6H535.6v-25.9h379.5V221.6z M537,220.3h376.7v-23.1H537L537,220.3z"/>
	<path id="Trazado_1476" class="st3" d="M675.9,336.2H536.7v-25.9h139.2V336.2z M538.1,334.8h136.5v-23.1H538.1L538.1,334.8z"/>
	<path id="Trazado_1477" class="st3" d="M675.9,380H536.7v-25.9h139.2V380z M538.1,378.6h136.5v-23.1H538.1L538.1,378.6z"/>
	<path id="Trazado_1478" class="st3" d="M675.9,423.8H536.7v-25.9h139.2V423.8z M538.1,422.4h136.5v-23.1H538.1L538.1,422.4z"/>
	<path id="Trazado_1479" class="st4" d="M573.2,273.4h-37.3c2.9-11.6,2.5-24.2,0-37.3h37.3C567.9,248,567.9,261.5,573.2,273.4z"/>
	<rect id="Rectángulo_300" x="541.5" y="243.9" class="st0" width="22.6" height="4.5"/>
	<rect id="Rectángulo_301" x="541.5" y="253" class="st0" width="22.6" height="4.5"/>
	<rect id="Rectángulo_302" x="541.5" y="262.1" class="st0" width="22.6" height="4.5"/>
	<path id="Trazado_1480" class="st4" d="M854.4,329.8h-37.3c2.9-11.6,2.5-24.2,0-37.3h37.3C849.2,304.4,849.2,317.9,854.4,329.8z"/>
	<rect id="Rectángulo_303" x="822.7" y="300.3" class="st0" width="22.6" height="4.5"/>
	<rect id="Rectángulo_304" x="822.7" y="309.4" class="st0" width="22.6" height="4.5"/>
	<rect id="Rectángulo_305" x="822.7" y="318.5" class="st0" width="22.6" height="4.5"/>
	<path id="Trazado_1481" class="st4" d="M902.5,249.7h-37.3c2.9-11.6,2.5-24.2,0-37.3h37.3C897.2,224.3,897.2,237.9,902.5,249.7z"/>
	<rect id="Rectángulo_306" x="870.8" y="220.3" class="st0" width="22.6" height="4.5"/>
	<rect id="Rectángulo_307" x="870.8" y="229.4" class="st0" width="22.6" height="4.5"/>
	<rect id="Rectángulo_308" x="870.8" y="238.4" class="st0" width="22.6" height="4.5"/>
	<path id="Trazado_1482" class="st5" d="M247.7,276.9h-64v-34.2c0-17.7,14.3-32,32-32c17.7,0,32,14.3,32,32V276.9z"/>
	<path id="Trazado_1483" class="st6" d="M276.3,657.9h13.8l6.6-53.1h-20.3L276.3,657.9z"/>
	<path id="Trazado_1484" class="st5" d="M272.8,653.4h27.1c9.5,0,17.3,7.7,17.3,17.3l0,0v0.6h-44.4L272.8,653.4z"/>
	<path id="Trazado_1485" class="st6" d="M111.8,639.5l12,6.8l31.8-43l-17.7-9.9L111.8,639.5z"/>
	<path id="Trazado_1486" class="st5" d="M110.9,633.9l23.6,13.3l0,0c8.3,4.7,11.2,15.2,6.6,23.5l-0.3,0.5l-38.7-21.8L110.9,633.9z"
		/>
	<path id="Trazado_1487" class="st5" d="M199.8,419.1l-1.1,5.3c0,0-3.2,3.2-1.6,4.8c1.6,1.6,1.1,9,1.1,9
		c-0.9,13.6-18.6,89.7-21.8,104.6c0,0-24.4,15.9-43.5,47.2c-19.1,31.3-19.7,39.4-19.7,39.4l21.2,9l53.1-64.3c0,0,14.9-9,20.2-17
		c5.3-8,38.2-90.3,38.2-90.3l18.6,86c0,0-1.1,31.3,3.7,51.5c2.9,12.7,4.7,25.7,5.3,38.8l25-2.7c0,0-1.7-75.4-4.4-83.4
		c0,0,11.2-91.9-11.2-128.5l-18-47.9l-17.6-6.8L199.8,419.1z"/>
	<path id="Trazado_1488" class="st7" d="M215.4,219c33.6,0.6,33.5,50.4,0,51C181.9,269.4,181.9,219.6,215.4,219z"/>
	<path id="Trazado_1489" class="st5" d="M241.2,243.2h-5.7l-1.6-3.9l0.8,3.9h-31.2l1-8.1l-7.6,8.1h-7.6v-4.4
		c-0.1-14.3,11.4-26,25.7-26.1c14.3-0.1,26,11.4,26.1,25.7V243.2L241.2,243.2z"/>
	<path id="Trazado_1490" class="st1" d="M250,284.9l-63.3,0.5L200,421.2c0,0,74.1-3.9,74.1-26.5l-6.9-20.1L250,284.9z"/>
	<path id="Path_138" class="st0" d="M367.8,521.8l-220.8,45.7c-2.3,0.5-4.9-2.9-5.8-7.5L118,447.9c-1-4.6,0.1-8.7,2.4-9.2L341.2,393
		c2.3-0.5,4.9,2.9,5.8,7.5l23.2,112.1C371.1,517.2,370.1,521.3,367.8,521.8z"/>
	<g id="Group_38">
		<circle id="Ellipse_7" class="st8" cx="200.6" cy="468.4" r="19.7"/>
		<path id="Path_63" class="st1" d="M273.4,515.3l-94.7,19.6h-0.4l28.7-86.9c0.5-1.7,2.4-2.6,4-2.1c0.5,0.2,1,0.5,1.4,0.9l40.8,45.8
			l2,2.2L273.4,515.3z"/>
		<path id="Path_65" class="st1" d="M326.2,504.4l-81.9,17l11.1-26.3l0.8-1.9l14.5-34.3c1.1-2.1,3.6-2.9,5.7-1.9
			c0.1,0.1,0.3,0.2,0.4,0.2c0.1,0.1,0.3,0.2,0.4,0.3L326.2,504.4z"/>
	</g>
	<path id="Path_138-2" class="st3" d="M367.8,521.8l-220.8,45.7c-2.3,0.5-4.9-2.9-5.8-7.5L118,447.9c-1-4.6,0.1-8.7,2.4-9.2
		L341.2,393c2.3-0.5,4.9,2.9,5.8,7.5l23.2,112.1C371.1,517.2,370.1,521.3,367.8,521.8z M121.1,442.1c-1.4,0.3-2,2.8-1.4,5.5
		l23.2,112.1c0.6,2.8,2.1,4.8,3.5,4.5l220.8-45.7c1.4-0.3,2-2.7,1.4-5.5l-23.2-112.1c-0.6-2.8-2.1-4.8-3.5-4.5L121.1,442.1z"/>
	<path id="Trazado_1491" class="st6" d="M302.5,418.1c-5.3-2.5-7.5-8.7-5-14c0,0,0,0,0,0c0.3-0.6,0.6-1.1,0.9-1.6l-12.8-20.4
		l10.5-10.8l17.7,29c4.5,3.7,5.1,10.4,1.4,14.9C312.1,418.9,306.9,420.1,302.5,418.1L302.5,418.1z"/>
	<path id="Trazado_1492" class="st1" d="M240.2,290.2l9.2-6.1c0,0,7.1,1.6,14.6,16.2c7.5,14.6,38,79.4,38,79.4l-12.5,12.7
		l-33.3-50.9L240.2,290.2z"/>
	<path id="Trazado_1493" class="st6" d="M183.9,434.3c3.7-4.5,3-11.1-1.5-14.8c-0.5-0.4-1-0.7-1.5-1l2.7-23.9l-14.1-5.2l-3.4,33.8
		c-2.5,5.3-0.3,11.6,5,14.1C175.5,439.3,180.8,438.1,183.9,434.3L183.9,434.3z"/>
	<path id="Trazado_1494" class="st1" d="M195,297.1l-8.3-11.6c0,0-5.7-1.2-12.4,6.6s-10.7,106.1-10.7,106.1l24.7,5.6l14.6-69.6
		L195,297.1z"/>
	<path id="Trazado_1495" class="st3" d="M444.7,671.5H16.9c-0.6,0-1.1-0.5-1.1-1.1c0-0.6,0.5-1.1,1.1-1.1h427.8
		c0.6,0,1.1,0.5,1.1,1.1C445.8,671,445.3,671.5,444.7,671.5C444.7,671.5,444.7,671.5,444.7,671.5z"/>
	<path id="Trazado_1496" class="st4" d="M169.4,468.4l-36.5,7.8c0.4-11.9-2.5-24.2-7.8-36.5l36.5-7.8
		C159,444.6,161.8,457.8,169.4,468.4z"/>
	
		<rect id="Rectángulo_309" x="132.6" y="443.8" transform="matrix(0.9782 -0.2077 0.2077 0.9782 -89.5209 39.6187)" class="st0" width="22.6" height="4.5"/>
	
		<rect id="Rectángulo_310" x="134.4" y="452.6" transform="matrix(0.9782 -0.2077 0.2077 0.9782 -91.3192 40.2009)" class="st0" width="22.6" height="4.5"/>
	
		<rect id="Rectángulo_311" x="136.3" y="461.5" transform="matrix(0.9782 -0.2077 0.2077 0.9782 -93.1188 40.7889)" class="st0" width="22.6" height="4.5"/>
</g>
</svg>
